<?xml version="1.0" ?><svg id="Layer_1" style="enable-background:new 0 0 66 66;" version="1.1" viewBox="0 0 66 66" xml:space="preserve" xmlns="http://www.w3.org/2000/svg" xmlns:xlink="http://www.w3.org/1999/xlink"><g><path d="M50.95,48.62c-0.21,0.27-5.19,6.78-5.19,9.72c0,3.08,2.5,5.58,5.58,5.58s5.58-2.5,5.58-5.58c0-2.94-4.97-9.44-5.19-9.72   C51.56,48.37,51.14,48.37,50.95,48.62z M51.35,62.92c-2.53,0-4.58-2.06-4.58-4.58c0-1.98,3.01-6.46,4.58-8.58   c1.57,2.13,4.58,6.6,4.58,8.58C55.93,60.86,53.88,62.92,51.35,62.92z"/><path d="M57.95,39.32v-5.3c0-8.34-6.79-15.13-15.13-15.13h-3.87v-0.45c0-1.5-1.22-2.72-2.72-2.72h-4.19v-5.47   c0.1-0.09,0.2-0.19,0.3-0.29c0.57,0.13,1.11,0.3,1.61,0.5C36.49,11.5,38.17,12,39.08,12c2.74,0,4.96-2.23,4.96-4.96   s-2.22-4.96-4.96-4.96c-0.92,0-2.59,0.51-5.13,1.54c-0.5,0.21-1.05,0.37-1.61,0.5c-0.79-0.85-1.9-1.39-3.15-1.39   c-1.12,0-2.13,0.44-2.9,1.14c-0.24-0.08-0.48-0.16-0.72-0.25c-2.53-1.04-4.21-1.54-5.12-1.54c-2.74,0-4.96,2.23-4.96,4.96   S17.72,12,20.45,12c0.91,0,2.59-0.5,5.12-1.54c0.24-0.1,0.48-0.18,0.72-0.25c0.16,0.14,0.31,0.28,0.49,0.4v5.1H21.8   c-1.5,0-2.72,1.22-2.72,2.72v0.45h-6.25v-1.87c0-2.69-2.19-4.87-4.87-4.87H5.78c-0.28,0-0.5,0.22-0.5,0.5v25.89   c0,0.28,0.22,0.5,0.5,0.5h2.18c2.69,0,4.87-2.19,4.87-4.87v-1.87h6.25v0.45c0,1.5,1.22,2.72,2.72,2.72h14.44   c1.5,0,2.72-1.22,2.72-2.72v-0.45h2.63c1.99,0,3.62,1.62,3.62,3.62v3.41h-0.43c-1.54,0-2.79,1.25-2.79,2.79   c0,1.54,1.25,2.79,2.79,2.79h13.15c1.54,0,2.79-1.25,2.79-2.79C60.72,40.57,59.48,39.33,57.95,39.32z M34.33,4.55   c2.96-1.21,4.22-1.47,4.75-1.47c2.18,0,3.96,1.78,3.96,3.96S41.27,11,39.08,11c-0.53,0-1.78-0.25-4.75-1.47   c-0.43-0.18-0.9-0.32-1.37-0.45c0.33-0.61,0.54-1.3,0.54-2.04c0-0.74-0.21-1.43-0.54-2.04C33.44,4.87,33.9,4.73,34.33,4.55z    M32.5,7.04c0,1.82-1.48,3.31-3.31,3.31c-0.94,0-1.79-0.4-2.39-1.03c0,0,0,0,0,0c-0.56-0.59-0.92-1.39-0.92-2.27   c0-0.88,0.35-1.67,0.91-2.26c0,0,0,0,0.01-0.01c0.6-0.63,1.45-1.03,2.39-1.03C31.02,3.74,32.5,5.22,32.5,7.04z M25.19,9.53   C22.23,10.75,20.98,11,20.45,11c-2.18,0-3.96-1.78-3.96-3.96s1.78-3.96,3.96-3.96c0.53,0,1.78,0.25,4.74,1.47   c0.13,0.05,0.27,0.09,0.4,0.14c-0.44,0.68-0.71,1.48-0.71,2.35c0,0.87,0.26,1.68,0.71,2.35C25.46,9.44,25.32,9.48,25.19,9.53z    M27.78,11.09c0.44,0.16,0.91,0.26,1.41,0.26c0.67,0,1.29-0.16,1.85-0.44v4.8h-3.26V11.09z M11.83,34.15   c0,2.14-1.74,3.87-3.87,3.87H6.28V13.14h1.68c2.14,0,3.87,1.74,3.87,3.87V34.15z M12.83,31.28v-11.4h6.25v11.4H12.83z M37.96,32.73   c0,0.95-0.77,1.72-1.72,1.72H21.8c-0.95,0-1.72-0.77-1.72-1.72v-14.3c0-0.95,0.77-1.72,1.72-1.72h14.44c0.95,0,1.72,0.77,1.72,1.72   V32.73z M41.58,31.28h-2.63v-11.4h3.87c7.79,0,14.13,6.34,14.13,14.13v5.3H46.2V35.9C46.2,33.35,44.13,31.28,41.58,31.28z    M57.93,43.9H44.78c-0.99,0-1.79-0.8-1.79-1.79c0-0.99,0.8-1.79,1.79-1.79h13.15c0.99,0,1.79,0.8,1.79,1.79   C59.72,43.09,58.91,43.9,57.93,43.9z"/></g></svg>