<svg version="1.2" width="80mm" height="80mm" viewBox="0 0 8000 8000" preserveAspectRatio="xMidYMid" fill-rule="evenodd" stroke-width="28.222" stroke-linejoin="round" xmlns="http://www.w3.org/2000/svg" xml:space="preserve">
    <defs class="ClipPathGroup">
        <clipPath id="a" clipPathUnits="userSpaceOnUse">
            <path d="M0 0h8000v8000H0z"/>
        </clipPath>
    </defs>
    <g class="SlideGroup">
        <g class="Slide" clip-path="url(#a)">
            <g class="Page">
                <g fill="none" class="Graphic">
                    <path class="BoundingBox" d="M527 27h8001v8001H527z"/>
                    <path stroke="#000" stroke-width="480" stroke-linejoin="miter" stroke-linecap="round" d="M3567 2747c0-530 430-960 960-960h0c530 0 960 430 960 960v4288c0 106-86 192-192 192H3759c-106 0-192-86-192-192V2747ZM3567 3707h1920M4527 1787V827M4527 827h-320M4527 827h320"/>
                </g>
                <g class="com.sun.star.drawing.LineShape">
                    <path class="BoundingBox" fill="none" d="M270 990h1515v3408H270z"/>
                    <path fill="none" stroke="#000" stroke-width="811" d="M1027 3991v-75"/>
                    <path d="m271 4017 756-3026 757 3026H271Z"/>
                </g>
                <g fill="none" class="com.sun.star.drawing.LineShape">
                    <path class="BoundingBox" d="M3852 1217h1877v213H3852z"/>
                    <path stroke="#000" stroke-width="212" d="M3958 1323h1664"/>
                </g>
            </g>
        </g>
    </g>
</svg>
