<svg xmlns="http://www.w3.org/2000/svg" viewBox="0 0 1920 1920">
    <style>
        .st0{fill:#fff}.st1{fill:none;stroke:#231f20;stroke-width:50;stroke-linecap:round;stroke-linejoin:round;stroke-miterlimit:10}
    </style>
    <path class="st0" d="M902.3 901.5s28.8-3 57.7-25.4c28.8 22.5 57.7 25.4 57.7 25.4v357.3H902.3V901.5zm230.8-168c0-72-24.8-113.9-51.4-138.4-34.3-31.5-86.1-33.4-122.2-5.7 2.3 1.8 4.6 3.7 6.8 5.7 26.6 24.5 51.4 66.4 51.4 138.4 0 78.1-28.8 120.1-57.7 142.5 28.8 22.5 57.7 25.4 57.7 25.4 0 .1 115.4-11.7 115.4-167.9zM959.5 589.4c-2.9 2.2-5.8 4.7-8.5 7.3-25.6 24.9-48.7 66.8-48.7 136.8 0 78.1 28.8 120.1 57.7 142.5 28.8-22.5 57.7-64.5 57.7-142.5 0-72-24.8-113.9-51.4-138.4-2.2-2-4.5-3.9-6.8-5.7zm.5 286.7c-28.8-22.5-57.7-64.5-57.7-142.5 0-70 23.2-111.8 48.7-136.8 2.7-2.6 5.5-5.1 8.5-7.3-37-28.2-89.9-25.7-123.8 7.3-25.6 24.9-48.7 66.8-48.7 136.8 0 156.2 115.4 168 115.4 168-.1-.1 28.8-3 57.6-25.5zm57.7 25.4v357.3h165.2l162.2-500c16-43.9 24.8-91.3 24.8-140.7 0-226.4-183.5-409.9-409.9-409.9S550.1 391.8 550.1 618.1c0 49.5 8.8 96.9 24.8 140.7l162.2 500h165.2V901.5s-115.4-11.8-115.4-168c0-70 23.2-111.8 48.7-136.8 33.9-33 86.8-35.5 123.8-7.3 36.1-27.7 87.9-25.8 122.2 5.7 26.6 24.5 51.4 66.4 51.4 138.4.1 156.2-115.3 168-115.3 168z" id="Layer_5"/>
    <path class="st0" d="M1070.9 1562.4v73.2c0 37.1-30.3 67.4-67.4 67.4h-87c-37.1 0-67.4-30.3-67.4-67.4v-73.2h221.8zm-293.4-101.2v101.2h365v-101.2h-365zm0-101.1v101.2h365v-101.2h-365zm240.2-101.3H777.5V1360h365v-101.2h-124.8z" id="Layer_6"/>
    <g id="STROKES">
        <g id="XMLID_1_">
            <path class="st1" d="M1142.5 1258.8h40.4l162.2-500c16-43.9 24.8-91.3 24.8-140.7 0-226.4-183.5-409.9-409.9-409.9S550.1 391.8 550.1 618.1c0 49.5 8.8 96.9 24.8 140.7l162.2 500h40.4"/>
            <path class="st1" d="M777.5 1360.1v-101.3h365v101.3"/>
            <path class="st1" d="M777.5 1461.2v-101.1h365v101.1"/>
            <path class="st1" d="M849.1 1562.4h-71.6v-101.2h365v101.2h-71.6"/>
            <path class="st1" d="M902.3 901.5s28.8-3 57.7-25.4c28.8-22.5 57.7-64.5 57.7-142.5 0-72-24.8-113.9-51.4-138.4-2.2-2-4.5-3.9-6.8-5.7-37-28.2-89.9-25.7-123.8 7.3-25.6 24.9-48.7 66.8-48.7 136.8-.1 156.1 115.3 167.9 115.3 167.9v357.3"/>
            <path class="st1" d="M1017.7 901.5s115.4-11.8 115.4-168c0-72-24.8-113.9-51.4-138.4-34.3-31.5-86.1-33.4-122.2-5.7-2.9 2.2-5.8 4.7-8.5 7.3-25.6 24.9-48.7 66.8-48.7 136.8 0 78.1 28.8 120.1 57.7 142.5 28.8 22.6 57.7 25.5 57.7 25.5v357.3"/>
            <path class="st1" d="M1070.9 1562.4v73.2c0 37.1-30.3 67.4-67.4 67.4h-87c-37.1 0-67.4-30.3-67.4-67.4v-73.2h221.8z"/>
        </g>
    </g>
</svg>
