<?xml version="1.0" encoding="utf-8"?>
<!-- Generator: Adobe Illustrator 23.1.0, SVG Export Plug-In . SVG Version: 6.00 Build 0)  -->
<svg version="1.1" id="Capa_1" xmlns="http://www.w3.org/2000/svg" xmlns:xlink="http://www.w3.org/1999/xlink" x="0px" y="0px"
	 viewBox="0 0 247.1 247.1" enable-background="new 0 0 247.1 247.1" xml:space="preserve">
<path fill="none" stroke="#000000" stroke-width="6.0376" stroke-miterlimit="10" d="M123.9,130.6c3.7,0,6.9-1.3,9.6-4.1
	c2.7-2.7,4.1-5.9,4.1-9.6V48.6c0-3.7-1.4-6.9-4.1-9.6c-2.7-2.7-5.9-4.1-9.6-4.1c-3.7,0-6.9,1.4-9.6,4.1c-2.7,2.7-4.1,5.9-4.1,9.6
	v68.3c0,3.7,1.4,6.9,4.1,9.6C117,129.2,120.2,130.6,123.9,130.6z"/>
<path fill="none" stroke="#000000" stroke-width="6.0376" stroke-miterlimit="10" d="M197.3,93.9c-5.7-11.5-13.8-21.1-24.2-28.8
	c-3-2.3-6.4-3.2-10.1-2.7c-3.8,0.5-6.8,2.3-9,5.3c-2.3,3-3.1,6.4-2.6,10.1c0.5,3.7,2.3,6.7,5.3,9c7,5.3,12.4,11.7,16.2,19.3
	c3.8,7.6,5.7,15.7,5.7,24.3c0,7.4-1.4,14.5-4.3,21.2c-2.9,6.7-6.8,12.5-11.7,17.5c-4.9,4.9-10.7,8.8-17.5,11.7
	c-6.7,2.9-13.8,4.3-21.2,4.3c-7.4,0-14.5-1.4-21.2-4.3c-6.7-2.9-12.5-6.8-17.5-11.7c-4.9-4.9-8.8-10.7-11.7-17.5
	c-2.9-6.7-4.3-13.8-4.3-21.2c0-8.6,1.9-16.7,5.7-24.3c3.8-7.6,9.2-14.1,16.2-19.3c3-2.3,4.7-5.3,5.3-9c0.5-3.7-0.3-7.1-2.6-10.1
	c-2.2-3.1-5.2-4.8-8.9-5.3c-3.7-0.5-7.1,0.4-10.2,2.7c-10.4,7.8-18.5,17.4-24.2,28.8c-5.7,11.5-8.6,23.7-8.6,36.6
	c0,11.1,2.2,21.7,6.5,31.8c4.3,10.1,10.2,18.8,17.5,26.2c7.3,7.3,16,13.2,26.2,17.5c10.1,4.3,20.7,6.5,31.8,6.5
	c11.1,0,21.7-2.2,31.8-6.5c10.1-4.3,18.8-10.2,26.2-17.5c7.3-7.3,13.2-16,17.5-26.2c4.3-10.1,6.5-20.7,6.5-31.8
	C205.9,117.6,203,105.4,197.3,93.9z"/>
</svg>
