<?xml version='1.0' encoding='utf-8'?>
<!DOCTYPE svg PUBLIC '-//W3C//DTD SVG 1.1//EN' 'http://www.w3.org/Graphics/SVG/1.1/DTD/svg11.dtd'>
<!-- Uploaded to: SVG Repo, www.svgrepo.com, Generator: SVG Repo Mixer Tools -->
<svg fill="#000000" height="800px" width="800px" version="1.1" xmlns="http://www.w3.org/2000/svg" viewBox="0 0 512 512" xmlns:xlink="http://www.w3.org/1999/xlink" enable-background="new 0 0 512 512">
  <g>
    <g>
      <path d="m256,102.2c-84.8,0-153.8,69-153.8,153.8 0,84.8 69,153.8 153.8,153.8 84.8,0 153.8-69 153.8-153.8 0-84.8-69-153.8-153.8-153.8zm0,266.8c-62.3,0-113-50.7-113-113 0-62.3 50.7-113 113-113 62.3,0 113,50.7 113,113 0,62.3-50.7,113-113,113z"/>
      <path d="m59.8,235.6h-28.4c-11.3,0-20.4,9.1-20.4,20.4s9.1,20.4 20.4,20.4h28.4c11.3,0 20.4-9.1 20.4-20.4s-9.1-20.4-20.4-20.4z"/>
      <path d="m480.6,235.6h-28.4c-11.3,0-20.4,9.1-20.4,20.4s9.1,20.4 20.4,20.4h28.4c11.3,0 20.4-9.1 20.4-20.4s-9.1-20.4-20.4-20.4z"/>
      <path d="M256,80.2c11.3,0,20.4-9.1,20.4-20.4V31.4c0-11.3-9.1-20.4-20.4-20.4s-20.4,9.1-20.4,20.4v28.4    C235.6,71.1,244.7,80.2,256,80.2z"/>
      <path d="m256,431.8c-11.3,0-20.4,9.1-20.4,20.4v28.4c0,11.3 9.1,20.4 20.4,20.4s20.4-9.1 20.4-20.4v-28.4c0-11.3-9.1-20.4-20.4-20.4z"/>
      <path d="m102.8,131.7c8,8 20.9,8 28.8,0 8-8 8-20.9 0-28.8l-20.1-20.1c-8-8-20.9-8-28.8,0s-8,20.9 0,28.8l20.1,20.1z"/>
      <path d="m409.2,380.3c-8-8-20.9-8-28.8,0-8,8-8,20.9 0,28.8l20.1,20.1c8,8 20.9,8 28.8,0 8-8 8-20.9 0-28.8l-20.1-20.1z"/>
      <path d="m409.2,131.7l20.1-20.1c8-8 8-20.9 0-28.8-8-8-20.9-8-28.8,0l-20.1,20.1c-8,8-8,20.9 0,28.8 7.9,8 20.8,8 28.8-2.84217e-14z"/>
      <path d="m102.8,380.3l-20.1,20.1c-8,8-8,20.9 0,28.8 8,8 20.9,8 28.8,0l20.1-20.1c8-8 8-20.9 0-28.8-7.9-8-20.8-8-28.8,0z"/>
      <path d="m289.7,270.3c-36.9,21.6-65.3,2.2-66.9,1.1-9-6.6-21.7-4.7-28.4,4.3-6.7,9-4.9,21.8 4.1,28.5 1.4,1 23.5,17.1 56.2,17.1 16.3,0 35.2-4 55.5-15.9 9.7-5.7 13-18.2 7.3-27.9-5.6-9.6-18.1-12.9-27.8-7.2z"/>
      <circle cx="212" cy="211.1" r="20.5"/>
      <circle cx="300" cy="211.1" r="20.5"/>
    </g>
  </g>
</svg>