<?xml version="1.0" encoding="UTF-8"?>
<svg width="500px" height="500px" viewBox="0 0 500 500" version="1.1" xmlns="http://www.w3.org/2000/svg" xmlns:xlink="http://www.w3.org/1999/xlink">
    <title>switch-on</title>
    <g id="switch-on" stroke="none" stroke-width="1" fill="none" fill-rule="evenodd">
        <path d="M56.75,250.5 C56.75,297.855735 95.1439989,336.25 142.502041,336.25 L357.497959,336.25 C404.860053,336.25 443.25,297.859834 443.25,250.5 C443.25,203.144265 404.856001,164.75 357.497959,164.75 L142.502041,164.75 C95.1399473,164.75 56.75,203.140166 56.75,250.5 Z M20,250.5 C20,182.845118 74.8420661,128 142.502041,128 L357.497959,128 C425.153968,128 480,182.849303 480,250.5 C480,318.154882 425.157934,373 357.497959,373 L142.502041,373 C74.8460321,373 20,318.150697 20,250.5 Z M366.375,311.75 C400.202441,311.75 427.625,284.327441 427.625,250.5 C427.625,216.672559 400.202441,189.25 366.375,189.25 C332.547559,189.25 305.125,216.672559 305.125,250.5 C305.125,284.327441 332.547559,311.75 366.375,311.75 Z" fill="#000000" fill-rule="nonzero"></path>
    </g>
</svg>