<?xml version="1.0" standalone="no"?>
<!DOCTYPE svg PUBLIC "-//W3C//DTD SVG 1.1//EN" "http://www.w3.org/Graphics/SVG/1.1/DTD/svg11.dtd">
<svg xmlns="http://www.w3.org/2000/svg">
<defs >
<font id="Blinker" horiz-adv-x="489" ><font-face
    font-family="Blinker Black"
    units-per-em="1000"
    panose-1="2 0 0 0 0 0 0 0 0 0"
    ascent="960"
    descent="-240"
    alphabetic="0" />
<glyph unicode=" " glyph-name="space" horiz-adv-x="124" />
<glyph unicode="!" glyph-name="exclam" horiz-adv-x="277" d="M14 627H263L236 233H41L14 627ZM250 189V0H26V189H250Z" />
<glyph unicode="&quot;" glyph-name="quotedbl" horiz-adv-x="339" d="M17 627H148V399H17V627ZM190 627H322V399H190V627Z" />
<glyph unicode="#" glyph-name="numbersign" horiz-adv-x="544" d="M532 493V353H452L444 284H497V144H421L397 0H252L275 144H216L193 0H47L71 144H13V284H93L103 353H48V493H128L151 627H296L274 493H331L355 627H500L478 493H532ZM297 284L307 353H249L238 284H297Z" />
<glyph unicode="$" glyph-name="dollar" horiz-adv-x="490" d="M250 219L165 239Q85 258 52 301T18 421Q18 517 58 568T186 632V714H296V636Q337 635 371 631T430 619V420Q380 429 344 432T267 436Q247 436 239 434T231 426Q231 423 235 421T250 416L326 396Q378
382 403 370T445 339Q462 318 470 288T478 211Q478 112 433 60T296 -5V-87H186V-9Q134 -7 89 -1T22 13V223Q58 211 115 204T227 196Q252 196 261 198T270 208Q270 212 267 214T250 219Z" />
<glyph unicode="%" glyph-name="percent" horiz-adv-x="708" d="M304 478Q304 394 270 357T158 320Q80 320 45 357T10 478Q10 561 45 598T158 636Q235 636 269 599T304 478ZM574 627L274 0H134L434 627H574ZM180 478Q180 507 176 518T158 530Q145 530 141 519T136
478Q136 453 141 443T158 432Q170 432 175 442T180 478ZM698 150Q698 66 664 29T552 -8Q474 -8 439 29T404 150Q404 233 439 270T552 308Q629 308 663 271T698 150ZM574 150Q574 179 570 190T552 202Q539 202 535 191T530 150Q530 125 535 115T552 104Q564 104
569 114T574 150Z" />
<glyph unicode="&amp;" glyph-name="ampersand" horiz-adv-x="654" d="M575 218V61Q552 33 476 11T322 -12Q162 -12 88 69T13 323Q13 475 86 556T298 637Q406 637 464 587T522 446Q522 433 520 421T514 395H649V218H575ZM318 423Q318 436 310 442T286 448Q262
448 252 434T240 380Q280 384 299 394T318 423ZM324 188Q337 188 348 189T368 194V267Q340 258 310 252T247 244Q255 214 272 201T324 188Z" />
<glyph unicode="&apos;" glyph-name="quotesingle" horiz-adv-x="180" d="M17 627H163V399H17V627Z" />
<glyph unicode="(" glyph-name="parenleft" horiz-adv-x="212" d="M147 313Q147 206 162 109T207 -48L105 -80Q60 0 37 100T13 313Q13 430 36 530T105 707L204 675Q176 617 162 523T147 313Z" />
<glyph unicode=")" glyph-name="parenright" horiz-adv-x="212" d="M65 313Q65 428 51 522T8 675L107 707Q152 631 175 531T199 313Q199 200 176 100T107 -80L5 -48Q34 12 49 109T65 313Z" />
<glyph unicode="*" glyph-name="asterisk" horiz-adv-x="362" d="M324 370L227 301L181 377L132 300L37 372L95 438L8 461L46 574L127 538L119 627H238L231 538L315 573L352 460L266 440L324 370Z" />
<glyph unicode="+" glyph-name="plus" horiz-adv-x="500" d="M463 406V238H337V110H163V238H37V406H163V532H337V406H463Z" />
<glyph unicode="," glyph-name="comma" horiz-adv-x="225" d="M220 195L185 -10Q180 -41 156 -60T98 -80H17V195H220Z" />
<glyph unicode="-" glyph-name="hyphen" horiz-adv-x="355" d="M337 401V237H18V401H337Z" />
<glyph unicode="." glyph-name="period" horiz-adv-x="244" d="M227 0H17V195H227V0Z" />
<glyph unicode="/" glyph-name="slash" horiz-adv-x="366" d="M360 707L134 -80H7L232 707H360Z" />
<glyph unicode="0" glyph-name="zero" horiz-adv-x="573" d="M506 74Q477 29 426 9T287 -12Q195 -12 143 7T63 70Q39 106 29 164T18 313Q18 490 76 563T287 637Q379 637 431 618T511 556Q534 520 544 462T555 313Q555 229 543 170T506 74ZM325 313Q325 391 319
411T287 432Q261 432 255 412T248 313Q248 239 255 220T287 200Q312 200 318 219T325 313Z" />
<glyph unicode="1" glyph-name="one" horiz-adv-x="376" d="M348 0H121V424L9 412V601L348 637V0Z" />
<glyph unicode="2" glyph-name="two" horiz-adv-x="472" d="M445 212V0H17V212L217 381Q227 390 231 397T236 414Q236 423 230 427T212 432Q174 432 129 428T44 415V612Q82 623 143 630T264 637Q353 637 403 593T454 471Q454 416 439 379T388 310L277 212H445Z" />
<glyph unicode="3" glyph-name="three" horiz-adv-x="462" d="M428 473Q428 412 406 378T337 331V329Q392 324 419 288T447 183Q447 90 386 39T215 -12Q156 -12 101 -6T21 10V200Q51 195 87 193T194 190Q216 190 225 194T235 211Q235 219 230 223T211 227H75V409H186Q203
409 209 412T216 425Q216 435 207 438T178 442Q150 442 104 438T28 428V611Q61 622 125 629T248 637Q337 637 382 596T428 473Z" />
<glyph unicode="4" glyph-name="four" horiz-adv-x="535" d="M524 315V117H474V0H247V117H17V315L83 627H293L239 315H265L300 517H474V315H524Z" />
<glyph unicode="5" glyph-name="five" horiz-adv-x="461" d="M446 203Q446 98 387 43T216 -12Q157 -12 101 -6T20 10V202Q51 197 82 195T178 192Q201 192 210 196T219 214Q219 227 208 231T171 236Q122 236 94 235T38 229V627H406V422H265V393Q273 394 286 395T310
396Q380 396 413 349T446 203Z" />
<glyph unicode="6" glyph-name="six" horiz-adv-x="516" d="M272 -12Q130 -12 74 57T17 297Q17 468 95 552T334 637Q371 637 404 634T452 626V438Q417 443 395 444T349 446Q295 446 275 434T245 391Q269 403 293 409T342 415Q424 415 462 367T501 218Q501 107
442 48T272 -12ZM296 215Q296 234 289 242T265 251Q259 251 252 250T237 246Q237 198 242 186T268 174Q282 174 289 184T296 215Z" />
<glyph unicode="7" glyph-name="seven" horiz-adv-x="459" d="M446 627V422L256 0H-1L203 422H23V627H446Z" />
<glyph unicode="8" glyph-name="eight" horiz-adv-x="515" d="M499 169Q499 74 442 31T258 -12Q124 -12 70 29T16 174Q16 231 39 269T108 326Q65 347 45 380T26 467Q26 557 80 597T258 637Q387 637 437 599T488 464Q488 411 469 379T408 326Q453 307 476 267T499
169ZM292 431Q292 447 284 455T258 463Q240 463 232 456T223 432Q223 416 231 409T258 401Q275 401 283 408T292 431ZM293 202Q293 218 285 226T258 234Q240 234 232 226T223 202Q223 186 231 178T258 170Q276 170 284 178T293 202Z" />
<glyph unicode="9" glyph-name="nine" horiz-adv-x="516" d="M244 638Q386 638 442 569T499 329Q499 158 421 74T182 -11Q145 -11 112 -8T64 0V188Q99 183 121 182T167 180Q221 180 241 192T270 235Q248 224 223 219T174 213Q92 213 54 260T15 408Q15 519 74 578T244
638ZM248 452Q234 452 227 441T220 409Q220 390 227 382T251 373Q256 373 263 374T279 380Q279 428 274 440T248 452Z" />
<glyph unicode=":" glyph-name="colon" horiz-adv-x="256" d="M233 299H23V494H233V299ZM233 0H23V195H233V0Z" />
<glyph unicode=";" glyph-name="semicolon" horiz-adv-x="251" d="M230 195L195 -10Q190 -41 166 -60T108 -80H27V195H230ZM232 299H22V494H232V299Z" />
<glyph unicode="&lt;" glyph-name="less" horiz-adv-x="500" d="M463 249V75L37 220V404L463 549V378L221 314L463 249Z" />
<glyph unicode="=" glyph-name="equal" horiz-adv-x="500" d="M463 547V379H37V547H463ZM463 501V333H37V501H463Z" />
<glyph unicode="&gt;" glyph-name="greater" horiz-adv-x="500" d="M463 220L37 75V249L279 314L37 378V549L463 404V220Z" />
<glyph unicode="?" glyph-name="question" horiz-adv-x="379" d="M199 637Q276 637 322 599T368 495Q368 440 346 403T265 325V234H66V362Q126 388 148 402T170 429Q170 437 165 441T148 446Q124 446 85 439T19 423V609Q59 625 99 631T199 637ZM278 189V0H53V189H278Z" />
<glyph unicode="@" glyph-name="at" horiz-adv-x="595" d="M268 85Q222 85 201 108T179 182Q179 235 203 255T291 275Q301 275 312 274T333 271V279Q333 287 325 290T296 293Q264 293 241 292T202 287V387Q230 392 262 394T331 397Q383 397 411 373T440 301V194Q440
189 441 187T445 184Q455 184 464 214T473 288Q473 363 433 403T317 444Q219 444 179 399T138 244Q138 139 187 90T349 41Q386 41 428 50T501 76V-36Q467 -56 421 -66T316 -76Q171 -76 92 6T12 245Q12 394 91 475T315 557Q447 557 518 491T589 302Q589 209 543
147T428 85Q405 85 389 95T366 124Q349 106 322 96T268 85ZM309 202Q295 202 291 200T286 189Q286 183 289 181T301 179Q309 179 317 181T333 186V201Q330 202 326 202T309 202Z" />
<glyph unicode="A" glyph-name="A" horiz-adv-x="642" d="M219 0H-10L206 627H442L649 0H422L405 64H235L219 0ZM291 285Q287 269 286 263T283 252L279 236H360L356 252Q355 257 353 264T346 291Q336 329 330 351T319 395Q314 373 308 349T291 285Z" />
<glyph unicode="B" glyph-name="B" horiz-adv-x="564" d="M556 188Q556 93 497 47T314 0H26V627H315Q424 627 473 588T522 462Q522 410 507 378T460 333Q510 320 533 285T556 188ZM331 418Q331 432 326 439T310 446H244V388H310Q321 388 326 395T331 418ZM334
218Q334 232 329 239T314 247H244V189H314Q324 189 329 196T334 218Z" />
<glyph unicode="C" glyph-name="C" horiz-adv-x="505" d="M328 200Q366 200 412 207T494 226V27Q439 5 394 -3T298 -12Q203 -12 151 7T68 68Q40 105 27 165T14 313Q14 481 90 559T333 637Q379 637 415 635T480 628V428Q417 431 390 431T338 432Q285 432 267 407T249
313Q249 252 266 226T328 200Z" />
<glyph unicode="D" glyph-name="D" horiz-adv-x="605" d="M283 0H26V627H283Q458 627 524 556T591 314Q591 151 518 76T283 0ZM356 314Q356 386 343 409T283 432H253V200H283Q328 200 342 222T356 314Z" />
<glyph unicode="E" glyph-name="E" horiz-adv-x="492" d="M474 197V0H26V627H465V434H253V407H428V224H253V197H474Z" />
<glyph unicode="F" glyph-name="F" horiz-adv-x="485" d="M253 197V0H26V627H470V422H253V384H433V197H253Z" />
<glyph unicode="G" glyph-name="G" horiz-adv-x="570" d="M349 228H287V385H550V27Q499 7 443 -2T317 -12Q151 -12 82 64T13 313Q13 481 89 559T332 637Q388 637 433 634T517 625V427Q462 430 421 431T337 432Q284 432 266 407T248 313Q248 237 264 209T323 181Q333
181 338 181T349 182V228Z" />
<glyph unicode="H" glyph-name="H" horiz-adv-x="614" d="M253 0H26V627H253V420H361V627H588V0H361V216H253V0Z" />
<glyph unicode="I" glyph-name="I" horiz-adv-x="279" d="M253 627V0H26V627H253Z" />
<glyph unicode="J" glyph-name="J" horiz-adv-x="409" d="M160 259V627H387V239Q387 102 327 45T122 -12Q89 -12 62 -10T12 -3V204Q25 202 40 201T82 200Q126 200 143 212T160 259Z" />
<glyph unicode="K" glyph-name="K" horiz-adv-x="638" d="M472 325L655 0H377L273 230H253V0H26V627H253V405H273L383 627H649L472 325Z" />
<glyph unicode="L" glyph-name="L" horiz-adv-x="454" d="M442 212V0H26V627H253V212H442Z" />
<glyph unicode="M" glyph-name="M" horiz-adv-x="739" d="M713 627V0H501V275L453 115H281L238 274V0H26V627H300L372 396L449 627H713Z" />
<glyph unicode="N" glyph-name="N" horiz-adv-x="629" d="M603 627V0H392L238 242V0H26V627H235L392 364V627H603Z" />
<glyph unicode="O" glyph-name="O" horiz-adv-x="647" d="M634 313Q634 142 560 65T323 -12Q156 -12 85 62T13 313Q13 484 86 560T323 637Q491 637 562 563T634 313ZM243 313Q243 247 259 224T323 200Q370 200 387 223T404 313Q404 382 387 407T323 432Q277 432
260 407T243 313Z" />
<glyph unicode="P" glyph-name="P" horiz-adv-x="568" d="M253 152V0H26V627H271Q429 627 493 574T558 392Q558 268 490 210T274 152H253ZM327 385Q327 404 319 413T291 422H253V347H291Q311 347 319 356T327 385Z" />
<glyph unicode="Q" glyph-name="Q" horiz-adv-x="647" d="M323 637Q491 637 562 563T634 313Q634 214 611 148T538 45L654 -128H397L323 -12Q156 -12 85 62T13 313Q13 484 86 560T323 637ZM243 313Q243 247 259 224T323 200Q370 200 387 223T404 313Q404 382 387
407T323 432Q277 432 260 407T243 313Z" />
<glyph unicode="R" glyph-name="R" horiz-adv-x="591" d="M253 187V0H26V627H271Q429 627 493 575T558 396Q558 333 538 291T474 225L589 0H342L269 187H253ZM327 390Q327 409 319 418T291 427H253V352H291Q311 352 319 361T327 390Z" />
<glyph unicode="S" glyph-name="S" horiz-adv-x="509" d="M269 219L165 239Q88 254 53 298T18 421Q18 533 77 585T266 637Q324 637 372 633T450 619V420Q394 429 353 432T267 436Q247 436 239 434T231 426Q231 422 235 420T250 416L345 396Q437 376 467 337T498
211Q498 95 436 42T245 -12Q177 -12 113 -6T22 11V223Q58 211 120 204T246 196Q271 196 280 198T289 208Q289 213 285 215T269 219Z" />
<glyph unicode="T" glyph-name="T" horiz-adv-x="517" d="M505 627V422H372V0H145V422H12V627H505Z" />
<glyph unicode="U" glyph-name="U" horiz-adv-x="620" d="M372 278V627H599V276Q599 134 526 61T312 -12Q159 -12 90 56T21 276V627H248V278Q248 232 261 216T311 200Q345 200 358 216T372 278Z" />
<glyph unicode="V" glyph-name="V" horiz-adv-x="654" d="M191 0L-8 627H236L305 333Q308 319 313 292T333 180Q336 196 345 255T359 331L425 627H662L465 0H191Z" />
<glyph unicode="W" glyph-name="W" horiz-adv-x="858" d="M149 0L-7 627H227L267 407Q270 390 275 353T286 260Q287 265 293 326T302 405L332 627H533L565 407Q567 396 569 377T582 257Q586 298 591 339T601 405L638 627H864L710 0H474L459 100Q454 131 449 171T429
321Q423 271 416 216T399 100L384 0H149Z" />
<glyph unicode="X" glyph-name="X" horiz-adv-x="620" d="M447 327L638 0H361L294 140L230 0H-17L178 318L-2 627H276L328 513L378 627H617L447 327Z" />
<glyph unicode="Y" glyph-name="Y" horiz-adv-x="629" d="M404 627H635L430 218V0H203V218L-8 627H247L321 423L404 627Z" />
<glyph unicode="Z" glyph-name="Z" horiz-adv-x="505" d="M489 212V0H16V212L214 422H45V627H470V422L273 212H489Z" />
<glyph unicode="[" glyph-name="bracketleft" horiz-adv-x="219" d="M205 30V-82H25V707H205V598H147V30H205Z" />
<glyph unicode="\" glyph-name="backslash" horiz-adv-x="366" d="M133 707L359 -80H231L6 707H133Z" />
<glyph unicode="]" glyph-name="bracketright" horiz-adv-x="219" d="M194 -82H14V30H72V598H14V707H194V-82Z" />
<glyph unicode="^" glyph-name="asciicircum" horiz-adv-x="500" d="M218 365H55L170 627H330L446 365H288L253 462L218 365Z" />
<glyph unicode="_" glyph-name="underscore" horiz-adv-x="433" d="M421 -39V-203H12V-39H421Z" />
<glyph unicode="`" glyph-name="grave" horiz-adv-x="431" d="M215 530L50 672H273L381 530H215Z" />
<glyph unicode="a" glyph-name="a" horiz-adv-x="495" d="M134 -12Q69 -12 39 25T9 144Q9 218 49 252T178 287Q199 287 219 286T256 282V292Q256 306 239 311T179 316Q141 316 112 314T52 307V486Q92 495 150 499T276 504Q372 504 424 462T476 340V0H268L263 35H260Q231
9 201 -1T134 -12ZM219 180Q209 180 205 175T200 157Q200 144 204 139T219 133Q231 133 239 134T256 137V178Q244 179 236 179T219 180Z" />
<glyph unicode="b" glyph-name="b" horiz-adv-x="547" d="M362 504Q456 504 495 447T535 252Q535 117 478 53T300 -12Q215 -12 145 -5T21 18V665H241V475Q271 489 302 496T362 504ZM315 252Q315 281 307 293T279 306Q269 306 260 304T241 298V195Q249 193 258
193T278 192Q299 192 307 205T315 252Z" />
<glyph unicode="c" glyph-name="c" horiz-adv-x="425" d="M412 204V25Q389 10 331 -1T212 -12Q101 -12 57 45T12 246Q12 392 69 448T274 504Q293 504 311 503T399 494V303Q354 305 324 305T277 306Q251 306 242 294T232 246Q232 214 242 203T281 192Q312 192 345
195T412 204Z" />
<glyph unicode="d" glyph-name="d" horiz-adv-x="547" d="M306 665H526V0H331L320 46H316Q292 16 260 2T183 -12Q92 -12 52 47T12 246Q12 379 62 441T218 504Q243 504 265 501T306 493V665ZM268 306Q247 306 240 293T232 247Q232 216 239 204T268 192Q277 192
286 194T306 201V302Q298 304 289 305T268 306Z" />
<glyph unicode="e" glyph-name="e" horiz-adv-x="492" d="M459 181V21Q424 7 365 -2T242 -12Q120 -12 66 48T11 244Q11 377 70 440T254 504Q372 504 426 458T480 308Q480 272 479 249T475 199H226Q227 181 238 175T277 168Q325 168 376 172T459 181ZM288 319Q286
334 279 339T257 344Q241 344 234 334T226 296H289Q289 303 289 308T288 319Z" />
<glyph unicode="f" glyph-name="f" horiz-adv-x="365" d="M55 312H13V494H55V504Q55 585 105 630T246 675Q282 675 318 672T375 665V524Q344 527 334 527T317 528Q292 528 284 522T275 498V494H360V312H275V0H55V312Z" />
<glyph unicode="g" glyph-name="g" horiz-adv-x="543" d="M261 -162Q207 -162 156 -155T70 -136V37Q95 32 146 28T246 24Q276 24 287 29T302 48V78Q267 65 238 59T184 53Q88 53 50 102T11 269Q11 394 72 449T269 504Q327 504 407 498T522 485V120Q522 -37 465
-99T261 -162ZM259 311Q239 311 232 303T225 271Q225 251 232 244T258 237Q267 237 277 239T302 246V309Q290 310 280 310T259 311Z" />
<glyph unicode="h" glyph-name="h" horiz-adv-x="525" d="M241 0H21V665H241V460Q265 482 295 493T363 504Q433 504 469 463T506 342V0H286V282Q286 295 281 300T265 306Q258 306 252 305T241 302V0Z" />
<glyph unicode="i" glyph-name="i" horiz-adv-x="262" d="M241 517H21V665H241V517ZM241 0H21V494H241V0Z" />
<glyph unicode="j" glyph-name="j" horiz-adv-x="266" d="M245 517H25V665H245V517ZM62 -162Q41 -162 24 -161T-16 -156V-16Q-11 -17 -8 -17T2 -17Q14 -17 19 -14T25 -1V494H245V3Q245 -76 197 -119T62 -162Z" />
<glyph unicode="k" glyph-name="k" horiz-adv-x="544" d="M241 169V0H21V665H241V332H245L295 494H538L443 258L548 0H299L245 169H241Z" />
<glyph unicode="l" glyph-name="l" horiz-adv-x="262" d="M241 665V0H21V665H241Z" />
<glyph unicode="m" glyph-name="m" horiz-adv-x="780" d="M241 0H21V494H211L220 446H225Q251 476 284 490T362 504Q403 504 431 491T477 449H481Q508 477 542 490T622 504Q692 504 726 464T761 342V0H541V289Q541 298 537 302T524 306Q517 306 512 305T501 302V0H281V289Q281
298 277 302T264 306Q257 306 252 305T241 302V0Z" />
<glyph unicode="n" glyph-name="n" horiz-adv-x="525" d="M241 0H21V494H211L219 441H222Q248 473 282 488T363 504Q433 504 469 463T506 342V0H286V282Q286 295 281 300T266 306Q259 306 253 305T241 302V0Z" />
<glyph unicode="o" glyph-name="o" horiz-adv-x="541" d="M530 246Q530 108 470 48T270 -12Q135 -12 73 50T11 246Q11 384 71 444T270 504Q406 504 468 442T530 246ZM231 249Q231 216 239 204T270 192Q293 192 301 204T310 249Q310 282 302 294T270 306Q247 306
239 294T231 249Z" />
<glyph unicode="p" glyph-name="p" horiz-adv-x="547" d="M241 -152H21V494H215L226 446H232Q256 476 288 490T364 505Q456 505 495 447T535 247Q535 114 485 52T329 -11Q304 -11 282 -8T241 0V-152ZM315 248Q315 281 308 293T279 306Q270 306 261 304T241 297V196Q249
194 258 193T279 192Q300 192 307 205T315 248Z" />
<glyph unicode="q" glyph-name="q" horiz-adv-x="546" d="M525 485V-152H305V37Q282 13 252 2T182 -10Q91 -10 51 49T11 248Q11 382 72 444T267 506Q323 506 388 501T525 485ZM267 306Q247 306 239 292T231 247Q231 215 238 204T267 192Q276 192 285 194T305 201V302Q297
304 288 305T267 306Z" />
<glyph unicode="r" glyph-name="r" horiz-adv-x="364" d="M241 0H21V494H227L233 456H237Q258 482 280 494T328 506Q340 506 345 506T356 505V292Q343 294 332 294T310 295Q288 295 272 293T241 284V0Z" />
<glyph unicode="s" glyph-name="s" horiz-adv-x="445" d="M247 348Q220 348 212 346T204 338Q204 332 207 330T217 327L307 317Q384 308 409 276T435 167Q435 76 384 32T221 -12Q161 -12 109 -6T27 12V174Q107 158 143 154T210 150Q237 150 243 152T249 162Q249
168 246 170T235 173L128 186Q64 193 38 226T11 331Q11 418 67 461T237 504Q288 504 332 502T408 494V335Q360 341 320 344T247 348Z" />
<glyph unicode="t" glyph-name="t" horiz-adv-x="393" d="M54 312H12V494H64L88 604H274V494H376V312H274V222Q274 206 283 199T315 192Q329 192 350 194T384 199V7Q371 1 324 -5T241 -12Q141 -12 98 31T54 172V312Z" />
<glyph unicode="u" glyph-name="u" horiz-adv-x="522" d="M172 -10Q96 -10 58 30T19 152V494H239V212Q239 201 244 197T259 192Q263 192 269 193T281 197V494H501V0H311L303 55H299Q273 23 241 7T172 -10Z" />
<glyph unicode="v" glyph-name="v" horiz-adv-x="543" d="M309 494H548L398 0H146L-6 494H236L273 199L309 494Z" />
<glyph unicode="w" glyph-name="w" horiz-adv-x="793" d="M558 494H799L672 0H414L393 176L372 0H123L-6 494H236L255 197L301 494H496L539 197L558 494Z" />
<glyph unicode="x" glyph-name="x" horiz-adv-x="511" d="M383 257L520 0H281L249 105L216 0H-10L129 258L-13 494H240L269 396L300 494H523L383 257Z" />
<glyph unicode="y" glyph-name="y" horiz-adv-x="539" d="M115 12Q137 12 148 15T159 26L-6 494H236L274 225L312 494H545L395 14Q364 -79 310 -120T162 -162Q138 -162 111 -160T66 -153V16Q73 14 86 13T115 12Z" />
<glyph unicode="z" glyph-name="z" horiz-adv-x="426" d="M412 190V0H15V190L150 312H33V494H395V312L266 190H412Z" />
<glyph unicode="{" glyph-name="braceleft" horiz-adv-x="286" d="M127 317V313Q167 306 192 264T218 157V58Q218 33 228 26T277 19V-92Q183 -92 141 -59T98 48V157Q98 207 73 237T14 267H-4V363H14Q47 363 72 393T98 473V578Q98 651 140 684T277 718V607Q238
607 228 600T218 568V473Q218 409 193 367T127 317Z" />
<glyph unicode="|" glyph-name="bar" horiz-adv-x="172" d="M147 707V-80H25V707H147Z" />
<glyph unicode="}" glyph-name="braceright" horiz-adv-x="286" d="M159 313V317Q119 325 94 367T68 473V568Q68 593 58 600T9 607V718Q103 718 145 685T188 578V473Q188 423 213 393T272 363H290V267H272Q239 267 214 237T188 157V48Q188 -25 146 -58T9 -92V19Q48
19 58 26T68 58V157Q68 221 93 263T159 313Z" />
<glyph unicode="~" glyph-name="asciitilde" horiz-adv-x="602" d="M421 446H590Q590 322 550 254T432 186Q402 186 370 198T281 245Q251 265 239 270T218 276Q200 276 190 254T180 193H12Q12 317 52 385T168 454Q198 454 231 443T320 397Q350 379 362 374T383
368Q402 368 411 388T421 446Z" />
<glyph unicode="&#xa0;" glyph-name="uni00A0" horiz-adv-x="124" />
<glyph unicode="&#xa1;" glyph-name="exclamdown" horiz-adv-x="275" d="M25 494H249V305H25V494ZM235 261L262 -133H13L40 261H235Z" />
<glyph unicode="&#xa2;" glyph-name="cent" horiz-adv-x="427" d="M293 59V-18H184V55Q91 62 52 120T13 312Q13 434 52 491T184 564V645H293V570Q310 570 325 569T400 560V369Q355 371 325 371T278 372Q252 372 243 360T233 312Q233 280 243 269T282 258Q313 258
346 261T413 270V91Q398 82 366 73T293 59Z" />
<glyph unicode="&#xa3;" glyph-name="sterling" horiz-adv-x="461" d="M19 262V374H77V450Q77 542 130 589T286 637Q326 637 355 634T429 621V431Q408 435 386 437T347 440Q325 440 315 432T304 408V374H395V262H304Q304 239 286 220T238 195V192H445V0H19V193Q49
199 63 214T77 255V262H19Z" />
<glyph unicode="&#xa4;" glyph-name="currency" horiz-adv-x="586" d="M92 37L12 117L71 178Q52 209 42 244T33 316Q32 354 42 390T74 458L14 517L94 596L153 537Q185 557 220 566T292 575Q329 576 364 566T431 537L491 596L571 514L514 456Q535 424 545 389T555
315Q555 278 545 243T515 176L574 116L494 36L434 96Q402 76 367 66T294 56Q256 55 220 65T152 96L92 37ZM296 385Q265 385 250 369T233 320Q234 286 249 270T294 255Q325 254 340 270T355 320Q355 353 341 369T296 385Z" />
<glyph unicode="&#xa5;" glyph-name="yen" horiz-adv-x="585" d="M81 100V192H181V212H81V304H149L6 627H255L295 412L346 627H579L440 304H508V212H409V192H508V100H409V0H181V100H81Z" />
<glyph unicode="&#xa6;" glyph-name="brokenbar" horiz-adv-x="172" d="M147 707V380H25V707H147ZM147 247V-80H25V247H147Z" />
<glyph unicode="&#xa7;" glyph-name="section" horiz-adv-x="446" d="M261 505Q242 505 234 503T226 492Q226 487 230 483T262 466L352 429Q390 413 412 385T434 323Q434 289 421 261T379 210Q391 195 396 177T402 135Q402 67 356 29T226 -10Q177 -10 140 -7T69
5V140Q102 131 130 127T185 122Q204 122 212 124T220 135Q220 140 216 144T184 161L90 199Q54 214 33 242T12 304Q12 338 25 366T67 417Q55 432 49 450T43 492Q43 559 89 598T217 637Q270 637 307 634T378 621V486Q345 496 317 500T261 505ZM174 334Q174 323 179
317T198 303L268 273Q270 280 271 284T272 292Q272 304 267 310T248 323L179 354Q177 349 176 344T174 334Z" />
<glyph unicode="&#xa8;" glyph-name="dieresis" horiz-adv-x="470" d="M420 687V530H246V687H420ZM223 687V530H50V687H223Z" />
<glyph unicode="&#xa9;" glyph-name="copyright" horiz-adv-x="654" d="M641 314Q641 162 558 76T328 -10Q175 -10 94 73T13 314Q13 466 96 551T328 637Q481 637 561 555T641 314ZM528 312Q528 424 480 478T330 532Q226 532 176 478T126 312Q126 206 176 155T330
103Q430 103 479 154T528 312ZM356 261Q377 261 398 264T447 275V160Q426 149 394 143T325 137Q240 137 200 181T160 316Q160 406 203 450T334 494Q362 494 385 491T438 481V372Q436 372 408 374T355 377Q330 377 320 363T309 318Q309 289 320 275T356 261Z" />
<glyph unicode="&#xaa;" glyph-name="ordfeminine" horiz-adv-x="309" d="M285 354H178L175 374H173Q156 360 139 354T101 347Q59 347 38 370T17 439Q17 485 43 503T130 522Q139 522 150 521T171 519V527Q171 535 163 538T133 542Q117 542 100 541T44 534V626Q76
631 105 633T171 636Q226 636 255 614T285 549V354ZM144 458Q132 458 128 456T123 445Q123 439 127 437T140 434Q149 434 157 435T171 439V456Q164 457 158 457T144 458ZM289 220H17V318H289V220Z" />
<glyph unicode="&#xab;" glyph-name="guillemotleft" horiz-adv-x="494" d="M282 64H130L9 282L130 494H282L163 285L282 64ZM486 64H334L212 282L334 494H486L366 285L486 64Z" />
<glyph unicode="&#xac;" glyph-name="logicalnot" horiz-adv-x="500" d="M463 392V101H289V224H37V392H463Z" />
<glyph unicode="&#xad;" glyph-name="uni00AD" horiz-adv-x="355" d="M337 401V237H18V401H337Z" />
<glyph unicode="&#xae;" glyph-name="registered" horiz-adv-x="386" d="M375 454Q375 365 328 318T193 270Q102 270 57 316T11 454Q11 543 58 590T195 637Q284 637 329 591T375 454ZM175 417V355H116V557H192Q240 557 259 541T279 487Q279 463 270 447T240 424L277
355Q294 370 302 395T310 454Q310 519 282 550T194 581Q134 581 105 550T76 454Q76 390 104 360T194 330Q222 330 242 336T277 355H206L178 417H175ZM219 487Q219 497 214 500T192 504H175V464H192Q208 464 213 469T219 487Z" />
<glyph unicode="&#xaf;" glyph-name="overscore" horiz-adv-x="363" d="M313 676V535H50V676H313Z" />
<glyph unicode="&#xb0;" glyph-name="degree" horiz-adv-x="290" d="M285 498Q285 436 248 401T145 366Q80 366 43 401T5 498Q5 562 42 598T145 634Q210 634 247 598T285 498ZM118 501Q118 487 125 480T145 472Q158 472 165 479T172 501Q172 515 165 522T145 530Q132
530 125 523T118 501Z" />
<glyph unicode="&#xb1;" glyph-name="plusminus" horiz-adv-x="500" d="M463 495V327H338V219H164V327H37V495H164V601H338V495H463ZM463 184V16H37V184H463Z" />
<glyph unicode="&#xb2;" glyph-name="uni00B2" horiz-adv-x="278" d="M262 384V270H9V384L130 486Q138 493 140 497T143 508Q143 515 139 518T126 522Q106 522 81 520T26 513V618Q49 624 84 628T155 632Q207 632 236 607T266 538Q266 507 257 486T227 446L156 384H262Z" />
<glyph unicode="&#xb3;" glyph-name="uni00B3" horiz-adv-x="271" d="M251 539Q251 506 238 487T196 459V457Q229 454 245 434T262 374Q262 321 226 292T126 263Q92 263 60 266T11 276V378Q28 375 49 374T113 372Q130 372 136 375T143 388Q143 396 139 399T123
402H45V500H108Q121 500 126 503T132 514Q132 522 126 525T105 528Q88 528 60 525T16 519V617Q36 623 73 627T144 632Q197 632 224 609T251 539Z" />
<glyph unicode="&#xb4;" glyph-name="acute" horiz-adv-x="431" d="M158 672H381L216 530H50L158 672Z" />
<glyph unicode="&#xb5;" glyph-name="mu" horiz-adv-x="538" d="M246 -4Q236 -4 229 -3T219 2Q219 -43 228 -82T256 -152H49Q35 -117 29 -74T23 60V494H243V206Q243 193 247 189T263 184Q273 184 281 186T294 193V494H514V0H324L319 37Q307 17 289 7T246 -4Z" />
<glyph unicode="&#xb6;" glyph-name="paragraph" horiz-adv-x="496" d="M468 627V26Q468 -65 422 -113T289 -162Q264 -162 241 -160T203 -155V22Q208 21 215 21T226 20Q237 20 242 25T248 39V134Q242 133 234 133T211 133Q100 133 56 188T11 381Q11 527 68 583T273
639Q302 639 332 638T468 627ZM232 446Q217 446 213 433T208 384Q208 352 212 340T232 328Q237 328 240 328T248 330V445Q244 446 241 446T232 446Z" />
<glyph unicode="&#xb7;" glyph-name="middot" horiz-adv-x="250" d="M230 221H20V416H230V221Z" />
<glyph unicode="&#xb8;" glyph-name="cedilla" horiz-adv-x="336" d="M283 -110Q283 -151 251 -173T159 -195Q133 -195 105 -192T60 -185V-106Q76 -110 94 -112T132 -115Q150 -115 157 -111T165 -96Q165 -86 155 -82T123 -77Q106 -77 97 -77T74 -79L98 34L217
21L205 -35Q238 -36 260 -56T283 -110Z" />
<glyph unicode="&#xb9;" glyph-name="uni00B9" horiz-adv-x="220" d="M203 270H75V518L5 511V612L203 632V270Z" />
<glyph unicode="&#xba;" glyph-name="ordmasculine" horiz-adv-x="329" d="M314 492Q314 418 278 383T166 347Q90 347 53 383T16 492Q16 565 52 600T166 636Q240 636 277 601T314 492ZM129 493Q129 471 137 462T166 452Q185 452 193 461T201 493Q201 515 193 524T166
534Q145 534 137 525T129 493ZM307 220H21V318H307V220Z" />
<glyph unicode="&#xbb;" glyph-name="guillemotright" horiz-adv-x="494" d="M485 282L364 64H212L331 285L212 494H364L485 282ZM282 282L160 64H8L128 285L8 494H160L282 282Z" />
<glyph unicode="&#xbc;" glyph-name="onequarter" horiz-adv-x="719" d="M207 270H79V518L9 511V612L207 632V270ZM546 627L246 0H106L406 627H546ZM709 175V69H677V0H549V69H409V175L449 357H569L536 175H557L574 294H677V175H709Z" />
<glyph unicode="&#xbd;" glyph-name="onehalf" horiz-adv-x="699" d="M207 270H79V518L9 511V612L207 632V270ZM546 627L246 0H106L406 627H546ZM681 114V0H428V114L549 216Q557 223 559 227T562 238Q562 245 558 248T545 252Q525 252 500 250T445 243V348Q468
354 503 358T574 362Q626 362 655 337T685 268Q685 237 676 216T646 176L575 114H681Z" />
<glyph unicode="&#xbe;" glyph-name="threequarters" horiz-adv-x="751" d="M255 539Q255 506 242 487T200 459V457Q233 454 249 434T266 374Q266 321 230 292T130 263Q96 263 64 266T15 276V378Q32 375 53 374T117 372Q134 372 140 375T147 388Q147 396 143 399T127
402H49V500H112Q125 500 130 503T136 514Q136 522 130 525T109 528Q92 528 64 525T20 519V617Q40 623 77 627T148 632Q201 632 228 609T255 539ZM578 627L278 0H138L438 627H578ZM741 175V69H709V0H581V69H441V175L481 357H601L568 175H589L606 294H709V175H741Z"
/>
<glyph unicode="&#xbf;" glyph-name="questiondown" horiz-adv-x="377" d="M99 305V494H324V305H99ZM178 -143Q101 -143 55 -105T9 -1Q9 54 31 91T112 169V260H311V132Q251 106 229 92T207 65Q207 57 212 53T229 48Q253 48 292 55T358 71V-115Q318 -131 278 -137T178
-143Z" />
<glyph unicode="&#xc0;" glyph-name="Agrave" horiz-adv-x="642" d="M219 0H-10L206 627H442L649 0H422L405 64H235L219 0ZM291 285Q287 269 286 263T283 252L279 236H360L356 252Q355 257 353 264T346 291Q336 329 330 351T319 395Q314 373 308 349T291 285ZM277
650L114 782H337L443 650H277Z" />
<glyph unicode="&#xc1;" glyph-name="Aacute" horiz-adv-x="642" d="M219 0H-10L206 627H442L649 0H422L405 64H235L219 0ZM291 285Q287 269 286 263T283 252L279 236H360L356 252Q355 257 353 264T346 291Q336 329 330 351T319 395Q314 373 308 349T291 285ZM307
782H530L367 650H201L307 782Z" />
<glyph unicode="&#xc2;" glyph-name="Acircumflex" horiz-adv-x="642" d="M219 0H-10L206 627H442L649 0H422L405 64H235L219 0ZM291 285Q287 269 286 263T283 252L279 236H360L356 252Q355 257 353 264T346 291Q336 329 330 351T319 395Q314 373 308 349T291
285ZM517 650H361L322 699L283 650H127L228 782H416L517 650Z" />
<glyph unicode="&#xc3;" glyph-name="Atilde" horiz-adv-x="642" d="M219 0H-10L206 627H442L649 0H422L405 64H235L219 0ZM291 285Q287 269 286 263T283 252L279 236H360L356 252Q355 257 353 264T346 291Q336 329 330 351T319 395Q314 373 308 349T291 285ZM373
773H478Q478 712 456 679T391 646Q378 646 363 650T320 666Q303 673 296 675T285 677Q277 677 274 671T270 650H165Q165 711 186 744T250 777Q263 777 278 773T321 758Q339 750 346 748T358 746Q366 746 369 751T373 773Z" />
<glyph unicode="&#xc4;" glyph-name="Adieresis" horiz-adv-x="642" d="M219 0H-10L206 627H442L649 0H422L405 64H235L219 0ZM291 285Q287 269 286 263T283 252L279 236H360L356 252Q355 257 353 264T346 291Q336 329 330 351T319 395Q314 373 308 349T291 285ZM506
792V650H332V792H506ZM309 792V650H136V792H309Z" />
<glyph unicode="&#xc5;" glyph-name="Aring" horiz-adv-x="642" d="M219 0H-10L206 627H442L649 0H422L405 64H235L219 0ZM291 285Q287 269 286 263T283 252L279 236H360L356 252Q355 257 353 264T346 291Q336 329 330 351T319 395Q314 373 308 349T291 285ZM448
747Q448 699 414 671T322 643Q265 643 231 671T197 747Q197 794 230 821T322 849Q380 849 414 822T448 747ZM294 747Q294 736 301 730T322 723Q335 723 343 729T351 747Q351 758 343 764T322 770Q309 770 302 764T294 747Z" />
<glyph unicode="&#xc6;" glyph-name="AE" horiz-adv-x="767" d="M219 0H-10L206 627H740V434H495L503 407H703V224H553L561 197H749V0H422L405 64H235L219 0ZM291 285Q287 269 286 263T283 252L279 236H360L356 252Q355 257 353 264T346 291Q336 329 330 351T319
395Q314 373 308 349T291 285Z" />
<glyph unicode="&#xc7;" glyph-name="Ccedilla" horiz-adv-x="505" d="M406 -110Q406 -151 374 -173T282 -195Q256 -195 228 -192T183 -185V-106Q199 -110 217 -112T255 -115Q273 -115 280 -111T288 -96Q288 -86 278 -82T246 -77Q229 -77 220 -77T197 -79L212
-7Q103 7 59 81T14 313Q14 481 90 559T333 637Q379 637 415 635T480 628V428Q417 431 390 431T338 432Q285 432 267 407T249 313Q249 252 266 226T328 200Q366 200 412 207T494 226V27Q451 9 413 1T333 -11L328 -35Q361 -36 383 -56T406 -110Z" />
<glyph unicode="&#xc8;" glyph-name="Egrave" horiz-adv-x="492" d="M474 197V0H26V627H465V434H253V407H428V224H253V197H474ZM462 650L299 782H522L628 650H462Z" />
<glyph unicode="&#xc9;" glyph-name="Eacute" horiz-adv-x="492" d="M474 197V0H26V627H465V434H253V407H428V224H253V197H474ZM236 782H459L296 650H130L236 782Z" />
<glyph unicode="&#xca;" glyph-name="Ecircumflex" horiz-adv-x="492" d="M474 197V0H26V627H465V434H253V407H428V224H253V197H474ZM446 650H290L251 699L212 650H56L157 782H345L446 650Z" />
<glyph unicode="&#xcb;" glyph-name="Edieresis" horiz-adv-x="492" d="M474 197V0H26V627H465V434H253V407H428V224H253V197H474ZM435 792V650H261V792H435ZM238 792V650H65V792H238Z" />
<glyph unicode="&#xcc;" glyph-name="Igrave" horiz-adv-x="279" d="M253 627V0H26V627H253ZM351 650L188 782H411L517 650H351Z" />
<glyph unicode="&#xcd;" glyph-name="Iacute" horiz-adv-x="279" d="M253 627V0H26V627H253ZM381 782H604L441 650H275L381 782Z" />
<glyph unicode="&#xce;" glyph-name="Icircumflex" horiz-adv-x="279" d="M253 627V0H26V627H253ZM591 650H435L396 699L357 650H201L302 782H490L591 650Z" />
<glyph unicode="&#xcf;" glyph-name="Idieresis" horiz-adv-x="279" d="M253 627V0H26V627H253ZM580 792V650H406V792H580ZM383 792V650H210V792H383Z" />
<glyph unicode="&#xd0;" glyph-name="Eth" horiz-adv-x="658" d="M9 246V394H79V627H336Q511 627 577 556T644 314Q644 151 571 76T336 0H79V246H9ZM381 394V246H306V200H336Q381 200 395 222T409 314Q409 386 396 409T336 432H306V394H381Z" />
<glyph unicode="&#xd1;" glyph-name="Ntilde" horiz-adv-x="629" d="M603 627V0H392L238 242V0H26V627H235L392 364V627H603ZM373 773H478Q478 712 456 679T391 646Q378 646 363 650T320 666Q303 673 296 675T285 677Q277 677 274 671T270 650H165Q165 711 186
744T250 777Q263 777 278 773T321 758Q339 750 346 748T358 746Q366 746 369 751T373 773Z" />
<glyph unicode="&#xd2;" glyph-name="Ograve" horiz-adv-x="647" d="M634 313Q634 142 560 65T323 -12Q156 -12 85 62T13 313Q13 484 86 560T323 637Q491 637 562 563T634 313ZM243 313Q243 247 259 224T323 200Q370 200 387 223T404 313Q404 382 387 407T323
432Q277 432 260 407T243 313ZM278 660L115 792H338L444 660H278Z" />
<glyph unicode="&#xd3;" glyph-name="Oacute" horiz-adv-x="647" d="M634 313Q634 142 560 65T323 -12Q156 -12 85 62T13 313Q13 484 86 560T323 637Q491 637 562 563T634 313ZM243 313Q243 247 259 224T323 200Q370 200 387 223T404 313Q404 382 387 407T323
432Q277 432 260 407T243 313ZM308 792H531L368 660H202L308 792Z" />
<glyph unicode="&#xd4;" glyph-name="Ocircumflex" horiz-adv-x="647" d="M634 313Q634 142 560 65T323 -12Q156 -12 85 62T13 313Q13 484 86 560T323 637Q491 637 562 563T634 313ZM243 313Q243 247 259 224T323 200Q370 200 387 223T404 313Q404 382 387 407T323
432Q277 432 260 407T243 313ZM518 660H362L323 709L284 660H128L229 792H417L518 660Z" />
<glyph unicode="&#xd5;" glyph-name="Otilde" horiz-adv-x="647" d="M634 313Q634 142 560 65T323 -12Q156 -12 85 62T13 313Q13 484 86 560T323 637Q491 637 562 563T634 313ZM243 313Q243 247 259 224T323 200Q370 200 387 223T404 313Q404 382 387 407T323
432Q277 432 260 407T243 313ZM374 783H479Q479 722 457 689T392 656Q379 656 364 660T321 676Q304 683 297 685T286 687Q278 687 275 681T271 660H166Q166 721 187 754T251 787Q264 787 279 783T322 768Q340 760 347 758T359 756Q367 756 370 761T374 783Z" />
<glyph unicode="&#xd6;" glyph-name="Odieresis" horiz-adv-x="647" d="M634 313Q634 142 560 65T323 -12Q156 -12 85 62T13 313Q13 484 86 560T323 637Q491 637 562 563T634 313ZM243 313Q243 247 259 224T323 200Q370 200 387 223T404 313Q404 382 387 407T323
432Q277 432 260 407T243 313ZM507 802V660H333V802H507ZM310 802V660H137V802H310Z" />
<glyph unicode="&#xd7;" glyph-name="multiply" horiz-adv-x="500" d="M26 424L148 547L252 443L356 547L475 428L371 324L477 218L354 96L249 202L144 97L25 216L130 321L26 424Z" />
<glyph unicode="&#xd8;" glyph-name="Oslash" horiz-adv-x="647" d="M149 -83L31 -5L79 68Q45 106 29 165T13 313Q13 484 86 560T323 637Q357 637 386 634T443 625L500 712L620 635L568 557Q602 519 618 460T634 313Q634 142 560 65T323 -12Q289 -12 260 -9T203
0L149 -83ZM243 313Q243 247 259 224T323 200Q370 200 387 223T404 313Q404 382 387 407T323 432Q277 432 260 407T243 313Z" />
<glyph unicode="&#xd9;" glyph-name="Ugrave" horiz-adv-x="620" d="M372 278V627H599V276Q599 134 526 61T312 -12Q159 -12 90 56T21 276V627H248V278Q248 232 261 216T311 200Q345 200 358 216T372 278ZM266 650L103 782H326L432 650H266Z" />
<glyph unicode="&#xda;" glyph-name="Uacute" horiz-adv-x="620" d="M372 278V627H599V276Q599 134 526 61T312 -12Q159 -12 90 56T21 276V627H248V278Q248 232 261 216T311 200Q345 200 358 216T372 278ZM296 782H519L356 650H190L296 782Z" />
<glyph unicode="&#xdb;" glyph-name="Ucircumflex" horiz-adv-x="620" d="M372 278V627H599V276Q599 134 526 61T312 -12Q159 -12 90 56T21 276V627H248V278Q248 232 261 216T311 200Q345 200 358 216T372 278ZM506 650H350L311 699L272 650H116L217 782H405L506 650Z" />
<glyph unicode="&#xdc;" glyph-name="Udieresis" horiz-adv-x="620" d="M372 278V627H599V276Q599 134 526 61T312 -12Q159 -12 90 56T21 276V627H248V278Q248 232 261 216T311 200Q345 200 358 216T372 278ZM495 792V650H321V792H495ZM298 792V650H125V792H298Z" />
<glyph unicode="&#xdd;" glyph-name="Yacute" horiz-adv-x="629" d="M404 627H635L430 218V0H203V218L-8 627H247L321 423L404 627ZM305 782H528L365 650H199L305 782Z" />
<glyph unicode="&#xde;" glyph-name="Thorn" horiz-adv-x="569" d="M253 79V0H26V627H253V554H271Q429 554 493 501T558 319Q558 195 490 137T274 79H253ZM327 312Q327 331 319 340T291 349H253V274H291Q311 274 319 283T327 312Z" />
<glyph unicode="&#xdf;" glyph-name="germandbls" horiz-adv-x="604" d="M260 677Q379 677 438 641T498 530Q498 522 497 506T494 479L477 343L508 337Q556 328 575 292T594 177Q594 83 553 37T428 -10Q402 -10 373 -8T293 2V186Q317 183 339 182T376 180Q383
180 386 182T389 191Q389 197 387 199T376 203L259 228L284 458Q285 465 285 470T286 477Q286 486 281 490T263 495Q253 495 247 490T241 476V0H21V482Q21 575 83 626T260 677Z" />
<glyph unicode="&#xe0;" glyph-name="agrave" horiz-adv-x="495" d="M134 -12Q69 -12 39 25T9 144Q9 218 49 252T178 287Q199 287 219 286T256 282V292Q256 306 239 311T179 316Q141 316 112 314T52 307V486Q92 495 150 499T276 504Q372 504 424 462T476 340V0H268L263
35H260Q231 9 201 -1T134 -12ZM219 180Q209 180 205 175T200 157Q200 144 204 139T219 133Q231 133 239 134T256 137V178Q244 179 236 179T219 180ZM215 530L50 672H273L381 530H215Z" />
<glyph unicode="&#xe1;" glyph-name="aacute" horiz-adv-x="495" d="M134 -12Q69 -12 39 25T9 144Q9 218 49 252T178 287Q199 287 219 286T256 282V292Q256 306 239 311T179 316Q141 316 112 314T52 307V486Q92 495 150 499T276 504Q372 504 424 462T476 340V0H268L263
35H260Q231 9 201 -1T134 -12ZM219 180Q209 180 205 175T200 157Q200 144 204 139T219 133Q231 133 239 134T256 137V178Q244 179 236 179T219 180ZM247 672H470L305 530H139L247 672Z" />
<glyph unicode="&#xe2;" glyph-name="acircumflex" horiz-adv-x="495" d="M134 -12Q69 -12 39 25T9 144Q9 218 49 252T178 287Q199 287 219 286T256 282V292Q256 306 239 311T179 316Q141 316 112 314T52 307V486Q92 495 150 499T276 504Q372 504 424 462T476
340V0H268L263 35H260Q231 9 201 -1T134 -12ZM219 180Q209 180 205 175T200 157Q200 144 204 139T219 133Q231 133 239 134T256 137V178Q244 179 236 179T219 180ZM455 530H299L260 581L221 530H65L166 672H354L455 530Z" />
<glyph unicode="&#xe3;" glyph-name="atilde" horiz-adv-x="495" d="M134 -12Q69 -12 39 25T9 144Q9 218 49 252T178 287Q199 287 219 286T256 282V292Q256 306 239 311T179 316Q141 316 112 314T52 307V486Q92 495 150 499T276 504Q372 504 424 462T476 340V0H268L263
35H260Q231 9 201 -1T134 -12ZM219 180Q209 180 205 175T200 157Q200 144 204 139T219 133Q231 133 239 134T256 137V178Q244 179 236 179T219 180ZM312 674H416Q416 603 394 565T329 526Q317 526 303 530T261 547Q242 556 234 558T220 561Q213 561 210 555T207
530H103Q103 602 124 640T188 678Q200 678 214 675T254 661Q274 653 283 651T298 648Q305 648 308 653T312 674Z" />
<glyph unicode="&#xe4;" glyph-name="adieresis" horiz-adv-x="495" d="M134 -12Q69 -12 39 25T9 144Q9 218 49 252T178 287Q199 287 219 286T256 282V292Q256 306 239 311T179 316Q141 316 112 314T52 307V486Q92 495 150 499T276 504Q372 504 424 462T476 340V0H268L263
35H260Q231 9 201 -1T134 -12ZM219 180Q209 180 205 175T200 157Q200 144 204 139T219 133Q231 133 239 134T256 137V178Q244 179 236 179T219 180ZM444 687V530H270V687H444ZM247 687V530H74V687H247Z" />
<glyph unicode="&#xe5;" glyph-name="aring" horiz-adv-x="495" d="M134 -12Q69 -12 39 25T9 144Q9 218 49 252T178 287Q199 287 219 286T256 282V292Q256 306 239 311T179 316Q141 316 112 314T52 307V486Q92 495 150 499T276 504Q372 504 424 462T476 340V0H268L263
35H260Q231 9 201 -1T134 -12ZM219 180Q209 180 205 175T200 157Q200 144 204 139T219 133Q231 133 239 134T256 137V178Q244 179 236 179T219 180ZM386 637Q386 584 352 554T260 523Q202 523 169 553T135 637Q135 690 168 720T260 750Q319 750 352 720T386 637ZM230
637Q230 626 238 619T260 612Q275 612 283 619T292 637Q292 648 284 655T260 662Q247 662 239 655T230 637Z" />
<glyph unicode="&#xe6;" glyph-name="ae" horiz-adv-x="708" d="M147 -12Q74 -12 42 24T9 144Q9 218 49 252T178 287Q199 287 219 286T256 282V292Q256 306 239 311T179 316Q141 316 112 314T52 307V486Q94 495 139 499T226 504Q268 504 301 497T358 476Q384 490
416 497T490 504Q597 504 646 458T696 308Q696 272 695 249T691 199H442Q443 181 454 175T493 168Q541 168 592 172T675 181V21Q636 6 585 -3T478 -12Q419 -12 379 2T311 46Q280 18 238 3T147 -12ZM504 319Q502 334 495 339T473 344Q457 344 450 334T442 296H505Q505
303 505 308T504 319ZM222 180Q211 180 206 175T200 157Q200 144 205 139T222 133Q234 133 245 135T266 141Q264 149 263 158T260 177Q252 178 243 179T222 180Z" />
<glyph unicode="&#xe7;" glyph-name="ccedilla" horiz-adv-x="425" d="M378 -110Q378 -151 346 -173T254 -195Q228 -195 200 -192T155 -185V-106Q171 -110 189 -112T227 -115Q245 -115 252 -111T260 -96Q260 -86 250 -82T218 -77Q201 -77 192 -77T169 -79L183
-11Q90 -4 51 54T12 246Q12 392 69 448T274 504Q293 504 311 503T399 494V303Q354 305 324 305T277 306Q251 306 242 294T232 246Q232 214 242 203T281 192Q312 192 345 195T412 204V25Q398 16 370 8T306 -5L300 -35Q333 -36 355 -56T378 -110Z" />
<glyph unicode="&#xe8;" glyph-name="egrave" horiz-adv-x="492" d="M459 181V21Q424 7 365 -2T242 -12Q120 -12 66 48T11 244Q11 377 70 440T254 504Q372 504 426 458T480 308Q480 272 479 249T475 199H226Q227 181 238 175T277 168Q325 168 376 172T459 181ZM288
319Q286 334 279 339T257 344Q241 344 234 334T226 296H289Q289 303 289 308T288 319ZM464 530L299 672H522L630 530H464Z" />
<glyph unicode="&#xe9;" glyph-name="eacute" horiz-adv-x="492" d="M459 181V21Q424 7 365 -2T242 -12Q120 -12 66 48T11 244Q11 377 70 440T254 504Q372 504 426 458T480 308Q480 272 479 249T475 199H226Q227 181 238 175T277 168Q325 168 376 172T459 181ZM288
319Q286 334 279 339T257 344Q241 344 234 334T226 296H289Q289 303 289 308T288 319ZM240 672H463L298 530H132L240 672Z" />
<glyph unicode="&#xea;" glyph-name="ecircumflex" horiz-adv-x="492" d="M459 181V21Q424 7 365 -2T242 -12Q120 -12 66 48T11 244Q11 377 70 440T254 504Q372 504 426 458T480 308Q480 272 479 249T475 199H226Q227 181 238 175T277 168Q325 168 376 172T459
181ZM288 319Q286 334 279 339T257 344Q241 344 234 334T226 296H289Q289 303 289 308T288 319ZM448 530H292L253 581L214 530H58L159 672H347L448 530Z" />
<glyph unicode="&#xeb;" glyph-name="edieresis" horiz-adv-x="492" d="M459 181V21Q424 7 365 -2T242 -12Q120 -12 66 48T11 244Q11 377 70 440T254 504Q372 504 426 458T480 308Q480 272 479 249T475 199H226Q227 181 238 175T277 168Q325 168 376 172T459 181ZM288
319Q286 334 279 339T257 344Q241 344 234 334T226 296H289Q289 303 289 308T288 319ZM437 687V530H263V687H437ZM240 687V530H67V687H240Z" />
<glyph unicode="&#xec;" glyph-name="igrave" horiz-adv-x="262" d="M241 0H21V494H241V0ZM86 530L-79 672H144L252 530H86Z" />
<glyph unicode="&#xed;" glyph-name="iacute" horiz-adv-x="262" d="M241 0H21V494H241V0ZM374 672H597L432 530H266L374 672Z" />
<glyph unicode="&#xee;" glyph-name="icircumflex" horiz-adv-x="262" d="M241 0H21V494H241V0ZM582 530H426L387 581L348 530H192L293 672H481L582 530Z" />
<glyph unicode="&#xef;" glyph-name="idieresis" horiz-adv-x="262" d="M241 0H21V494H241V0ZM571 687V530H397V687H571ZM374 687V530H201V687H374Z" />
<glyph unicode="&#xf0;" glyph-name="eth" horiz-adv-x="542" d="M529 243Q529 107 468 48T269 -12Q131 -12 71 43T10 223Q10 348 70 403T269 458H285Q282 468 279 477T273 495L131 464V582L213 600Q200 618 187 634T159 665H389Q393 662 399 655T409 643L533
670V553L473 540Q501 479 515 406T529 243ZM230 226Q230 208 239 200T269 192Q290 192 299 200T309 226Q309 244 300 252T269 260Q249 260 240 252T230 226Z" />
<glyph unicode="&#xf1;" glyph-name="ntilde" horiz-adv-x="525" d="M241 0H21V494H211L219 441H222Q248 473 282 488T363 504Q433 504 469 463T506 342V0H286V282Q286 295 281 300T266 306Q259 306 253 305T241 302V0ZM316 674H420Q420 603 398 565T333 526Q321
526 307 530T265 547Q246 556 238 558T224 561Q217 561 214 555T211 530H107Q107 602 128 640T192 678Q204 678 218 675T258 661Q278 653 287 651T302 648Q309 648 312 653T316 674Z" />
<glyph unicode="&#xf2;" glyph-name="ograve" horiz-adv-x="541" d="M530 246Q530 108 470 48T270 -12Q135 -12 73 50T11 246Q11 384 71 444T270 504Q406 504 468 442T530 246ZM231 249Q231 216 239 204T270 192Q293 192 301 204T310 249Q310 282 302 294T270
306Q247 306 239 294T231 249ZM225 530L60 672H283L391 530H225Z" />
<glyph unicode="&#xf3;" glyph-name="oacute" horiz-adv-x="541" d="M530 246Q530 108 470 48T270 -12Q135 -12 73 50T11 246Q11 384 71 444T270 504Q406 504 468 442T530 246ZM231 249Q231 216 239 204T270 192Q293 192 301 204T310 249Q310 282 302 294T270
306Q247 306 239 294T231 249ZM257 672H480L315 530H149L257 672Z" />
<glyph unicode="&#xf4;" glyph-name="ocircumflex" horiz-adv-x="541" d="M530 246Q530 108 470 48T270 -12Q135 -12 73 50T11 246Q11 384 71 444T270 504Q406 504 468 442T530 246ZM231 249Q231 216 239 204T270 192Q293 192 301 204T310 249Q310 282 302 294T270
306Q247 306 239 294T231 249ZM465 530H309L270 581L231 530H75L176 672H364L465 530Z" />
<glyph unicode="&#xf5;" glyph-name="otilde" horiz-adv-x="541" d="M530 246Q530 108 470 48T270 -12Q135 -12 73 50T11 246Q11 384 71 444T270 504Q406 504 468 442T530 246ZM231 249Q231 216 239 204T270 192Q293 192 301 204T310 249Q310 282 302 294T270
306Q247 306 239 294T231 249ZM322 674H426Q426 603 404 565T339 526Q327 526 313 530T271 547Q252 556 244 558T230 561Q223 561 220 555T217 530H113Q113 602 134 640T198 678Q210 678 224 675T264 661Q284 653 293 651T308 648Q315 648 318 653T322 674Z" />
<glyph unicode="&#xf6;" glyph-name="odieresis" horiz-adv-x="541" d="M530 246Q530 108 470 48T270 -12Q135 -12 73 50T11 246Q11 384 71 444T270 504Q406 504 468 442T530 246ZM231 249Q231 216 239 204T270 192Q293 192 301 204T310 249Q310 282 302 294T270
306Q247 306 239 294T231 249ZM454 687V530H280V687H454ZM257 687V530H84V687H257Z" />
<glyph unicode="&#xf7;" glyph-name="divide" horiz-adv-x="500" d="M345 436H156V612H345V436ZM463 406V238H37V406H463ZM345 32H156V208H345V32Z" />
<glyph unicode="&#xf8;" glyph-name="oslash" horiz-adv-x="541" d="M124 -96L6 -15L60 64Q35 95 23 140T11 246Q11 384 71 444T270 504Q293 504 314 502T357 496L418 586L537 507L482 426Q506 395 518 351T530 246Q530 108 470 48T270 -12Q245 -12 225 -11T187
-5L124 -96ZM231 249Q231 216 239 204T270 192Q293 192 301 204T310 249Q310 282 302 294T270 306Q247 306 239 294T231 249Z" />
<glyph unicode="&#xf9;" glyph-name="ugrave" horiz-adv-x="522" d="M172 -10Q96 -10 58 30T19 152V494H239V212Q239 201 244 197T259 192Q263 192 269 193T281 197V494H501V0H311L303 55H299Q273 23 241 7T172 -10ZM216 530L51 672H274L382 530H216Z" />
<glyph unicode="&#xfa;" glyph-name="uacute" horiz-adv-x="522" d="M172 -10Q96 -10 58 30T19 152V494H239V212Q239 201 244 197T259 192Q263 192 269 193T281 197V494H501V0H311L303 55H299Q273 23 241 7T172 -10ZM248 672H471L306 530H140L248 672Z" />
<glyph unicode="&#xfb;" glyph-name="ucircumflex" horiz-adv-x="522" d="M172 -10Q96 -10 58 30T19 152V494H239V212Q239 201 244 197T259 192Q263 192 269 193T281 197V494H501V0H311L303 55H299Q273 23 241 7T172 -10ZM456 530H300L261 581L222 530H66L167
672H355L456 530Z" />
<glyph unicode="&#xfc;" glyph-name="udieresis" horiz-adv-x="522" d="M172 -10Q96 -10 58 30T19 152V494H239V212Q239 201 244 197T259 192Q263 192 269 193T281 197V494H501V0H311L303 55H299Q273 23 241 7T172 -10ZM445 687V530H271V687H445ZM248 687V530H75V687H248Z"
/>
<glyph unicode="&#xfd;" glyph-name="yacute" horiz-adv-x="539" d="M115 12Q137 12 148 15T159 26L-6 494H236L274 225L312 494H545L395 14Q364 -79 310 -120T162 -162Q138 -162 111 -160T66 -153V16Q73 14 86 13T115 12ZM262 672H485L320 530H154L262 672Z" />
<glyph unicode="&#xfe;" glyph-name="thorn" horiz-adv-x="547" d="M241 -152H21V665H241V457Q264 481 294 493T364 505Q456 505 495 447T535 247Q535 114 485 52T329 -11Q304 -11 282 -8T241 0V-152ZM315 248Q315 281 308 293T279 306Q270 306 261 304T241 297V196Q249
194 258 193T279 192Q300 192 307 205T315 248Z" />
<glyph unicode="&#xff;" glyph-name="ydieresis" horiz-adv-x="539" d="M115 12Q137 12 148 15T159 26L-6 494H236L274 225L312 494H545L395 14Q364 -79 310 -120T162 -162Q138 -162 111 -160T66 -153V16Q73 14 86 13T115 12ZM459 687V530H285V687H459ZM262 687V530H89V687H262Z"
/>
<glyph unicode="&#x2013;" glyph-name="endash" horiz-adv-x="445" d="M427 401V237H18V401H427Z" />
<glyph unicode="&#x2014;" glyph-name="emdash" horiz-adv-x="725" d="M707 401V237H18V401H707Z" />
<glyph unicode="&#x2018;" glyph-name="quoteleft" horiz-adv-x="210" d="M2 357L37 559Q42 590 65 608T123 627H192V357H2Z" />
<glyph unicode="&#x2019;" glyph-name="quoteright" horiz-adv-x="207" d="M208 627L173 425Q168 394 145 376T87 357H18V627H208Z" />
<glyph unicode="&#x201a;" glyph-name="quotesinglbase" horiz-adv-x="209" d="M204 135L169 -67Q164 -98 141 -116T83 -135H14V135H204Z" />
<glyph unicode="&#x201c;" glyph-name="quotedblleft" horiz-adv-x="420" d="M2 357L37 559Q42 590 65 608T123 627H192V357H2ZM212 357L247 559Q252 590 275 608T333 627H402V357H212Z" />
<glyph unicode="&#x201d;" glyph-name="quotedblright" horiz-adv-x="417" d="M418 627L383 425Q378 394 355 376T297 357H228V627H418ZM208 627L173 425Q168 394 145 376T87 357H18V627H208Z" />
<glyph unicode="&#x201e;" glyph-name="quotedblbase" horiz-adv-x="419" d="M414 135L379 -67Q374 -98 351 -116T293 -135H224V135H414ZM204 135L169 -67Q164 -98 141 -116T83 -135H14V135H204Z" />
<glyph unicode="&#x2022;" glyph-name="bullet" horiz-adv-x="310" d="M267 185H43V435H267V185Z" />
<glyph unicode="&#x2039;" glyph-name="guilsinglleft" horiz-adv-x="326" d="M318 64H130L9 281L130 494H318L199 285L318 64Z" />
<glyph unicode="&#x203a;" glyph-name="guilsinglright" horiz-adv-x="326" d="M317 281L196 64H8L127 285L8 494H196L317 281Z" />
</font>
</defs>
</svg>
