<?xml version="1.0" standalone="no"?>
<!DOCTYPE svg PUBLIC "-//W3C//DTD SVG 1.1//EN" "http://www.w3.org/Graphics/SVG/1.1/DTD/svg11.dtd">
<svg xmlns="http://www.w3.org/2000/svg">
<defs >
<font id="Blinker" horiz-adv-x="479" ><font-face
    font-family="Blinker Thin"
    units-per-em="1000"
    panose-1="2 0 0 0 0 0 0 0 0 0"
    ascent="960"
    descent="-240"
    alphabetic="0" />
<glyph unicode=" " glyph-name="space" horiz-adv-x="192" />
<glyph unicode="!" glyph-name="exclam" horiz-adv-x="200" d="M88 627H112L108 145H92L88 627ZM112 33V0H88V33H112Z" />
<glyph unicode="&quot;" glyph-name="quotedbl" horiz-adv-x="309" d="M74 627H95V399H74V627ZM214 627H235V399H214V627Z" />
<glyph unicode="#" glyph-name="numbersign" horiz-adv-x="600" d="M560 493V473H468L418 164H525V144H414L390 0H369L392 144H155L132 0H110L134 144H41V164H138L189 473H76V493H193L214 627H235L214 493H450L472 627H493L472 493H560ZM396 164L447 473H211L159
164H396Z" />
<glyph unicode="$" glyph-name="dollar" horiz-adv-x="493" d="M254 -6V-100H234V-6Q184 -5 137 3T53 25V45Q109 28 155 21T250 14Q343 14 383 48T424 169Q424 224 402 248T313 292L164 334Q105 350 80 380T55 465Q55 548 98 590T234 637V727H254V637H256Q297
637 333 633T401 619V599Q365 608 329 612T256 617Q161 617 119 581T76 466Q76 419 97 395T173 354L322 311Q395 290 420 260T445 168Q445 76 399 35T254 -6Z" />
<glyph unicode="%" glyph-name="percent" horiz-adv-x="634" d="M276 475Q276 390 250 355T161 320Q98 320 72 355T46 475Q46 561 72 596T161 631Q224 631 250 596T276 475ZM475 627L175 0H152L452 627H475ZM255 475Q255 551 234 581T161 612Q109 612 88 582T67
475Q67 400 88 370T161 339Q213 339 234 369T255 475ZM588 152Q588 67 562 32T473 -3Q410 -3 384 32T358 152Q358 238 384 273T473 308Q536 308 562 273T588 152ZM567 152Q567 228 546 258T473 289Q421 289 400 259T379 152Q379 77 400 47T473 16Q525 16 546 46T567
152Z" />
<glyph unicode="&amp;" glyph-name="ampersand" horiz-adv-x="751" d="M331 14Q396 14 443 23T523 52V327H725V307H544V40Q503 15 453 5T331 -6Q193 -6 129 74T64 329Q64 488 127 562T326 637Q414 637 464 596T514 483Q514 378 413 331T86 281Q94 141 153 78T331
14ZM326 617Q199 617 142 549T85 329V301Q300 304 396 346T493 482Q493 545 449 581T326 617Z" />
<glyph unicode="&apos;" glyph-name="quotesingle" horiz-adv-x="169" d="M74 627H95V399H74V627Z" />
<glyph unicode="(" glyph-name="parenleft" horiz-adv-x="211" d="M84 313Q84 200 105 101T167 -75L151 -80Q108 -2 86 99T63 313Q63 430 85 530T151 707L167 702Q126 625 105 526T84 313Z" />
<glyph unicode=")" glyph-name="parenright" horiz-adv-x="211" d="M127 313Q127 426 106 525T44 702L60 707Q103 630 125 530T148 313Q148 200 126 99T60 -80L44 -75Q85 2 106 101T127 313Z" />
<glyph unicode="*" glyph-name="asterisk" horiz-adv-x="412" d="M219 460L310 337L290 323L205 450L117 326L98 340L192 460L47 506L55 529L197 477L194 627H218L215 476L358 525L365 502L219 460Z" />
<glyph unicode="+" glyph-name="plus" horiz-adv-x="500" d="M463 332V312H261V110H241V312H37V332H241V532H261V332H463Z" />
<glyph unicode="," glyph-name="comma" horiz-adv-x="149" d="M91 38L71 -95Q69 -104 67 -107T57 -110H55L65 38H91Z" />
<glyph unicode="-" glyph-name="hyphen" horiz-adv-x="445" d="M382 328V308H63V328H382Z" />
<glyph unicode="." glyph-name="period" horiz-adv-x="130" d="M77 0H53V33H77V0Z" />
<glyph unicode="/" glyph-name="slash" horiz-adv-x="291" d="M257 707L57 -80H35L235 707H257Z" />
<glyph unicode="0" glyph-name="zero" horiz-adv-x="581" d="M512 316Q512 137 463 66T291 -6Q210 -6 166 16T99 89Q84 125 77 179T69 316Q69 495 118 566T291 637Q372 637 416 615T482 542Q498 507 505 453T512 316ZM466 527Q446 575 406 596T291 617Q177 617
134 552T90 316Q90 238 96 188T115 104Q135 56 175 35T291 14Q404 14 447 79T491 316Q491 393 485 443T466 527Z" />
<glyph unicode="1" glyph-name="one" horiz-adv-x="364" d="M260 0H239V613L20 583V604L260 637V0Z" />
<glyph unicode="2" glyph-name="two" horiz-adv-x="448" d="M399 20V0H33V20L273 299Q321 354 341 398T361 488Q361 551 326 584T225 617Q182 617 140 611T65 594V615Q104 626 142 631T223 637Q301 637 341 599T382 488Q382 440 362 395T290 289L59 20H399Z" />
<glyph unicode="3" glyph-name="three" horiz-adv-x="470" d="M377 484Q377 424 348 384T266 329V327Q335 323 371 283T408 170Q408 84 356 39T205 -6Q151 -6 114 -2T42 12V33Q74 22 111 18T205 14Q294 14 340 54T387 169Q387 244 346 279T216 314H125V333H199Q270
333 313 373T357 483Q357 551 323 584T218 617Q177 617 140 612T66 596V616Q103 627 139 632T218 637Q297 637 337 599T377 484Z" />
<glyph unicode="4" glyph-name="four" horiz-adv-x="520" d="M485 207V187H382V0H361V187H48V206L129 627H150L69 207H361V517H382V207H485Z" />
<glyph unicode="5" glyph-name="five" horiz-adv-x="468" d="M415 182Q415 82 368 38T211 -6Q161 -6 121 -1T53 13V34Q84 24 124 19T211 14Q310 14 352 52T394 182Q394 258 353 292T207 326Q172 326 143 323T84 313V627H375V607H105V336Q131 341 156 343T207 346Q320
346 367 307T415 182Z" />
<glyph unicode="6" glyph-name="six" horiz-adv-x="531" d="M272 -6Q163 -6 116 65T68 297Q68 485 126 561T324 637Q344 637 366 635T400 631V611Q383 614 364 615T324 617Q199 617 146 552T89 323Q146 358 197 373T305 389Q397 389 439 346T481 207Q481 106 426
50T272 -6ZM89 303V297Q89 146 131 80T272 14Q363 14 411 64T460 207Q460 293 422 331T296 369Q246 369 195 353T89 303Z" />
<glyph unicode="7" glyph-name="seven" horiz-adv-x="442" d="M413 627V608L78 0H56L390 607H36V627H413Z" />
<glyph unicode="8" glyph-name="eight" horiz-adv-x="540" d="M474 165Q474 77 424 36T268 -6Q165 -6 116 33T66 155Q66 228 103 271T209 321Q145 326 112 366T78 476Q78 557 125 597T268 637Q366 637 414 599T462 481Q462 409 428 368T328 321Q398 316 436 276T474
165ZM442 480Q442 552 401 584T268 617Q179 617 139 584T98 477Q98 401 139 366T267 330Q356 330 399 366T442 480ZM454 164Q454 239 409 274T267 310Q175 310 131 272T87 155Q87 82 131 48T268 14Q364 14 409 50T454 164Z" />
<glyph unicode="9" glyph-name="nine" horiz-adv-x="523" d="M256 637Q365 637 410 568T455 334Q455 146 397 70T199 -6Q179 -6 157 -4T123 0V20Q140 17 159 16T199 14Q324 14 377 80T434 312Q386 279 337 263T234 247Q139 247 95 292T51 434Q51 530 105 583T256
637ZM256 617Q167 617 120 570T72 434Q72 345 111 306T243 267Q290 267 338 283T434 332V334Q434 491 395 554T256 617Z" />
<glyph unicode=":" glyph-name="colon" horiz-adv-x="176" d="M100 461H76V494H100V461ZM100 0H76V33H100V0Z" />
<glyph unicode=";" glyph-name="semicolon" horiz-adv-x="197" d="M114 38L94 -95Q92 -104 90 -107T80 -110H78L88 38H114ZM112 461H88V494H112V461Z" />
<glyph unicode="&lt;" glyph-name="less" horiz-adv-x="500" d="M463 108V87L37 302V323L463 537V516L58 312L463 108Z" />
<glyph unicode="=" glyph-name="equal" horiz-adv-x="500" d="M463 473V453H37V473H463ZM463 427V407H37V427H463Z" />
<glyph unicode="&gt;" glyph-name="greater" horiz-adv-x="500" d="M463 302L37 87V108L442 312L37 516V537L463 323V302Z" />
<glyph unicode="?" glyph-name="question" horiz-adv-x="401" d="M187 637Q269 637 314 603T359 504Q359 444 314 394T172 297V145H152V308Q251 353 295 400T339 504Q339 559 299 588T187 618Q144 618 104 611T27 588V608Q63 622 104 629T187 637ZM173 33V0H149V33H173Z" />
<glyph unicode="@" glyph-name="at" horiz-adv-x="692" d="M318 67Q268 67 244 92T220 171Q220 223 249 245T347 268Q370 268 392 266T454 258V294Q454 354 431 377T357 400Q331 400 308 397T257 387V406Q285 414 306 416T357 419Q419 419 446 392T474 294V137Q474
110 482 98T509 86Q554 86 580 139T607 283Q607 412 546 475T363 538Q216 538 149 466T82 236Q82 84 150 14T368 -57Q423 -57 467 -47T551 -16V-36Q518 -55 470 -65T368 -76Q208 -76 135 -1T62 236Q62 402 134 479T363 557Q494 557 561 488T628 284Q628 182 597
125T508 67Q486 67 473 79T457 113Q430 90 395 79T318 67ZM348 249Q288 249 264 232T240 172Q240 127 260 107T323 86Q364 86 398 97T454 130V239Q419 245 396 247T348 249Z" />
<glyph unicode="A" glyph-name="A" horiz-adv-x="592" d="M46 0H23L285 627H307L569 0H546L466 193H126L46 0ZM296 608Q286 578 267 533T243 476L134 213H458L349 476Q344 487 325 532T296 608Z" />
<glyph unicode="B" glyph-name="B" horiz-adv-x="567" d="M508 176Q508 79 459 40T298 0H93V627H297Q398 627 440 594T482 479Q482 414 455 378T372 333Q439 329 473 289T508 176ZM461 477Q461 551 425 579T298 607H114V339H298Q384 339 422 371T461 477ZM487
176Q487 257 445 288T298 319H114V20H298Q402 20 444 54T487 176Z" />
<glyph unicode="C" glyph-name="C" horiz-adv-x="535" d="M327 14Q369 14 413 24T498 53V33Q444 11 402 3T317 -6Q181 -6 123 69T64 316Q64 482 129 559T337 637Q383 637 419 635T484 628V607Q448 612 413 614T337 617Q203 617 144 546T85 316Q85 149 138 82T327 14Z" />
<glyph unicode="D" glyph-name="D" horiz-adv-x="615" d="M242 0H93V627H242Q340 627 397 612T487 561Q520 527 535 468T550 314Q550 151 477 76T242 0ZM471 545Q440 578 387 592T242 607H114V20H242Q394 20 461 89T529 314Q529 403 515 458T471 545Z" />
<glyph unicode="E" glyph-name="E" horiz-adv-x="538" d="M495 20V0H93V627H486V607H114V333H449V313H114V20H495Z" />
<glyph unicode="F" glyph-name="F" horiz-adv-x="509" d="M114 288V0H93V627H476V607H114V308H439V288H114Z" />
<glyph unicode="G" glyph-name="G" horiz-adv-x="618" d="M535 285H323V305H556V32Q528 19 456 7T325 -6Q177 -6 121 64T65 314Q65 478 133 557T345 637Q390 637 437 635T522 627V607Q484 612 437 614T345 617Q211 617 149 544T86 314Q86 232 96 178T128 89Q154
49 201 32T335 14Q382 14 445 24T535 46V285Z" />
<glyph unicode="H" glyph-name="H" horiz-adv-x="656" d="M114 0H93V627H114V328H542V627H563V0H542V308H114V0Z" />
<glyph unicode="I" glyph-name="I" horiz-adv-x="207" d="M114 627V0H93V627H114Z" />
<glyph unicode="J" glyph-name="J" horiz-adv-x="445" d="M336 224V627H357V224Q357 106 306 50T144 -6Q109 -6 80 -3T26 9V29Q51 21 79 18T139 14Q243 14 289 63T336 224Z" />
<glyph unicode="K" glyph-name="K" horiz-adv-x="566" d="M252 319L547 0H516L232 308H114V0H93V627H114V328H232L505 627H535L252 319Z" />
<glyph unicode="L" glyph-name="L" horiz-adv-x="487" d="M463 20V0H93V627H114V20H463Z" />
<glyph unicode="M" glyph-name="M" horiz-adv-x="743" d="M650 627V0H629V602L384 130H359L114 603V0H93V627H124L372 153L619 627H650Z" />
<glyph unicode="N" glyph-name="N" horiz-adv-x="673" d="M580 627V0H550L114 603V0H93V627H123L559 24V627H580Z" />
<glyph unicode="O" glyph-name="O" horiz-adv-x="662" d="M597 316Q597 146 535 70T332 -6Q242 -6 191 13T111 76Q87 112 76 170T65 316Q65 485 127 561T332 637Q421 637 472 618T551 555Q575 518 586 461T597 316ZM126 91Q151 50 198 32T332 14Q464 14 520 84T576
316Q576 399 567 453T537 541Q512 582 466 599T332 617Q199 617 143 547T86 316Q86 233 95 179T126 91Z" />
<glyph unicode="P" glyph-name="P" horiz-adv-x="571" d="M114 228V0H93V627H292Q414 627 468 582T523 435Q523 330 467 279T295 228H114ZM502 435Q502 526 453 566T292 607H114V247H292Q400 247 451 293T502 435Z" />
<glyph unicode="Q" glyph-name="Q" horiz-adv-x="662" d="M332 -6Q242 -6 191 13T111 76Q87 112 76 170T65 316Q65 485 127 561T332 637Q421 637 472 618T551 555Q575 518 586 461T597 316Q597 186 562 112T450 11L557 -128H530L429 5Q409 -1 385 -3T332 -6ZM126
91Q151 50 198 32T332 14Q464 14 520 84T576 316Q576 399 567 453T537 541Q512 582 466 599T332 617Q199 617 143 547T86 316Q86 233 95 179T126 91Z" />
<glyph unicode="R" glyph-name="R" horiz-adv-x="580" d="M114 248V0H93V627H292Q414 627 468 584T523 445Q523 360 482 312T358 252L535 0H510L335 250Q322 249 313 249T295 248H114ZM502 445Q502 531 453 569T292 607H114V267H292Q400 267 451 310T502 445Z" />
<glyph unicode="S" glyph-name="S" horiz-adv-x="521" d="M342 291L167 333Q110 347 84 380T58 472Q58 559 108 598T272 637Q318 637 357 633T426 619V599Q394 608 354 612T272 617Q168 617 124 584T79 473Q79 421 101 394T176 354L351 311Q422 294 448 263T474
168Q474 71 426 33T266 -6Q205 -6 148 2T56 25V45Q108 29 159 22T266 14Q369 14 411 46T453 169Q453 225 430 250T342 291Z" />
<glyph unicode="T" glyph-name="T" horiz-adv-x="551" d="M528 627V607H286V0H265V607H23V627H528Z" />
<glyph unicode="U" glyph-name="U" horiz-adv-x="644" d="M535 238V627H556V238Q556 110 499 52T318 -6Q199 -6 144 52T88 238V627H109V238Q109 117 158 66T318 14Q433 14 484 66T535 238Z" />
<glyph unicode="V" glyph-name="V" horiz-adv-x="572" d="M275 0L23 627H46L235 151Q238 142 242 132T254 103Q268 69 274 52T286 19Q296 49 314 95T337 151L526 627H549L297 0H275Z" />
<glyph unicode="W" glyph-name="W" horiz-adv-x="866" d="M211 0L29 627H51L189 151Q194 135 202 103T223 22Q239 75 248 107T262 151L422 627H444L604 151Q608 139 617 107T643 22Q654 68 662 96T678 151L815 627H837L655 0H633L473 469Q458 513 449 544T433
602Q426 575 417 544T393 469L233 0H211Z" />
<glyph unicode="X" glyph-name="X" horiz-adv-x="533" d="M275 324L516 0H490L262 308L48 0H23L250 323L30 627H55L262 339L470 627H495L275 324Z" />
<glyph unicode="Y" glyph-name="Y" horiz-adv-x="563" d="M516 627H539L293 248V0H272V248L20 627H43L283 268L516 627Z" />
<glyph unicode="Z" glyph-name="Z" horiz-adv-x="508" d="M483 20V0H28V20L440 607H57V627H464V607L53 20H483Z" />
<glyph unicode="[" glyph-name="bracketleft" horiz-adv-x="286" d="M256 -62V-82H91V707H256V687H112V-62H256Z" />
<glyph unicode="\" glyph-name="backslash" horiz-adv-x="291" d="M56 707L256 -80H234L34 707H56Z" />
<glyph unicode="]" glyph-name="bracketright" horiz-adv-x="286" d="M195 -82H30V-62H174V687H30V707H195V-82Z" />
<glyph unicode="^" glyph-name="asciicircum" horiz-adv-x="500" d="M116 365H94L239 627H262L405 365H384L250 608L116 365Z" />
<glyph unicode="_" glyph-name="underscore" horiz-adv-x="475" d="M442 -39V-59H33V-39H442Z" />
<glyph unicode="`" glyph-name="grave" horiz-adv-x="234" d="M162 571L50 682H84L184 571H162Z" />
<glyph unicode="a" glyph-name="a" horiz-adv-x="500" d="M195 -6Q119 -6 84 29T48 141Q48 215 91 247T237 279Q276 279 312 276T399 266V327Q399 414 364 449T249 485Q206 485 173 481T100 466V486Q145 497 177 500T255 504Q341 504 380 463T419 327V0H403L401
56H400Q370 28 314 11T195 -6ZM237 260Q143 260 106 234T68 142Q68 74 99 44T200 13Q257 13 313 30T399 74V247Q360 254 320 257T237 260Z" />
<glyph unicode="b" glyph-name="b" horiz-adv-x="544" d="M286 504Q390 504 436 444T482 249Q482 111 429 53T245 -6Q201 -6 161 0T84 18V665H104V449Q143 477 188 490T286 504ZM281 485Q231 485 186 471T104 428V32Q134 23 170 18T245 13Q367 13 414 66T462 249Q462
376 422 430T281 485Z" />
<glyph unicode="c" glyph-name="c" horiz-adv-x="454" d="M416 50V31Q391 15 345 5T248 -6Q144 -6 103 50T62 249Q62 385 115 444T294 504Q320 504 341 503T403 495V476Q372 482 349 483T294 485Q178 485 130 431T82 249Q82 116 119 65T253 13Q298 13 343 24T416 50Z" />
<glyph unicode="d" glyph-name="d" horiz-adv-x="545" d="M440 665H460V0H444L442 50H441Q403 22 358 8T258 -6Q154 -6 108 54T62 249Q62 387 115 445T299 504Q341 504 375 499T440 480V665ZM263 13Q316 13 360 27T440 70V460Q412 473 378 479T299 485Q177 485
130 432T82 249Q82 122 122 68T263 13Z" />
<glyph unicode="e" glyph-name="e" horiz-adv-x="503" d="M427 47V27Q398 13 354 4T268 -6Q157 -6 110 54T62 252Q62 385 110 444T266 504Q361 504 404 456T448 302Q448 290 447 276T444 246H82Q82 122 125 68T272 13Q312 13 356 23T427 47ZM428 302Q428 398 389
441T266 485Q168 485 125 434T82 265H426Q427 274 427 283T428 302Z" />
<glyph unicode="f" glyph-name="f" horiz-adv-x="348" d="M114 475H26V494H114V518Q114 601 150 638T266 675Q287 675 305 674T342 668V649Q330 652 309 654T262 656Q193 656 164 625T134 518V494H327V475H134V0H114V475Z" />
<glyph unicode="g" glyph-name="g" horiz-adv-x="539" d="M272 -162Q227 -162 188 -156T121 -139V-119Q144 -129 185 -136T266 -143Q360 -143 397 -102T434 48V89Q397 61 353 48T256 34Q152 34 107 90T62 269Q62 396 114 450T297 504Q336 504 373 500T454 485V50Q454
-68 413 -115T272 -162ZM261 53Q311 53 354 67T434 110V470Q401 477 366 481T297 485Q176 485 129 436T82 269Q82 153 122 103T261 53Z" />
<glyph unicode="h" glyph-name="h" horiz-adv-x="552" d="M105 0H85V665H105V446Q162 477 209 490T307 504Q387 504 429 463T471 342V0H451V342Q451 415 414 450T300 485Q254 485 206 471T105 427V0Z" />
<glyph unicode="i" glyph-name="i" horiz-adv-x="190" d="M107 631H83V664H107V631ZM105 0H85V494H105V0Z" />
<glyph unicode="j" glyph-name="j" horiz-adv-x="202" d="M119 631H95V664H119V631ZM-23 -162Q-44 -162 -62 -161T-98 -156V-137Q-79 -140 -62 -141T-27 -143Q37 -143 67 -108T97 5V494H117V5Q117 -80 83 -121T-23 -162Z" />
<glyph unicode="k" glyph-name="k" horiz-adv-x="474" d="M105 240V0H85V665H105V259H187L413 494H441L207 252L451 0H421L190 240H105Z" />
<glyph unicode="l" glyph-name="l" horiz-adv-x="190" d="M105 665V0H85V665H105Z" />
<glyph unicode="m" glyph-name="m" horiz-adv-x="812" d="M105 0H85V494H101L104 448H106Q166 482 201 493T274 504Q318 504 349 490T398 448H401Q456 479 498 491T587 504Q657 504 694 469T731 368V0H711V368Q711 428 679 456T580 485Q540 485 497 472T407 431Q412
417 415 401T418 368V0H398V368Q398 428 366 456T267 485Q235 485 199 473T105 428V0Z" />
<glyph unicode="n" glyph-name="n" horiz-adv-x="552" d="M105 0H85V494H101L103 446H105Q164 478 210 491T307 504Q388 504 429 463T471 342V0H451V342Q451 415 414 450T300 485Q254 485 206 471T105 427V0Z" />
<glyph unicode="o" glyph-name="o" horiz-adv-x="554" d="M491 249Q491 107 444 51T277 -6Q151 -6 107 46T63 249Q63 391 110 447T277 504Q403 504 447 452T491 249ZM83 249Q83 109 122 61T277 13Q387 13 429 64T471 249Q471 389 432 437T277 485Q167 485 125
434T83 249Z" />
<glyph unicode="p" glyph-name="p" horiz-adv-x="545" d="M105 -152H85V494H101L103 448H104Q143 476 188 490T287 504Q391 504 437 444T483 249Q483 111 430 53T246 -6Q204 -6 170 -1T105 18V-152ZM282 485Q231 485 186 471T105 428V38Q133 25 167 19T246 13Q368
13 415 66T463 249Q463 376 423 430T282 485Z" />
<glyph unicode="q" glyph-name="q" horiz-adv-x="545" d="M460 485V-152H440V49Q405 21 360 8T258 -6Q154 -6 108 54T62 249Q62 387 115 445T299 504Q341 504 380 500T460 485ZM263 13Q317 13 362 27T440 70V470Q409 477 373 481T299 485Q177 485 130 432T82 249Q82
122 122 68T263 13Z" />
<glyph unicode="r" glyph-name="r" horiz-adv-x="349" d="M105 0H85V494H101L104 446H106Q150 470 195 483T284 496Q295 496 307 496T325 494V475Q321 476 315 476T277 477Q237 477 191 464T105 427V0Z" />
<glyph unicode="s" glyph-name="s" horiz-adv-x="449" d="M234 485Q152 485 117 459T82 362Q82 324 99 306T155 280L289 258Q353 247 376 222T400 138Q400 62 362 28T238 -6Q180 -6 129 1T51 20V40Q81 28 131 21T238 13Q315 13 347 42T380 138Q380 187 360 208T283
238L151 260Q104 268 83 291T62 361Q62 438 103 471T234 504Q263 504 286 503T366 494V475Q332 480 300 482T234 485Z" />
<glyph unicode="t" glyph-name="t" horiz-adv-x="366" d="M349 24V6Q331 0 309 -3T262 -6Q180 -6 147 31T113 170V475H25V494H113L118 619H133V494H343V475H133V170Q133 80 162 47T265 13Q287 13 311 16T349 24Z" />
<glyph unicode="u" glyph-name="u" horiz-adv-x="542" d="M243 -6Q163 -6 122 35T81 156V494H101V156Q101 82 137 48T250 13Q294 13 340 27T437 71V494H457V0H441L439 53H437Q389 24 341 9T243 -6Z" />
<glyph unicode="v" glyph-name="v" horiz-adv-x="487" d="M440 494H463L255 0H232L24 494H47L244 20L440 494Z" />
<glyph unicode="w" glyph-name="w" horiz-adv-x="683" d="M629 494H650L509 0H483L335 475L199 0H173L33 494H54L186 24L320 494H349L497 24L629 494Z" />
<glyph unicode="x" glyph-name="x" horiz-adv-x="431" d="M228 257L405 0H380L215 242L51 0H26L202 256L38 494H63L215 272L368 494H393L228 257Z" />
<glyph unicode="y" glyph-name="y" horiz-adv-x="489" d="M199 -91Q204 -81 210 -67T239 4L22 494H45L250 27L443 494H465L238 -54Q210 -122 184 -142T117 -162Q101 -162 86 -161T56 -155V-136Q70 -139 85 -141T117 -143Q146 -143 164 -132T199 -91Z" />
<glyph unicode="z" glyph-name="z" horiz-adv-x="425" d="M395 19V0H36V19L355 475H54V494H378V475L59 19H395Z" />
<glyph unicode="{" glyph-name="braceleft" horiz-adv-x="291" d="M59 317V315Q97 308 118 267T140 157V43Q140 -12 172 -42T263 -72V-92Q195 -92 157 -57T119 43V157Q119 227 94 266T30 305H22V325H30Q69 325 94 364T119 473V583Q119 647 157 682T263 718V698Q204
698 172 668T140 583V473Q140 405 119 365T59 317Z" />
<glyph unicode="|" glyph-name="bar" horiz-adv-x="203" d="M112 707V-80H91V707H112Z" />
<glyph unicode="}" glyph-name="braceright" horiz-adv-x="291" d="M232 315V317Q193 324 172 364T151 473V583Q151 638 119 668T28 698V718Q96 718 134 683T172 583V473Q172 403 197 364T261 325H269V305H261Q222 305 197 266T172 157V43Q172 -21 134 -56T28
-92V-72Q87 -72 119 -42T151 43V157Q151 226 172 267T232 315Z" />
<glyph unicode="~" glyph-name="asciitilde" horiz-adv-x="665" d="M581 458H601Q601 357 567 302T469 247Q438 247 409 267T329 351Q283 410 257 428T204 447Q144 447 114 399T84 255H64Q64 354 100 410T206 466Q237 466 266 446T346 362Q393 302 419 284T471
266Q524 266 552 316T581 458Z" />
<glyph unicode="&#xa0;" glyph-name="uni00A0" horiz-adv-x="192" />
<glyph unicode="&#xa1;" glyph-name="exclamdown" horiz-adv-x="188" d="M82 494H106V461H82V494ZM102 349L106 -133H82L86 349H102Z" />
<glyph unicode="&#xa2;" glyph-name="cent" horiz-adv-x="452" d="M276 72V-23H256V71H240Q136 71 95 127T54 326Q54 454 101 514T256 580V671H276V581H286Q312 581 333 580T395 572V553Q364 559 341 560T286 562Q170 562 122 508T74 326Q74 193 111 142T245 90Q290
90 335 101T408 127V108Q389 95 353 85T276 72Z" />
<glyph unicode="&#xa3;" glyph-name="sterling" horiz-adv-x="512" d="M45 289V309H133V456Q133 549 176 593T312 637Q348 637 381 633T455 618V598Q403 610 374 613T312 617Q229 617 192 579T154 456V309H421V289H154V195Q154 129 137 89T77 23V20H471V0H45V21Q93
48 113 88T133 195V289H45Z" />
<glyph unicode="&#xa4;" glyph-name="currency" horiz-adv-x="668" d="M86 53L72 67L141 136Q108 171 91 217T73 316Q73 368 91 414T142 496L74 564L88 578L156 510Q191 542 236 558T332 575Q384 575 430 558T511 509L580 578L594 563L526 495Q560 459 577 413T595
315Q595 264 578 219T528 138L597 69L583 55L514 124Q479 91 433 74T334 56Q283 56 237 73T155 122L86 53ZM332 556Q230 556 162 487T93 316Q93 213 162 144T334 75Q438 75 506 143T575 316Q575 419 506 487T332 556Z" />
<glyph unicode="&#xa5;" glyph-name="yen" horiz-adv-x="559" d="M67 122V142H270V252H67V272H261L40 627H63L281 278L492 627H515L299 272H494V252H291V142H494V122H291V0H270V122H67Z" />
<glyph unicode="&#xa6;" glyph-name="brokenbar" horiz-adv-x="203" d="M112 707V380H91V707H112ZM112 247V-80H91V247H112Z" />
<glyph unicode="&#xa7;" glyph-name="section" horiz-adv-x="516" d="M260 618Q178 618 142 599T105 539Q105 513 122 497T183 464L395 386Q438 370 454 349T470 291Q470 254 447 223T377 166Q406 151 418 134T431 90Q431 39 389 15T256 -10Q211 -10 171 -5T98
10V31Q129 20 171 14T256 9Q338 9 374 28T411 88Q411 114 394 130T333 163L121 241Q78 257 62 278T46 336Q46 373 69 404T139 461Q110 476 98 493T85 537Q85 588 127 612T260 637Q305 637 345 632T418 617V596Q387 607 345 613T260 618ZM132 258L341 181Q348 179
351 178T358 174Q406 200 428 228T450 288Q450 320 437 337T384 369L175 446Q168 448 165 449T158 453Q110 427 88 399T66 339Q66 307 79 290T132 258Z" />
<glyph unicode="&#xa8;" glyph-name="dieresis" horiz-adv-x="296" d="M246 602V571H218V602H246ZM78 602V571H50V602H78Z" />
<glyph unicode="&#xa9;" glyph-name="copyright" horiz-adv-x="736" d="M674 314Q674 151 599 71T369 -10Q214 -10 138 70T62 314Q62 477 138 557T369 637Q523 637 598 557T674 314ZM655 314Q655 467 584 542T369 618Q224 618 153 543T82 314Q82 160 153 85T369
9Q513 9 584 84T655 314ZM383 156Q407 156 431 161T480 177V158Q461 148 435 143T378 137Q282 137 245 177T207 316Q207 408 250 451T387 494Q408 494 428 492T471 484V465Q451 470 431 472T386 475Q301 475 264 438T227 316Q227 226 260 191T383 156Z" />
<glyph unicode="&#xaa;" glyph-name="ordfeminine" horiz-adv-x="374" d="M160 351Q114 351 93 371T71 435Q71 477 96 495T182 514Q204 514 224 513T272 507V538Q272 583 252 600T186 618Q159 618 140 616T100 608V628Q122 633 142 635T189 637Q242 637 267 614T292
539V355H275L274 386H273Q250 370 220 361T160 351ZM183 495Q132 495 112 482T91 436Q91 401 108 386T163 370Q193 370 224 380T272 403V488Q250 492 229 493T183 495ZM294 277H74V296H294V277Z" />
<glyph unicode="&#xab;" glyph-name="guillemotleft" horiz-adv-x="451" d="M207 64H186L37 281L186 494H207L59 281L207 64ZM401 64H380L231 281L380 494H401L253 281L401 64Z" />
<glyph unicode="&#xac;" glyph-name="logicalnot" horiz-adv-x="500" d="M463 392V150H443V372H37V392H463Z" />
<glyph unicode="&#xad;" glyph-name="uni00AD" horiz-adv-x="445" d="M382 328V308H63V328H382Z" />
<glyph unicode="&#xae;" glyph-name="registered" horiz-adv-x="472" d="M413 454Q413 360 370 315T237 270Q147 270 104 315T60 454Q60 547 103 592T237 637Q326 637 369 592T413 454ZM393 454Q393 537 355 577T237 618Q157 618 119 578T80 454Q80 370 118 330T237
289Q316 289 354 329T393 454ZM190 429V354H170V556H237Q279 556 297 542T315 494Q315 467 303 452T266 431L320 354H295L244 429H190ZM295 494Q295 516 281 526T237 537H190V446H237Q267 446 281 457T295 494Z" />
<glyph unicode="&#xaf;" glyph-name="overscore" horiz-adv-x="333" d="M283 595V576H50V595H283Z" />
<glyph unicode="&#xb0;" glyph-name="degree" horiz-adv-x="376" d="M320 500Q320 439 284 403T188 366Q128 366 92 402T56 500Q56 560 92 597T188 634Q248 634 284 597T320 500ZM76 500Q76 447 106 416T188 385Q239 385 269 416T300 500Q300 551 269 583T188
615Q138 615 107 583T76 500Z" />
<glyph unicode="&#xb1;" glyph-name="plusminus" horiz-adv-x="500" d="M463 421V401H260V219H240V401H37V421H240V601H260V421H463ZM463 110V90H37V110H463Z" />
<glyph unicode="&#xb2;" glyph-name="uni00B2" horiz-adv-x="297" d="M257 290V270H31V290L176 445Q203 474 214 497T226 546Q226 579 206 596T149 614Q124 614 97 611T50 601V620Q73 627 98 630T149 633Q197 633 222 611T247 547Q247 518 235 492T194 436L57 290H257Z" />
<glyph unicode="&#xb3;" glyph-name="uni00B3" horiz-adv-x="306" d="M243 545Q243 512 225 489T176 459V457Q217 455 239 432T261 368Q261 318 229 292T136 266Q104 266 81 268T36 277V296Q55 291 78 289T135 286Q187 286 214 307T241 368Q241 408 217 426T142
445H86V463H131Q172 463 197 484T223 543Q223 579 203 596T142 614Q117 614 93 611T50 602V621Q74 628 96 630T145 633Q194 633 218 611T243 545Z" />
<glyph unicode="&#xb4;" glyph-name="acute" horiz-adv-x="234" d="M150 682H184L72 571H50L150 682Z" />
<glyph unicode="&#xb5;" glyph-name="mu" horiz-adv-x="560" d="M246 -6Q189 -6 153 13T107 69Q107 -29 113 -73T133 -152H113Q99 -117 93 -74T87 60V494H107V156Q107 80 140 47T253 13Q298 13 348 28T450 72V494H470V0H454L451 53Q386 20 340 7T246 -6Z" />
<glyph unicode="&#xb6;" glyph-name="paragraph" horiz-adv-x="491" d="M402 627V-5Q402 -84 368 -123T262 -162Q241 -162 223 -161T187 -156V-137Q206 -140 223 -141T258 -143Q322 -143 352 -110T382 -5V156Q354 143 315 136T233 129Q129 129 88 185T47 384Q47
520 100 579T279 639Q311 639 338 637T402 627ZM279 620Q163 620 115 566T67 384Q67 251 104 200T238 148Q275 148 313 155T382 176V612Q358 617 335 618T279 620Z" />
<glyph unicode="&#xb7;" glyph-name="middot" horiz-adv-x="160" d="M92 301H68V334H92V301Z" />
<glyph unicode="&#xb8;" glyph-name="cedilla" horiz-adv-x="318" d="M275 -122Q275 -161 251 -178T171 -195Q136 -195 109 -192T60 -183V-164Q81 -170 109 -173T175 -176Q219 -176 237 -165T255 -122Q255 -97 234 -86T167 -74Q157 -74 144 -74T118 -76L137 9L158
8L142 -58Q210 -54 242 -69T275 -122Z" />
<glyph unicode="&#xb9;" glyph-name="uni00B9" horiz-adv-x="241" d="M172 270H151V611L22 595V614L172 633V270Z" />
<glyph unicode="&#xba;" glyph-name="ordmasculine" horiz-adv-x="406" d="M332 494Q332 420 301 386T204 351Q133 351 104 383T75 494Q75 569 105 603T204 637Q274 637 303 605T332 494ZM96 494Q96 424 119 397T204 370Q261 370 286 398T311 494Q311 564 288
591T204 618Q145 618 121 590T96 494ZM324 277H81V296H324V277Z" />
<glyph unicode="&#xbb;" glyph-name="guillemotright" horiz-adv-x="451" d="M414 281L265 64H244L392 281L244 494H265L414 281ZM220 281L71 64H50L198 281L50 494H71L220 281Z" />
<glyph unicode="&#xbc;" glyph-name="onequarter" horiz-adv-x="706" d="M173 270H152V611L23 595V614L173 633V270ZM471 627L171 0H148L448 627H471ZM675 123V104H615V0H594V104H406V122L455 357H475L427 123H594V295H615V123H675Z" />
<glyph unicode="&#xbd;" glyph-name="onehalf" horiz-adv-x="704" d="M173 270H152V611L23 595V614L173 633V270ZM471 627L171 0H148L448 627H471ZM658 20V0H432V20L577 175Q604 204 615 227T627 276Q627 309 607 326T550 344Q525 344 498 341T451 331V350Q474
357 499 360T550 363Q598 363 623 341T648 277Q648 248 636 222T595 166L458 20H658Z" />
<glyph unicode="&#xbe;" glyph-name="threequarters" horiz-adv-x="758" d="M250 545Q250 512 232 489T183 459V457Q224 455 246 432T268 368Q268 318 236 292T143 266Q111 266 88 268T43 277V296Q62 291 85 289T142 286Q194 286 221 307T248 368Q248 408 224
426T149 445H93V463H138Q179 463 204 484T230 543Q230 579 210 596T149 614Q124 614 100 611T57 602V621Q81 628 103 630T152 633Q201 633 225 611T250 545ZM525 627L225 0H202L502 627H525ZM729 123V104H669V0H648V104H460V122L509 357H529L481 123H648V295H669V123H729Z"
/>
<glyph unicode="&#xbf;" glyph-name="questiondown" horiz-adv-x="397" d="M227 461V494H251V461H227ZM213 -143Q131 -143 86 -109T41 -10Q41 50 86 100T228 197V349H248V186Q149 141 105 94T61 -10Q61 -65 101 -94T213 -124Q256 -124 296 -117T373 -94V-114Q337
-128 296 -135T213 -143Z" />
<glyph unicode="&#xc0;" glyph-name="Agrave" horiz-adv-x="592" d="M46 0H23L285 627H307L569 0H546L466 193H126L46 0ZM296 608Q286 578 267 533T243 476L134 213H458L349 476Q344 487 325 532T296 608ZM316 686L206 787H240L338 686H316Z" />
<glyph unicode="&#xc1;" glyph-name="Aacute" horiz-adv-x="592" d="M46 0H23L285 627H307L569 0H546L466 193H126L46 0ZM296 608Q286 578 267 533T243 476L134 213H458L349 476Q344 487 325 532T296 608ZM352 787H386L276 686H254L352 787Z" />
<glyph unicode="&#xc2;" glyph-name="Acircumflex" horiz-adv-x="592" d="M46 0H23L285 627H307L569 0H546L466 193H126L46 0ZM296 608Q286 578 267 533T243 476L134 213H458L349 476Q344 487 325 532T296 608ZM438 686H412L296 769L180 686H154L284 787H308L438 686Z" />
<glyph unicode="&#xc3;" glyph-name="Atilde" horiz-adv-x="592" d="M46 0H23L285 627H307L569 0H546L466 193H126L46 0ZM296 608Q286 578 267 533T243 476L134 213H458L349 476Q344 487 325 532T296 608ZM417 774H437Q437 731 418 707T362 682Q345 682 330 690T290
724Q269 746 257 752T233 759Q204 759 189 740T174 686H154Q154 728 175 753T234 778Q250 778 265 770T306 736Q328 714 339 708T363 701Q389 701 403 721T417 774Z" />
<glyph unicode="&#xc4;" glyph-name="Adieresis" horiz-adv-x="592" d="M46 0H23L285 627H307L569 0H546L466 193H126L46 0ZM296 608Q286 578 267 533T243 476L134 213H458L349 476Q344 487 325 532T296 608ZM394 717V686H366V717H394ZM226 717V686H198V717H226Z" />
<glyph unicode="&#xc5;" glyph-name="Aring" horiz-adv-x="592" d="M46 0H23L285 627H307L569 0H546L466 193H126L46 0ZM296 608Q286 578 267 533T243 476L134 213H458L349 476Q344 487 325 532T296 608ZM403 751Q403 719 374 699T297 679Q249 679 221 699T192
751Q192 782 221 801T297 820Q345 820 374 801T403 751ZM212 751Q212 726 234 712T297 698Q338 698 360 712T383 751Q383 774 361 787T297 801Q257 801 235 788T212 751Z" />
<glyph unicode="&#xc6;" glyph-name="AE" horiz-adv-x="745" d="M46 0H23L275 627H693V607H305L415 334H656V314H423L541 20H702V0H526L449 193H123L46 0ZM286 607Q282 593 270 560T237 476L131 213H441L335 476Q315 527 303 560T286 607Z" />
<glyph unicode="&#xc7;" glyph-name="Ccedilla" horiz-adv-x="535" d="M436 -122Q436 -161 412 -178T332 -195Q297 -195 270 -192T221 -183V-164Q242 -170 270 -173T336 -176Q380 -176 398 -165T416 -122Q416 -97 395 -86T328 -74Q318 -74 305 -74T279 -76L295
-6Q171 0 118 75T64 316Q64 482 129 559T337 637Q383 637 419 635T484 628V607Q448 612 413 614T337 617Q203 617 144 546T85 316Q85 149 138 82T327 14Q369 14 413 24T498 53V33Q444 11 402 3T317 -6H316L303 -58Q371 -54 403 -69T436 -122Z" />
<glyph unicode="&#xc8;" glyph-name="Egrave" horiz-adv-x="538" d="M495 20V0H93V627H486V607H114V333H449V313H114V20H495ZM314 686L204 787H238L336 686H314Z" />
<glyph unicode="&#xc9;" glyph-name="Eacute" horiz-adv-x="538" d="M495 20V0H93V627H486V607H114V333H449V313H114V20H495ZM350 787H384L274 686H252L350 787Z" />
<glyph unicode="&#xca;" glyph-name="Ecircumflex" horiz-adv-x="538" d="M495 20V0H93V627H486V607H114V333H449V313H114V20H495ZM436 686H410L294 769L178 686H152L282 787H306L436 686Z" />
<glyph unicode="&#xcb;" glyph-name="Edieresis" horiz-adv-x="538" d="M495 20V0H93V627H486V607H114V333H449V313H114V20H495ZM392 717V686H364V717H392ZM224 717V686H196V717H224Z" />
<glyph unicode="&#xcc;" glyph-name="Igrave" horiz-adv-x="207" d="M114 627V0H93V627H114ZM380 686L270 787H304L402 686H380Z" />
<glyph unicode="&#xcd;" glyph-name="Iacute" horiz-adv-x="207" d="M114 627V0H93V627H114ZM160 787H194L84 686H62L160 787Z" />
<glyph unicode="&#xce;" glyph-name="Icircumflex" horiz-adv-x="207" d="M114 627V0H93V627H114ZM502 686H476L360 769L244 686H218L348 787H372L502 686Z" />
<glyph unicode="&#xcf;" glyph-name="Idieresis" horiz-adv-x="207" d="M114 627V0H93V627H114ZM458 717V686H430V717H458ZM290 717V686H262V717H290Z" />
<glyph unicode="&#xd0;" glyph-name="Eth" horiz-adv-x="620" d="M28 311V331H98V627H247Q345 627 402 612T492 561Q525 527 540 468T555 314Q555 151 482 76T247 0H98V311H28ZM324 331V311H119V20H247Q399 20 466 89T534 314Q534 403 520 458T476 545Q445 578
392 592T247 607H119V331H324Z" />
<glyph unicode="&#xd1;" glyph-name="Ntilde" horiz-adv-x="673" d="M580 627V0H550L114 603V0H93V627H123L559 24V627H580ZM462 774H482Q482 731 463 707T407 682Q390 682 375 690T335 724Q314 746 302 752T278 759Q249 759 234 740T219 686H199Q199 728 220
753T279 778Q295 778 310 770T351 736Q373 714 384 708T408 701Q434 701 448 721T462 774Z" />
<glyph unicode="&#xd2;" glyph-name="Ograve" horiz-adv-x="662" d="M597 316Q597 146 535 70T332 -6Q242 -6 191 13T111 76Q87 112 76 170T65 316Q65 485 127 561T332 637Q421 637 472 618T551 555Q575 518 586 461T597 316ZM126 91Q151 50 198 32T332 14Q464
14 520 84T576 316Q576 399 567 453T537 541Q512 582 466 599T332 617Q199 617 143 547T86 316Q86 233 95 179T126 91ZM352 696L242 797H276L374 696H352Z" />
<glyph unicode="&#xd3;" glyph-name="Oacute" horiz-adv-x="662" d="M597 316Q597 146 535 70T332 -6Q242 -6 191 13T111 76Q87 112 76 170T65 316Q65 485 127 561T332 637Q421 637 472 618T551 555Q575 518 586 461T597 316ZM126 91Q151 50 198 32T332 14Q464
14 520 84T576 316Q576 399 567 453T537 541Q512 582 466 599T332 617Q199 617 143 547T86 316Q86 233 95 179T126 91ZM388 797H422L312 696H290L388 797Z" />
<glyph unicode="&#xd4;" glyph-name="Ocircumflex" horiz-adv-x="662" d="M597 316Q597 146 535 70T332 -6Q242 -6 191 13T111 76Q87 112 76 170T65 316Q65 485 127 561T332 637Q421 637 472 618T551 555Q575 518 586 461T597 316ZM126 91Q151 50 198 32T332 14Q464
14 520 84T576 316Q576 399 567 453T537 541Q512 582 466 599T332 617Q199 617 143 547T86 316Q86 233 95 179T126 91ZM474 696H448L332 779L216 696H190L320 797H344L474 696Z" />
<glyph unicode="&#xd5;" glyph-name="Otilde" horiz-adv-x="662" d="M597 316Q597 146 535 70T332 -6Q242 -6 191 13T111 76Q87 112 76 170T65 316Q65 485 127 561T332 637Q421 637 472 618T551 555Q575 518 586 461T597 316ZM126 91Q151 50 198 32T332 14Q464
14 520 84T576 316Q576 399 567 453T537 541Q512 582 466 599T332 617Q199 617 143 547T86 316Q86 233 95 179T126 91ZM453 784H473Q473 741 454 717T398 692Q381 692 366 700T326 734Q305 756 293 762T269 769Q240 769 225 750T210 696H190Q190 738 211 763T270
788Q286 788 301 780T342 746Q364 724 375 718T399 711Q425 711 439 731T453 784Z" />
<glyph unicode="&#xd6;" glyph-name="Odieresis" horiz-adv-x="662" d="M597 316Q597 146 535 70T332 -6Q242 -6 191 13T111 76Q87 112 76 170T65 316Q65 485 127 561T332 637Q421 637 472 618T551 555Q575 518 586 461T597 316ZM126 91Q151 50 198 32T332 14Q464
14 520 84T576 316Q576 399 567 453T537 541Q512 582 466 599T332 617Q199 617 143 547T86 316Q86 233 95 179T126 91ZM430 727V696H402V727H430ZM262 727V696H234V727H262Z" />
<glyph unicode="&#xd7;" glyph-name="multiply" horiz-adv-x="500" d="M54 505L68 519L251 337L435 521L449 506L265 322L449 138L435 124L251 308L66 123L51 137L237 323L54 505Z" />
<glyph unicode="&#xd8;" glyph-name="Oslash" horiz-adv-x="662" d="M84 -43L67 -32L128 55Q95 91 80 153T65 316Q65 485 127 561T332 637Q394 637 435 628T506 600L565 686L582 675L522 589Q561 555 579 490T597 316Q597 146 535 70T332 -6Q263 -6 218 5T142
41L84 -43ZM332 617Q199 617 143 547T86 316Q86 220 99 163T140 72L495 584Q469 601 431 609T332 617ZM332 14Q464 14 520 84T576 316Q576 421 561 481T510 572L154 58Q181 35 222 25T332 14Z" />
<glyph unicode="&#xd9;" glyph-name="Ugrave" horiz-adv-x="644" d="M535 238V627H556V238Q556 110 499 52T318 -6Q199 -6 144 52T88 238V627H109V238Q109 117 158 66T318 14Q433 14 484 66T535 238ZM337 686L227 787H261L359 686H337Z" />
<glyph unicode="&#xda;" glyph-name="Uacute" horiz-adv-x="644" d="M535 238V627H556V238Q556 110 499 52T318 -6Q199 -6 144 52T88 238V627H109V238Q109 117 158 66T318 14Q433 14 484 66T535 238ZM373 787H407L297 686H275L373 787Z" />
<glyph unicode="&#xdb;" glyph-name="Ucircumflex" horiz-adv-x="644" d="M535 238V627H556V238Q556 110 499 52T318 -6Q199 -6 144 52T88 238V627H109V238Q109 117 158 66T318 14Q433 14 484 66T535 238ZM459 686H433L317 769L201 686H175L305 787H329L459 686Z" />
<glyph unicode="&#xdc;" glyph-name="Udieresis" horiz-adv-x="644" d="M535 238V627H556V238Q556 110 499 52T318 -6Q199 -6 144 52T88 238V627H109V238Q109 117 158 66T318 14Q433 14 484 66T535 238ZM415 717V686H387V717H415ZM247 717V686H219V717H247Z" />
<glyph unicode="&#xdd;" glyph-name="Yacute" horiz-adv-x="563" d="M516 627H539L293 248V0H272V248L20 627H43L283 268L516 627ZM339 787H373L263 686H241L339 787Z" />
<glyph unicode="&#xde;" glyph-name="Thorn" horiz-adv-x="581" d="M114 118V0H93V627H114V517H292Q414 517 468 472T523 325Q523 220 467 169T295 118H114ZM502 325Q502 416 453 456T292 497H114V137H292Q400 137 451 183T502 325Z" />
<glyph unicode="&#xdf;" glyph-name="germandbls" horiz-adv-x="592" d="M270 677Q358 677 400 645T442 545Q442 522 437 496T419 436L383 336L449 313Q500 295 519 264T538 174Q538 78 499 34T369 -10Q335 -10 305 -7T253 3V23Q282 15 309 12T369 9Q450 9 484
48T518 174Q518 226 502 252T443 294L357 324L399 439Q411 471 416 497T422 545Q422 604 386 631T270 658Q180 658 143 622T105 493V0H85V493Q85 592 128 634T270 677Z" />
<glyph unicode="&#xe0;" glyph-name="agrave" horiz-adv-x="500" d="M195 -6Q119 -6 84 29T48 141Q48 215 91 247T237 279Q276 279 312 276T399 266V327Q399 414 364 449T249 485Q206 485 173 481T100 466V486Q145 497 177 500T255 504Q341 504 380 463T419 327V0H403L401
56H400Q370 28 314 11T195 -6ZM237 260Q143 260 106 234T68 142Q68 74 99 44T200 13Q257 13 313 30T399 74V247Q360 254 320 257T237 260ZM268 571L156 682H190L290 571H268Z" />
<glyph unicode="&#xe1;" glyph-name="aacute" horiz-adv-x="500" d="M195 -6Q119 -6 84 29T48 141Q48 215 91 247T237 279Q276 279 312 276T399 266V327Q399 414 364 449T249 485Q206 485 173 481T100 466V486Q145 497 177 500T255 504Q341 504 380 463T419 327V0H403L401
56H400Q370 28 314 11T195 -6ZM237 260Q143 260 106 234T68 142Q68 74 99 44T200 13Q257 13 313 30T399 74V247Q360 254 320 257T237 260ZM306 682H340L228 571H206L306 682Z" />
<glyph unicode="&#xe2;" glyph-name="acircumflex" horiz-adv-x="500" d="M195 -6Q119 -6 84 29T48 141Q48 215 91 247T237 279Q276 279 312 276T399 266V327Q399 414 364 449T249 485Q206 485 173 481T100 466V486Q145 497 177 500T255 504Q341 504 380 463T419
327V0H403L401 56H400Q370 28 314 11T195 -6ZM237 260Q143 260 106 234T68 142Q68 74 99 44T200 13Q257 13 313 30T399 74V247Q360 254 320 257T237 260ZM390 571H364L248 664L132 571H106L236 682H260L390 571Z" />
<glyph unicode="&#xe3;" glyph-name="atilde" horiz-adv-x="500" d="M195 -6Q119 -6 84 29T48 141Q48 215 91 247T237 279Q276 279 312 276T399 266V327Q399 414 364 449T249 485Q206 485 173 481T100 466V486Q145 497 177 500T255 504Q341 504 380 463T419 327V0H403L401
56H400Q370 28 314 11T195 -6ZM237 260Q143 260 106 234T68 142Q68 74 99 44T200 13Q257 13 313 30T399 74V247Q360 254 320 257T237 260ZM369 678H389Q389 626 370 597T314 567Q297 567 282 577T242 619Q221 646 209 654T185 663Q156 663 141 639T126 571H106Q106
622 127 652T186 682Q202 682 217 672T258 630Q280 603 291 595T315 586Q341 586 355 611T369 678Z" />
<glyph unicode="&#xe4;" glyph-name="adieresis" horiz-adv-x="500" d="M195 -6Q119 -6 84 29T48 141Q48 215 91 247T237 279Q276 279 312 276T399 266V327Q399 414 364 449T249 485Q206 485 173 481T100 466V486Q145 497 177 500T255 504Q341 504 380 463T419
327V0H403L401 56H400Q370 28 314 11T195 -6ZM237 260Q143 260 106 234T68 142Q68 74 99 44T200 13Q257 13 313 30T399 74V247Q360 254 320 257T237 260ZM346 602V571H318V602H346ZM178 602V571H150V602H178Z" />
<glyph unicode="&#xe5;" glyph-name="aring" horiz-adv-x="500" d="M195 -6Q119 -6 84 29T48 141Q48 215 91 247T237 279Q276 279 312 276T399 266V327Q399 414 364 449T249 485Q206 485 173 481T100 466V486Q145 497 177 500T255 504Q341 504 380 463T419 327V0H403L401
56H400Q370 28 314 11T195 -6ZM237 260Q143 260 106 234T68 142Q68 74 99 44T200 13Q257 13 313 30T399 74V247Q360 254 320 257T237 260ZM355 627Q355 589 326 566T249 543Q201 543 173 566T144 627Q144 663 173 685T249 708Q297 708 326 686T355 627ZM164 627Q164
596 186 579T249 562Q290 562 312 579T335 627Q335 656 312 672T249 689Q209 689 187 673T164 627Z" />
<glyph unicode="&#xe6;" glyph-name="ae" horiz-adv-x="799" d="M194 -6Q118 -6 83 28T47 134Q47 205 87 235T226 265H378V327Q378 414 346 449T238 485Q201 485 171 481T99 466V486Q147 497 176 500T244 504Q314 504 349 474T392 378Q411 443 454 473T572 504Q660
504 702 455T744 302Q744 290 743 276T740 246H398Q398 122 439 68T578 13Q614 13 654 22T723 47V27Q690 12 651 3T574 -6Q511 -6 471 14T408 78Q363 36 309 15T194 -6ZM724 302Q724 398 688 441T572 485Q480 485 439 434T398 265H722Q723 274 723 283T724 302ZM67
135Q67 71 98 42T199 13Q254 13 305 33T401 95Q389 123 384 160T378 246H226Q137 246 102 221T67 135Z" />
<glyph unicode="&#xe7;" glyph-name="ccedilla" horiz-adv-x="454" d="M377 -122Q377 -161 353 -178T273 -195Q238 -195 211 -192T162 -183V-164Q183 -170 211 -173T277 -176Q321 -176 339 -165T357 -122Q357 -97 336 -86T269 -74Q259 -74 246 -74T220 -76L236
-6Q140 -3 101 53T62 249Q62 385 115 444T294 504Q320 504 341 503T403 495V476Q372 482 349 483T294 485Q178 485 130 431T82 249Q82 116 119 65T253 13Q298 13 343 24T416 50V31Q391 15 348 5T257 -6L244 -58Q312 -54 344 -69T377 -122Z" />
<glyph unicode="&#xe8;" glyph-name="egrave" horiz-adv-x="503" d="M427 47V27Q398 13 354 4T268 -6Q157 -6 110 54T62 252Q62 385 110 444T266 504Q361 504 404 456T448 302Q448 290 447 276T444 246H82Q82 122 125 68T272 13Q312 13 356 23T427 47ZM428 302Q428
398 389 441T266 485Q168 485 125 434T82 265H426Q427 274 427 283T428 302ZM287 571L175 682H209L309 571H287Z" />
<glyph unicode="&#xe9;" glyph-name="eacute" horiz-adv-x="503" d="M427 47V27Q398 13 354 4T268 -6Q157 -6 110 54T62 252Q62 385 110 444T266 504Q361 504 404 456T448 302Q448 290 447 276T444 246H82Q82 122 125 68T272 13Q312 13 356 23T427 47ZM428 302Q428
398 389 441T266 485Q168 485 125 434T82 265H426Q427 274 427 283T428 302ZM325 682H359L247 571H225L325 682Z" />
<glyph unicode="&#xea;" glyph-name="ecircumflex" horiz-adv-x="503" d="M427 47V27Q398 13 354 4T268 -6Q157 -6 110 54T62 252Q62 385 110 444T266 504Q361 504 404 456T448 302Q448 290 447 276T444 246H82Q82 122 125 68T272 13Q312 13 356 23T427 47ZM428
302Q428 398 389 441T266 485Q168 485 125 434T82 265H426Q427 274 427 283T428 302ZM409 571H383L267 664L151 571H125L255 682H279L409 571Z" />
<glyph unicode="&#xeb;" glyph-name="edieresis" horiz-adv-x="503" d="M427 47V27Q398 13 354 4T268 -6Q157 -6 110 54T62 252Q62 385 110 444T266 504Q361 504 404 456T448 302Q448 290 447 276T444 246H82Q82 122 125 68T272 13Q312 13 356 23T427 47ZM428
302Q428 398 389 441T266 485Q168 485 125 434T82 265H426Q427 274 427 283T428 302ZM365 602V571H337V602H365ZM197 602V571H169V602H197Z" />
<glyph unicode="&#xec;" glyph-name="igrave" horiz-adv-x="190" d="M105 0H85V494H105V0ZM371 817L259 928H293L393 817H371Z" />
<glyph unicode="&#xed;" glyph-name="iacute" horiz-adv-x="190" d="M105 0H85V494H105V0ZM153 928H187L75 817H53L153 928Z" />
<glyph unicode="&#xee;" glyph-name="icircumflex" horiz-adv-x="190" d="M105 0H85V494H105V0ZM493 817H467L351 910L235 817H209L339 928H363L493 817Z" />
<glyph unicode="&#xef;" glyph-name="idieresis" horiz-adv-x="190" d="M105 0H85V494H105V0ZM449 848V817H421V848H449ZM281 848V817H253V848H281Z" />
<glyph unicode="&#xf0;" glyph-name="eth" horiz-adv-x="558" d="M491 249Q491 107 444 51T277 -6Q151 -6 107 46T63 249Q63 391 110 447T277 504Q342 504 381 492T444 454Q430 492 410 527T363 594L173 549V568L349 610Q338 622 324 635T290 665H321Q331 656
341 645T370 615L469 638V619L383 599Q433 537 458 471T489 316Q490 294 490 279T491 249ZM83 249Q83 109 122 61T277 13Q387 13 429 64T471 249Q471 389 432 437T277 485Q167 485 125 434T83 249Z" />
<glyph unicode="&#xf1;" glyph-name="ntilde" horiz-adv-x="552" d="M105 0H85V494H101L103 446H105Q164 478 210 491T307 504Q388 504 429 463T471 342V0H451V342Q451 415 414 450T300 485Q254 485 206 471T105 427V0ZM398 678H418Q418 626 399 597T343 567Q326
567 311 577T271 619Q250 646 238 654T214 663Q185 663 170 639T155 571H135Q135 622 156 652T215 682Q231 682 246 672T287 630Q309 603 320 595T344 586Q370 586 384 611T398 678Z" />
<glyph unicode="&#xf2;" glyph-name="ograve" horiz-adv-x="554" d="M491 249Q491 107 444 51T277 -6Q151 -6 107 46T63 249Q63 391 110 447T277 504Q403 504 447 452T491 249ZM83 249Q83 109 122 61T277 13Q387 13 429 64T471 249Q471 389 432 437T277 485Q167
485 125 434T83 249ZM297 571L185 682H219L319 571H297Z" />
<glyph unicode="&#xf3;" glyph-name="oacute" horiz-adv-x="554" d="M491 249Q491 107 444 51T277 -6Q151 -6 107 46T63 249Q63 391 110 447T277 504Q403 504 447 452T491 249ZM83 249Q83 109 122 61T277 13Q387 13 429 64T471 249Q471 389 432 437T277 485Q167
485 125 434T83 249ZM335 682H369L257 571H235L335 682Z" />
<glyph unicode="&#xf4;" glyph-name="ocircumflex" horiz-adv-x="554" d="M491 249Q491 107 444 51T277 -6Q151 -6 107 46T63 249Q63 391 110 447T277 504Q403 504 447 452T491 249ZM83 249Q83 109 122 61T277 13Q387 13 429 64T471 249Q471 389 432 437T277 485Q167
485 125 434T83 249ZM419 571H393L277 664L161 571H135L265 682H289L419 571Z" />
<glyph unicode="&#xf5;" glyph-name="otilde" horiz-adv-x="554" d="M491 249Q491 107 444 51T277 -6Q151 -6 107 46T63 249Q63 391 110 447T277 504Q403 504 447 452T491 249ZM83 249Q83 109 122 61T277 13Q387 13 429 64T471 249Q471 389 432 437T277 485Q167
485 125 434T83 249ZM398 678H418Q418 626 399 597T343 567Q326 567 311 577T271 619Q250 646 238 654T214 663Q185 663 170 639T155 571H135Q135 622 156 652T215 682Q231 682 246 672T287 630Q309 603 320 595T344 586Q370 586 384 611T398 678Z" />
<glyph unicode="&#xf6;" glyph-name="odieresis" horiz-adv-x="554" d="M491 249Q491 107 444 51T277 -6Q151 -6 107 46T63 249Q63 391 110 447T277 504Q403 504 447 452T491 249ZM83 249Q83 109 122 61T277 13Q387 13 429 64T471 249Q471 389 432 437T277 485Q167
485 125 434T83 249ZM375 602V571H347V602H375ZM207 602V571H179V602H207Z" />
<glyph unicode="&#xf7;" glyph-name="divide" horiz-adv-x="500" d="M463 332V312H37V332H463ZM267 114H243V147H267V114ZM267 492H243V525H267V492Z" />
<glyph unicode="&#xf8;" glyph-name="oslash" horiz-adv-x="554" d="M83 -52L67 -41L118 32L119 34Q89 60 76 110T63 249Q63 391 110 447T277 504Q330 504 365 497T423 473L424 475L473 545L489 534L439 463L438 461Q466 435 478 385T491 249Q491 107 444 51T277
-6Q228 -6 194 1T135 22L83 -52ZM277 485Q167 485 125 434T83 249Q83 167 94 121T131 51L411 456Q390 471 358 478T277 485ZM277 13Q387 13 429 64T471 249Q471 329 461 374T426 444L147 39Q168 26 199 20T277 13Z" />
<glyph unicode="&#xf9;" glyph-name="ugrave" horiz-adv-x="542" d="M243 -6Q163 -6 122 35T81 156V494H101V156Q101 82 137 48T250 13Q294 13 340 27T437 71V494H457V0H441L439 53H437Q389 24 341 9T243 -6ZM288 817L176 928H210L310 817H288Z" />
<glyph unicode="&#xfa;" glyph-name="uacute" horiz-adv-x="542" d="M243 -6Q163 -6 122 35T81 156V494H101V156Q101 82 137 48T250 13Q294 13 340 27T437 71V494H457V0H441L439 53H437Q389 24 341 9T243 -6ZM326 672H360L248 561H226L326 672Z" />
<glyph unicode="&#xfb;" glyph-name="ucircumflex" horiz-adv-x="542" d="M243 -6Q163 -6 122 35T81 156V494H101V156Q101 82 137 48T250 13Q294 13 340 27T437 71V494H457V0H441L439 53H437Q389 24 341 9T243 -6ZM410 817H384L268 910L152 817H126L256 928H280L410 817Z" />
<glyph unicode="&#xfc;" glyph-name="udieresis" horiz-adv-x="542" d="M243 -6Q163 -6 122 35T81 156V494H101V156Q101 82 137 48T250 13Q294 13 340 27T437 71V494H457V0H441L439 53H437Q389 24 341 9T243 -6ZM366 848V817H338V848H366ZM198 848V817H170V848H198Z" />
<glyph unicode="&#xfd;" glyph-name="yacute" horiz-adv-x="489" d="M199 -91Q204 -81 210 -67T239 4L22 494H45L250 27L443 494H465L238 -54Q210 -122 184 -142T117 -162Q101 -162 86 -161T56 -155V-136Q70 -139 85 -141T117 -143Q146 -143 164 -132T199 -91ZM308
672H342L230 561H208L308 672Z" />
<glyph unicode="&#xfe;" glyph-name="thorn" horiz-adv-x="545" d="M105 -152H85V665H105V449Q143 477 188 490T287 504Q391 504 437 444T483 249Q483 111 430 53T246 -6Q204 -6 170 -1T105 18V-152ZM282 485Q231 485 186 471T105 428V38Q133 25 167 19T246 13Q368
13 415 66T463 249Q463 376 423 430T282 485Z" />
<glyph unicode="&#xff;" glyph-name="ydieresis" horiz-adv-x="489" d="M199 -91Q204 -81 210 -67T239 4L22 494H45L250 27L443 494H465L238 -54Q210 -122 184 -142T117 -162Q101 -162 86 -161T56 -155V-136Q70 -139 85 -141T117 -143Q146 -143 164 -132T199 -91ZM348
848V817H320V848H348ZM180 848V817H152V848H180Z" />
<glyph unicode="&#x2013;" glyph-name="endash" horiz-adv-x="535" d="M472 328V308H63V328H472Z" />
<glyph unicode="&#x2014;" glyph-name="emdash" horiz-adv-x="815" d="M752 328V308H63V328H752Z" />
<glyph unicode="&#x2018;" glyph-name="quoteleft" horiz-adv-x="161" d="M62 478L82 612Q84 622 87 624T97 627H98L88 478H62Z" />
<glyph unicode="&#x2019;" glyph-name="quoteright" horiz-adv-x="157" d="M101 627L81 493Q79 483 76 481T66 478H65L75 627H101Z" />
<glyph unicode="&#x201a;" glyph-name="quotesinglbase" horiz-adv-x="149" d="M91 38L71 -96Q69 -106 66 -108T56 -111H55L65 38H91Z" />
<glyph unicode="&#x201c;" glyph-name="quotedblleft" horiz-adv-x="301" d="M62 478L82 612Q84 622 87 624T97 627H98L88 478H62ZM202 478L222 612Q224 622 227 624T237 627H238L228 478H202Z" />
<glyph unicode="&#x201d;" glyph-name="quotedblright" horiz-adv-x="297" d="M241 627L221 493Q219 483 216 481T206 478H205L215 627H241ZM101 627L81 493Q79 483 76 481T66 478H65L75 627H101Z" />
<glyph unicode="&#x201e;" glyph-name="quotedblbase" horiz-adv-x="289" d="M231 38L211 -96Q209 -106 206 -108T196 -111H195L205 38H231ZM91 38L71 -96Q69 -106 66 -108T56 -111H55L65 38H91Z" />
<glyph unicode="&#x2022;" glyph-name="bullet" horiz-adv-x="243" d="M147 291H97V344H147V291Z" />
<glyph unicode="&#x2039;" glyph-name="guilsinglleft" horiz-adv-x="257" d="M207 64H186L37 281L186 494H207L59 281L207 64Z" />
<glyph unicode="&#x203a;" glyph-name="guilsinglright" horiz-adv-x="257" d="M220 281L71 64H50L198 281L50 494H71L220 281Z" />
</font>
</defs>
</svg>
