<?xml version="1.0" standalone="no"?>
<!DOCTYPE svg PUBLIC "-//W3C//DTD SVG 1.1//EN" "http://www.w3.org/Graphics/SVG/1.1/DTD/svg11.dtd">
<svg xmlns="http://www.w3.org/2000/svg">
<defs >
<font id="Blinker" horiz-adv-x="482" ><font-face
    font-family="Blinker"
    units-per-em="1000"
    panose-1="2 0 0 0 0 0 0 0 0 0"
    ascent="960"
    descent="-240"
    alphabetic="0" />
<glyph unicode=" " glyph-name="space" horiz-adv-x="148" />
<glyph unicode="!" glyph-name="exclam" horiz-adv-x="244" d="M37 627H207L188 202H56L37 627ZM199 134V0H45V134H199Z" />
<glyph unicode="&quot;" glyph-name="quotedbl" horiz-adv-x="323" d="M32 627H131V399H32V627ZM192 627H291V399H192V627Z" />
<glyph unicode="#" glyph-name="numbersign" horiz-adv-x="553" d="M536 493V395H439L416 242H501V144H400L376 0H274L297 144H202L179 0H76L100 144H17V242H116L140 395H52V493H158L180 627H282L260 493H354L377 627H479L457 493H536ZM313 242L337 395H243L218 242H313Z" />
<glyph unicode="$" glyph-name="dollar" horiz-adv-x="480" d="M284 -7V-90H193V-9Q143 -7 99 0T29 16V163Q68 150 121 143T229 135Q271 135 287 146T303 190Q303 211 297 220T270 235L158 264Q80 285 54 321T27 425Q27 518 68 568T193 632V717H284V637Q325 636
356 632T415 619V480Q341 493 313 495T255 497Q215 497 198 483T180 436Q180 420 186 412T209 400L320 371Q376 356 397 345T432 318Q448 298 455 269T463 196Q463 99 419 51T284 -7Z" />
<glyph unicode="%" glyph-name="percent" horiz-adv-x="668" d="M287 477Q287 393 256 357T152 320Q79 320 48 356T16 477Q16 561 47 597T152 634Q224 634 255 598T287 477ZM536 627L236 0H133L433 627H536ZM186 477Q186 518 179 533T152 549Q133 549 126 534T118
477Q118 438 125 424T152 409Q172 409 179 423T186 477ZM652 151Q652 67 621 31T517 -6Q444 -6 413 30T381 151Q381 235 412 271T517 308Q589 308 620 272T652 151ZM551 151Q551 192 544 207T517 223Q498 223 491 208T483 151Q483 112 490 98T517 83Q537 83 544
97T551 151Z" />
<glyph unicode="&amp;" glyph-name="ampersand" horiz-adv-x="675" d="M555 246V55Q526 27 460 9T319 -10Q165 -10 96 70T26 325Q26 479 96 558T303 637Q406 637 461 589T517 452Q517 429 513 409T498 371H666V246H555ZM371 442Q371 472 351 487T292 502Q235 502
210 469T183 356Q283 359 327 378T371 442ZM321 129Q349 129 376 133T410 142V289Q369 269 313 258T189 245Q198 182 228 156T321 129Z" />
<glyph unicode="&apos;" glyph-name="quotesingle" horiz-adv-x="173" d="M32 627H141V399H32V627Z" />
<glyph unicode="(" glyph-name="parenleft" horiz-adv-x="220" d="M139 313Q139 205 156 108T204 -53L118 -80Q73 -2 50 99T26 313Q26 430 49 530T118 707L202 680Q171 620 155 524T139 313Z" />
<glyph unicode=")" glyph-name="parenright" horiz-adv-x="220" d="M81 313Q81 427 65 523T18 680L102 707Q147 631 170 531T194 313Q194 200 171 99T102 -80L16 -53Q47 10 64 107T81 313Z" />
<glyph unicode="*" glyph-name="asterisk" horiz-adv-x="368" d="M258 443L320 364L237 305L184 388L128 305L47 366L110 442L14 470L47 565L137 528L132 627H233L228 529L322 564L353 468L258 443Z" />
<glyph unicode="+" glyph-name="plus" horiz-adv-x="500" d="M463 392V252H323V110H178V252H37V392H178V532H323V392H463Z" />
<glyph unicode="," glyph-name="comma" horiz-adv-x="195" d="M174 138L144 -40Q140 -63 124 -76T83 -90H30V138H174Z" />
<glyph unicode="-" glyph-name="hyphen" horiz-adv-x="383" d="M351 375V262H32V375H351Z" />
<glyph unicode="." glyph-name="period" horiz-adv-x="203" d="M174 0H29V138H174V0Z" />
<glyph unicode="/" glyph-name="slash" horiz-adv-x="344" d="M333 707L119 -80H12L226 707H333Z" />
<glyph unicode="0" glyph-name="zero" horiz-adv-x="567" d="M536 314Q536 136 481 63T284 -10Q196 -10 147 10T71 76Q50 112 41 169T31 314Q31 491 86 564T284 637Q372 637 421 617T497 551Q517 516 526 459T536 314ZM379 314Q379 428 362 462T284 497Q224 497
206 462T188 314Q188 204 206 170T284 135Q344 135 361 169T379 314Z" />
<glyph unicode="1" glyph-name="one" horiz-adv-x="368" d="M313 0H158V489L9 472V602L313 637V0Z" />
<glyph unicode="2" glyph-name="two" horiz-adv-x="460" d="M427 145V0H21V145L234 370Q255 391 263 409T272 450Q272 473 259 485T221 497Q189 497 146 493T50 478V613Q88 624 142 630T250 637Q334 637 380 594T427 473Q427 421 412 383T359 306L205 145H427Z" />
<glyph unicode="3" glyph-name="three" horiz-adv-x="453" d="M403 475Q403 417 379 381T307 331V329Q366 325 396 287T426 180Q426 88 371 39T211 -10Q152 -10 102 -5T25 11V143Q62 136 99 133T183 130Q238 130 259 144T281 194Q281 227 262 242T203 257H90V385H179Q220
385 239 399T258 444Q258 476 242 489T186 502Q162 502 125 498T38 486V611Q70 622 126 629T233 637Q317 637 360 596T403 475Z" />
<glyph unicode="4" glyph-name="four" horiz-adv-x="522" d="M505 277V142H437V0H282V142H23V277L94 627H243L180 277H282V517H437V277H505Z" />
<glyph unicode="5" glyph-name="five" horiz-adv-x="459" d="M436 189Q436 93 383 42T233 -10Q159 -10 108 -5T29 11V148Q65 141 103 138T189 135Q239 135 260 148T281 191Q281 228 262 240T185 253Q130 252 104 250T55 243V627H396V487H210V377Q224 378 241 379T275
380Q361 380 398 334T436 189Z" />
<glyph unicode="6" glyph-name="six" horiz-adv-x="509" d="M270 -10Q135 -10 83 57T30 297Q30 473 101 555T326 637Q355 637 385 635T429 628V499Q405 501 379 502T326 504Q257 504 228 478T190 384Q224 402 255 409T324 416Q407 416 448 366T489 214Q489 109
431 50T270 -10ZM339 206Q339 253 325 270T268 287Q249 287 225 282T185 271Q186 180 201 153T265 126Q302 126 320 145T339 206Z" />
<glyph unicode="7" glyph-name="seven" horiz-adv-x="449" d="M431 627V487L190 0H15L265 487H24V627H431Z" />
<glyph unicode="8" glyph-name="eight" horiz-adv-x="515" d="M486 171Q486 76 432 33T257 -10Q133 -10 81 31T29 171Q29 230 56 270T135 324Q86 340 63 376T40 470Q40 557 92 597T257 637Q375 637 425 599T475 470Q475 413 452 377T380 324Q431 310 458 270T486
171ZM337 447Q337 481 319 495T257 510Q214 510 196 496T178 447Q178 410 196 395T257 379Q300 379 318 394T337 447ZM341 192Q341 227 322 242T257 257Q212 257 193 243T174 192Q174 154 192 138T257 122Q303 122 322 138T341 192Z" />
<glyph unicode="9" glyph-name="nine" horiz-adv-x="511" d="M246 637Q379 637 430 570T481 330Q481 154 409 72T184 -10Q154 -10 122 -8T76 -1V130Q94 128 122 127T184 125Q253 125 282 151T321 244Q285 226 254 219T190 211Q104 211 62 261T20 413Q20 519 79
578T246 637ZM246 501Q208 501 190 482T171 421Q171 374 185 357T243 340Q268 340 288 344T326 358Q325 447 310 474T246 501Z" />
<glyph unicode=":" glyph-name="colon" horiz-adv-x="219" d="M182 356H37V494H182V356ZM182 0H37V138H182V0Z" />
<glyph unicode=";" glyph-name="semicolon" horiz-adv-x="217" d="M182 138L152 -40Q148 -63 132 -76T91 -90H38V138H182ZM183 356H38V494H183V356Z" />
<glyph unicode="&lt;" glyph-name="less" horiz-adv-x="500" d="M463 225V77L37 227V397L463 547V402L173 314L463 225Z" />
<glyph unicode="=" glyph-name="equal" horiz-adv-x="500" d="M463 533V393H37V533H463ZM463 487V347H37V487H463Z" />
<glyph unicode="&gt;" glyph-name="greater" horiz-adv-x="500" d="M463 227L37 77V225L327 314L37 402V547L463 397V227Z" />
<glyph unicode="?" glyph-name="question" horiz-adv-x="371" d="M185 637Q264 637 309 601T355 499Q355 443 326 395T229 300V203H93V346Q158 384 184 411T210 463Q210 484 199 494T160 504Q130 504 88 497T18 479V609Q56 624 95 630T185 637ZM238 134V0H83V134H238Z" />
<glyph unicode="@" glyph-name="at" horiz-adv-x="617" d="M281 82Q234 82 212 106T190 180Q190 232 215 253T305 274Q316 274 328 273T359 269V285Q359 299 348 306T311 313Q280 313 257 312T216 306V390Q239 396 269 398T339 401Q394 401 422 376T450 300V183Q450
174 452 170T461 166Q477 166 489 200T502 287Q502 372 458 417T329 462Q217 462 174 412T131 235Q131 124 183 74T356 23Q398 23 440 32T514 59V-36Q480 -56 434 -66T329 -76Q179 -76 102 3T25 236Q25 393 102 475T328 557Q460 557 530 491T600 299Q600 204 557
143T446 82Q424 82 409 92T385 121Q367 103 339 93T281 82ZM320 210Q296 210 289 206T281 186Q281 172 287 167T309 162Q321 162 334 165T359 174V207Q353 209 344 209T320 210Z" />
<glyph unicode="A" glyph-name="A" horiz-adv-x="615" d="M160 0H-3L229 627H390L616 0H454L421 105H193L160 0ZM306 473Q298 445 289 414T257 311L231 228H382L356 311Q343 349 330 391T306 473Z" />
<glyph unicode="B" glyph-name="B" horiz-adv-x="557" d="M537 184Q537 89 482 45T307 0H48V627H307Q415 627 460 590T506 464Q506 408 491 379T431 333Q485 322 511 285T537 184ZM363 441Q363 474 351 487T307 500H203V373H307Q338 373 350 388T363 441ZM387
194Q387 230 369 244T307 259H203V132H307Q351 132 369 146T387 194Z" />
<glyph unicode="C" glyph-name="C" horiz-adv-x="508" d="M320 135Q360 135 407 143T491 166V29Q436 7 392 -1T300 -10Q213 -10 161 10T78 74Q52 112 40 171T27 314Q27 482 99 559T330 637Q376 637 412 635T477 628V493Q444 495 409 496T330 497Q275 497 249 487T209
450Q197 430 192 397T187 314Q187 267 191 236T206 183Q219 157 244 146T320 135Z" />
<glyph unicode="D" glyph-name="D" horiz-adv-x="602" d="M267 0H48V627H267Q363 627 419 611T510 560Q544 525 559 466T575 314Q575 151 502 76T267 0ZM390 447Q376 468 349 477T267 487H203V145H267Q321 145 348 154T390 183Q403 202 409 233T415 314Q415 364
409 395T390 447Z" />
<glyph unicode="E" glyph-name="E" horiz-adv-x="505" d="M480 145V0H48V627H471V487H203V383H434V253H203V145H480Z" />
<glyph unicode="F" glyph-name="F" horiz-adv-x="489" d="M203 228V0H48V627H471V487H203V358H434V228H203Z" />
<glyph unicode="G" glyph-name="G" horiz-adv-x="578" d="M403 233H295V358H548V28Q520 15 448 3T317 -10Q154 -10 91 65T27 314Q27 482 101 559T337 637Q396 637 442 635T514 627V491Q481 494 436 495T337 497Q280 497 253 487T211 452Q198 432 193 399T187 314Q187
265 192 232T208 179Q222 152 247 141T327 130Q345 130 364 131T403 136V233Z" />
<glyph unicode="H" glyph-name="H" horiz-adv-x="626" d="M203 0H48V627H203V388H423V627H578V0H423V248H203V0Z" />
<glyph unicode="I" glyph-name="I" horiz-adv-x="251" d="M203 627V0H48V627H203Z" />
<glyph unicode="J" glyph-name="J" horiz-adv-x="416" d="M217 244V627H372V234Q372 103 315 47T125 -10Q91 -10 64 -8T12 1V142Q32 138 55 137T107 135Q176 135 196 156T217 244Z" />
<glyph unicode="K" glyph-name="K" horiz-adv-x="600" d="M377 323L612 0H416L245 256H203V0H48V627H203V380H245L418 627H604L377 323Z" />
<glyph unicode="L" glyph-name="L" horiz-adv-x="461" d="M448 145V0H48V627H203V145H448Z" />
<glyph unicode="M" glyph-name="M" horiz-adv-x="724" d="M676 627V0H531V376L424 120H298L193 376V0H48V627H237L364 311L494 627H676Z" />
<glyph unicode="N" glyph-name="N" horiz-adv-x="637" d="M589 627V0H441L193 362V0H48V627H195L444 251V627H589Z" />
<glyph unicode="O" glyph-name="O" horiz-adv-x="644" d="M617 314Q617 143 548 67T322 -10Q159 -10 93 62T27 314Q27 485 96 561T322 637Q485 637 551 565T617 314ZM203 180Q216 155 241 145T322 135Q377 135 402 145T441 180Q451 200 455 232T460 314Q460 365
456 397T441 450Q429 476 404 486T322 497Q266 497 241 487T203 450Q193 430 189 398T184 314Q184 264 188 232T203 180Z" />
<glyph unicode="P" glyph-name="P" horiz-adv-x="561" d="M203 176V0H48V627H277Q422 627 483 577T544 407Q544 289 480 233T280 176H203ZM387 407Q387 451 363 469T277 487H203V312H277Q340 312 363 333T387 407Z" />
<glyph unicode="Q" glyph-name="Q" horiz-adv-x="644" d="M322 -10Q159 -10 93 62T27 314Q27 485 96 561T322 637Q485 637 551 565T617 314Q617 200 588 130T495 26L617 -128H439L348 -9Q344 -10 339 -10T322 -10ZM203 180Q216 155 241 145T322 135Q377 135 402
145T441 180Q451 200 455 232T460 314Q460 365 456 397T441 450Q429 476 404 486T322 497Q266 497 241 487T203 450Q193 430 189 398T184 314Q184 264 188 232T203 180Z" />
<glyph unicode="R" glyph-name="R" horiz-adv-x="577" d="M203 202V0H48V627H277Q422 627 483 578T544 415Q544 338 512 290T413 219L566 0H380L250 202H203ZM387 415Q387 455 363 471T277 487H203V327H277Q339 327 363 346T387 415Z" />
<glyph unicode="S" glyph-name="S" horiz-adv-x="489" d="M286 234L159 264Q83 282 56 319T28 425Q28 534 85 585T264 637Q314 637 353 633T425 619V480Q349 493 321 495T261 497Q219 497 200 483T181 436Q181 420 187 412T210 399L330 371Q382 359 405 348T442
318Q458 299 465 269T473 196Q473 87 415 39T235 -10Q173 -10 117 -3T30 16V163Q70 150 125 143T235 135Q279 135 296 146T313 190Q313 211 308 220T286 234Z" />
<glyph unicode="T" glyph-name="T" horiz-adv-x="521" d="M509 627V487H338V0H183V487H12V627H509Z" />
<glyph unicode="U" glyph-name="U" horiz-adv-x="624" d="M426 264V627H581V264Q581 127 514 59T313 -10Q172 -10 108 55T43 264V627H198V264Q198 188 221 162T313 135Q380 135 403 161T426 264Z" />
<glyph unicode="V" glyph-name="V" horiz-adv-x="615" d="M215 0L-2 627H171L264 317Q273 286 286 235T311 132Q333 223 342 260T357 316L449 627H617L401 0H215Z" />
<glyph unicode="W" glyph-name="W" horiz-adv-x="849" d="M165 0L0 627H168L234 317Q238 301 242 274T258 170Q261 189 269 243T282 316L346 627H508L574 317Q578 301 582 274T598 170Q601 189 609 243T622 316L686 627H849L685 0H506L466 190Q456 238 446 291T425
408Q409 319 400 274T383 190L343 0H165Z" />
<glyph unicode="X" glyph-name="X" horiz-adv-x="575" d="M380 326L588 0H399L277 200L160 0H-10L196 320L2 627H191L296 448L402 627H567L380 326Z" />
<glyph unicode="Y" glyph-name="Y" horiz-adv-x="597" d="M437 627H597L378 228V0H223V228L-2 627H175L301 365L437 627Z" />
<glyph unicode="Z" glyph-name="Z" horiz-adv-x="504" d="M485 145V0H18V145L291 487H47V627H466V487L194 145H485Z" />
<glyph unicode="[" glyph-name="bracketleft" horiz-adv-x="242" d="M222 12V-82H47V707H222V616H150V12H222Z" />
<glyph unicode="\" glyph-name="backslash" horiz-adv-x="344" d="M118 707L332 -80H225L11 707H118Z" />
<glyph unicode="]" glyph-name="bracketright" horiz-adv-x="242" d="M195 -82H20V12H92V616H20V707H195V-82Z" />
<glyph unicode="^" glyph-name="asciicircum" horiz-adv-x="500" d="M203 365H69L190 627H310L431 365H300L252 489L203 365Z" />
<glyph unicode="_" glyph-name="underscore" horiz-adv-x="455" d="M432 -39V-152H23V-39H432Z" />
<glyph unicode="`" glyph-name="grave" horiz-adv-x="362" d="M196 551L50 682H207L312 551H196Z" />
<glyph unicode="a" glyph-name="a" horiz-adv-x="490" d="M163 -10Q87 -10 52 28T16 148Q16 232 58 266T205 300Q229 300 254 298T299 291V327Q299 351 279 362T216 374Q168 374 131 372T62 363V486Q99 495 148 499T262 504Q354 504 401 463T449 342V0H309L304
42H301Q270 18 233 4T163 -10ZM225 201Q185 201 171 193T157 157Q157 132 168 123T209 113Q231 113 255 119T299 134V195Q287 198 269 199T225 201Z" />
<glyph unicode="b" glyph-name="b" horiz-adv-x="541" d="M335 504Q434 504 475 447T516 251Q516 114 461 52T283 -10Q212 -10 151 -3T43 18V665H193V468Q227 485 263 494T335 504ZM366 251Q366 324 351 346T281 369Q258 369 236 365T193 354V135Q208 132 227
131T272 129Q332 129 349 151T366 251Z" />
<glyph unicode="c" glyph-name="c" horiz-adv-x="429" d="M410 151V27Q386 12 332 1T221 -10Q113 -10 70 47T26 247Q26 389 82 446T278 504Q312 504 339 503T397 497V364Q348 368 326 368T278 369Q209 369 193 350T176 247Q176 172 189 151T252 130Q292 130 335
136T410 151Z" />
<glyph unicode="d" glyph-name="d" horiz-adv-x="541" d="M348 665H498V0H365L357 46H354Q327 18 290 4T206 -10Q108 -10 67 49T25 247Q25 382 77 443T248 504Q277 504 302 501T348 491V665ZM269 369Q209 369 192 347T175 247Q175 174 190 152T260 129Q286 129
308 133T348 145V356Q333 363 314 366T269 369Z" />
<glyph unicode="e" glyph-name="e" horiz-adv-x="499" d="M452 146V27Q428 12 371 1T251 -10Q131 -10 78 50T25 247Q25 380 81 442T258 504Q376 504 424 458T473 293Q473 261 472 242T468 198H176Q177 157 198 141T275 125Q323 125 373 131T452 146ZM258 376Q210
376 193 360T176 295H337V317Q336 352 321 364T258 376Z" />
<glyph unicode="f" glyph-name="f" horiz-adv-x="362" d="M80 369H22V494H80Q81 584 129 629T272 675Q294 675 319 673T368 665V550Q355 552 336 553T302 555Q254 555 242 546T230 508V494H353V369H230V0H80V369Z" />
<glyph unicode="g" glyph-name="g" horiz-adv-x="542" d="M266 -162Q213 -162 165 -155T85 -137V-10Q109 -17 157 -22T254 -27Q308 -27 328 -11T349 48V72Q309 53 272 44T200 34Q105 34 66 87T26 269Q26 396 82 450T273 504Q326 504 395 498T499 485V95Q499 -48
447 -105T266 -162ZM273 369Q206 369 191 354T176 269Q176 206 189 190T252 173Q271 173 295 177T349 188V363Q334 366 315 367T273 369Z" />
<glyph unicode="h" glyph-name="h" horiz-adv-x="553" d="M193 0H43V665H193V459Q230 480 269 492T345 504Q429 504 470 464T512 342V0H362V322Q362 347 347 358T299 369Q274 369 246 365T193 353V0Z" />
<glyph unicode="i" glyph-name="i" horiz-adv-x="236" d="M197 548H39V665H197V548ZM193 0H43V494H193V0Z" />
<glyph unicode="j" glyph-name="j" horiz-adv-x="243" d="M204 548H46V665H204V548ZM30 -162Q16 -162 5 -162T-45 -156V-32Q-41 -33 -36 -33T-22 -33Q22 -33 36 -22T50 24V494H200V4Q200 -77 156 -119T30 -162Z" />
<glyph unicode="k" glyph-name="k" horiz-adv-x="519" d="M193 192V0H43V665H193V308H216L341 494H519L345 256L529 0H346L216 192H193Z" />
<glyph unicode="l" glyph-name="l" horiz-adv-x="236" d="M193 665V0H43V665H193Z" />
<glyph unicode="m" glyph-name="m" horiz-adv-x="790" d="M193 0H43V494H183L188 457H191Q228 480 262 492T327 504Q368 504 397 492T443 454H447Q481 477 523 490T605 504Q678 504 713 464T749 342V0H599V322Q599 347 585 358T541 369Q525 369 507 366T471 357V0H321V322Q321
347 307 358T263 369Q247 369 229 366T193 357V0Z" />
<glyph unicode="n" glyph-name="n" horiz-adv-x="553" d="M193 0H43V494H173L179 442H182Q214 475 251 489T342 504Q426 504 469 463T512 342V0H362V322Q362 345 344 357T289 369Q262 369 237 363T193 346V0Z" />
<glyph unicode="o" glyph-name="o" horiz-adv-x="538" d="M513 247Q513 108 457 49T269 -10Q137 -10 81 49T25 247Q25 386 81 445T269 504Q401 504 457 445T513 247ZM175 249Q175 173 191 151T269 129Q330 129 346 151T363 249Q363 325 347 347T269 369Q208 369
192 347T175 249Z" />
<glyph unicode="p" glyph-name="p" horiz-adv-x="541" d="M193 -152H43V494H175L183 448H185Q212 476 249 490T335 504Q433 504 474 445T516 247Q516 112 464 51T293 -10Q264 -10 239 -7T193 3V-152ZM366 247Q366 322 350 345T281 369Q255 369 233 365T193 353V142Q208
135 227 132T272 129Q333 129 349 150T366 247Z" />
<glyph unicode="q" glyph-name="q" horiz-adv-x="541" d="M498 485V-152H348V28Q308 9 271 0T199 -10Q104 -10 65 48T25 247Q25 386 81 445T272 504Q325 504 394 498T498 485ZM272 369Q205 369 190 351T175 247Q175 169 188 149T251 129Q270 129 294 133T348 144V363Q333
366 314 367T272 369Z" />
<glyph unicode="r" glyph-name="r" horiz-adv-x="355" d="M193 0H43V494H183L188 456H190Q226 478 263 489T334 501H342V356Q333 358 323 358T296 359Q267 359 241 356T193 345V0Z" />
<glyph unicode="s" glyph-name="s" horiz-adv-x="440" d="M244 377Q202 377 188 371T173 341Q173 332 178 327T194 320L313 304Q371 296 394 267T418 173Q418 77 375 34T225 -10Q166 -10 119 -6T38 7V137Q63 131 107 127T198 122Q239 122 253 130T268 163Q268
171 263 176T250 183L127 199Q73 206 49 238T24 335Q24 419 77 461T234 504Q275 504 310 502T384 494V369Q359 373 322 375T244 377Z" />
<glyph unicode="t" glyph-name="t" horiz-adv-x="381" d="M75 369H17V494H80L99 609H225V494H365V369H225V177Q225 149 239 140T297 130Q312 130 334 132T371 138V10Q355 3 322 -3T262 -10Q162 -10 119 32T75 171V369Z" />
<glyph unicode="u" glyph-name="u" horiz-adv-x="531" d="M208 -10Q124 -10 83 31T41 157V494H191V177Q191 152 206 141T254 130Q273 130 294 133T338 142V494H488V0H348L344 27H342Q307 10 272 0T208 -10Z" />
<glyph unicode="v" glyph-name="v" horiz-adv-x="514" d="M350 494H513L343 0H171L0 494H165L258 136L350 494Z" />
<glyph unicode="w" glyph-name="w" horiz-adv-x="744" d="M577 494H741L609 0H433L365 282L307 0H135L2 494H167L225 136L302 494H441L519 136L577 494Z" />
<glyph unicode="x" glyph-name="x" horiz-adv-x="473" d="M324 257L475 0H311L232 153L153 0H-2L150 257L0 494H175L245 355L318 494H473L324 257Z" />
<glyph unicode="y" glyph-name="y" horiz-adv-x="511" d="M110 -34Q145 -34 161 -25T184 10L-2 494H165L260 156L350 494H511L335 -10Q307 -91 262 -126T141 -162Q120 -162 98 -160T57 -154V-32Q65 -33 75 -33T110 -34Z" />
<glyph unicode="z" glyph-name="z" horiz-adv-x="425" d="M406 130V0H22V130L221 369H40V494H389V369L193 130H406Z" />
<glyph unicode="{" glyph-name="braceleft" horiz-adv-x="294" d="M116 317L117 313Q156 305 181 264T206 157V55Q206 21 221 11T278 1V-92Q190 -92 147 -57T103 51V157Q103 211 78 242T19 274H2V356H19Q53 356 78 387T103 473V575Q103 647 146 682T278 718V625Q236
625 221 616T206 571V473Q206 408 181 367T116 317Z" />
<glyph unicode="|" glyph-name="bar" horiz-adv-x="197" d="M150 707V-80H47V707H150Z" />
<glyph unicode="}" glyph-name="braceright" horiz-adv-x="294" d="M177 313L178 317Q138 325 113 366T88 473V571Q88 606 73 615T16 625V718Q104 718 147 683T191 575V473Q191 419 216 388T275 356H292V274H275Q241 274 216 243T191 157V51Q191 -21 148 -56T16
-92V1Q58 1 73 11T88 55V157Q88 222 113 263T177 313Z" />
<glyph unicode="~" glyph-name="asciitilde" horiz-adv-x="618" d="M445 448H596Q596 327 556 261T439 194Q408 194 375 207T285 260Q252 282 239 288T217 295Q196 295 185 271T173 201H23Q23 321 63 388T180 456Q211 456 244 443T334 392Q367 370 380 364T403
357Q423 357 434 381T445 448Z" />
<glyph unicode="&#xa0;" glyph-name="uni00A0" horiz-adv-x="148" />
<glyph unicode="&#xa1;" glyph-name="exclamdown" horiz-adv-x="240" d="M43 494H197V360H43V494ZM186 292L205 -133H35L54 292H186Z" />
<glyph unicode="&#xa2;" glyph-name="cent" horiz-adv-x="431" d="M291 64V-20H201V60Q104 64 65 122T25 317Q25 440 65 498T201 569V654H291V574Q324 573 349 572T396 567V434Q347 438 325 438T277 439Q208 439 192 420T175 317Q175 242 188 221T251 200Q291
200 334 206T409 221V97Q393 87 361 78T291 64Z" />
<glyph unicode="&#xa3;" glyph-name="sterling" horiz-adv-x="479" d="M30 259V351H98V452Q98 543 149 590T297 637Q333 637 363 634T440 620V487Q407 494 377 497T323 501Q287 501 270 484T253 428V351H406V259H253Q253 218 234 190T177 148V145H456V0H30V146Q59
163 78 196T98 259H30Z" />
<glyph unicode="&#xa4;" glyph-name="currency" horiz-adv-x="603" d="M89 38L23 104L85 167Q63 199 52 237T41 316Q41 358 52 396T86 466L24 528L90 594L152 531Q184 553 222 564T300 575Q340 575 378 564T450 532L512 594L578 527L517 466Q540 433 551 395T563
315Q563 275 552 237T518 166L580 104L514 38L452 100Q420 79 382 68T302 56Q260 56 222 67T152 101L89 38ZM303 445Q246 444 213 410T178 318Q179 260 212 226T302 192Q359 191 392 225T426 319Q426 374 393 408T303 445Z" />
<glyph unicode="&#xa5;" glyph-name="yen" horiz-adv-x="562" d="M70 101V181H206V221H70V301H170L11 627H188L284 365L390 627H550L396 301H497V221H361V181H497V101H361V0H206V101H70Z" />
<glyph unicode="&#xa6;" glyph-name="brokenbar" horiz-adv-x="197" d="M150 707V380H47V707H150ZM150 247V-80H47V247H150Z" />
<glyph unicode="&#xa7;" glyph-name="section" horiz-adv-x="459" d="M267 526Q234 526 219 520T203 501Q203 492 210 485T247 466L358 421Q397 405 418 379T439 317Q439 282 425 251T385 196Q396 182 401 165T406 126Q406 63 361 27T234 -10Q183 -10 145 -6T74
8V120Q109 109 136 105T192 101Q225 101 240 107T256 126Q256 135 249 142T212 161L101 205Q62 220 41 247T20 310Q20 345 34 376T74 431Q63 445 58 462T53 501Q53 564 98 600T225 637Q276 637 314 633T385 619V507Q350 518 323 522T267 526ZM158 338Q158 320 165
311T196 291L290 252Q295 260 298 270T301 289Q301 307 294 316T263 336L169 375Q164 367 161 357T158 338Z" />
<glyph unicode="&#xa8;" glyph-name="dieresis" horiz-adv-x="409" d="M359 664V551H235V664H359ZM174 664V551H50V664H174Z" />
<glyph unicode="&#xa9;" glyph-name="copyright" horiz-adv-x="674" d="M649 314Q649 159 568 75T338 -10Q184 -10 105 72T25 314Q25 469 106 553T338 637Q491 637 570 555T649 314ZM558 313Q558 434 504 493T339 552Q227 552 172 493T117 313Q117 196 171 139T339
82Q450 82 504 139T558 313ZM362 236Q383 236 407 240T455 253V159Q435 149 405 143T343 137Q253 137 212 180T171 316Q171 406 215 450T352 494Q378 494 399 492T446 483V393Q414 397 398 398T359 399Q322 399 307 380T291 316Q291 275 308 256T362 236Z" />
<glyph unicode="&#xaa;" glyph-name="ordfeminine" horiz-adv-x="330" d="M291 354H201L198 376H196Q176 361 158 355T119 348Q75 348 54 370T32 438Q32 484 57 503T144 523Q156 523 170 522T195 518V531Q195 543 185 548T150 553Q124 553 103 552T59 548V626Q85
631 113 633T179 636Q234 636 262 614T291 547V354ZM156 462Q136 462 129 458T122 443Q122 433 128 429T149 425Q161 425 172 427T195 435V459Q188 461 179 461T156 462ZM295 231H32V314H295V231Z" />
<glyph unicode="&#xab;" glyph-name="guillemotleft" horiz-adv-x="536" d="M301 64H161L12 281L161 494H301L153 282L301 64ZM521 64H381L232 281L381 494H521L373 282L521 64Z" />
<glyph unicode="&#xac;" glyph-name="logicalnot" horiz-adv-x="500" d="M463 392V110H318V252H37V392H463Z" />
<glyph unicode="&#xad;" glyph-name="uni00AD" horiz-adv-x="383" d="M351 375V262H32V375H351Z" />
<glyph unicode="&#xae;" glyph-name="registered" horiz-adv-x="402" d="M382 454Q382 364 336 317T201 270Q110 270 65 316T20 454Q20 543 66 590T202 637Q292 637 337 591T382 454ZM323 454Q323 521 294 553T202 585Q140 585 110 553T80 454Q80 388 109 357T202
326Q264 326 293 357T323 454ZM180 419V355H126V557H200Q248 557 267 540T286 488Q286 463 276 448T246 425L289 355H224L189 419H180ZM231 488Q231 499 225 503T200 508H180V462H200Q219 462 225 468T231 488Z" />
<glyph unicode="&#xaf;" glyph-name="overscore" horiz-adv-x="353" d="M303 654V556H50V654H303Z" />
<glyph unicode="&#xb0;" glyph-name="degree" horiz-adv-x="308" d="M291 499Q291 438 254 402T154 366Q92 366 55 402T17 499Q17 560 54 597T154 634Q216 634 253 597T291 499ZM112 501Q112 480 123 469T154 457Q174 457 185 468T197 501Q197 521 186 532T154
543Q134 543 123 532T112 501Z" />
<glyph unicode="&#xb1;" glyph-name="plusminus" horiz-adv-x="500" d="M463 481V341H323V219H178V341H37V481H178V601H323V481H463ZM463 170V30H37V170H463Z" />
<glyph unicode="&#xb2;" glyph-name="uni00B2" horiz-adv-x="294" d="M270 373V270H18V373L145 492Q154 500 158 506T162 520Q162 526 157 529T141 533Q127 533 107 531T51 525Q39 523 37 523T35 523V619Q60 625 94 629T162 633Q214 633 243 607T272 537Q272 507
264 487T234 448L149 373H270Z" />
<glyph unicode="&#xb3;" glyph-name="uni00B3" horiz-adv-x="282" d="M250 539Q250 506 236 486T193 458H194Q229 455 246 434T264 374Q264 321 230 293T132 264Q95 264 65 267T20 276V368Q43 364 64 363T111 361Q143 361 152 365T162 385Q162 397 153 402T125
408H58V497H109Q129 497 139 502T149 518Q149 530 141 534T112 539Q103 539 89 538T47 533Q33 531 30 531T27 531V617Q46 624 80 628T146 633Q197 633 223 609T250 539Z" />
<glyph unicode="&#xb4;" glyph-name="acute" horiz-adv-x="362" d="M155 682H312L166 551H50L155 682Z" />
<glyph unicode="&#xb5;" glyph-name="mu" horiz-adv-x="541" d="M224 -10Q214 -10 207 -10T193 -8Q193 -54 200 -89T221 -152H69Q55 -117 49 -74T43 60V494H193V177Q193 152 207 141T253 130Q275 130 299 133T346 143V494H496V0H356L352 33Q324 13 290 2T224 -10Z" />
<glyph unicode="&#xb6;" glyph-name="paragraph" horiz-adv-x="484" d="M437 627V24Q437 -60 391 -111T270 -162Q255 -162 236 -161T192 -156V-31Q203 -32 209 -32T225 -33Q262 -33 274 -21T287 24V135Q268 133 249 132T211 130Q103 130 60 186T16 382Q16 524
72 581T268 639Q306 639 344 637T437 627ZM257 504Q196 504 181 482T166 382Q166 307 179 286T242 265Q254 265 265 266T287 268V502Q279 503 272 503T257 504Z" />
<glyph unicode="&#xb7;" glyph-name="middot" horiz-adv-x="213" d="M179 249H34V387H179V249Z" />
<glyph unicode="&#xb8;" glyph-name="cedilla" horiz-adv-x="330" d="M280 -109Q280 -153 252 -174T163 -195Q133 -195 101 -191T60 -184V-116Q66 -118 92 -122T137 -126Q154 -126 160 -121T167 -103Q167 -93 158 -88T129 -83Q112 -83 103 -83T80 -84L100 19L196
10L188 -40Q231 -40 255 -58T280 -109Z" />
<glyph unicode="&#xb9;" glyph-name="uni00B9" horiz-adv-x="244" d="M209 270H98V529L97 528L9 518V610L209 633V270Z" />
<glyph unicode="&#xba;" glyph-name="ordmasculine" horiz-adv-x="352" d="M322 492Q322 418 287 383T177 348Q102 348 67 383T31 492Q31 566 66 601T177 636Q251 636 286 601T322 492ZM127 493Q127 462 138 450T177 437Q204 437 215 449T226 493Q226 524 215
537T177 550Q149 550 138 538T127 493ZM315 231H36V314H315V231Z" />
<glyph unicode="&#xbb;" glyph-name="guillemotright" horiz-adv-x="536" d="M524 281L375 64H235L383 282L235 494H375L524 281ZM304 281L155 64H15L163 282L15 494H155L304 281Z" />
<glyph unicode="&#xbc;" glyph-name="onequarter" horiz-adv-x="743" d="M215 270H104V529L103 528L15 518V610L215 633V270ZM542 627L242 0H139L439 627H542ZM726 169V73H689V0H579V73H427V170L469 357H573L537 169H583V295H689V169H726Z" />
<glyph unicode="&#xbd;" glyph-name="onehalf" horiz-adv-x="731" d="M215 270H104V529L103 528L15 518V610L215 633V270ZM542 627L242 0H139L439 627H542ZM706 103V0H454V103L581 222Q590 230 594 236T598 250Q598 256 593 259T577 263Q563 263 543 261T487 255Q475
253 473 253T471 253V349Q496 355 530 359T598 363Q650 363 679 337T708 267Q708 237 700 217T670 178L585 103H706Z" />
<glyph unicode="&#xbe;" glyph-name="threequarters" horiz-adv-x="763" d="M252 539Q252 506 238 486T195 458H196Q231 455 248 434T266 374Q266 321 232 293T134 264Q97 264 67 267T22 276V368Q45 364 66 363T113 361Q145 361 154 365T164 385Q164 397 155 402T127
408H60V497H111Q131 497 141 502T151 518Q151 530 143 534T114 539Q105 539 91 538T49 533Q35 531 32 531T29 531V617Q48 624 82 628T148 633Q199 633 225 609T252 539ZM564 627L264 0H161L461 627H564ZM748 169V73H711V0H601V73H449V170L491 357H595L559 169H605V295H711V169H748Z"
/>
<glyph unicode="&#xbf;" glyph-name="questiondown" horiz-adv-x="370" d="M132 360V494H287V360H132ZM185 -143Q106 -143 61 -107T15 -5Q15 51 44 99T141 194V291H277V148Q212 110 186 83T160 31Q160 10 171 0T210 -10Q240 -10 282 -3T352 15V-115Q314 -130 275
-136T185 -143Z" />
<glyph unicode="&#xc0;" glyph-name="Agrave" horiz-adv-x="615" d="M160 0H-3L229 627H390L616 0H454L421 105H193L160 0ZM306 473Q298 445 289 414T257 311L231 228H382L356 311Q343 349 330 391T306 473ZM285 666L141 787H298L401 666H285Z" />
<glyph unicode="&#xc1;" glyph-name="Aacute" horiz-adv-x="615" d="M160 0H-3L229 627H390L616 0H454L421 105H193L160 0ZM306 473Q298 445 289 414T257 311L231 228H382L356 311Q343 349 330 391T306 473ZM318 787H475L331 666H215L318 787Z" />
<glyph unicode="&#xc2;" glyph-name="Acircumflex" horiz-adv-x="615" d="M160 0H-3L229 627H390L616 0H454L421 105H193L160 0ZM306 473Q298 445 289 414T257 311L231 228H382L356 311Q343 349 330 391T306 473ZM485 666H374L308 714L243 666H132L243 787H374L485 666Z" />
<glyph unicode="&#xc3;" glyph-name="Atilde" horiz-adv-x="615" d="M160 0H-3L229 627H390L616 0H454L421 105H193L160 0ZM306 473Q298 445 289 414T257 311L231 228H382L356 311Q343 349 330 391T306 473ZM376 777H460Q460 723 439 693T377 662Q361 662 344
667T296 688Q280 697 273 699T262 702Q252 702 247 693T241 666H157Q157 721 178 751T240 781Q256 781 273 776T321 754Q337 745 344 743T355 740Q365 740 370 749T376 777Z" />
<glyph unicode="&#xc4;" glyph-name="Adieresis" horiz-adv-x="615" d="M160 0H-3L229 627H390L616 0H454L421 105H193L160 0ZM306 473Q298 445 289 414T257 311L231 228H382L356 311Q343 349 330 391T306 473ZM462 769V666H338V769H462ZM277 769V666H153V769H277Z" />
<glyph unicode="&#xc5;" glyph-name="Aring" horiz-adv-x="615" d="M160 0H-3L229 627H390L616 0H454L421 105H193L160 0ZM306 473Q298 445 289 414T257 311L231 228H382L356 311Q343 349 330 391T306 473ZM427 751Q427 708 395 683T308 658Q254 658 222 683T190
751Q190 793 222 817T308 841Q363 841 395 817T427 751ZM264 751Q264 738 276 730T308 722Q329 722 341 729T353 751Q353 765 341 773T308 781Q288 781 276 773T264 751Z" />
<glyph unicode="&#xc6;" glyph-name="AE" horiz-adv-x="739" d="M160 0H-3L219 627H705V487H429L462 383H668V253H504L539 145H714V0H434L401 105H193L160 0ZM296 458Q285 415 275 375T257 311L231 228H362L336 311Q330 330 321 366T296 458Z" />
<glyph unicode="&#xc7;" glyph-name="Ccedilla" horiz-adv-x="508" d="M422 -109Q422 -153 394 -174T305 -195Q275 -195 243 -191T202 -184V-116Q208 -118 234 -122T279 -126Q296 -126 302 -121T309 -103Q309 -93 300 -88T271 -83Q254 -83 245 -83T222 -84L237
-7Q122 6 75 80T27 314Q27 482 99 559T330 637Q376 637 412 635T477 628V493Q444 495 409 496T330 497Q275 497 249 487T209 450Q197 430 192 397T187 314Q187 267 191 236T206 183Q219 157 244 146T320 135Q360 135 407 143T491 166V29Q441 10 407 2T335 -9L330
-40Q373 -40 397 -58T422 -109Z" />
<glyph unicode="&#xc8;" glyph-name="Egrave" horiz-adv-x="505" d="M480 145V0H48V627H471V487H203V383H434V253H203V145H480ZM247 666L103 787H260L363 666H247Z" />
<glyph unicode="&#xc9;" glyph-name="Eacute" horiz-adv-x="505" d="M480 145V0H48V627H471V487H203V383H434V253H203V145H480ZM280 787H437L293 666H177L280 787Z" />
<glyph unicode="&#xca;" glyph-name="Ecircumflex" horiz-adv-x="505" d="M480 145V0H48V627H471V487H203V383H434V253H203V145H480ZM447 666H336L270 714L205 666H94L205 787H336L447 666Z" />
<glyph unicode="&#xcb;" glyph-name="Edieresis" horiz-adv-x="505" d="M480 145V0H48V627H471V487H203V383H434V253H203V145H480ZM424 769V666H300V769H424ZM239 769V666H115V769H239Z" />
<glyph unicode="&#xcc;" glyph-name="Igrave" horiz-adv-x="251" d="M203 627V0H48V627H203ZM359 666L215 787H372L475 666H359Z" />
<glyph unicode="&#xcd;" glyph-name="Iacute" horiz-adv-x="251" d="M203 627V0H48V627H203ZM392 787H549L405 666H289L392 787Z" />
<glyph unicode="&#xce;" glyph-name="Icircumflex" horiz-adv-x="251" d="M203 627V0H48V627H203ZM559 666H448L382 714L317 666H206L317 787H448L559 666Z" />
<glyph unicode="&#xcf;" glyph-name="Idieresis" horiz-adv-x="251" d="M203 627V0H48V627H203ZM536 769V666H412V769H536ZM351 769V666H227V769H351Z" />
<glyph unicode="&#xd0;" glyph-name="Eth" horiz-adv-x="644" d="M20 269V372H90V627H309Q405 627 461 611T552 560Q586 525 601 466T617 314Q617 151 544 76T309 0H90V269H20ZM365 372V269H245V145H309Q363 145 390 154T432 183Q445 202 451 233T457 314Q457
364 451 395T432 447Q418 468 391 477T309 487H245V372H365Z" />
<glyph unicode="&#xd1;" glyph-name="Ntilde" horiz-adv-x="637" d="M589 627V0H441L193 362V0H48V627H195L444 251V627H589ZM393 777H477Q477 723 456 693T394 662Q378 662 361 667T313 688Q297 697 290 699T279 702Q269 702 264 693T258 666H174Q174 721 195
751T257 781Q273 781 290 776T338 754Q354 745 361 743T372 740Q382 740 387 749T393 777Z" />
<glyph unicode="&#xd2;" glyph-name="Ograve" horiz-adv-x="644" d="M617 314Q617 143 548 67T322 -10Q159 -10 93 62T27 314Q27 485 96 561T322 637Q485 637 551 565T617 314ZM203 180Q216 155 241 145T322 135Q377 135 402 145T441 180Q451 200 455 232T460
314Q460 365 456 397T441 450Q429 476 404 486T322 497Q266 497 241 487T203 450Q193 430 189 398T184 314Q184 264 188 232T203 180ZM299 676L155 797H312L415 676H299Z" />
<glyph unicode="&#xd3;" glyph-name="Oacute" horiz-adv-x="644" d="M617 314Q617 143 548 67T322 -10Q159 -10 93 62T27 314Q27 485 96 561T322 637Q485 637 551 565T617 314ZM203 180Q216 155 241 145T322 135Q377 135 402 145T441 180Q451 200 455 232T460
314Q460 365 456 397T441 450Q429 476 404 486T322 497Q266 497 241 487T203 450Q193 430 189 398T184 314Q184 264 188 232T203 180ZM332 797H489L345 676H229L332 797Z" />
<glyph unicode="&#xd4;" glyph-name="Ocircumflex" horiz-adv-x="644" d="M617 314Q617 143 548 67T322 -10Q159 -10 93 62T27 314Q27 485 96 561T322 637Q485 637 551 565T617 314ZM203 180Q216 155 241 145T322 135Q377 135 402 145T441 180Q451 200 455 232T460
314Q460 365 456 397T441 450Q429 476 404 486T322 497Q266 497 241 487T203 450Q193 430 189 398T184 314Q184 264 188 232T203 180ZM499 676H388L322 724L257 676H146L257 797H388L499 676Z" />
<glyph unicode="&#xd5;" glyph-name="Otilde" horiz-adv-x="644" d="M617 314Q617 143 548 67T322 -10Q159 -10 93 62T27 314Q27 485 96 561T322 637Q485 637 551 565T617 314ZM203 180Q216 155 241 145T322 135Q377 135 402 145T441 180Q451 200 455 232T460
314Q460 365 456 397T441 450Q429 476 404 486T322 497Q266 497 241 487T203 450Q193 430 189 398T184 314Q184 264 188 232T203 180ZM390 787H474Q474 733 453 703T391 672Q375 672 358 677T310 698Q294 707 287 709T276 712Q266 712 261 703T255 676H171Q171
731 192 761T254 791Q270 791 287 786T335 764Q351 755 358 753T369 750Q379 750 384 759T390 787Z" />
<glyph unicode="&#xd6;" glyph-name="Odieresis" horiz-adv-x="644" d="M617 314Q617 143 548 67T322 -10Q159 -10 93 62T27 314Q27 485 96 561T322 637Q485 637 551 565T617 314ZM203 180Q216 155 241 145T322 135Q377 135 402 145T441 180Q451 200 455 232T460
314Q460 365 456 397T441 450Q429 476 404 486T322 497Q266 497 241 487T203 450Q193 430 189 398T184 314Q184 264 188 232T203 180ZM476 779V676H352V779H476ZM291 779V676H167V779H291Z" />
<glyph unicode="&#xd7;" glyph-name="multiply" horiz-adv-x="500" d="M30 439L132 542L251 423L370 542L469 443L350 324L471 203L368 101L248 222L128 102L29 201L149 321L30 439Z" />
<glyph unicode="&#xd8;" glyph-name="Oslash" horiz-adv-x="644" d="M122 -69L39 -14L91 64Q58 101 43 162T27 314Q27 485 96 561T322 637Q364 637 399 633T463 619L519 703L603 649L549 568Q584 531 600 470T617 314Q617 143 548 67T322 -10Q276 -10 240 -5T175
10L122 -69ZM203 450Q193 430 189 398T184 314Q184 278 186 255T192 214L379 493Q368 495 354 496T322 497Q266 497 241 487T203 450ZM322 135Q377 135 402 145T441 180Q451 200 455 232T460 314Q460 349 458 375T451 422L262 139Q274 137 288 136T322 135Z" />
<glyph unicode="&#xd9;" glyph-name="Ugrave" horiz-adv-x="624" d="M426 264V627H581V264Q581 127 514 59T313 -10Q172 -10 108 55T43 264V627H198V264Q198 188 221 162T313 135Q380 135 403 161T426 264ZM289 666L145 787H302L405 666H289Z" />
<glyph unicode="&#xda;" glyph-name="Uacute" horiz-adv-x="624" d="M426 264V627H581V264Q581 127 514 59T313 -10Q172 -10 108 55T43 264V627H198V264Q198 188 221 162T313 135Q380 135 403 161T426 264ZM322 787H479L335 666H219L322 787Z" />
<glyph unicode="&#xdb;" glyph-name="Ucircumflex" horiz-adv-x="624" d="M426 264V627H581V264Q581 127 514 59T313 -10Q172 -10 108 55T43 264V627H198V264Q198 188 221 162T313 135Q380 135 403 161T426 264ZM489 666H378L312 714L247 666H136L247 787H378L489 666Z" />
<glyph unicode="&#xdc;" glyph-name="Udieresis" horiz-adv-x="624" d="M426 264V627H581V264Q581 127 514 59T313 -10Q172 -10 108 55T43 264V627H198V264Q198 188 221 162T313 135Q380 135 403 161T426 264ZM466 769V666H342V769H466ZM281 769V666H157V769H281Z" />
<glyph unicode="&#xdd;" glyph-name="Yacute" horiz-adv-x="597" d="M437 627H597L378 228V0H223V228L-2 627H175L301 365L437 627ZM313 787H470L326 666H210L313 787Z" />
<glyph unicode="&#xde;" glyph-name="Thorn" horiz-adv-x="567" d="M203 90V0H48V627H203V541H277Q422 541 483 491T544 321Q544 203 480 147T280 90H203ZM387 321Q387 365 363 383T277 401H203V226H277Q340 226 363 247T387 321Z" />
<glyph unicode="&#xdf;" glyph-name="germandbls" horiz-adv-x="579" d="M255 677Q360 677 410 643T460 535Q460 521 458 501T451 464L425 341L469 329Q519 315 537 282T556 176Q556 83 514 37T385 -10Q345 -10 313 -7T261 3V131Q293 126 314 124T356 122Q387
122 400 134T414 176Q414 198 408 206T384 219L270 247L307 468Q309 478 309 483T310 499Q310 520 297 531T255 542Q221 542 207 529T193 485V0H43V486Q43 582 95 629T255 677Z" />
<glyph unicode="&#xe0;" glyph-name="agrave" horiz-adv-x="490" d="M163 -10Q87 -10 52 28T16 148Q16 232 58 266T205 300Q229 300 254 298T299 291V327Q299 351 279 362T216 374Q168 374 131 372T62 363V486Q99 495 148 499T262 504Q354 504 401 463T449 342V0H309L304
42H301Q270 18 233 4T163 -10ZM225 201Q185 201 171 193T157 157Q157 132 168 123T209 113Q231 113 255 119T299 134V195Q287 198 269 199T225 201ZM226 551L80 682H237L342 551H226Z" />
<glyph unicode="&#xe1;" glyph-name="aacute" horiz-adv-x="490" d="M163 -10Q87 -10 52 28T16 148Q16 232 58 266T205 300Q229 300 254 298T299 291V327Q299 351 279 362T216 374Q168 374 131 372T62 363V486Q99 495 148 499T262 504Q354 504 401 463T449 342V0H309L304
42H301Q270 18 233 4T163 -10ZM225 201Q185 201 171 193T157 157Q157 132 168 123T209 113Q231 113 255 119T299 134V195Q287 198 269 199T225 201ZM261 682H418L272 551H156L261 682Z" />
<glyph unicode="&#xe2;" glyph-name="acircumflex" horiz-adv-x="490" d="M163 -10Q87 -10 52 28T16 148Q16 232 58 266T205 300Q229 300 254 298T299 291V327Q299 351 279 362T216 374Q168 374 131 372T62 363V486Q99 495 148 499T262 504Q354 504 401 463T449
342V0H309L304 42H301Q270 18 233 4T163 -10ZM225 201Q185 201 171 193T157 157Q157 132 168 123T209 113Q231 113 255 119T299 134V195Q287 198 269 199T225 201ZM426 551H315L249 609L184 551H73L184 682H315L426 551Z" />
<glyph unicode="&#xe3;" glyph-name="atilde" horiz-adv-x="490" d="M163 -10Q87 -10 52 28T16 148Q16 232 58 266T205 300Q229 300 254 298T299 291V327Q299 351 279 362T216 374Q168 374 131 372T62 363V486Q99 495 148 499T262 504Q354 504 401 463T449 342V0H309L304
42H301Q270 18 233 4T163 -10ZM225 201Q185 201 171 193T157 157Q157 132 168 123T209 113Q231 113 255 119T299 134V195Q287 198 269 199T225 201ZM316 682H400Q400 618 379 583T317 547Q301 547 284 553T236 580Q220 591 213 594T202 597Q192 597 187 585T181
551H97Q97 615 118 650T180 686Q196 686 213 680T261 654Q277 644 284 641T295 638Q305 638 310 649T316 682Z" />
<glyph unicode="&#xe4;" glyph-name="adieresis" horiz-adv-x="490" d="M163 -10Q87 -10 52 28T16 148Q16 232 58 266T205 300Q229 300 254 298T299 291V327Q299 351 279 362T216 374Q168 374 131 372T62 363V486Q99 495 148 499T262 504Q354 504 401 463T449
342V0H309L304 42H301Q270 18 233 4T163 -10ZM225 201Q185 201 171 193T157 157Q157 132 168 123T209 113Q231 113 255 119T299 134V195Q287 198 269 199T225 201ZM403 664V551H279V664H403ZM218 664V551H94V664H218Z" />
<glyph unicode="&#xe5;" glyph-name="aring" horiz-adv-x="490" d="M163 -10Q87 -10 52 28T16 148Q16 232 58 266T205 300Q229 300 254 298T299 291V327Q299 351 279 362T216 374Q168 374 131 372T62 363V486Q99 495 148 499T262 504Q354 504 401 463T449 342V0H309L304
42H301Q270 18 233 4T163 -10ZM225 201Q185 201 171 193T157 157Q157 132 168 123T209 113Q231 113 255 119T299 134V195Q287 198 269 199T225 201ZM368 647Q368 599 336 571T249 543Q195 543 163 571T131 647Q131 694 162 721T249 748Q304 748 336 721T368 647ZM205
647Q205 631 217 622T249 612Q270 612 282 621T294 647Q294 664 282 673T249 683Q229 683 217 674T205 647Z" />
<glyph unicode="&#xe6;" glyph-name="ae" horiz-adv-x="733" d="M163 -10Q87 -10 52 28T16 148Q16 229 60 262T210 295H284V327Q284 351 266 362T211 374Q165 374 129 372T62 363V486Q99 495 146 499T257 504Q295 504 323 494T369 463Q396 483 429 493T502 504Q615
504 661 458T707 293Q707 261 706 242T702 198H430Q431 157 449 141T519 125Q564 125 611 131T686 146V27Q662 12 608 1T495 -10Q436 -10 396 6T330 55Q292 24 249 7T163 -10ZM502 376Q460 376 445 360T430 295H571V317Q570 352 557 364T502 376ZM157 156Q157 132
167 123T204 113Q227 113 252 120T294 139Q291 154 289 168T286 198H220Q183 198 170 190T157 156Z" />
<glyph unicode="&#xe7;" glyph-name="ccedilla" horiz-adv-x="429" d="M374 -109Q374 -153 346 -174T257 -195Q227 -195 195 -191T154 -184V-116Q160 -118 186 -122T231 -126Q248 -126 254 -121T261 -103Q261 -93 252 -88T223 -83Q206 -83 197 -83T174 -84L189
-9Q100 -2 63 56T26 247Q26 389 82 446T278 504Q312 504 339 503T397 497V364Q348 368 326 368T278 369Q209 369 193 350T176 247Q176 172 189 151T252 130Q292 130 335 136T410 151V27Q392 16 359 7T287 -6L282 -40Q325 -40 349 -58T374 -109Z" />
<glyph unicode="&#xe8;" glyph-name="egrave" horiz-adv-x="499" d="M452 146V27Q428 12 371 1T251 -10Q131 -10 78 50T25 247Q25 380 81 442T258 504Q376 504 424 458T473 293Q473 261 472 242T468 198H176Q177 157 198 141T275 125Q323 125 373 131T452 146ZM258
376Q210 376 193 360T176 295H337V317Q336 352 321 364T258 376ZM235 551L89 682H246L351 551H235Z" />
<glyph unicode="&#xe9;" glyph-name="eacute" horiz-adv-x="499" d="M452 146V27Q428 12 371 1T251 -10Q131 -10 78 50T25 247Q25 380 81 442T258 504Q376 504 424 458T473 293Q473 261 472 242T468 198H176Q177 157 198 141T275 125Q323 125 373 131T452 146ZM258
376Q210 376 193 360T176 295H337V317Q336 352 321 364T258 376ZM270 682H427L281 551H165L270 682Z" />
<glyph unicode="&#xea;" glyph-name="ecircumflex" horiz-adv-x="499" d="M452 146V27Q428 12 371 1T251 -10Q131 -10 78 50T25 247Q25 380 81 442T258 504Q376 504 424 458T473 293Q473 261 472 242T468 198H176Q177 157 198 141T275 125Q323 125 373 131T452
146ZM258 376Q210 376 193 360T176 295H337V317Q336 352 321 364T258 376ZM435 551H324L258 609L193 551H82L193 682H324L435 551Z" />
<glyph unicode="&#xeb;" glyph-name="edieresis" horiz-adv-x="499" d="M452 146V27Q428 12 371 1T251 -10Q131 -10 78 50T25 247Q25 380 81 442T258 504Q376 504 424 458T473 293Q473 261 472 242T468 198H176Q177 157 198 141T275 125Q323 125 373 131T452 146ZM258
376Q210 376 193 360T176 295H337V317Q336 352 321 364T258 376ZM412 664V551H288V664H412ZM227 664V551H103V664H227Z" />
<glyph unicode="&#xec;" glyph-name="igrave" horiz-adv-x="236" d="M193 0H43V494H193V0ZM351 797L205 928H362L467 797H351Z" />
<glyph unicode="&#xed;" glyph-name="iacute" horiz-adv-x="236" d="M193 0H43V494H193V0ZM386 928H543L397 797H281L386 928Z" />
<glyph unicode="&#xee;" glyph-name="icircumflex" horiz-adv-x="236" d="M193 0H43V494H193V0ZM551 797H440L374 855L309 797H198L309 928H440L551 797Z" />
<glyph unicode="&#xef;" glyph-name="idieresis" horiz-adv-x="236" d="M193 0H43V494H193V0ZM528 910V797H404V910H528ZM343 910V797H219V910H343Z" />
<glyph unicode="&#xf0;" glyph-name="eth" horiz-adv-x="540" d="M513 232Q513 101 457 46T269 -10Q137 -10 81 45T25 232Q25 363 81 418T269 474Q288 474 303 473T332 470Q326 485 319 499T304 529L148 494V577L257 602Q249 613 239 626T206 665H366Q371 659
377 653T394 632L513 659V576L442 560Q479 495 496 415T513 232ZM175 234Q175 167 191 148T269 129Q330 129 346 148T363 234Q363 301 347 320T269 339Q208 339 192 320T175 234Z" />
<glyph unicode="&#xf1;" glyph-name="ntilde" horiz-adv-x="553" d="M193 0H43V494H173L179 442H182Q214 475 251 489T342 504Q426 504 469 463T512 342V0H362V322Q362 345 344 357T289 369Q262 369 237 363T193 346V0ZM345 682H429Q429 618 408 583T346 547Q330
547 313 553T265 580Q249 591 242 594T231 597Q221 597 216 585T210 551H126Q126 615 147 650T209 686Q225 686 242 680T290 654Q306 644 313 641T324 638Q334 638 339 649T345 682Z" />
<glyph unicode="&#xf2;" glyph-name="ograve" horiz-adv-x="538" d="M513 247Q513 108 457 49T269 -10Q137 -10 81 49T25 247Q25 386 81 445T269 504Q401 504 457 445T513 247ZM175 249Q175 173 191 151T269 129Q330 129 346 151T363 249Q363 325 347 347T269
369Q208 369 192 347T175 249ZM246 551L100 682H257L362 551H246Z" />
<glyph unicode="&#xf3;" glyph-name="oacute" horiz-adv-x="538" d="M513 247Q513 108 457 49T269 -10Q137 -10 81 49T25 247Q25 386 81 445T269 504Q401 504 457 445T513 247ZM175 249Q175 173 191 151T269 129Q330 129 346 151T363 249Q363 325 347 347T269
369Q208 369 192 347T175 249ZM281 682H438L292 551H176L281 682Z" />
<glyph unicode="&#xf4;" glyph-name="ocircumflex" horiz-adv-x="538" d="M513 247Q513 108 457 49T269 -10Q137 -10 81 49T25 247Q25 386 81 445T269 504Q401 504 457 445T513 247ZM175 249Q175 173 191 151T269 129Q330 129 346 151T363 249Q363 325 347 347T269
369Q208 369 192 347T175 249ZM446 551H335L269 609L204 551H93L204 682H335L446 551Z" />
<glyph unicode="&#xf5;" glyph-name="otilde" horiz-adv-x="538" d="M513 247Q513 108 457 49T269 -10Q137 -10 81 49T25 247Q25 386 81 445T269 504Q401 504 457 445T513 247ZM175 249Q175 173 191 151T269 129Q330 129 346 151T363 249Q363 325 347 347T269
369Q208 369 192 347T175 249ZM336 682H420Q420 618 399 583T337 547Q321 547 304 553T256 580Q240 591 233 594T222 597Q212 597 207 585T201 551H117Q117 615 138 650T200 686Q216 686 233 680T281 654Q297 644 304 641T315 638Q325 638 330 649T336 682Z" />
<glyph unicode="&#xf6;" glyph-name="odieresis" horiz-adv-x="538" d="M513 247Q513 108 457 49T269 -10Q137 -10 81 49T25 247Q25 386 81 445T269 504Q401 504 457 445T513 247ZM175 249Q175 173 191 151T269 129Q330 129 346 151T363 249Q363 325 347 347T269
369Q208 369 192 347T175 249ZM423 664V551H299V664H423ZM238 664V551H114V664H238Z" />
<glyph unicode="&#xf7;" glyph-name="divide" horiz-adv-x="500" d="M463 392V252H37V392H463ZM325 64H180V202H325V64ZM325 442H180V580H325V442Z" />
<glyph unicode="&#xf8;" glyph-name="oslash" horiz-adv-x="538" d="M106 -81L24 -24L77 53Q50 83 38 130T25 247Q25 386 81 445T269 504Q302 504 329 501T378 491L434 572L516 516L463 438Q489 408 501 362T513 247Q513 108 457 49T269 -10Q238 -10 212 -7T163
2L106 -81ZM269 369Q208 369 192 347T175 249Q175 232 175 218T178 192L299 368Q294 369 288 369T269 369ZM269 129Q330 129 346 151T363 249Q363 260 363 271T361 299L245 130Q249 129 253 129T269 129Z" />
<glyph unicode="&#xf9;" glyph-name="ugrave" horiz-adv-x="531" d="M208 -10Q124 -10 83 31T41 157V494H191V177Q191 152 206 141T254 130Q273 130 294 133T338 142V494H488V0H348L344 27H342Q307 10 272 0T208 -10ZM248 797L102 928H259L364 797H248Z" />
<glyph unicode="&#xfa;" glyph-name="uacute" horiz-adv-x="531" d="M208 -10Q124 -10 83 31T41 157V494H191V177Q191 152 206 141T254 130Q273 130 294 133T338 142V494H488V0H348L344 27H342Q307 10 272 0T208 -10ZM283 672H440L294 541H178L283 672Z" />
<glyph unicode="&#xfb;" glyph-name="ucircumflex" horiz-adv-x="531" d="M208 -10Q124 -10 83 31T41 157V494H191V177Q191 152 206 141T254 130Q273 130 294 133T338 142V494H488V0H348L344 27H342Q307 10 272 0T208 -10ZM448 797H337L271 855L206 797H95L206
928H337L448 797Z" />
<glyph unicode="&#xfc;" glyph-name="udieresis" horiz-adv-x="531" d="M208 -10Q124 -10 83 31T41 157V494H191V177Q191 152 206 141T254 130Q273 130 294 133T338 142V494H488V0H348L344 27H342Q307 10 272 0T208 -10ZM425 910V797H301V910H425ZM240 910V797H116V910H240Z"
/>
<glyph unicode="&#xfd;" glyph-name="yacute" horiz-adv-x="511" d="M110 -34Q145 -34 161 -25T184 10L-2 494H165L260 156L350 494H511L335 -10Q307 -91 262 -126T141 -162Q120 -162 98 -160T57 -154V-32Q65 -33 75 -33T110 -34ZM273 928H430L284 797H168L273 928Z" />
<glyph unicode="&#xfe;" glyph-name="thorn" horiz-adv-x="541" d="M193 -152H43V665H193V464Q221 483 257 493T335 504Q433 504 474 445T516 247Q516 112 464 51T293 -10Q264 -10 239 -7T193 3V-152ZM366 247Q366 322 350 345T281 369Q255 369 233 365T193 353V142Q208
135 227 132T272 129Q333 129 349 150T366 247Z" />
<glyph unicode="&#xff;" glyph-name="ydieresis" horiz-adv-x="511" d="M110 -34Q145 -34 161 -25T184 10L-2 494H165L260 156L350 494H511L335 -10Q307 -91 262 -126T141 -162Q120 -162 98 -160T57 -154V-32Q65 -33 75 -33T110 -34ZM415 910V797H291V910H415ZM230
910V797H106V910H230Z" />
<glyph unicode="&#x2013;" glyph-name="endash" horiz-adv-x="473" d="M441 375V262H32V375H441Z" />
<glyph unicode="&#x2014;" glyph-name="emdash" horiz-adv-x="753" d="M721 375V262H32V375H721Z" />
<glyph unicode="&#x2018;" glyph-name="quoteleft" horiz-adv-x="184" d="M18 399L48 577Q52 600 68 613T109 627H152V399H18Z" />
<glyph unicode="&#x2019;" glyph-name="quoteright" horiz-adv-x="179" d="M166 627L136 449Q132 426 116 413T75 399H32V627H166Z" />
<glyph unicode="&#x201a;" glyph-name="quotesinglbase" horiz-adv-x="180" d="M160 101L130 -77Q126 -100 110 -113T69 -127H26V101H160Z" />
<glyph unicode="&#x201c;" glyph-name="quotedblleft" horiz-adv-x="364" d="M18 399L48 577Q52 600 68 613T109 627H152V399H18ZM198 399L228 577Q232 600 248 613T289 627H332V399H198Z" />
<glyph unicode="&#x201d;" glyph-name="quotedblright" horiz-adv-x="359" d="M346 627L316 449Q312 426 296 413T255 399H212V627H346ZM166 627L136 449Q132 426 116 413T75 399H32V627H166Z" />
<glyph unicode="&#x201e;" glyph-name="quotedblbase" horiz-adv-x="360" d="M340 101L310 -77Q306 -100 290 -113T249 -127H206V101H340ZM160 101L130 -77Q126 -100 110 -113T69 -127H26V101H160Z" />
<glyph unicode="&#x2022;" glyph-name="bullet" horiz-adv-x="320" d="M263 222H58V415H263V222Z" />
<glyph unicode="&#x2039;" glyph-name="guilsinglleft" horiz-adv-x="336" d="M321 64H161L12 281L161 494H321L173 282L321 64Z" />
<glyph unicode="&#x203a;" glyph-name="guilsinglright" horiz-adv-x="336" d="M324 281L175 64H15L163 282L15 494H175L324 281Z" />
</font>
</defs>
</svg>
