<?xml version="1.0" standalone="no"?>
<!DOCTYPE svg PUBLIC "-//W3C//DTD SVG 1.1//EN" "http://www.w3.org/Graphics/SVG/1.1/DTD/svg11.dtd">
<svg xmlns="http://www.w3.org/2000/svg">
<defs >
<font id="Blinker" horiz-adv-x="481" ><font-face
    font-family="Blinker SemiBold"
    units-per-em="1000"
    panose-1="2 0 0 0 0 0 0 0 0 0"
    ascent="960"
    descent="-240"
    alphabetic="0" />
<glyph unicode=" " glyph-name="space" horiz-adv-x="160" />
<glyph unicode="!" glyph-name="exclam" horiz-adv-x="232" d="M50 627H182L167 187H65L50 627ZM176 108V0H56V108H176Z" />
<glyph unicode="&quot;" glyph-name="quotedbl" horiz-adv-x="318" d="M42 627H121V399H42V627ZM197 627H276V399H197V627Z" />
<glyph unicode="#" glyph-name="numbersign" horiz-adv-x="562" d="M541 493V416H445L415 222H506V144H402L378 0H297L320 144H188L165 0H83L107 144H22V222H120L151 416H57V493H166L187 627H268L246 493H378L400 627H481L459 493H541ZM333 222L364 416H233L201 222H333Z" />
<glyph unicode="$" glyph-name="dollar" horiz-adv-x="480" d="M279 -7V-93H198V-8Q150 -6 106 1T34 19V132Q76 119 128 112T233 104Q288 104 310 121T333 185Q333 214 323 227T280 250L158 282Q86 302 60 337T33 437Q33 525 73 573T198 633V720H279V637Q316 636
347 632T410 619V511Q325 526 302 527T254 529Q200 529 176 510T152 446Q152 421 162 409T198 389L319 356Q369 342 391 331T426 305Q442 286 449 258T457 189Q457 95 414 49T279 -7Z" />
<glyph unicode="%" glyph-name="percent" horiz-adv-x="654" d="M282 477Q282 393 252 357T152 320Q81 320 51 356T21 477Q21 561 51 597T152 633Q222 633 252 597T282 477ZM518 627L218 0H136L436 627H518ZM202 477Q202 526 191 546T152 566Q124 566 113 546T102
477Q102 429 113 410T152 391Q180 391 191 410T202 477ZM633 152Q633 67 603 31T503 -5Q433 -5 403 31T373 152Q373 236 403 272T503 308Q573 308 603 272T633 152ZM553 152Q553 201 542 221T503 241Q475 241 464 221T453 152Q453 104 464 85T503 66Q531 66 542
85T553 152Z" />
<glyph unicode="&amp;" glyph-name="ampersand" horiz-adv-x="690" d="M548 262V51Q516 24 455 8T321 -9Q172 -9 104 71T35 326Q35 481 103 559T308 637Q407 637 461 591T515 460Q515 431 509 406T489 360H677V262H548ZM402 453Q402 490 376 510T300 531Q223 531
190 488T156 342Q287 344 344 369T402 453ZM323 101Q361 101 391 106T435 119V308Q392 280 324 266T161 251Q171 171 209 136T323 101Z" />
<glyph unicode="&apos;" glyph-name="quotesingle" horiz-adv-x="170" d="M42 627H128V399H42V627Z" />
<glyph unicode="(" glyph-name="parenleft" horiz-adv-x="220" d="M128 313Q128 205 146 107T197 -58L126 -80Q82 -2 59 99T35 313Q35 429 58 530T126 707L195 685Q163 620 146 523T128 313Z" />
<glyph unicode=")" glyph-name="parenright" horiz-adv-x="220" d="M92 313Q92 425 75 522T25 685L94 707Q139 631 162 530T185 313Q185 201 162 100T94 -80L23 -58Q56 8 74 106T92 313Z" />
<glyph unicode="*" glyph-name="asterisk" horiz-adv-x="372" d="M243 447L314 357L247 310L186 404L122 311L57 359L129 447L19 480L46 556L150 515L145 627H226L221 515L328 554L353 477L243 447Z" />
<glyph unicode="+" glyph-name="plus" horiz-adv-x="500" d="M463 377V268H307V110H195V268H37V377H195V532H307V377H463Z" />
<glyph unicode="," glyph-name="comma" horiz-adv-x="182" d="M151 112L124 -55Q121 -74 108 -84T75 -95H36L38 112H151Z" />
<glyph unicode="-" glyph-name="hyphen" horiz-adv-x="406" d="M363 363V274H44V363H363Z" />
<glyph unicode="." glyph-name="period" horiz-adv-x="189" d="M151 0H38V111H151V0Z" />
<glyph unicode="/" glyph-name="slash" horiz-adv-x="327" d="M312 707L103 -80H15L225 707H312Z" />
<glyph unicode="0" glyph-name="zero" horiz-adv-x="569" d="M529 315Q529 136 476 64T285 -9Q199 -9 151 12T77 79Q58 115 49 171T40 315Q40 492 94 564T285 637Q371 637 419 617T492 549Q511 514 520 458T529 315ZM408 315Q408 445 385 487T285 529Q211 529
187 486T162 315Q162 186 185 145T285 104Q359 104 383 146T408 315Z" />
<glyph unicode="1" glyph-name="one" horiz-adv-x="366" d="M299 0H179V522L12 501V603L299 637V0Z" />
<glyph unicode="2" glyph-name="two" horiz-adv-x="456" d="M420 113V0H25V113L245 352Q273 382 284 407T296 460Q296 493 278 511T223 529Q185 529 128 522T55 509V614Q94 625 144 631T244 637Q326 637 371 595T416 476Q416 426 399 386T342 302L167 113H420Z" />
<glyph unicode="3" glyph-name="three" horiz-adv-x="455" d="M395 476Q395 418 370 382T295 331V329Q357 324 388 286T420 178Q420 87 366 39T208 -9Q149 -9 103 -4T30 12V116Q67 108 103 105T188 101Q251 101 279 121T308 188Q308 231 283 251T205 271H100V372H183Q232
372 257 392T283 454Q283 496 262 513T193 531Q160 531 109 525T46 514V613Q77 623 127 630T227 637Q310 637 352 596T395 476Z" />
<glyph unicode="4" glyph-name="four" horiz-adv-x="520" d="M499 259V154H422V0H302V154H29V259L103 627H218L151 259H302V517H422V259H499Z" />
<glyph unicode="5" glyph-name="five" horiz-adv-x="458" d="M429 187Q429 92 377 42T226 -9Q160 -9 111 -4T35 12V118Q71 111 109 108T193 104Q256 104 282 123T309 189Q309 235 285 253T189 271Q150 271 120 269T62 261V627H389V519H182V367Q204 369 221 370T255
371Q348 371 388 327T429 187Z" />
<glyph unicode="6" glyph-name="six" horiz-adv-x="512" d="M269 -9Q141 -9 90 59T39 297Q39 475 107 556T324 637Q350 637 378 635T420 629V527Q396 530 372 531T324 532Q240 532 205 497T161 369Q201 391 238 400T318 409Q403 409 444 361T485 212Q485 108 428
50T269 -9ZM369 207Q369 264 349 286T274 309Q246 309 214 301T158 280Q159 174 181 137T265 99Q317 99 343 126T369 207Z" />
<glyph unicode="7" glyph-name="seven" horiz-adv-x="447" d="M426 627V519L161 0H26L298 519H27V627H426Z" />
<glyph unicode="8" glyph-name="eight" horiz-adv-x="519" d="M482 170Q482 77 429 34T259 -9Q141 -9 90 32T38 167Q38 230 68 270T153 323Q100 337 74 374T49 472Q49 557 99 597T259 637Q373 637 422 599T471 473Q471 412 445 375T366 323Q422 311 452 272T482
170ZM364 455Q364 498 340 517T259 536Q204 536 180 517T156 454Q156 407 180 387T259 366Q314 366 339 387T364 455ZM370 186Q370 231 344 251T259 271Q201 271 176 251T150 184Q150 137 175 117T259 96Q318 96 344 117T370 186Z" />
<glyph unicode="9" glyph-name="nine" horiz-adv-x="512" d="M247 637Q374 637 423 570T473 331Q473 153 405 72T187 -9Q161 -9 131 -7T87 -1V104Q104 102 129 101T187 99Q270 99 306 134T350 260Q312 240 276 231T200 221Q112 221 70 269T27 419Q27 522 85 579T247
637ZM247 531Q196 531 170 505T144 425Q144 366 164 344T242 321Q273 321 300 328T353 351Q352 458 331 494T247 531Z" />
<glyph unicode=":" glyph-name="colon" horiz-adv-x="207" d="M160 384H47V495H160V384ZM160 0H47V111H160V0Z" />
<glyph unicode=";" glyph-name="semicolon" horiz-adv-x="210" d="M163 112L136 -55Q133 -74 120 -84T87 -95H48L50 112H163ZM164 384H51V495H164V384Z" />
<glyph unicode="&lt;" glyph-name="less" horiz-adv-x="500" d="M463 195V80L37 247V378L463 545V432L131 314L463 195Z" />
<glyph unicode="=" glyph-name="equal" horiz-adv-x="500" d="M463 518V409H37V518H463ZM463 472V363H37V472H463Z" />
<glyph unicode="&gt;" glyph-name="greater" horiz-adv-x="500" d="M463 247L37 80V195L369 314L37 432V545L463 378V247Z" />
<glyph unicode="?" glyph-name="question" horiz-adv-x="375" d="M185 637Q265 637 310 602T356 501Q356 443 323 395T214 298V188H108V338Q182 378 212 410T243 474Q243 503 224 517T167 532Q133 532 91 525T20 506V609Q58 623 98 630T185 637ZM221 108V0H100V108H221Z" />
<glyph unicode="@" glyph-name="at" horiz-adv-x="631" d="M290 79Q243 79 220 103T197 178Q197 230 223 251T315 273Q332 273 350 272T381 267V287Q381 310 367 321T322 333Q292 333 268 331T226 324V394Q249 400 277 402T343 405Q400 405 428 379T456 299V173Q456
160 460 155T472 149Q495 149 510 187T526 286Q526 381 479 430T337 479Q218 479 170 424T121 236Q121 115 177 60T359 5Q404 5 447 15T523 43V-36Q489 -56 442 -66T338 -76Q186 -76 110 2T34 236Q34 395 110 476T336 557Q468 557 537 490T607 296Q607 198 567
139T460 79Q438 79 423 89T399 118Q380 100 351 90T290 79ZM327 218Q294 218 283 211T272 183Q272 163 281 155T313 146Q332 146 350 151T381 165V213Q370 216 358 217T327 218Z" />
<glyph unicode="A" glyph-name="A" horiz-adv-x="607" d="M129 0H3L243 627H367L603 0H477L432 128H173L129 0ZM302 512Q291 474 278 432T252 354L208 227H397L353 354Q342 386 328 428T302 512Z" />
<glyph unicode="B" glyph-name="B" horiz-adv-x="559" d="M530 182Q530 86 476 43T305 0H60V627H305Q411 627 455 591T500 468Q500 409 482 378T416 333Q473 323 501 286T530 182ZM389 451Q389 494 371 510T305 527H180V365H305Q350 365 369 385T389 451ZM414
190Q414 236 390 254T305 272H180V104H305Q365 104 389 123T414 190Z" />
<glyph unicode="C" glyph-name="C" horiz-adv-x="513" d="M321 104Q362 104 408 113T492 137V30Q437 8 394 0T303 -9Q154 -9 95 65T36 315Q36 482 106 559T331 637Q377 637 413 635T478 628V523Q440 526 405 527T331 529Q230 529 195 482T159 315Q159 195 191
150T321 104Z" />
<glyph unicode="D" glyph-name="D" horiz-adv-x="604" d="M261 0H60V627H261Q357 627 413 611T504 560Q538 525 553 466T569 314Q569 151 496 76T261 0ZM412 473Q393 498 359 508T261 519H180V113H261Q369 113 407 157T445 314Q445 374 437 412T412 473Z" />
<glyph unicode="E" glyph-name="E" horiz-adv-x="514" d="M484 113V0H60V627H475V519H180V371H438V268H180V113H484Z" />
<glyph unicode="F" glyph-name="F" horiz-adv-x="494" d="M180 243V0H60V627H473V519H180V346H436V243H180Z" />
<glyph unicode="G" glyph-name="G" horiz-adv-x="587" d="M437 245H301V345H549V29Q521 16 449 4T318 -9Q159 -9 98 65T36 314Q36 481 108 559T338 637Q397 637 443 635T515 627V522Q479 525 432 527T338 529Q235 529 198 482T160 314Q160 256 166 218T186 156Q203
126 234 113T328 100Q349 100 377 103T437 111V245Z" />
<glyph unicode="H" glyph-name="H" horiz-adv-x="634" d="M180 0H60V627H180V373H454V627H574V0H454V264H180V0Z" />
<glyph unicode="I" glyph-name="I" horiz-adv-x="240" d="M180 627V0H60V627H180Z" />
<glyph unicode="J" glyph-name="J" horiz-adv-x="423" d="M247 239V627H367V232Q367 104 312 48T129 -9Q93 -9 65 -6T15 3V113Q36 108 60 106T115 104Q193 104 220 132T247 239Z" />
<glyph unicode="K" glyph-name="K" horiz-adv-x="590" d="M345 322L595 0H442L242 269H180V0H60V627H180V368H242L441 627H586L345 322Z" />
<glyph unicode="L" glyph-name="L" horiz-adv-x="467" d="M452 113V0H60V627H180V113H452Z" />
<glyph unicode="M" glyph-name="M" horiz-adv-x="730" d="M670 627V0H557V435L414 123H315L173 436V0H60V627H208L367 270L527 627H670Z" />
<glyph unicode="N" glyph-name="N" horiz-adv-x="647" d="M587 627V0H470L173 425V0H60V627H177L475 192V627H587Z" />
<glyph unicode="O" glyph-name="O" horiz-adv-x="647" d="M611 315Q611 144 544 68T324 -9Q162 -9 99 62T36 315Q36 485 104 561T324 637Q485 637 548 566T611 315ZM182 157Q198 128 229 116T324 104Q423 104 456 148T489 315Q489 374 484 412T465 474Q449 504
418 516T324 529Q224 529 191 484T158 315Q158 256 164 218T182 157Z" />
<glyph unicode="P" glyph-name="P" horiz-adv-x="562" d="M180 190V0H60V627H281Q420 627 479 578T539 415Q539 300 477 245T284 190H180ZM417 415Q417 472 387 495T281 519H180V295H281Q356 295 386 322T417 415Z" />
<glyph unicode="Q" glyph-name="Q" horiz-adv-x="647" d="M324 -9Q162 -9 99 62T36 315Q36 485 104 561T324 637Q485 637 548 566T611 315Q611 198 580 127T484 22L601 -128H462L370 -7Q351 -8 342 -8T324 -9ZM182 157Q198 128 229 116T324 104Q423 104 456 148T489
315Q489 374 484 412T465 474Q449 504 418 516T324 529Q224 529 191 484T158 315Q158 256 164 218T182 157Z" />
<glyph unicode="R" glyph-name="R" horiz-adv-x="578" d="M180 214V0H60V627H281Q420 627 479 580T539 423Q539 344 505 296T400 228L558 0H414L273 214H180ZM417 423Q417 475 387 497T281 519H180V314H281Q356 314 386 339T417 423Z" />
<glyph unicode="S" glyph-name="S" horiz-adv-x="497" d="M300 249L161 282Q92 298 64 334T36 439Q36 541 92 589T266 637Q315 637 353 633T425 619V511Q368 522 334 525T264 529Q204 529 179 511T154 447Q154 421 164 408T200 388L335 356Q382 345 405 334T443
305Q458 286 465 258T473 189Q473 83 417 37T243 -9Q182 -9 126 -1T37 19V132Q80 119 134 112T243 104Q302 104 325 120T349 185Q349 215 340 228T300 249Z" />
<glyph unicode="T" glyph-name="T" horiz-adv-x="526" d="M513 627V519H323V0H203V519H14V627H513Z" />
<glyph unicode="U" glyph-name="U" horiz-adv-x="629" d="M454 257V627H574V257Q574 122 510 57T314 -9Q179 -9 117 54T55 257V627H175V257Q175 169 205 137T314 104Q394 104 424 137T454 257Z" />
<glyph unicode="V" glyph-name="V" horiz-adv-x="601" d="M229 0L3 627H137L255 274Q264 247 276 202T303 99Q317 157 329 202T350 273L468 627H598L372 0H229Z" />
<glyph unicode="W" glyph-name="W" horiz-adv-x="852" d="M176 0L7 627H137L222 274Q225 260 229 240T249 125Q265 218 269 239T276 273L365 627H491L581 274Q585 260 589 240T609 126Q620 188 626 224T636 273L719 627H845L676 0H539L468 263Q458 304 448 351T426
464Q417 415 407 365T384 263L314 0H176Z" />
<glyph unicode="X" glyph-name="X" horiz-adv-x="561" d="M351 326L568 0H421L273 229L129 0H-3L209 321L8 627H154L284 417L418 627H547L351 326Z" />
<glyph unicode="Y" glyph-name="Y" horiz-adv-x="586" d="M457 627H581L355 233V0H235V233L3 627H139L296 340L457 627Z" />
<glyph unicode="Z" glyph-name="Z" horiz-adv-x="506" d="M485 113V0H21V113L331 519H50V627H466V519L158 113H485Z" />
<glyph unicode="[" glyph-name="bracketleft" horiz-adv-x="253" d="M230 -4V-82H59V707H230V631H144V-4H230Z" />
<glyph unicode="\" glyph-name="backslash" horiz-adv-x="326" d="M102 707L311 -80H224L14 707H102Z" />
<glyph unicode="]" glyph-name="bracketright" horiz-adv-x="253" d="M194 -82H23V-4H109V631H23V707H194V-82Z" />
<glyph unicode="^" glyph-name="asciicircum" horiz-adv-x="500" d="M182 365H75L202 627H299L425 365H319L251 525L182 365Z" />
<glyph unicode="_" glyph-name="underscore" horiz-adv-x="468" d="M439 -39V-128H30V-39H439Z" />
<glyph unicode="`" glyph-name="grave" horiz-adv-x="335" d="M189 558L50 684H181L285 558H189Z" />
<glyph unicode="a" glyph-name="a" horiz-adv-x="492" d="M171 -9Q95 -9 60 28T24 146Q24 228 66 262T213 296Q242 296 272 293T324 285V327Q324 366 300 384T224 402Q177 402 141 399T71 389V486Q109 495 153 499T259 504Q350 504 395 463T440 338V0H333L328
44H326Q294 20 253 6T171 -9ZM227 213Q173 213 153 201T133 153Q133 119 149 105T206 90Q235 90 267 98T324 120V205Q300 209 277 211T227 213Z" />
<glyph unicode="b" glyph-name="b" horiz-adv-x="541" d="M323 504Q423 504 465 446T507 251Q507 113 453 52T273 -9Q209 -9 154 -2T54 18V665H170V465Q205 484 245 494T323 504ZM391 251Q391 338 370 369T281 400Q252 400 223 394T170 376V108Q188 103 211 101T265
99Q342 99 366 130T391 251Z" />
<glyph unicode="c" glyph-name="c" horiz-adv-x="434" d="M411 125V28Q385 13 334 2T227 -9Q121 -9 78 48T35 248Q35 389 90 446T282 504Q315 504 341 503T398 497V394Q359 397 330 398T282 400Q200 400 176 371T151 248Q151 157 170 128T252 99Q293 99 336 106T411 125Z" />
<glyph unicode="d" glyph-name="d" horiz-adv-x="541" d="M371 665H487V0H385L378 46H373Q345 18 307 5T218 -9Q119 -9 77 51T34 248Q34 383 86 443T260 504Q292 504 320 500T371 487V665ZM276 400Q199 400 175 369T150 248Q150 161 171 130T260 99Q292 99 320
105T371 125V383Q350 392 327 396T276 400Z" />
<glyph unicode="e" glyph-name="e" horiz-adv-x="499" d="M445 121V27Q420 12 367 2T255 -9Q137 -9 86 51T34 249Q34 382 88 443T259 504Q372 504 419 457T466 296Q466 275 465 258T461 209H151Q152 147 178 122T273 97Q318 97 366 104T445 121ZM259 403Q198 403
175 379T151 292H360V313Q359 364 337 383T259 403Z" />
<glyph unicode="f" glyph-name="f" horiz-adv-x="357" d="M88 397H22V494H88V499Q88 587 133 631T269 675Q291 675 315 673T360 666V574Q345 576 326 577T290 579Q239 579 222 565T204 508V494H345V397H204V0H88V397Z" />
<glyph unicode="g" glyph-name="g" horiz-adv-x="540" d="M267 -162Q215 -162 169 -156T94 -138V-38Q117 -46 163 -51T256 -57Q320 -57 344 -34T370 48V76Q333 56 293 45T214 34Q117 34 76 88T35 269Q35 396 90 450T278 504Q329 504 390 498T486 485V83Q486 -53
437 -107T267 -162ZM278 400Q197 400 174 376T151 269Q151 193 170 168T253 142Q280 142 310 148T370 166V391Q349 395 326 397T278 400Z" />
<glyph unicode="h" glyph-name="h" horiz-adv-x="553" d="M171 0H55V665H171V457Q213 480 255 492T336 504Q419 504 460 464T502 342V0H386V327Q386 365 366 382T300 400Q269 400 235 393T171 374V0Z" />
<glyph unicode="i" glyph-name="i" horiz-adv-x="225" d="M174 564H51V665H174V564ZM171 0H55V494H171V0Z" />
<glyph unicode="j" glyph-name="j" horiz-adv-x="233" d="M182 564H59V665H182V564ZM15 -162Q4 -162 -15 -161T-59 -156V-58Q-50 -60 -41 -60T-23 -61Q26 -61 44 -44T63 19V494H179V5Q179 -77 137 -119T15 -162Z" />
<glyph unicode="k" glyph-name="k" horiz-adv-x="506" d="M171 203V0H55V665H171V297H213L361 494H499L310 255L509 0H366L214 203H171Z" />
<glyph unicode="l" glyph-name="l" horiz-adv-x="225" d="M171 665V0H55V665H171Z" />
<glyph unicode="m" glyph-name="m" horiz-adv-x="796" d="M171 0H55V494H162L167 457H170Q209 481 244 492T314 504Q355 504 384 492T432 453H435Q472 477 515 490T601 504Q673 504 709 465T745 349V0H629V334Q629 368 611 384T552 400Q528 400 503 394T457 378Q458
373 458 367T458 349V0H342V334Q342 368 324 384T265 400Q244 400 221 395T171 377V0Z" />
<glyph unicode="n" glyph-name="n" horiz-adv-x="554" d="M171 0H55V494H155L160 444H163Q198 475 238 489T334 504Q416 504 459 463T502 342V0H386V327Q386 363 363 381T293 400Q260 400 229 392T171 366V0Z" />
<glyph unicode="o" glyph-name="o" horiz-adv-x="541" d="M507 248Q507 108 454 50T271 -9Q140 -9 87 48T34 248Q34 387 88 445T271 504Q401 504 454 447T507 248ZM150 249Q150 157 173 128T271 99Q344 99 367 128T391 249Q391 342 369 371T271 400Q197 400 174
370T150 249Z" />
<glyph unicode="p" glyph-name="p" horiz-adv-x="541" d="M171 -152H55V494H156L163 449H168Q196 476 235 490T323 504Q423 504 465 445T508 248Q508 112 455 52T281 -9Q247 -9 219 -5T171 8V-152ZM392 248Q392 335 370 367T282 400Q251 400 223 393T171 373V115Q189
107 212 103T266 99Q343 99 367 129T392 248Z" />
<glyph unicode="q" glyph-name="q" horiz-adv-x="541" d="M487 485V-152H371V32Q335 12 294 2T213 -9Q116 -9 75 50T34 248Q34 387 89 445T278 504Q332 504 393 498T487 485ZM278 400Q196 400 173 372T150 248Q150 159 169 129T253 99Q281 99 312 105T371 122V391Q350
395 326 397T278 400Z" />
<glyph unicode="r" glyph-name="r" horiz-adv-x="354" d="M171 0H55V494H162L167 454H170Q207 476 245 488T319 500Q329 500 332 500T338 499V387Q332 389 323 389T290 390Q255 390 225 384T171 367V0Z" />
<glyph unicode="s" glyph-name="s" horiz-adv-x="440" d="M240 404Q187 404 168 394T148 348Q148 331 156 323T183 311L306 293Q365 285 388 256T412 164Q412 73 370 32T227 -9Q169 -9 121 -4T40 11V114Q71 106 116 101T207 95Q259 95 277 108T296 157Q296 175
287 184T257 197L132 215Q81 222 57 253T33 345Q33 426 82 465T233 504Q274 504 308 502T378 494V395Q352 399 316 401T240 404Z" />
<glyph unicode="t" glyph-name="t" horiz-adv-x="376" d="M364 108V9Q347 2 317 -3T261 -9Q166 -9 125 32T84 171V397H18V494H87L103 612H200V494H358V397H200V175Q200 131 219 115T287 99Q304 99 327 101T364 108Z" />
<glyph unicode="u" glyph-name="u" horiz-adv-x="535" d="M217 -9Q134 -9 93 32T52 157V494H168V172Q168 134 188 117T253 100Q281 100 310 106T364 122V494H480V0H373L369 34H366Q325 13 288 2T217 -9Z" />
<glyph unicode="v" glyph-name="v" horiz-adv-x="504" d="M372 494H499L319 0H186L5 494H133L253 106L372 494Z" />
<glyph unicode="w" glyph-name="w" horiz-adv-x="727" d="M590 494H717L582 0H446L358 334L279 0H145L10 494H137L214 107L306 494H417L513 107L590 494Z" />
<glyph unicode="x" glyph-name="x" horiz-adv-x="460" d="M298 257L456 0H328L226 177L125 0H4L163 257L9 494H145L235 333L330 494H451L298 257Z" />
<glyph unicode="y" glyph-name="y" horiz-adv-x="503" d="M111 -61Q148 -61 166 -48T197 9L3 494H133L256 123L373 494H498L309 -22Q281 -98 241 -130T134 -162Q114 -162 93 -160T56 -155V-58Q64 -60 75 -60T111 -61Z" />
<glyph unicode="z" glyph-name="z" horiz-adv-x="426" d="M403 101V0H26V101L256 397H44V494H386V397L158 101H403Z" />
<glyph unicode="{" glyph-name="braceleft" horiz-adv-x="294" d="M105 318L106 314Q144 307 168 265T192 157V53Q192 14 210 0T274 -15V-92Q191 -92 149 -57T107 50V157Q107 214 82 247T22 281H7V350H22Q57 350 82 383T107 473V576Q107 647 149 682T274 718V641Q228
641 210 627T192 574V473Q192 408 168 367T105 318Z" />
<glyph unicode="|" glyph-name="bar" horiz-adv-x="202" d="M144 707V-80H59V707H144Z" />
<glyph unicode="}" glyph-name="braceright" horiz-adv-x="294" d="M188 314L189 318Q150 326 126 367T102 473V574Q102 613 84 627T20 641V718Q103 718 145 683T187 576V473Q187 416 212 383T272 350H287V281H272Q237 281 212 248T187 157V50Q187 -21 145 -56T20
-92V-15Q66 -15 84 -1T102 53V157Q102 223 126 265T188 314Z" />
<glyph unicode="~" glyph-name="asciitilde" horiz-adv-x="626" d="M482 451H595Q595 337 556 273T444 209Q412 209 379 224T290 288Q252 320 236 329T205 339Q175 339 160 308T145 217H32Q32 330 72 394T186 459Q218 459 251 444T341 381Q378 349 395 340T425
331Q453 331 467 363T482 451Z" />
<glyph unicode="&#xa0;" glyph-name="uni00A0" horiz-adv-x="160" />
<glyph unicode="&#xa1;" glyph-name="exclamdown" horiz-adv-x="227" d="M53 494H173V386H53V494ZM164 307L179 -133H47L62 307H164Z" />
<glyph unicode="&#xa2;" glyph-name="cent" horiz-adv-x="437" d="M293 67V-21H212V63Q114 67 74 124T34 320Q34 443 75 501T212 572V659H293V576Q326 575 350 574T397 569V466Q358 469 329 470T281 472Q199 472 175 443T150 320Q150 229 169 200T251 171Q292
171 335 178T410 197V100Q393 90 362 81T293 67Z" />
<glyph unicode="&#xa3;" glyph-name="sterling" horiz-adv-x="486" d="M33 263V345H106V453Q106 544 155 590T300 637Q333 637 362 634T443 620V516Q403 524 374 527T319 531Q271 531 249 508T226 436V345H409V263H226V243Q226 195 207 164T150 116V113H459V0H33V114Q67
133 86 167T106 243V263H33Z" />
<glyph unicode="&#xa4;" glyph-name="currency" horiz-adv-x="621" d="M92 39L33 98L97 162Q74 195 62 234T50 316Q50 360 62 399T98 471L34 534L93 593L157 529Q190 552 228 563T309 575Q352 575 391 564T463 529L527 593L586 534L523 471Q547 438 559 398T572
315Q572 273 560 235T524 162L588 98L529 39L464 104Q432 81 393 69T311 56Q268 56 229 68T156 103L92 39ZM311 474Q243 474 200 431T156 318Q157 248 200 205T311 162Q380 161 422 204T465 318Q465 386 423 429T311 474Z" />
<glyph unicode="&#xa5;" glyph-name="yen" horiz-adv-x="554" d="M66 104V176H219V226H66V297H187L15 627H152L280 342L413 627H537L370 297H493V226H339V176H493V104H339V0H219V104H66Z" />
<glyph unicode="&#xa6;" glyph-name="brokenbar" horiz-adv-x="202" d="M144 707V380H59V707H144ZM144 247V-80H59V247H144Z" />
<glyph unicode="&#xa7;" glyph-name="section" horiz-adv-x="463" d="M257 550Q212 550 192 541T172 511Q172 497 182 488T225 466L359 413Q399 397 419 372T439 310Q439 276 424 245T379 190Q393 176 399 159T405 117Q405 56 361 23T234 -10Q185 -10 147 -6T75
9V97Q109 86 141 81T206 77Q250 77 270 86T291 116Q291 130 281 139T238 162L108 212Q66 228 45 254T24 317Q24 352 39 384T84 438Q71 452 65 470T59 511Q59 571 103 604T229 637Q276 637 313 633T388 619V531Q353 541 321 546T257 550ZM129 339Q129 317 138 306T174
284L308 231Q321 244 328 259T335 289Q335 311 326 322T289 344L156 397Q143 384 136 369T129 339Z" />
<glyph unicode="&#xa8;" glyph-name="dieresis" horiz-adv-x="385" d="M335 653V558H232V653H335ZM154 653V558H50V653H154Z" />
<glyph unicode="&#xa9;" glyph-name="copyright" horiz-adv-x="688" d="M655 314Q655 158 575 74T345 -10Q192 -10 113 72T34 314Q34 471 114 554T345 637Q499 637 577 556T655 314ZM579 314Q579 441 522 503T346 566Q227 566 169 504T110 314Q110 189 168 128T346
67Q465 67 522 127T579 314ZM367 219Q389 219 413 223T461 237V159Q440 149 412 143T352 137Q260 137 220 179T179 316Q179 407 223 450T361 494Q384 494 404 492T452 484V408Q426 412 408 413T365 415Q317 415 298 392T278 316Q278 264 298 242T367 219Z" />
<glyph unicode="&#xaa;" glyph-name="ordfeminine" horiz-adv-x="339" d="M290 355H219L217 379H215Q193 364 172 357T129 349Q84 349 63 370T41 437Q41 482 66 501T153 521Q169 521 186 520T214 516V533Q214 553 201 561T158 570Q129 570 107 569T69 563V627Q94
632 119 634T181 637Q235 637 262 614T290 545V355ZM162 470Q134 470 124 464T113 441Q113 426 122 419T152 412Q168 412 185 416T214 427V466Q202 468 189 469T162 470ZM294 243H42V310H294V243Z" />
<glyph unicode="&#xab;" glyph-name="guillemotleft" horiz-adv-x="509" d="M275 64H166L17 281L166 494H275L127 282L275 64ZM488 64H379L230 281L379 494H488L341 282L488 64Z" />
<glyph unicode="&#xac;" glyph-name="logicalnot" horiz-adv-x="500" d="M463 392V121H351V284H37V392H463Z" />
<glyph unicode="&#xad;" glyph-name="uni00AD" horiz-adv-x="406" d="M363 363V274H44V363H363Z" />
<glyph unicode="&#xae;" glyph-name="registered" horiz-adv-x="419" d="M390 454Q390 364 344 317T210 270Q119 270 74 316T29 454Q29 544 75 590T211 637Q300 637 345 591T390 454ZM337 454Q337 524 307 557T211 590Q146 590 115 557T83 454Q83 386 114 354T211
321Q276 321 306 353T337 454ZM184 421V355H136V557H209Q256 557 275 541T294 489Q294 465 284 449T252 426L298 355H238L201 421H184ZM244 489Q244 501 237 507T209 513H184V460H209Q229 460 236 467T244 489Z" />
<glyph unicode="&#xaf;" glyph-name="overscore" horiz-adv-x="349" d="M299 644V563H50V644H299Z" />
<glyph unicode="&#xb0;" glyph-name="degree" horiz-adv-x="323" d="M297 500Q297 439 261 403T162 366Q100 366 63 402T26 500Q26 560 63 597T162 634Q223 634 260 598T297 500ZM101 501Q101 472 117 455T162 438Q190 438 206 455T223 501Q223 529 207 545T162
562Q134 562 118 546T101 501Z" />
<glyph unicode="&#xb1;" glyph-name="plusminus" horiz-adv-x="500" d="M463 466V357H307V219H194V357H37V466H194V601H307V466H463ZM463 155V46H37V155H463Z" />
<glyph unicode="&#xb2;" glyph-name="uni00B2" horiz-adv-x="295" d="M267 352V270H22V352L154 480Q167 493 173 504T179 527Q179 540 170 547T144 554Q129 554 107 552T49 545Q44 544 42 544T40 544V620Q65 626 96 629T159 633Q210 633 238 608T266 539Q266 510
257 489T224 445L126 352H267Z" />
<glyph unicode="&#xb3;" glyph-name="uni00B3" horiz-adv-x="288" d="M248 541Q248 508 233 487T189 459V458Q226 455 244 434T263 373Q263 321 230 293T133 265Q96 265 68 268T24 277V349Q47 345 68 344T117 342Q154 342 168 350T183 381Q183 400 170 409T130
418H66V488H115Q141 488 155 497T169 525Q169 543 158 551T120 559Q108 559 89 557T40 551Q36 550 35 550T33 550V618Q51 625 82 629T146 633Q196 633 222 610T248 541Z" />
<glyph unicode="&#xb4;" glyph-name="acute" horiz-adv-x="335" d="M154 684H285L146 558H50L154 684Z" />
<glyph unicode="&#xb5;" glyph-name="mu" horiz-adv-x="546" d="M230 -9Q205 -9 191 -4T171 12Q171 -47 177 -84T199 -152H81Q67 -117 61 -74T55 60V494H171V172Q171 133 190 117T253 100Q283 100 314 106T373 125V494H489V0H382L378 38Q341 15 304 3T230 -9Z" />
<glyph unicode="&#xb6;" glyph-name="paragraph" horiz-adv-x="483" d="M426 627V17Q426 -66 383 -114T265 -162Q248 -162 235 -162T189 -157V-58Q190 -58 204 -59T229 -61Q274 -61 292 -44T310 17V138Q286 134 262 132T215 129Q108 129 65 185T22 383Q22 524
77 581T269 639Q311 639 350 636T426 627ZM264 532Q186 532 162 503T138 383Q138 293 157 264T239 235Q254 235 272 236T310 241V530Q299 531 288 531T264 532Z" />
<glyph unicode="&#xb7;" glyph-name="middot" horiz-adv-x="204" d="M159 263H46V374H159V263Z" />
<glyph unicode="&#xb8;" glyph-name="cedilla" horiz-adv-x="328" d="M279 -112Q279 -155 252 -175T165 -195Q134 -195 103 -192T60 -184V-124Q70 -127 97 -131T145 -135Q168 -135 177 -130T186 -108Q186 -96 175 -91T137 -85Q119 -85 110 -85T88 -86L108 17L188
10L178 -44Q226 -43 252 -60T279 -112Z" />
<glyph unicode="&#xb9;" glyph-name="uni00B9" horiz-adv-x="244" d="M200 270H113V550L13 538V611L200 633V270Z" />
<glyph unicode="&#xba;" glyph-name="ordmasculine" horiz-adv-x="363" d="M323 493Q323 419 289 384T183 349Q109 349 75 383T41 493Q41 567 75 602T183 637Q255 637 289 603T323 493ZM118 494Q118 452 132 436T183 420Q218 420 232 436T247 494Q247 535 233
551T183 568Q147 568 133 552T118 494ZM316 243H46V310H316V243Z" />
<glyph unicode="&#xbb;" glyph-name="guillemotright" horiz-adv-x="509" d="M492 281L343 64H234L382 282L234 494H343L492 281ZM279 281L130 64H21L168 282L21 494H130L279 281Z" />
<glyph unicode="&#xbc;" glyph-name="onequarter" horiz-adv-x="732" d="M204 270H117V550L17 538V611L204 633V270ZM524 627L224 0H142L442 627H524ZM713 157V81H670V0H584V81H422V158L466 357H548L509 157H587V295H670V157H713Z" />
<glyph unicode="&#xbd;" glyph-name="onehalf" horiz-adv-x="723" d="M204 270H117V550L17 538V611L204 633V270ZM524 627L224 0H142L442 627H524ZM694 82V0H449V82L581 210Q594 223 600 234T606 257Q606 270 597 277T571 284Q556 284 534 282T476 275Q471 274
469 274T467 274V350Q492 356 523 359T586 363Q637 363 665 338T693 269Q693 240 684 219T651 175L553 82H694Z" />
<glyph unicode="&#xbe;" glyph-name="threequarters" horiz-adv-x="759" d="M250 541Q250 508 235 487T191 459V458Q228 455 246 434T265 373Q265 321 232 293T135 265Q98 265 70 268T26 277V349Q49 345 70 344T119 342Q156 342 170 350T185 381Q185 400 172 409T132
418H68V488H117Q143 488 157 497T171 525Q171 543 160 551T122 559Q110 559 91 557T42 551Q38 550 37 550T35 550V618Q53 625 84 629T148 633Q198 633 224 610T250 541ZM553 627L253 0H171L471 627H553ZM742 157V81H699V0H613V81H451V158L495 357H577L538 157H616V295H699V157H742Z"
/>
<glyph unicode="&#xbf;" glyph-name="questiondown" horiz-adv-x="373" d="M153 386V494H274V386H153ZM189 -143Q109 -143 64 -108T18 -7Q18 51 51 99T160 196V306H266V156Q192 116 162 84T131 20Q131 -9 150 -23T207 -38Q241 -38 283 -31T354 -12V-115Q316 -129
276 -136T189 -143Z" />
<glyph unicode="&#xc0;" glyph-name="Agrave" horiz-adv-x="607" d="M129 0H3L243 627H367L603 0H477L432 128H173L129 0ZM302 512Q291 474 278 432T252 354L208 227H397L353 354Q342 386 328 428T302 512ZM290 673L153 789H284L386 673H290Z" />
<glyph unicode="&#xc1;" glyph-name="Aacute" horiz-adv-x="607" d="M129 0H3L243 627H367L603 0H477L432 128H173L129 0ZM302 512Q291 474 278 432T252 354L208 227H397L353 354Q342 386 328 428T302 512ZM324 789H455L318 673H222L324 789Z" />
<glyph unicode="&#xc2;" glyph-name="Acircumflex" horiz-adv-x="607" d="M129 0H3L243 627H367L603 0H477L432 128H173L129 0ZM302 512Q291 474 278 432T252 354L208 227H397L353 354Q342 386 328 428T302 512ZM473 673H381L304 728L228 673H135L250 789H358L473 673Z" />
<glyph unicode="&#xc3;" glyph-name="Atilde" horiz-adv-x="607" d="M129 0H3L243 627H367L603 0H477L432 128H173L129 0ZM302 512Q291 474 278 432T252 354L208 227H397L353 354Q342 386 328 428T302 512ZM383 779H453Q453 727 432 698T372 669Q355 669 338 675T292
698Q274 709 266 712T252 715Q238 715 231 704T224 673H154Q154 724 175 753T236 783Q253 783 270 777T317 753Q335 742 342 739T356 736Q369 736 376 747T383 779Z" />
<glyph unicode="&#xc4;" glyph-name="Adieresis" horiz-adv-x="607" d="M129 0H3L243 627H367L603 0H477L432 128H173L129 0ZM302 512Q291 474 278 432T252 354L208 227H397L353 354Q342 386 328 428T302 512ZM446 760V673H343V760H446ZM265 760V673H161V760H265Z" />
<glyph unicode="&#xc5;" glyph-name="Aring" horiz-adv-x="607" d="M129 0H3L243 627H367L603 0H477L432 128H173L129 0ZM302 512Q291 474 278 432T252 354L208 227H397L353 354Q342 386 328 428T302 512ZM420 754Q420 714 389 690T304 666Q251 666 220 690T189
754Q189 793 220 816T304 840Q357 840 388 817T420 754ZM252 754Q252 738 266 729T304 720Q329 720 343 729T358 754Q358 770 344 779T304 788Q280 788 266 779T252 754Z" />
<glyph unicode="&#xc6;" glyph-name="AE" horiz-adv-x="740" d="M129 0H3L233 627H701V519H397L448 371H664V268H483L536 113H710V0H457L413 128H173L129 0ZM292 502Q282 465 272 425T251 354L207 227H379L335 354Q327 380 316 419T292 502Z" />
<glyph unicode="&#xc7;" glyph-name="Ccedilla" horiz-adv-x="513" d="M425 -112Q425 -155 398 -175T311 -195Q280 -195 249 -192T206 -184V-124Q216 -127 243 -131T291 -135Q314 -135 323 -130T332 -108Q332 -96 321 -91T283 -85Q265 -85 256 -85T234 -86L249
-7Q133 4 85 79T36 315Q36 482 106 559T331 637Q377 637 413 635T478 628V523Q440 526 405 527T331 529Q230 529 195 482T159 315Q159 195 191 150T321 104Q362 104 408 113T492 137V30Q445 11 408 3T331 -8L324 -44Q372 -43 398 -60T425 -112Z" />
<glyph unicode="&#xc8;" glyph-name="Egrave" horiz-adv-x="514" d="M484 113V0H60V627H475V519H180V371H438V268H180V113H484ZM264 673L127 789H258L360 673H264Z" />
<glyph unicode="&#xc9;" glyph-name="Eacute" horiz-adv-x="514" d="M484 113V0H60V627H475V519H180V371H438V268H180V113H484ZM298 789H429L292 673H196L298 789Z" />
<glyph unicode="&#xca;" glyph-name="Ecircumflex" horiz-adv-x="514" d="M484 113V0H60V627H475V519H180V371H438V268H180V113H484ZM447 673H355L278 728L202 673H109L224 789H332L447 673Z" />
<glyph unicode="&#xcb;" glyph-name="Edieresis" horiz-adv-x="514" d="M484 113V0H60V627H475V519H180V371H438V268H180V113H484ZM420 760V673H317V760H420ZM239 760V673H135V760H239Z" />
<glyph unicode="&#xcc;" glyph-name="Igrave" horiz-adv-x="240" d="M180 627V0H60V627H180ZM363 673L226 789H357L459 673H363Z" />
<glyph unicode="&#xcd;" glyph-name="Iacute" horiz-adv-x="240" d="M180 627V0H60V627H180ZM396 789H527L390 673H294L396 789Z" />
<glyph unicode="&#xce;" glyph-name="Icircumflex" horiz-adv-x="240" d="M180 627V0H60V627H180ZM546 673H454L377 728L301 673H208L323 789H431L546 673Z" />
<glyph unicode="&#xcf;" glyph-name="Idieresis" horiz-adv-x="240" d="M180 627V0H60V627H180ZM519 760V673H416V760H519ZM338 760V673H234V760H338Z" />
<glyph unicode="&#xd0;" glyph-name="Eth" horiz-adv-x="634" d="M20 280V362H90V627H291Q387 627 443 611T534 560Q568 525 583 466T599 314Q599 151 526 76T291 0H90V280H20ZM352 362V280H210V113H291Q399 113 437 157T475 314Q475 374 467 412T442 473Q423
498 389 508T291 519H210V362H352Z" />
<glyph unicode="&#xd1;" glyph-name="Ntilde" horiz-adv-x="647" d="M587 627V0H470L173 425V0H60V627H177L475 192V627H587ZM409 779H479Q479 727 458 698T398 669Q381 669 364 675T318 698Q300 709 292 712T278 715Q264 715 257 704T250 673H180Q180 724 201
753T262 783Q279 783 296 777T343 753Q361 742 368 739T382 736Q395 736 402 747T409 779Z" />
<glyph unicode="&#xd2;" glyph-name="Ograve" horiz-adv-x="647" d="M611 315Q611 144 544 68T324 -9Q162 -9 99 62T36 315Q36 485 104 561T324 637Q485 637 548 566T611 315ZM182 157Q198 128 229 116T324 104Q423 104 456 148T489 315Q489 374 484 412T465 474Q449
504 418 516T324 529Q224 529 191 484T158 315Q158 256 164 218T182 157ZM310 683L173 799H304L406 683H310Z" />
<glyph unicode="&#xd3;" glyph-name="Oacute" horiz-adv-x="647" d="M611 315Q611 144 544 68T324 -9Q162 -9 99 62T36 315Q36 485 104 561T324 637Q485 637 548 566T611 315ZM182 157Q198 128 229 116T324 104Q423 104 456 148T489 315Q489 374 484 412T465 474Q449
504 418 516T324 529Q224 529 191 484T158 315Q158 256 164 218T182 157ZM344 799H475L338 683H242L344 799Z" />
<glyph unicode="&#xd4;" glyph-name="Ocircumflex" horiz-adv-x="647" d="M611 315Q611 144 544 68T324 -9Q162 -9 99 62T36 315Q36 485 104 561T324 637Q485 637 548 566T611 315ZM182 157Q198 128 229 116T324 104Q423 104 456 148T489 315Q489 374 484 412T465
474Q449 504 418 516T324 529Q224 529 191 484T158 315Q158 256 164 218T182 157ZM493 683H401L324 738L248 683H155L270 799H378L493 683Z" />
<glyph unicode="&#xd5;" glyph-name="Otilde" horiz-adv-x="647" d="M611 315Q611 144 544 68T324 -9Q162 -9 99 62T36 315Q36 485 104 561T324 637Q485 637 548 566T611 315ZM182 157Q198 128 229 116T324 104Q423 104 456 148T489 315Q489 374 484 412T465 474Q449
504 418 516T324 529Q224 529 191 484T158 315Q158 256 164 218T182 157ZM403 789H473Q473 737 452 708T392 679Q375 679 358 685T312 708Q294 719 286 722T272 725Q258 725 251 714T244 683H174Q174 734 195 763T256 793Q273 793 290 787T337 763Q355 752 362
749T376 746Q389 746 396 757T403 789Z" />
<glyph unicode="&#xd6;" glyph-name="Odieresis" horiz-adv-x="647" d="M611 315Q611 144 544 68T324 -9Q162 -9 99 62T36 315Q36 485 104 561T324 637Q485 637 548 566T611 315ZM182 157Q198 128 229 116T324 104Q423 104 456 148T489 315Q489 374 484 412T465
474Q449 504 418 516T324 529Q224 529 191 484T158 315Q158 256 164 218T182 157ZM466 770V683H363V770H466ZM285 770V683H181V770H285Z" />
<glyph unicode="&#xd7;" glyph-name="multiply" horiz-adv-x="500" d="M37 457L116 536L251 401L387 537L464 460L328 324L466 186L386 107L249 245L112 108L35 185L172 322L37 457Z" />
<glyph unicode="&#xd8;" glyph-name="Oslash" horiz-adv-x="647" d="M111 -62L45 -19L100 62Q67 99 52 160T36 315Q36 485 104 561T324 637Q370 637 407 632T474 615L530 699L597 656L541 573Q577 536 594 474T611 315Q611 144 544 68T324 -9Q274 -9 235 -3T164
16L111 -62ZM324 529Q224 529 191 484T158 315Q158 265 162 231T175 174L409 520Q394 525 374 527T324 529ZM324 104Q423 104 456 148T489 315Q489 369 484 405T469 466L231 115Q248 109 270 107T324 104Z" />
<glyph unicode="&#xd9;" glyph-name="Ugrave" horiz-adv-x="629" d="M454 257V627H574V257Q574 122 510 57T314 -9Q179 -9 117 54T55 257V627H175V257Q175 169 205 137T314 104Q394 104 424 137T454 257ZM300 673L163 789H294L396 673H300Z" />
<glyph unicode="&#xda;" glyph-name="Uacute" horiz-adv-x="629" d="M454 257V627H574V257Q574 122 510 57T314 -9Q179 -9 117 54T55 257V627H175V257Q175 169 205 137T314 104Q394 104 424 137T454 257ZM333 789H464L327 673H231L333 789Z" />
<glyph unicode="&#xdb;" glyph-name="Ucircumflex" horiz-adv-x="629" d="M454 257V627H574V257Q574 122 510 57T314 -9Q179 -9 117 54T55 257V627H175V257Q175 169 205 137T314 104Q394 104 424 137T454 257ZM483 673H391L314 728L238 673H145L260 789H368L483 673Z" />
<glyph unicode="&#xdc;" glyph-name="Udieresis" horiz-adv-x="629" d="M454 257V627H574V257Q574 122 510 57T314 -9Q179 -9 117 54T55 257V627H175V257Q175 169 205 137T314 104Q394 104 424 137T454 257ZM456 760V673H353V760H456ZM275 760V673H171V760H275Z" />
<glyph unicode="&#xdd;" glyph-name="Yacute" horiz-adv-x="586" d="M457 627H581L355 233V0H235V233L3 627H139L296 340L457 627ZM317 789H448L311 673H215L317 789Z" />
<glyph unicode="&#xde;" glyph-name="Thorn" horiz-adv-x="570" d="M180 98V0H60V627H180V535H281Q420 535 479 486T539 322Q539 208 477 153T284 98H180ZM417 322Q417 379 387 402T281 426H180V203H281Q356 203 386 230T417 322Z" />
<glyph unicode="&#xdf;" glyph-name="germandbls" horiz-adv-x="582" d="M260 677Q360 677 408 644T456 538Q456 522 453 501T443 457L415 340L464 325Q514 310 533 277T552 176Q552 82 510 36T380 -10Q344 -10 313 -7T260 3V105Q281 100 306 97T360 94Q405 94
423 112T442 176Q442 205 434 218T400 239L293 267L332 461Q338 484 339 493T340 511Q340 542 321 557T260 573Q211 573 191 554T171 487V0H55V488Q55 585 105 631T260 677Z" />
<glyph unicode="&#xe0;" glyph-name="agrave" horiz-adv-x="492" d="M171 -9Q95 -9 60 28T24 146Q24 228 66 262T213 296Q242 296 272 293T324 285V327Q324 366 300 384T224 402Q177 402 141 399T71 389V486Q109 495 153 499T259 504Q350 504 395 463T440 338V0H333L328
44H326Q294 20 253 6T171 -9ZM227 213Q173 213 153 201T133 153Q133 119 149 105T206 90Q235 90 267 98T324 120V205Q300 209 277 211T227 213ZM234 558L95 684H226L330 558H234Z" />
<glyph unicode="&#xe1;" glyph-name="aacute" horiz-adv-x="492" d="M171 -9Q95 -9 60 28T24 146Q24 228 66 262T213 296Q242 296 272 293T324 285V327Q324 366 300 384T224 402Q177 402 141 399T71 389V486Q109 495 153 499T259 504Q350 504 395 463T440 338V0H333L328
44H326Q294 20 253 6T171 -9ZM227 213Q173 213 153 201T133 153Q133 119 149 105T206 90Q235 90 267 98T324 120V205Q300 209 277 211T227 213ZM270 684H401L262 558H166L270 684Z" />
<glyph unicode="&#xe2;" glyph-name="acircumflex" horiz-adv-x="492" d="M171 -9Q95 -9 60 28T24 146Q24 228 66 262T213 296Q242 296 272 293T324 285V327Q324 366 300 384T224 402Q177 402 141 399T71 389V486Q109 495 153 499T259 504Q350 504 395 463T440
338V0H333L328 44H326Q294 20 253 6T171 -9ZM227 213Q173 213 153 201T133 153Q133 119 149 105T206 90Q235 90 267 98T324 120V205Q300 209 277 211T227 213ZM417 558H325L248 623L172 558H79L194 684H302L417 558Z" />
<glyph unicode="&#xe3;" glyph-name="atilde" horiz-adv-x="492" d="M171 -9Q95 -9 60 28T24 146Q24 228 66 262T213 296Q242 296 272 293T324 285V327Q324 366 300 384T224 402Q177 402 141 399T71 389V486Q109 495 153 499T259 504Q350 504 395 463T440 338V0H333L328
44H326Q294 20 253 6T171 -9ZM227 213Q173 213 153 201T133 153Q133 119 149 105T206 90Q235 90 267 98T324 120V205Q300 209 277 211T227 213ZM327 683H397Q397 622 376 588T316 554Q299 554 281 561T235 592Q217 606 209 610T195 614Q182 614 175 600T168 558H98Q98
618 119 652T180 687Q197 687 215 680T262 650Q280 636 288 632T302 628Q314 628 320 641T327 683Z" />
<glyph unicode="&#xe4;" glyph-name="adieresis" horiz-adv-x="492" d="M171 -9Q95 -9 60 28T24 146Q24 228 66 262T213 296Q242 296 272 293T324 285V327Q324 366 300 384T224 402Q177 402 141 399T71 389V486Q109 495 153 499T259 504Q350 504 395 463T440 338V0H333L328
44H326Q294 20 253 6T171 -9ZM227 213Q173 213 153 201T133 153Q133 119 149 105T206 90Q235 90 267 98T324 120V205Q300 209 277 211T227 213ZM390 653V558H287V653H390ZM209 653V558H105V653H209Z" />
<glyph unicode="&#xe5;" glyph-name="aring" horiz-adv-x="492" d="M171 -9Q95 -9 60 28T24 146Q24 228 66 262T213 296Q242 296 272 293T324 285V327Q324 366 300 384T224 402Q177 402 141 399T71 389V486Q109 495 153 499T259 504Q350 504 395 463T440 338V0H333L328
44H326Q294 20 253 6T171 -9ZM227 213Q173 213 153 201T133 153Q133 119 149 105T206 90Q235 90 267 98T324 120V205Q300 209 277 211T227 213ZM364 643Q364 597 333 570T248 543Q195 543 164 570T133 643Q133 687 164 713T248 740Q302 740 333 714T364 643ZM196
643Q196 623 209 613T248 602Q274 602 288 613T302 643Q302 662 288 673T248 684Q224 684 210 673T196 643Z" />
<glyph unicode="&#xe6;" glyph-name="ae" horiz-adv-x="750" d="M171 -9Q95 -9 60 28T24 145Q24 225 67 258T214 291H308V327Q308 366 287 384T218 402Q172 402 137 399T71 389V486Q108 495 151 499T253 504Q296 504 326 491T375 453Q401 478 437 491T520 504Q626
504 671 457T716 296Q716 268 715 250T712 209H421Q422 147 446 122T534 97Q576 97 621 104T695 121V27Q671 12 620 2T515 -9Q456 -9 416 7T351 58Q315 26 268 9T171 -9ZM611 313Q609 364 590 383T520 403Q464 403 443 379T421 291H610Q611 294 611 299T611 313ZM133
151Q133 118 148 104T202 90Q233 90 265 100T321 127Q316 145 313 165T309 209H221Q170 209 152 197T133 151Z" />
<glyph unicode="&#xe7;" glyph-name="ccedilla" horiz-adv-x="434" d="M374 -112Q374 -155 347 -175T260 -195Q229 -195 198 -192T155 -184V-124Q165 -127 192 -131T240 -135Q263 -135 272 -130T281 -108Q281 -96 270 -91T232 -85Q214 -85 205 -85T183 -86L198
-8Q109 -1 72 56T35 248Q35 389 90 446T282 504Q315 504 341 503T398 497V394Q359 397 330 398T282 400Q200 400 176 371T151 248Q151 157 170 128T252 99Q293 99 336 106T411 125V28Q393 17 357 8T280 -6L273 -44Q321 -43 347 -60T374 -112Z" />
<glyph unicode="&#xe8;" glyph-name="egrave" horiz-adv-x="499" d="M445 121V27Q420 12 367 2T255 -9Q137 -9 86 51T34 249Q34 382 88 443T259 504Q372 504 419 457T466 296Q466 275 465 258T461 209H151Q152 147 178 122T273 97Q318 97 366 104T445 121ZM259
403Q198 403 175 379T151 292H360V313Q359 364 337 383T259 403ZM246 558L107 684H238L342 558H246Z" />
<glyph unicode="&#xe9;" glyph-name="eacute" horiz-adv-x="499" d="M445 121V27Q420 12 367 2T255 -9Q137 -9 86 51T34 249Q34 382 88 443T259 504Q372 504 419 457T466 296Q466 275 465 258T461 209H151Q152 147 178 122T273 97Q318 97 366 104T445 121ZM259
403Q198 403 175 379T151 292H360V313Q359 364 337 383T259 403ZM282 684H413L274 558H178L282 684Z" />
<glyph unicode="&#xea;" glyph-name="ecircumflex" horiz-adv-x="499" d="M445 121V27Q420 12 367 2T255 -9Q137 -9 86 51T34 249Q34 382 88 443T259 504Q372 504 419 457T466 296Q466 275 465 258T461 209H151Q152 147 178 122T273 97Q318 97 366 104T445 121ZM259
403Q198 403 175 379T151 292H360V313Q359 364 337 383T259 403ZM429 558H337L260 623L184 558H91L206 684H314L429 558Z" />
<glyph unicode="&#xeb;" glyph-name="edieresis" horiz-adv-x="499" d="M445 121V27Q420 12 367 2T255 -9Q137 -9 86 51T34 249Q34 382 88 443T259 504Q372 504 419 457T466 296Q466 275 465 258T461 209H151Q152 147 178 122T273 97Q318 97 366 104T445 121ZM259
403Q198 403 175 379T151 292H360V313Q359 364 337 383T259 403ZM402 653V558H299V653H402ZM221 653V558H117V653H221Z" />
<glyph unicode="&#xec;" glyph-name="igrave" horiz-adv-x="225" d="M171 0H55V494H171V0ZM355 804L216 930H347L451 804H355Z" />
<glyph unicode="&#xed;" glyph-name="iacute" horiz-adv-x="225" d="M171 0H55V494H171V0ZM390 930H521L382 804H286L390 930Z" />
<glyph unicode="&#xee;" glyph-name="icircumflex" horiz-adv-x="225" d="M171 0H55V494H171V0ZM538 804H446L369 869L293 804H200L315 930H423L538 804Z" />
<glyph unicode="&#xef;" glyph-name="idieresis" horiz-adv-x="225" d="M171 0H55V494H171V0ZM511 899V804H408V899H511ZM330 899V804H226V899H330Z" />
<glyph unicode="&#xf0;" glyph-name="eth" horiz-adv-x="545" d="M507 237Q507 103 454 47T271 -9Q140 -9 87 46T34 237Q34 370 88 426T271 482Q296 482 317 480T359 473Q351 492 342 511T323 547L154 509V575L284 605Q272 620 260 635T233 665H359Q365 659 371
652T390 629L501 654V587L430 571Q470 505 488 424T507 237ZM150 238Q150 152 173 126T271 99Q344 99 367 126T391 238Q391 264 390 280T386 310L384 311V317Q376 351 352 364T271 378Q197 378 174 351T150 238Z" />
<glyph unicode="&#xf1;" glyph-name="ntilde" horiz-adv-x="554" d="M171 0H55V494H155L160 444H163Q198 475 238 489T334 504Q416 504 459 463T502 342V0H386V327Q386 363 363 381T293 400Q260 400 229 392T171 366V0ZM358 683H428Q428 622 407 588T347 554Q330
554 312 561T266 592Q248 606 240 610T226 614Q213 614 206 600T199 558H129Q129 618 150 652T211 687Q228 687 246 680T293 650Q311 636 319 632T333 628Q345 628 351 641T358 683Z" />
<glyph unicode="&#xf2;" glyph-name="ograve" horiz-adv-x="541" d="M507 248Q507 108 454 50T271 -9Q140 -9 87 48T34 248Q34 387 88 445T271 504Q401 504 454 447T507 248ZM150 249Q150 157 173 128T271 99Q344 99 367 128T391 249Q391 342 369 371T271 400Q197
400 174 370T150 249ZM257 558L118 684H249L353 558H257Z" />
<glyph unicode="&#xf3;" glyph-name="oacute" horiz-adv-x="541" d="M507 248Q507 108 454 50T271 -9Q140 -9 87 48T34 248Q34 387 88 445T271 504Q401 504 454 447T507 248ZM150 249Q150 157 173 128T271 99Q344 99 367 128T391 249Q391 342 369 371T271 400Q197
400 174 370T150 249ZM293 684H424L285 558H189L293 684Z" />
<glyph unicode="&#xf4;" glyph-name="ocircumflex" horiz-adv-x="541" d="M507 248Q507 108 454 50T271 -9Q140 -9 87 48T34 248Q34 387 88 445T271 504Q401 504 454 447T507 248ZM150 249Q150 157 173 128T271 99Q344 99 367 128T391 249Q391 342 369 371T271
400Q197 400 174 370T150 249ZM440 558H348L271 623L195 558H102L217 684H325L440 558Z" />
<glyph unicode="&#xf5;" glyph-name="otilde" horiz-adv-x="541" d="M507 248Q507 108 454 50T271 -9Q140 -9 87 48T34 248Q34 387 88 445T271 504Q401 504 454 447T507 248ZM150 249Q150 157 173 128T271 99Q344 99 367 128T391 249Q391 342 369 371T271 400Q197
400 174 370T150 249ZM350 683H420Q420 622 399 588T339 554Q322 554 304 561T258 592Q240 606 232 610T218 614Q205 614 198 600T191 558H121Q121 618 142 652T203 687Q220 687 238 680T285 650Q303 636 311 632T325 628Q337 628 343 641T350 683Z" />
<glyph unicode="&#xf6;" glyph-name="odieresis" horiz-adv-x="541" d="M507 248Q507 108 454 50T271 -9Q140 -9 87 48T34 248Q34 387 88 445T271 504Q401 504 454 447T507 248ZM150 249Q150 157 173 128T271 99Q344 99 367 128T391 249Q391 342 369 371T271 400Q197
400 174 370T150 249ZM413 653V558H310V653H413ZM232 653V558H128V653H232Z" />
<glyph unicode="&#xf7;" glyph-name="divide" horiz-adv-x="500" d="M463 377V268H37V377H463ZM310 77H197V188H310V77ZM310 455H197V566H310V455Z" />
<glyph unicode="&#xf8;" glyph-name="oslash" horiz-adv-x="541" d="M99 -74L35 -29L87 49Q60 78 47 126T34 248Q34 387 88 445T271 504Q309 504 338 500T390 487L444 565L508 521L456 445Q482 415 494 368T507 248Q507 108 454 50T271 -9Q236 -9 207 -5T155 6L99
-74ZM271 400Q197 400 174 370T150 249Q150 213 152 190T161 150L329 395Q319 398 306 399T271 400ZM271 99Q344 99 367 128T391 249Q391 284 389 306T382 344L217 103Q227 101 240 100T271 99Z" />
<glyph unicode="&#xf9;" glyph-name="ugrave" horiz-adv-x="535" d="M217 -9Q134 -9 93 32T52 157V494H168V172Q168 134 188 117T253 100Q281 100 310 106T364 122V494H480V0H373L369 34H366Q325 13 288 2T217 -9ZM257 804L118 930H249L353 804H257Z" />
<glyph unicode="&#xfa;" glyph-name="uacute" horiz-adv-x="535" d="M217 -9Q134 -9 93 32T52 157V494H168V172Q168 134 188 117T253 100Q281 100 310 106T364 122V494H480V0H373L369 34H366Q325 13 288 2T217 -9ZM292 674H423L284 548H188L292 674Z" />
<glyph unicode="&#xfb;" glyph-name="ucircumflex" horiz-adv-x="535" d="M217 -9Q134 -9 93 32T52 157V494H168V172Q168 134 188 117T253 100Q281 100 310 106T364 122V494H480V0H373L369 34H366Q325 13 288 2T217 -9ZM440 804H348L271 869L195 804H102L217 930H325L440
804Z" />
<glyph unicode="&#xfc;" glyph-name="udieresis" horiz-adv-x="535" d="M217 -9Q134 -9 93 32T52 157V494H168V172Q168 134 188 117T253 100Q281 100 310 106T364 122V494H480V0H373L369 34H366Q325 13 288 2T217 -9ZM413 899V804H310V899H413ZM232 899V804H128V899H232Z" />
<glyph unicode="&#xfd;" glyph-name="yacute" horiz-adv-x="503" d="M111 -61Q148 -61 166 -48T197 9L3 494H133L256 123L373 494H498L309 -22Q281 -98 241 -130T134 -162Q114 -162 93 -160T56 -155V-58Q64 -60 75 -60T111 -61ZM279 930H410L271 804H175L279 930Z" />
<glyph unicode="&#xfe;" glyph-name="thorn" horiz-adv-x="541" d="M171 -152H55V665H171V460Q200 481 239 492T323 504Q423 504 465 445T508 248Q508 112 455 52T281 -9Q247 -9 219 -5T171 8V-152ZM392 248Q392 335 370 367T282 400Q250 400 222 394T171 374V115Q189
107 212 103T266 99Q343 99 367 129T392 248Z" />
<glyph unicode="&#xff;" glyph-name="ydieresis" horiz-adv-x="503" d="M111 -61Q148 -61 166 -48T197 9L3 494H133L256 123L373 494H498L309 -22Q281 -98 241 -130T134 -162Q114 -162 93 -160T56 -155V-58Q64 -60 75 -60T111 -61ZM400 899V804H297V899H400ZM219
899V804H115V899H219Z" />
<glyph unicode="&#x2013;" glyph-name="endash" horiz-adv-x="496" d="M453 363V274H44V363H453Z" />
<glyph unicode="&#x2014;" glyph-name="emdash" horiz-adv-x="776" d="M733 363V274H44V363H733Z" />
<glyph unicode="&#x2018;" glyph-name="quoteleft" horiz-adv-x="175" d="M27 420L55 586Q58 605 71 616T104 627H136L133 420H27Z" />
<glyph unicode="&#x2019;" glyph-name="quoteright" horiz-adv-x="170" d="M148 627L120 461Q117 442 104 431T71 420H39L42 627H148Z" />
<glyph unicode="&#x201a;" glyph-name="quotesinglbase" horiz-adv-x="171" d="M141 84L113 -82Q110 -101 97 -112T64 -123H32L35 84H141Z" />
<glyph unicode="&#x201c;" glyph-name="quotedblleft" horiz-adv-x="344" d="M27 420L55 586Q58 605 71 616T104 627H136L133 420H27ZM197 420L225 586Q228 605 241 616T274 627H306L303 420H197Z" />
<glyph unicode="&#x201d;" glyph-name="quotedblright" horiz-adv-x="340" d="M318 627L290 461Q287 442 274 431T241 420H209L212 627H318ZM148 627L120 461Q117 442 104 431T71 420H39L42 627H148Z" />
<glyph unicode="&#x201e;" glyph-name="quotedblbase" horiz-adv-x="341" d="M311 84L283 -82Q280 -101 267 -112T234 -123H202L205 84H311ZM141 84L113 -82Q110 -101 97 -112T64 -123H32L35 84H141Z" />
<glyph unicode="&#x2022;" glyph-name="bullet" horiz-adv-x="309" d="M246 240H67V401H246V240Z" />
<glyph unicode="&#x2039;" glyph-name="guilsinglleft" horiz-adv-x="311" d="M290 64H166L17 281L166 494H290L142 282L290 64Z" />
<glyph unicode="&#x203a;" glyph-name="guilsinglright" horiz-adv-x="311" d="M294 281L145 64H21L169 282L21 494H145L294 281Z" />
</font>
</defs>
</svg>
