<?xml version="1.0" standalone="no"?>
<!DOCTYPE svg PUBLIC "-//W3C//DTD SVG 1.1//EN" "http://www.w3.org/Graphics/SVG/1.1/DTD/svg11.dtd">
<svg xmlns="http://www.w3.org/2000/svg">
<defs >
<font id="Blinker" horiz-adv-x="485" ><font-face
    font-family="Blinker ExtraBold"
    units-per-em="1000"
    panose-1="2 0 0 0 0 0 0 0 0 0"
    ascent="960"
    descent="-240"
    alphabetic="0" />
<glyph unicode=" " glyph-name="space" horiz-adv-x="138" />
<glyph unicode="!" glyph-name="exclam" horiz-adv-x="258" d="M27 627H231L209 215H50L27 627ZM221 158V0H37V158H221Z" />
<glyph unicode="&quot;" glyph-name="quotedbl" horiz-adv-x="330" d="M26 627H138V399H26V627ZM191 627H304V399H191V627Z" />
<glyph unicode="#" glyph-name="numbersign" horiz-adv-x="549" d="M534 493V377H445L428 260H499V144H409L385 0H265L288 144H208L185 0H64L88 144H15V260H106L124 377H50V493H145L168 627H288L266 493H344L368 627H488L466 493H534ZM306 260L324 377H246L227 260H306Z" />
<glyph unicode="$" glyph-name="dollar" horiz-adv-x="484" d="M261 228L161 253Q82 273 53 312T23 423Q23 517 63 568T190 632V716H289V637Q330 636 363 632T421 619V454Q358 465 326 468T260 471Q229 471 216 462T202 432Q202 421 207 416T227 407L323 382Q377
368 400 356T438 327Q454 307 461 277T469 202Q469 104 425 55T289 -6V-89H190V-9Q138 -7 94 -1T26 15V189Q62 177 117 169T228 161Q262 161 275 169T289 198Q289 211 285 217T261 228Z" />
<glyph unicode="%" glyph-name="percent" horiz-adv-x="685" d="M294 477Q294 393 262 357T155 320Q80 320 47 357T13 477Q13 561 46 598T155 635Q229 635 261 599T294 477ZM552 627L252 0H134L434 627H552ZM183 477Q183 514 177 527T155 541Q138 541 132 528T126
477Q126 444 132 432T155 419Q171 419 177 431T183 477ZM672 151Q672 67 640 30T532 -7Q457 -7 424 30T391 151Q391 234 424 271T532 308Q607 308 639 272T672 151ZM561 151Q561 186 555 200T532 214Q516 214 510 200T503 151Q503 118 509 105T532 92Q548 92 554
105T561 151Z" />
<glyph unicode="&amp;" glyph-name="ampersand" horiz-adv-x="666" d="M564 234V58Q537 30 467 10T320 -11Q164 -11 92 69T20 324Q20 477 92 557T301 637Q406 637 462 588T519 449Q519 431 516 414T506 381H659V234H564ZM348 434Q348 456 333 467T289 479Q246
479 228 454T207 366Q281 369 314 384T348 434ZM322 154Q345 154 365 157T392 164V279Q356 264 311 256T214 245Q223 196 247 175T322 154Z" />
<glyph unicode="&apos;" glyph-name="quotesingle" horiz-adv-x="176" d="M26 627H150V399H26V627Z" />
<glyph unicode="(" glyph-name="parenleft" horiz-adv-x="217" d="M142 313Q142 207 158 109T205 -51L112 -80Q67 -1 44 100T20 313Q20 430 43 530T112 707L203 678Q174 618 158 522T142 313Z" />
<glyph unicode=")" glyph-name="parenright" horiz-adv-x="217" d="M75 313Q75 425 59 521T14 678L105 707Q150 631 173 531T197 313Q197 201 174 100T105 -80L12 -51Q42 11 58 109T75 313Z" />
<glyph unicode="*" glyph-name="asterisk" horiz-adv-x="365" d="M261 442L322 367L233 303L183 383L130 303L43 369L104 440L11 466L47 569L133 532L126 627H235L229 533L319 568L353 465L261 442Z" />
<glyph unicode="+" glyph-name="plus" horiz-adv-x="500" d="M463 398V246H329V110H172V246H37V398H172V532H329V398H463Z" />
<glyph unicode="," glyph-name="comma" horiz-adv-x="208" d="M194 162L162 -27Q157 -54 138 -70T89 -86H24V162H194Z" />
<glyph unicode="-" glyph-name="hyphen" horiz-adv-x="371" d="M345 386V251H26V386H345Z" />
<glyph unicode="." glyph-name="period" horiz-adv-x="221" d="M197 0H24V162H197V0Z" />
<glyph unicode="/" glyph-name="slash" horiz-adv-x="353" d="M345 707L125 -80H10L229 707H345Z" />
<glyph unicode="0" glyph-name="zero" horiz-adv-x="570" d="M544 314Q544 135 488 62T285 -11Q195 -11 145 9T67 74Q45 110 35 167T25 314Q25 491 81 564T285 637Q375 637 425 618T503 553Q524 518 534 461T544 314ZM356 314Q356 411 343 440T285 469Q240 469
227 440T214 314Q214 219 227 191T285 163Q330 163 343 191T356 314Z" />
<glyph unicode="1" glyph-name="one" horiz-adv-x="371" d="M328 0H142V461L9 446V602L328 637V0Z" />
<glyph unicode="2" glyph-name="two" horiz-adv-x="465" d="M435 174V0H19V174L227 375Q243 390 250 404T257 435Q257 451 247 460T217 469Q187 469 143 465T47 451V613Q86 624 143 630T256 637Q342 637 390 593T439 472Q439 420 424 382T371 308L236 174H435Z" />
<glyph unicode="3" glyph-name="three" horiz-adv-x="457" d="M414 474Q414 415 391 380T320 331V329Q377 325 406 288T435 181Q435 89 377 39T213 -11Q154 -11 102 -5T23 11V167Q56 161 94 159T188 156Q229 156 245 165T261 201Q261 223 248 233T206 244H84V395H182Q212
395 226 404T240 436Q240 459 227 467T183 476Q156 476 106 471T34 461V611Q65 622 125 629T239 637Q325 637 369 596T414 474Z" />
<glyph unicode="4" glyph-name="four" horiz-adv-x="528" d="M513 293V131H453V0H267V131H20V293L89 627H264L205 293H275L290 517H453V293H513Z" />
<glyph unicode="5" glyph-name="five" horiz-adv-x="460" d="M440 195Q440 95 384 42T226 -11Q159 -11 106 -5T25 11V171Q61 165 98 162T184 159Q222 159 238 168T254 201Q254 227 238 236T179 246Q124 245 98 243T48 237V627H400V459H234V384Q246 385 261 386T290
387Q369 387 404 341T440 195Z" />
<glyph unicode="6" glyph-name="six" horiz-adv-x="512" d="M271 -11Q133 -11 79 57T24 297Q24 470 98 553T329 637Q362 637 393 634T439 627V473Q401 477 380 478T336 479Q272 479 247 459T213 386Q241 401 270 408T332 416Q414 416 454 367T494 216Q494 108
436 49T271 -11ZM321 210Q321 245 310 258T267 272Q253 272 237 269T207 260Q208 188 219 168T266 147Q294 147 307 162T321 210Z" />
<glyph unicode="7" glyph-name="seven" horiz-adv-x="453" d="M437 627V459L218 0H8L238 459H24V627H437Z" />
<glyph unicode="8" glyph-name="eight" horiz-adv-x="515" d="M492 170Q492 75 436 32T257 -11Q129 -11 76 30T23 172Q23 230 48 269T123 325Q77 343 55 378T34 469Q34 557 87 597T257 637Q380 637 430 599T481 467Q481 412 459 378T392 325Q441 309 466 269T492
170ZM318 440Q318 467 304 478T257 490Q225 490 211 479T197 441Q197 413 211 401T257 388Q289 388 303 400T318 440ZM320 196Q320 224 306 235T257 247Q223 247 209 236T195 196Q195 167 209 155T257 143Q291 143 305 155T320 196Z" />
<glyph unicode="9" glyph-name="nine" horiz-adv-x="513" d="M245 637Q382 637 435 570T489 330Q489 156 414 73T183 -10Q151 -10 118 -8T71 -1V155Q93 152 119 151T177 149Q240 149 266 169T300 240Q270 226 241 219T183 212Q99 212 59 261T18 411Q18 519 77
578T245 637ZM247 480Q219 480 206 465T192 416Q192 381 203 368T246 354Q263 354 278 357T306 367Q305 439 294 459T247 480Z" />
<glyph unicode=":" glyph-name="colon" horiz-adv-x="235" d="M204 332H31V494H204V332ZM204 0H31V162H204V0Z" />
<glyph unicode=";" glyph-name="semicolon" horiz-adv-x="232" d="M203 162L171 -27Q166 -54 147 -70T98 -86H33V162H203ZM204 332H31V494H204V332Z" />
<glyph unicode="&lt;" glyph-name="less" horiz-adv-x="500" d="M463 235V76L37 224V400L463 548V392L191 314L463 235Z" />
<glyph unicode="=" glyph-name="equal" horiz-adv-x="500" d="M463 539V387H37V539H463ZM463 493V341H37V493H463Z" />
<glyph unicode="&gt;" glyph-name="greater" horiz-adv-x="500" d="M463 224L37 76V235L309 314L37 392V548L463 400V224Z" />
<glyph unicode="?" glyph-name="question" horiz-adv-x="374" d="M191 637Q270 637 315 600T361 497Q361 442 335 399T244 311V216H81V353Q142 384 167 406T193 448Q193 464 184 471T155 479Q128 479 87 472T18 455V609Q59 624 98 630T191 637ZM255 158V0H70V158H255Z" />
<glyph unicode="@" glyph-name="at" horiz-adv-x="608" d="M275 83Q229 83 207 107T185 181Q185 233 210 253T299 274Q311 274 324 273T348 270V282Q348 294 338 299T305 304Q276 304 253 303T210 298V389Q234 394 265 396T336 399Q390 399 418 374T446 300V188Q446
180 447 177T454 174Q468 174 479 207T490 287Q490 368 448 411T324 454Q218 454 176 406T134 239Q134 130 185 81T353 31Q392 31 435 40T508 66V-36Q474 -56 428 -66T323 -76Q176 -76 98 4T19 240Q19 393 97 475T322 557Q454 557 524 491T595 300Q595 206 551
145T438 83Q416 83 401 93T376 122Q359 104 331 94T275 83ZM315 207Q296 207 290 204T283 187Q283 177 288 173T306 169Q316 169 327 171T348 179V205Q340 206 333 206T315 207Z" />
<glyph unicode="A" glyph-name="A" horiz-adv-x="627" d="M185 0H-6L219 627H412L630 0H440L414 87H210L185 0ZM311 441Q301 402 290 361T268 286L252 231H372L356 286Q311 441 311 441T311 441Z" />
<glyph unicode="B" glyph-name="B" horiz-adv-x="560" d="M545 186Q545 90 488 45T310 0H39V627H310Q419 627 466 589T513 463Q513 408 497 378T443 333Q496 321 520 285T545 186ZM349 431Q349 455 340 466T308 477H221V379H308Q330 379 339 391T349 431ZM364
204Q364 231 352 242T310 254H221V156H310Q339 156 351 167T364 204Z" />
<glyph unicode="C" glyph-name="C" horiz-adv-x="507" d="M323 163Q363 163 409 171T492 192V28Q437 6 393 -2T299 -11Q209 -11 157 8T73 71Q47 109 34 169T21 314Q21 481 95 559T331 637Q377 637 413 635T478 628V465Q446 467 411 468T333 469Q260 469 237 437T214
314Q214 229 235 196T323 163Z" />
<glyph unicode="D" glyph-name="D" horiz-adv-x="603" d="M274 0H39V627H274Q368 627 425 611T516 559Q550 523 566 464T582 314Q582 151 509 76T274 0ZM390 314Q390 402 369 432T274 463H224V169H274Q347 169 368 199T390 314Z" />
<glyph unicode="E" glyph-name="E" horiz-adv-x="499" d="M477 167V0H39V627H468V464H224V393H431V241H224V167H477Z" />
<glyph unicode="F" glyph-name="F" horiz-adv-x="487" d="M224 215V0H39V627H471V459H224V369H434V215H224Z" />
<glyph unicode="G" glyph-name="G" horiz-adv-x="575" d="M380 231H292V370H549V28Q511 12 446 1T317 -11Q153 -11 87 64T21 314Q21 482 96 559T335 637Q393 637 439 634T515 626V464Q473 466 428 467T337 469Q260 469 237 437T213 314Q213 221 235 187T325 152Q338
152 352 153T380 155V231Z" />
<glyph unicode="H" glyph-name="H" horiz-adv-x="621" d="M224 0H39V627H224V402H396V627H582V0H396V234H224V0Z" />
<glyph unicode="I" glyph-name="I" horiz-adv-x="263" d="M224 627V0H39V627H224Z" />
<glyph unicode="J" glyph-name="J" horiz-adv-x="413" d="M193 250V627H378V236Q378 103 320 46T124 -11Q94 -11 68 -9T12 -1V169Q28 166 48 165T96 163Q155 163 174 180T193 250Z" />
<glyph unicode="K" glyph-name="K" horiz-adv-x="616" d="M418 324L630 0H399L257 245H224V0H39V627H224V391H257L403 627H623L418 324Z" />
<glyph unicode="L" glyph-name="L" horiz-adv-x="458" d="M445 174V0H39V627H224V174H445Z" />
<glyph unicode="M" glyph-name="M" horiz-adv-x="730" d="M692 627V0H518V333L436 118H291L212 332V0H39V627H264L367 347L475 627H692Z" />
<glyph unicode="N" glyph-name="N" horiz-adv-x="634" d="M595 627V0H420L212 311V0H39V627H212L422 299V627H595Z" />
<glyph unicode="O" glyph-name="O" horiz-adv-x="645" d="M624 314Q624 142 553 66T322 -11Q157 -11 89 62T21 314Q21 484 92 560T322 637Q487 637 555 565T624 314ZM209 314Q209 225 230 194T322 163Q393 163 414 193T436 314Q436 406 414 437T322 469Q252 469
231 438T209 314Z" />
<glyph unicode="P" glyph-name="P" horiz-adv-x="564" d="M224 166V0H39V627H274Q425 627 487 576T550 401Q550 280 484 223T277 166H224ZM361 398Q361 431 344 445T283 459H224V327H283Q327 327 344 343T361 398Z" />
<glyph unicode="Q" glyph-name="Q" horiz-adv-x="645" d="M322 -11Q157 -11 89 62T21 314Q21 484 92 560T322 637Q487 637 555 565T624 314Q624 206 597 138T514 33L633 -128H421L338 -11H322ZM209 314Q209 225 230 194T322 163Q393 163 414 193T436 314Q436 406
414 437T322 469Q252 469 231 438T209 314Z" />
<glyph unicode="R" glyph-name="R" horiz-adv-x="583" d="M224 196V0H39V627H274Q425 627 487 577T550 407Q550 336 523 290T439 221L576 0H364L259 196H224ZM361 404Q361 435 344 448T283 461H224V338H283Q327 338 344 353T361 404Z" />
<glyph unicode="S" glyph-name="S" horiz-adv-x="498" d="M279 228L162 253Q85 270 55 310T24 423Q24 533 82 585T265 637Q319 637 362 633T436 619V454Q365 466 332 468T264 471Q231 471 217 462T202 432Q202 421 207 415T227 406L336 382Q387 371 412 359T452
328Q469 308 476 277T484 202Q484 90 424 40T239 -11Q175 -11 116 -4T27 14V189Q65 177 123 169T240 161Q275 161 289 169T303 198Q303 212 299 218T279 228Z" />
<glyph unicode="T" glyph-name="T" horiz-adv-x="519" d="M507 627V459H353V0H167V459H12V627H507Z" />
<glyph unicode="U" glyph-name="U" horiz-adv-x="622" d="M403 270V627H589V269Q589 130 520 60T313 -11Q167 -11 101 55T34 269V627H219V270Q219 207 238 185T312 163Q365 163 384 185T403 270Z" />
<glyph unicode="V" glyph-name="V" horiz-adv-x="632" d="M205 0L-5 627H199L282 324Q288 301 298 256T321 150Q334 216 343 258T358 322L439 627H636L428 0H205Z" />
<glyph unicode="W" glyph-name="W" horiz-adv-x="853" d="M158 0L-3 627H193L248 356Q250 345 253 326T271 205Q284 308 286 325T291 354L340 627H519L570 356Q573 343 576 321T591 203Q600 268 605 306T613 354L665 627H855L696 0H492L463 151Q455 196 446 250T427
376Q419 323 410 266T390 151L361 0H158Z" />
<glyph unicode="X" glyph-name="X" horiz-adv-x="594" d="M409 326L609 0H383L284 174L190 0H-13L188 319L0 627H227L310 476L392 627H588L409 326Z" />
<glyph unicode="Y" glyph-name="Y" horiz-adv-x="611" d="M423 627H613L400 224V0H214V224L-5 627H206L310 390L423 627Z" />
<glyph unicode="Z" glyph-name="Z" horiz-adv-x="504" d="M487 174V0H17V174L258 459H46V627H468V459L228 174H487Z" />
<glyph unicode="[" glyph-name="bracketleft" horiz-adv-x="232" d="M215 20V-82H38V707H215V608H149V20H215Z" />
<glyph unicode="\" glyph-name="backslash" horiz-adv-x="353" d="M124 707L344 -80H228L9 707H124Z" />
<glyph unicode="]" glyph-name="bracketright" horiz-adv-x="232" d="M194 -82H17V20H83V608H17V707H194V-82Z" />
<glyph unicode="^" glyph-name="asciicircum" horiz-adv-x="500" d="M209 365H63L181 627H319L437 365H295L252 478L209 365Z" />
<glyph unicode="_" glyph-name="underscore" horiz-adv-x="446" d="M427 -39V-174H18V-39H427Z" />
<glyph unicode="`" glyph-name="grave" horiz-adv-x="392" d="M204 542L50 678H235L342 542H204Z" />
<glyph unicode="a" glyph-name="a" horiz-adv-x="492" d="M151 -11Q79 -11 46 27T13 146Q13 226 54 260T193 294Q216 294 239 292T281 287V312Q281 332 262 340T200 349Q159 349 126 347T58 339V486Q95 495 147 499T268 504Q362 504 411 463T461 341V0H291L286
39H283Q253 14 220 2T151 -11ZM222 192Q196 192 186 185T175 157Q175 137 183 130T213 122Q230 122 248 125T281 135V188Q267 190 253 191T222 192Z" />
<glyph unicode="b" glyph-name="b" horiz-adv-x="544" d="M347 504Q444 504 484 447T524 251Q524 115 468 52T290 -11Q213 -11 148 -4T34 18V665H214V471Q246 487 280 495T347 504ZM344 251Q344 305 332 323T280 342Q264 342 248 339T214 329V161Q227 159 242
158T275 156Q318 156 331 174T344 251Z" />
<glyph unicode="c" glyph-name="c" horiz-adv-x="427" d="M411 174V26Q386 11 331 0T217 -11Q108 -11 64 46T20 247Q20 391 76 447T276 504Q306 504 331 503T398 496V338Q397 338 358 340T278 342Q227 342 214 326T200 247Q200 190 212 174T264 157Q301 157 341
162T411 174Z" />
<glyph unicode="d" glyph-name="d" horiz-adv-x="544" d="M330 665H510V0H350L341 46H336Q310 17 275 3T196 -11Q101 -11 60 48T19 247Q19 381 70 442T235 504Q261 504 285 501T330 492V665ZM269 342Q225 342 212 323T199 247Q199 192 211 174T263 156Q282 156
298 159T330 170V334Q319 338 304 340T269 342Z" />
<glyph unicode="e" glyph-name="e" horiz-adv-x="496" d="M455 161V24Q427 10 369 0T247 -11Q126 -11 73 49T19 246Q19 379 76 441T256 504Q374 504 425 458T476 299Q476 265 475 245T471 198H197Q198 166 215 155T276 143Q324 143 374 148T455 161ZM258 362Q224
362 211 349T197 295H316V318Q314 344 303 353T258 362Z" />
<glyph unicode="f" glyph-name="f" horiz-adv-x="363" d="M69 345H18V494H69V497Q69 583 118 629T261 675Q289 675 319 672T371 665V539Q333 542 324 542T308 543Q270 543 260 536T249 504V494H356V345H249V0H69V345Z" />
<glyph unicode="g" glyph-name="g" horiz-adv-x="542" d="M264 -162Q210 -162 160 -155T79 -137V10Q104 4 153 0T251 -5Q295 -5 311 6T329 48V75Q294 59 260 51T193 42Q98 42 59 93T20 269Q20 395 78 449T271 504Q326 504 400 498T509 485V106Q509 -43 455 -102T264
-162ZM267 344Q221 344 209 332T197 270Q197 224 207 212T255 200Q271 200 290 203T329 214V340Q310 342 296 343T267 344Z" />
<glyph unicode="h" glyph-name="h" horiz-adv-x="541" d="M214 0H34V665H214V458Q244 480 280 492T353 504Q431 504 470 464T509 342V0H329V305Q329 325 319 333T284 342Q268 342 250 339T214 331V0Z" />
<glyph unicode="i" glyph-name="i" horiz-adv-x="247" d="M216 535H31V665H216V535ZM214 0H34V494H214V0Z" />
<glyph unicode="j" glyph-name="j" horiz-adv-x="253" d="M222 535H37V665H222V535ZM44 -162Q27 -162 13 -161T-33 -156V-25Q-28 -26 -24 -26T-12 -26Q18 -26 28 -18T39 13V494H219V4Q219 -76 174 -119T44 -162Z" />
<glyph unicode="k" glyph-name="k" horiz-adv-x="530" d="M214 182V0H34V665H214V318H230L321 494H527L387 257L537 0H326L231 182H214Z" />
<glyph unicode="l" glyph-name="l" horiz-adv-x="247" d="M214 665V0H34V665H214Z" />
<glyph unicode="m" glyph-name="m" horiz-adv-x="786" d="M214 0H34V494H195L202 452H206Q234 477 269 490T342 504Q383 504 412 491T458 452H462Q491 476 530 490T612 504Q683 504 718 464T754 342V0H574V308Q574 326 565 334T534 342Q522 342 509 340T484 333V0H304V308Q304
326 294 334T263 342Q251 342 239 340T214 333V0Z" />
<glyph unicode="n" glyph-name="n" horiz-adv-x="541" d="M214 0H34V494H189L196 442H200Q230 474 266 489T351 504Q429 504 469 463T509 342V0H329V305Q329 323 317 332T279 342Q262 342 246 339T214 328V0Z" />
<glyph unicode="o" glyph-name="o" horiz-adv-x="539" d="M520 247Q520 108 462 49T269 -11Q136 -11 78 49T19 247Q19 385 76 444T269 504Q403 504 461 444T520 247ZM199 249Q199 191 212 174T269 156Q314 156 327 173T340 249Q340 307 327 324T269 342Q225 342
212 325T199 249Z" />
<glyph unicode="p" glyph-name="p" horiz-adv-x="544" d="M214 -152H34V494H192L201 447H207Q232 476 267 490T347 504Q443 504 483 446T524 247Q524 113 473 52T308 -10Q282 -10 258 -7T214 2V-152ZM344 247Q344 304 332 323T280 342Q262 342 246 339T214 328V164Q225
160 240 158T275 156Q319 156 331 173T344 247Z" />
<glyph unicode="q" glyph-name="q" horiz-adv-x="543" d="M510 485V-152H330V41Q302 16 268 3T192 -10Q98 -10 59 48T19 247Q19 385 77 445T270 505Q321 505 387 500T510 485ZM270 342Q223 342 211 326T199 247Q199 189 209 173T258 156Q274 156 292 160T330 172V337Q317
339 302 340T270 342Z" />
<glyph unicode="r" glyph-name="r" horiz-adv-x="359" d="M214 0H34V494H202L208 456H210Q241 479 271 491T331 503H348V329Q325 331 318 331T302 332Q277 332 255 329T214 320V0Z" />
<glyph unicode="s" glyph-name="s" horiz-adv-x="442" d="M245 365Q210 365 198 360T186 340Q186 332 190 328T204 323L310 310Q376 302 400 271T425 170Q425 76 379 33T223 -11Q164 -11 115 -6T33 9V153Q73 144 118 139T203 134Q237 134 248 140T260 163Q260
169 256 173T244 179L127 193Q69 201 44 234T18 333Q18 419 72 461T235 504Q284 504 324 502T394 494V354Q360 359 320 362T245 365Z" />
<glyph unicode="t" glyph-name="t" horiz-adv-x="386" d="M66 345H15V494H73L94 607H246V494H370V345H246V196Q246 173 258 165T305 157Q320 157 342 159T377 164V9Q362 2 323 -4T253 -11Q153 -11 110 32T66 171V345Z" />
<glyph unicode="u" glyph-name="u" horiz-adv-x="527" d="M193 -10Q112 -10 72 31T32 155V494H212V192Q212 173 222 165T256 157Q270 157 284 159T314 167V494H494V0H332L326 39Q296 16 261 3T193 -10Z" />
<glyph unicode="v" glyph-name="v" horiz-adv-x="526" d="M332 494H528L367 0H160L-3 494H195L264 163L332 494Z" />
<glyph unicode="w" glyph-name="w" horiz-adv-x="765" d="M569 494H766L636 0H425L377 237L335 0H130L-1 494H197L238 162L302 494H465L528 162L569 494Z" />
<glyph unicode="x" glyph-name="x" horiz-adv-x="489" d="M349 257L494 0H298L239 132L180 0H-5L141 257L-6 494H203L255 373L310 494H494L349 257Z" />
<glyph unicode="y" glyph-name="y" horiz-adv-x="523" d="M112 -14Q142 -14 155 -8T173 17L-4 494H195L266 186L334 494H526L361 0Q332 -86 283 -124T150 -162Q127 -162 103 -160T61 -154V-11Q69 -12 82 -13T112 -14Z" />
<glyph unicode="z" glyph-name="z" horiz-adv-x="425" d="M409 156V0H19V156L191 345H37V494H392V345L224 156H409Z" />
<glyph unicode="{" glyph-name="braceleft" horiz-adv-x="291" d="M121 317V313Q161 306 186 264T211 157V56Q211 26 223 18T278 9V-92Q187 -92 144 -58T101 50V157Q101 209 76 240T17 271H-1V359H17Q50 359 75 390T101 473V576Q101 649 144 683T278 718V617Q238
617 225 609T211 570V473Q211 408 186 367T121 317Z" />
<glyph unicode="|" glyph-name="bar" horiz-adv-x="186" d="M149 707V-80H38V707H149Z" />
<glyph unicode="}" glyph-name="braceright" horiz-adv-x="291" d="M170 313V317Q130 325 105 366T80 473V570Q80 600 67 608T13 617V718Q104 718 147 684T190 576V473Q190 421 215 390T274 359H292V271H274Q241 271 216 240T190 157V50Q190 -23 147 -57T13 -92V9Q55
9 67 17T80 56V157Q80 222 105 264T170 313Z" />
<glyph unicode="~" glyph-name="asciitilde" horiz-adv-x="611" d="M435 447H593Q593 325 553 258T436 191Q406 191 373 203T284 254Q252 275 239 281T217 287Q197 287 187 263T176 198H18Q18 319 58 387T175 455Q205 455 238 443T328 394Q360 374 372 368T394
362Q414 362 424 384T435 447Z" />
<glyph unicode="&#xa0;" glyph-name="uni00A0" horiz-adv-x="138" />
<glyph unicode="&#xa1;" glyph-name="exclamdown" horiz-adv-x="255" d="M35 494H219V336H35V494ZM207 279L229 -133H25L48 279H207Z" />
<glyph unicode="&#xa2;" glyph-name="cent" horiz-adv-x="429" d="M292 62V-19H194V58Q98 63 59 121T20 315Q20 438 60 495T194 567V650H292V572Q320 571 343 570T398 564V406Q397 406 358 408T278 410Q227 410 214 394T200 315Q200 258 212 242T264 225Q301 225
341 230T411 242V94Q395 84 363 76T292 62Z" />
<glyph unicode="&#xa3;" glyph-name="sterling" horiz-adv-x="471" d="M25 260V361H89V451Q89 543 141 590T292 637Q331 637 361 634T435 620V463Q409 469 382 472T333 475Q303 475 289 462T275 419V361H401V260H275Q275 227 256 203T203 168V165H451V0H25V166Q53
179 71 204T89 257V260H25Z" />
<glyph unicode="&#xa4;" glyph-name="currency" horiz-adv-x="596" d="M90 38L18 110L79 172Q58 204 48 240T38 316Q37 356 48 393T81 463L20 523L92 595L153 534Q185 554 221 564T297 575Q336 575 372 565T441 534L503 595L575 521L516 461Q538 429 549 392T560
315Q560 276 549 239T517 170L577 109L505 37L444 98Q413 77 376 67T299 56Q258 56 221 67T152 99L90 38ZM300 419Q255 419 229 393T202 319Q203 271 228 245T299 219Q344 218 370 244T396 319Q396 365 371 391T300 419Z" />
<glyph unicode="&#xa5;" glyph-name="yen" horiz-adv-x="572" d="M75 101V186H195V217H75V302H161L9 627H217L289 385L371 627H562L415 302H502V217H382V186H502V101H382V0H195V101H75Z" />
<glyph unicode="&#xa6;" glyph-name="brokenbar" horiz-adv-x="186" d="M149 707V380H38V707H149ZM149 247V-80H38V247H149Z" />
<glyph unicode="&#xa7;" glyph-name="section" horiz-adv-x="453" d="M264 517Q237 517 225 513T213 497Q213 489 219 483T253 466L355 424Q394 408 415 381T437 320Q437 286 423 256T382 202Q393 189 398 171T404 130Q404 64 359 27T231 -10Q181 -10 144 -6T72
7V129Q105 119 133 115T189 110Q216 110 228 114T241 130Q241 138 235 143T200 161L96 202Q59 217 38 244T17 307Q17 342 31 372T72 425Q60 438 55 455T49 497Q49 562 95 599T222 637Q272 637 309 633T382 620V498Q348 508 320 512T264 517ZM165 336Q165 321 171
313T197 296L281 261Q285 268 287 276T289 290Q289 305 282 314T257 330L173 366Q169 357 167 350T165 336Z" />
<glyph unicode="&#xa8;" glyph-name="dieresis" horiz-adv-x="435" d="M385 674V542H240V674H385ZM195 674V542H50V674H195Z" />
<glyph unicode="&#xa9;" glyph-name="copyright" horiz-adv-x="665" d="M646 314Q646 160 564 75T334 -10Q180 -10 100 72T20 314Q20 468 102 552T334 637Q487 637 566 555T646 314ZM545 313Q545 429 493 486T335 543Q227 543 174 487T121 313Q121 200 173 146T335
91Q442 91 493 145T545 313ZM359 247Q381 247 404 251T452 262V159Q431 149 400 143T335 137Q247 137 207 180T166 316Q166 406 210 450T344 494Q372 494 395 491T443 482V384Q405 388 391 389T357 390Q325 390 312 373T299 317Q299 281 313 264T359 247Z" />
<glyph unicode="&#xaa;" glyph-name="ordfeminine" horiz-adv-x="321" d="M288 354H191L188 375H186Q166 360 149 354T111 348Q68 348 47 370T26 438Q26 485 51 504T138 523Q147 523 160 522T185 519V529Q185 539 176 543T143 548Q120 548 100 547T53 542V626Q79
631 107 633T176 636Q230 636 259 614T288 548V354ZM151 460Q134 460 128 457T122 444Q122 436 127 433T145 429Q154 429 163 430T185 436V458Q177 459 169 459T151 460ZM292 226H26V316H292V226Z" />
<glyph unicode="&#xab;" glyph-name="guillemotleft" horiz-adv-x="518" d="M293 64H148L11 281L148 494H293L158 284L293 64ZM506 64H361L223 281L361 494H506L371 283L506 64Z" />
<glyph unicode="&#xac;" glyph-name="logicalnot" horiz-adv-x="500" d="M463 392V106H306V240H37V392H463Z" />
<glyph unicode="&#xad;" glyph-name="uni00AD" horiz-adv-x="371" d="M345 386V251H26V386H345Z" />
<glyph unicode="&#xae;" glyph-name="registered" horiz-adv-x="395" d="M379 454Q379 364 333 317T198 270Q107 270 62 316T16 454Q16 543 63 590T199 637Q289 637 334 591T379 454ZM317 454Q317 520 289 551T199 583Q137 583 108 552T78 454Q78 389 107 359T199
328Q260 328 288 358T317 454ZM178 418V355H122V557H197Q244 557 263 541T283 488Q283 463 273 448T243 424L284 355H216L184 418H178ZM226 488Q226 498 220 502T197 506H178V463H197Q215 463 220 469T226 488Z" />
<glyph unicode="&#xaf;" glyph-name="overscore" horiz-adv-x="357" d="M307 663V547H50V663H307Z" />
<glyph unicode="&#xb0;" glyph-name="degree" horiz-adv-x="300" d="M288 499Q288 438 251 402T150 366Q87 366 50 402T12 499Q12 561 49 597T150 634Q213 634 250 598T288 499ZM115 501Q115 483 124 473T150 463Q167 463 176 473T186 501Q186 518 177 527T150
537Q133 537 124 528T115 501Z" />
<glyph unicode="&#xb1;" glyph-name="plusminus" horiz-adv-x="500" d="M463 487V335H329V219H172V335H37V487H172V601H329V487H463ZM463 176V24H37V176H463Z" />
<glyph unicode="&#xb2;" glyph-name="uni00B2" horiz-adv-x="287" d="M267 378V270H14V378L139 489Q148 498 151 503T154 515Q154 521 149 524T135 528Q121 528 101 527T47 521Q38 520 35 520T31 519V619Q55 625 90 629T159 633Q211 633 240 608T269 537Q269 507
261 486T231 447L152 378H267Z" />
<glyph unicode="&#xb3;" glyph-name="uni00B3" horiz-adv-x="277" d="M250 539Q250 506 236 486T194 458H195Q229 455 246 434T263 374Q263 321 228 293T129 264Q92 264 62 267T16 276V372Q36 369 58 368T112 366Q137 366 145 370T154 386Q154 396 147 400T124
405H52V498H109Q126 498 134 502T142 516Q142 526 135 530T109 534Q100 534 85 533T41 528Q30 527 27 527T22 526V617Q42 624 77 628T145 633Q196 633 223 609T250 539Z" />
<glyph unicode="&#xb4;" glyph-name="acute" horiz-adv-x="392" d="M156 678H342L187 542H50L156 678Z" />
<glyph unicode="&#xb5;" glyph-name="mu" horiz-adv-x="540" d="M234 -7Q222 -7 215 -7T204 -4Q204 -49 212 -86T236 -152H61Q47 -117 41 -74T35 60V494H215V189Q215 170 225 162T257 153Q272 153 288 155T324 164V494H504V0H342L338 35Q318 15 291 4T234 -7Z" />
<glyph unicode="&#xb6;" glyph-name="paragraph" horiz-adv-x="489" d="M450 627V25Q450 -62 404 -112T278 -162Q260 -162 245 -161T197 -156V-8Q204 -9 211 -9T225 -10Q251 -10 260 -1T270 30V135Q258 133 244 132T211 131Q102 131 58 187T14 382Q14 526 70 582T270
639Q315 639 360 636T450 627ZM246 479Q205 479 195 461T184 383Q184 325 193 309T238 292Q246 292 254 293T270 295V478Q266 479 262 479T246 479Z" />
<glyph unicode="&#xb7;" glyph-name="middot" horiz-adv-x="229" d="M201 237H28V399H201V237Z" />
<glyph unicode="&#xb8;" glyph-name="cedilla" horiz-adv-x="333" d="M281 -109Q281 -152 251 -173T161 -195Q132 -195 101 -192T60 -184V-112Q72 -115 95 -118T135 -121Q152 -121 159 -117T166 -100Q166 -90 157 -85T126 -80Q117 -80 102 -81T77 -82L99 25L205
15L195 -38Q234 -38 257 -57T281 -109Z" />
<glyph unicode="&#xb9;" glyph-name="uni00B9" horiz-adv-x="234" d="M206 270H88V524L7 515V611L206 633V270Z" />
<glyph unicode="&#xba;" glyph-name="ordmasculine" horiz-adv-x="342" d="M319 492Q319 419 283 384T172 348Q97 348 61 383T25 492Q25 566 61 601T172 636Q247 636 283 601T319 492ZM128 493Q128 466 138 455T172 443Q196 443 205 454T215 493Q215 521 206 532T172
543Q147 543 138 532T128 493ZM312 226H30V316H312V226Z" />
<glyph unicode="&#xbb;" glyph-name="guillemotright" horiz-adv-x="518" d="M507 281L370 64H225L360 284L225 494H370L507 281ZM295 281L157 64H12L147 283L12 494H157L295 281Z" />
<glyph unicode="&#xbc;" glyph-name="onequarter" horiz-adv-x="733" d="M211 270H93V524L12 515V611L211 633V270ZM543 627L243 0H125L425 627H543ZM719 172V71H684V0H566V71H419V172L460 357H571L536 172H572L579 295H684V172H719Z" />
<glyph unicode="&#xbd;" glyph-name="onehalf" horiz-adv-x="717" d="M211 270H93V524L12 515V611L211 633V270ZM543 627L243 0H125L425 627H543ZM696 108V0H443V108L568 219Q577 228 580 233T583 245Q583 251 578 254T564 258Q550 258 530 257T476 251Q467 250
464 250T460 249V349Q484 355 519 359T588 363Q640 363 669 338T698 267Q698 237 690 216T660 177L581 108H696Z" />
<glyph unicode="&#xbe;" glyph-name="threequarters" horiz-adv-x="758" d="M253 539Q253 506 239 486T197 458H198Q232 455 249 434T266 374Q266 321 231 293T132 264Q95 264 65 267T19 276V372Q39 369 61 368T115 366Q140 366 148 370T157 386Q157 396 150 400T127
405H55V498H112Q129 498 137 502T145 516Q145 526 138 530T112 534Q103 534 88 533T44 528Q33 527 30 527T25 526V617Q45 624 80 628T148 633Q199 633 226 609T253 539ZM570 627L270 0H152L452 627H570ZM745 172V71H710V0H592V71H445V172L486 357H597L562 172H598L605
295H710V172H745Z" />
<glyph unicode="&#xbf;" glyph-name="questiondown" horiz-adv-x="373" d="M118 336V494H303V336H118ZM182 -143Q103 -143 58 -106T12 -3Q12 52 38 95T129 183V278H292V141Q231 110 206 88T180 46Q180 30 189 23T218 15Q245 15 286 22T355 39V-115Q314 -130 275
-136T182 -143Z" />
<glyph unicode="&#xc0;" glyph-name="Agrave" horiz-adv-x="627" d="M185 0H-6L219 627H412L630 0H440L414 87H210L185 0ZM311 441Q301 402 290 361T268 286L252 231H372L356 286Q311 441 311 441T311 441ZM281 659L129 785H314L419 659H281Z" />
<glyph unicode="&#xc1;" glyph-name="Aacute" horiz-adv-x="627" d="M185 0H-6L219 627H412L630 0H440L414 87H210L185 0ZM311 441Q301 402 290 361T268 286L252 231H372L356 286Q311 441 311 441T311 441ZM313 785H499L346 659H209L313 785Z" />
<glyph unicode="&#xc2;" glyph-name="Acircumflex" horiz-adv-x="627" d="M185 0H-6L219 627H412L630 0H440L414 87H210L185 0ZM311 441Q301 402 290 361T268 286L252 231H372L356 286Q311 441 311 441T311 441ZM499 659H369L314 708L260 659H130L237 785H392L499 659Z" />
<glyph unicode="&#xc3;" glyph-name="Atilde" horiz-adv-x="627" d="M185 0H-6L219 627H412L630 0H440L414 87H210L185 0ZM311 441Q301 402 290 361T268 286L252 231H372L356 286Q311 441 311 441T311 441ZM374 775H467Q467 718 446 687T383 655Q368 655 351 659T305
678Q289 686 282 688T271 691Q262 691 258 683T253 659H160Q160 716 181 747T244 779Q258 779 274 775T320 756Q337 748 344 746T356 743Q365 743 369 750T374 775Z" />
<glyph unicode="&#xc4;" glyph-name="Adieresis" horiz-adv-x="627" d="M185 0H-6L219 627H412L630 0H440L414 87H210L185 0ZM311 441Q301 402 290 361T268 286L252 231H372L356 286Q311 441 311 441T311 441ZM481 779V659H336V779H481ZM291 779V659H146V779H291Z" />
<glyph unicode="&#xc5;" glyph-name="Aring" horiz-adv-x="627" d="M185 0H-6L219 627H412L630 0H440L414 87H210L185 0ZM311 441Q301 402 290 361T268 286L252 231H372L356 286Q311 441 311 441T311 441ZM436 749Q436 704 403 678T314 652Q259 652 226 678T193
749Q193 793 225 818T314 844Q371 844 403 819T436 749ZM277 749Q277 737 287 730T314 722Q332 722 342 729T352 749Q352 762 342 769T314 776Q297 776 287 769T277 749Z" />
<glyph unicode="&#xc6;" glyph-name="AE" horiz-adv-x="751" d="M185 0H-6L213 627H720V464H458L480 393H683V241H525L548 167H729V0H429L403 87H210L185 0ZM306 431Q299 401 291 369T268 286L252 231H361L345 286Q338 309 328 348T306 431Z" />
<glyph unicode="&#xc7;" glyph-name="Ccedilla" horiz-adv-x="507" d="M415 -109Q415 -152 385 -173T295 -195Q266 -195 235 -192T194 -184V-112Q206 -115 229 -118T269 -121Q286 -121 293 -117T300 -100Q300 -90 291 -85T260 -80Q251 -80 236 -81T211 -82L226
-7Q114 6 68 80T21 314Q21 481 95 559T331 637Q377 637 413 635T478 628V465Q446 467 411 468T333 469Q260 469 237 437T214 314Q214 229 235 196T323 163Q363 163 409 171T492 192V28Q449 10 412 2T334 -10L329 -38Q368 -38 391 -57T415 -109Z" />
<glyph unicode="&#xc8;" glyph-name="Egrave" horiz-adv-x="499" d="M477 167V0H39V627H468V464H224V393H431V241H224V167H477ZM229 659L77 785H262L367 659H229Z" />
<glyph unicode="&#xc9;" glyph-name="Eacute" horiz-adv-x="499" d="M477 167V0H39V627H468V464H224V393H431V241H224V167H477ZM261 785H447L294 659H157L261 785Z" />
<glyph unicode="&#xca;" glyph-name="Ecircumflex" horiz-adv-x="499" d="M477 167V0H39V627H468V464H224V393H431V241H224V167H477ZM447 659H317L262 708L208 659H78L185 785H340L447 659Z" />
<glyph unicode="&#xcb;" glyph-name="Edieresis" horiz-adv-x="499" d="M477 167V0H39V627H468V464H224V393H431V241H224V167H477ZM429 779V659H284V779H429ZM239 779V659H94V779H239Z" />
<glyph unicode="&#xcc;" glyph-name="Igrave" horiz-adv-x="263" d="M224 627V0H39V627H224ZM355 659L203 785H388L493 659H355Z" />
<glyph unicode="&#xcd;" glyph-name="Iacute" horiz-adv-x="263" d="M224 627V0H39V627H224ZM387 785H573L420 659H283L387 785Z" />
<glyph unicode="&#xce;" glyph-name="Icircumflex" horiz-adv-x="263" d="M224 627V0H39V627H224ZM573 659H443L388 708L334 659H204L311 785H466L573 659Z" />
<glyph unicode="&#xcf;" glyph-name="Idieresis" horiz-adv-x="263" d="M224 627V0H39V627H224ZM555 779V659H410V779H555ZM365 779V659H220V779H365Z" />
<glyph unicode="&#xd0;" glyph-name="Eth" horiz-adv-x="650" d="M15 259V381H86V627H321Q415 627 472 611T563 559Q597 523 613 464T629 314Q629 151 556 76T321 0H86V259H15ZM372 381V259H271V169H321Q394 169 415 199T437 314Q437 402 416 432T321 463H271V381H372Z" />
<glyph unicode="&#xd1;" glyph-name="Ntilde" horiz-adv-x="634" d="M595 627V0H420L212 311V0H39V627H212L422 299V627H595ZM384 775H477Q477 718 456 687T393 655Q378 655 361 659T315 678Q299 686 292 688T281 691Q272 691 268 683T263 659H170Q170 716 191
747T254 779Q268 779 284 775T330 756Q347 748 354 746T366 743Q375 743 379 750T384 775Z" />
<glyph unicode="&#xd2;" glyph-name="Ograve" horiz-adv-x="645" d="M624 314Q624 142 553 66T322 -11Q157 -11 89 62T21 314Q21 484 92 560T322 637Q487 637 555 565T624 314ZM209 314Q209 225 230 194T322 163Q393 163 414 193T436 314Q436 406 414 437T322
469Q252 469 231 438T209 314ZM290 669L138 795H323L428 669H290Z" />
<glyph unicode="&#xd3;" glyph-name="Oacute" horiz-adv-x="645" d="M624 314Q624 142 553 66T322 -11Q157 -11 89 62T21 314Q21 484 92 560T322 637Q487 637 555 565T624 314ZM209 314Q209 225 230 194T322 163Q393 163 414 193T436 314Q436 406 414 437T322
469Q252 469 231 438T209 314ZM321 795H507L354 669H217L321 795Z" />
<glyph unicode="&#xd4;" glyph-name="Ocircumflex" horiz-adv-x="645" d="M624 314Q624 142 553 66T322 -11Q157 -11 89 62T21 314Q21 484 92 560T322 637Q487 637 555 565T624 314ZM209 314Q209 225 230 194T322 163Q393 163 414 193T436 314Q436 406 414 437T322
469Q252 469 231 438T209 314ZM507 669H377L322 718L268 669H138L245 795H400L507 669Z" />
<glyph unicode="&#xd5;" glyph-name="Otilde" horiz-adv-x="645" d="M624 314Q624 142 553 66T322 -11Q157 -11 89 62T21 314Q21 484 92 560T322 637Q487 637 555 565T624 314ZM209 314Q209 225 230 194T322 163Q393 163 414 193T436 314Q436 406 414 437T322
469Q252 469 231 438T209 314ZM383 785H476Q476 728 455 697T392 665Q377 665 360 669T314 688Q298 696 291 698T280 701Q271 701 267 693T262 669H169Q169 726 190 757T253 789Q267 789 283 785T329 766Q346 758 353 756T365 753Q374 753 378 760T383 785Z" />
<glyph unicode="&#xd6;" glyph-name="Odieresis" horiz-adv-x="645" d="M624 314Q624 142 553 66T322 -11Q157 -11 89 62T21 314Q21 484 92 560T322 637Q487 637 555 565T624 314ZM209 314Q209 225 230 194T322 163Q393 163 414 193T436 314Q436 406 414 437T322
469Q252 469 231 438T209 314ZM489 789V669H344V789H489ZM299 789V669H154V789H299Z" />
<glyph unicode="&#xd7;" glyph-name="multiply" horiz-adv-x="500" d="M28 433L139 544L252 432L364 544L472 437L359 324L474 209L362 99L248 213L135 100L27 207L141 321L28 433Z" />
<glyph unicode="&#xd8;" glyph-name="Oslash" horiz-adv-x="645" d="M134 -75L36 -10L86 65Q53 103 37 163T21 314Q21 484 92 560T322 637Q361 637 394 634T455 622L511 707L610 643L557 563Q591 526 607 466T624 314Q624 142 553 66T322 -11Q282 -11 249 -7T187
5L134 -75ZM209 314Q209 225 230 194T322 163Q393 163 414 193T436 314Q436 406 414 437T322 469Q252 469 231 438T209 314Z" />
<glyph unicode="&#xd9;" glyph-name="Ugrave" horiz-adv-x="622" d="M403 270V627H589V269Q589 130 520 60T313 -11Q167 -11 101 55T34 269V627H219V270Q219 207 238 185T312 163Q365 163 384 185T403 270ZM279 659L127 785H312L417 659H279Z" />
<glyph unicode="&#xda;" glyph-name="Uacute" horiz-adv-x="622" d="M403 270V627H589V269Q589 130 520 60T313 -11Q167 -11 101 55T34 269V627H219V270Q219 207 238 185T312 163Q365 163 384 185T403 270ZM311 785H497L344 659H207L311 785Z" />
<glyph unicode="&#xdb;" glyph-name="Ucircumflex" horiz-adv-x="622" d="M403 270V627H589V269Q589 130 520 60T313 -11Q167 -11 101 55T34 269V627H219V270Q219 207 238 185T312 163Q365 163 384 185T403 270ZM496 659H366L311 708L257 659H127L234 785H389L496 659Z" />
<glyph unicode="&#xdc;" glyph-name="Udieresis" horiz-adv-x="622" d="M403 270V627H589V269Q589 130 520 60T313 -11Q167 -11 101 55T34 269V627H219V270Q219 207 238 185T312 163Q365 163 384 185T403 270ZM478 779V659H333V779H478ZM288 779V659H143V779H288Z" />
<glyph unicode="&#xdd;" glyph-name="Yacute" horiz-adv-x="611" d="M423 627H613L400 224V0H214V224L-5 627H206L310 390L423 627ZM309 785H495L342 659H205L309 785Z" />
<glyph unicode="&#xde;" glyph-name="Thorn" horiz-adv-x="568" d="M224 85V0H39V627H224V547H274Q425 547 487 495T550 320Q550 199 484 142T277 85H224ZM361 317Q361 351 344 365T283 379H224V247H283Q327 247 344 263T361 317Z" />
<glyph unicode="&#xdf;" glyph-name="germandbls" horiz-adv-x="590" d="M257 677Q368 677 422 642T476 533Q476 521 474 503T469 470L447 342L486 332Q534 321 553 286T572 176Q572 83 530 37T403 -10Q369 -10 336 -7T275 3V155Q299 151 322 149T365 147Q385
147 394 155T403 182Q403 197 399 203T381 212L265 239L297 464Q299 480 299 483T300 490Q300 506 290 514T258 522Q235 522 225 513T214 481V0H34V484Q34 579 91 628T257 677Z" />
<glyph unicode="&#xe0;" glyph-name="agrave" horiz-adv-x="492" d="M151 -11Q79 -11 46 27T13 146Q13 226 54 260T193 294Q216 294 239 292T281 287V312Q281 332 262 340T200 349Q159 349 126 347T58 339V486Q95 495 147 499T268 504Q362 504 411 463T461 341V0H291L286
39H283Q253 14 220 2T151 -11ZM222 192Q196 192 186 185T175 157Q175 137 183 130T213 122Q230 122 248 125T281 135V188Q267 190 253 191T222 192ZM221 542L67 678H252L359 542H221Z" />
<glyph unicode="&#xe1;" glyph-name="aacute" horiz-adv-x="492" d="M151 -11Q79 -11 46 27T13 146Q13 226 54 260T193 294Q216 294 239 292T281 287V312Q281 332 262 340T200 349Q159 349 126 347T58 339V486Q95 495 147 499T268 504Q362 504 411 463T461 341V0H291L286
39H283Q253 14 220 2T151 -11ZM222 192Q196 192 186 185T175 157Q175 137 183 130T213 122Q230 122 248 125T281 135V188Q267 190 253 191T222 192ZM255 678H441L286 542H149L255 678Z" />
<glyph unicode="&#xe2;" glyph-name="acircumflex" horiz-adv-x="492" d="M151 -11Q79 -11 46 27T13 146Q13 226 54 260T193 294Q216 294 239 292T281 287V312Q281 332 262 340T200 349Q159 349 126 347T58 339V486Q95 495 147 499T268 504Q362 504 411 463T461
341V0H291L286 39H283Q253 14 220 2T151 -11ZM222 192Q196 192 186 185T175 157Q175 137 183 130T213 122Q230 122 248 125T281 135V188Q267 190 253 191T222 192ZM439 542H309L254 597L200 542H70L177 678H332L439 542Z" />
<glyph unicode="&#xe3;" glyph-name="atilde" horiz-adv-x="492" d="M151 -11Q79 -11 46 27T13 146Q13 226 54 260T193 294Q216 294 239 292T281 287V312Q281 332 262 340T200 349Q159 349 126 347T58 339V486Q95 495 147 499T268 504Q362 504 411 463T461 341V0H291L286
39H283Q253 14 220 2T151 -11ZM222 192Q196 192 186 185T175 157Q175 137 183 130T213 122Q230 122 248 125T281 135V188Q267 190 253 191T222 192ZM315 679H407Q407 612 386 575T323 538Q309 538 293 543T246 566Q229 576 222 579T210 582Q201 582 197 573T193
542H100Q100 609 121 646T184 683Q198 683 214 678T259 657Q277 648 284 645T297 642Q306 642 310 651T315 679Z" />
<glyph unicode="&#xe4;" glyph-name="adieresis" horiz-adv-x="492" d="M151 -11Q79 -11 46 27T13 146Q13 226 54 260T193 294Q216 294 239 292T281 287V312Q281 332 262 340T200 349Q159 349 126 347T58 339V486Q95 495 147 499T268 504Q362 504 411 463T461
341V0H291L286 39H283Q253 14 220 2T151 -11ZM222 192Q196 192 186 185T175 157Q175 137 183 130T213 122Q230 122 248 125T281 135V188Q267 190 253 191T222 192ZM420 674V542H275V674H420ZM230 674V542H85V674H230Z" />
<glyph unicode="&#xe5;" glyph-name="aring" horiz-adv-x="492" d="M151 -11Q79 -11 46 27T13 146Q13 226 54 260T193 294Q216 294 239 292T281 287V312Q281 332 262 340T200 349Q159 349 126 347T58 339V486Q95 495 147 499T268 504Q362 504 411 463T461 341V0H291L286
39H283Q253 14 220 2T151 -11ZM222 192Q196 192 186 185T175 157Q175 137 183 130T213 122Q230 122 248 125T281 135V188Q267 190 253 191T222 192ZM376 643Q376 593 343 564T254 534Q198 534 166 563T133 643Q133 693 165 721T254 749Q311 749 343 721T376 643ZM216
643Q216 629 226 621T254 612Q273 612 283 620T294 643Q294 657 284 665T254 674Q237 674 227 666T216 643Z" />
<glyph unicode="&#xe6;" glyph-name="ae" horiz-adv-x="722" d="M156 -11Q81 -11 47 26T13 146Q13 224 55 258T196 292Q210 292 233 291T272 289V312Q272 332 255 340T197 349Q156 349 124 347T58 339V486Q96 495 143 499T244 504Q283 504 313 496T365 470Q391
487 424 495T497 504Q607 504 654 458T702 299Q702 265 701 245T697 198H435Q437 166 452 155T508 143Q553 143 601 148T681 161V24Q654 10 600 0T488 -11Q429 -11 389 4T322 51Q288 22 245 6T156 -11ZM542 318Q540 345 530 353T490 362Q459 362 447 348T435 295H543Q543
304 543 309T542 318ZM221 190Q195 190 185 183T175 156Q175 137 183 130T212 122Q229 122 247 126T282 139Q279 155 278 166T275 188Q265 189 252 189T221 190Z" />
<glyph unicode="&#xe7;" glyph-name="ccedilla" horiz-adv-x="427" d="M375 -109Q375 -152 345 -173T255 -195Q226 -195 195 -192T154 -184V-112Q166 -115 189 -118T229 -121Q246 -121 253 -117T260 -100Q260 -90 251 -85T220 -80Q211 -80 196 -81T171 -82L186
-10Q95 -3 58 55T20 247Q20 391 76 447T276 504Q306 504 331 503T398 496V338Q397 338 358 340T278 342Q227 342 214 326T200 247Q200 190 212 174T264 157Q301 157 341 162T411 174V26Q396 16 365 8T295 -6L289 -38Q328 -38 351 -57T375 -109Z" />
<glyph unicode="&#xe8;" glyph-name="egrave" horiz-adv-x="496" d="M455 161V24Q427 10 369 0T247 -11Q126 -11 73 49T19 246Q19 379 76 441T256 504Q374 504 425 458T476 299Q476 265 475 245T471 198H197Q198 166 215 155T276 143Q324 143 374 148T455 161ZM258
362Q224 362 211 349T197 295H316V318Q314 344 303 353T258 362ZM223 542L69 678H254L361 542H223Z" />
<glyph unicode="&#xe9;" glyph-name="eacute" horiz-adv-x="496" d="M455 161V24Q427 10 369 0T247 -11Q126 -11 73 49T19 246Q19 379 76 441T256 504Q374 504 425 458T476 299Q476 265 475 245T471 198H197Q198 166 215 155T276 143Q324 143 374 148T455 161ZM258
362Q224 362 211 349T197 295H316V318Q314 344 303 353T258 362ZM257 678H443L288 542H151L257 678Z" />
<glyph unicode="&#xea;" glyph-name="ecircumflex" horiz-adv-x="496" d="M455 161V24Q427 10 369 0T247 -11Q126 -11 73 49T19 246Q19 379 76 441T256 504Q374 504 425 458T476 299Q476 265 475 245T471 198H197Q198 166 215 155T276 143Q324 143 374 148T455
161ZM258 362Q224 362 211 349T197 295H316V318Q314 344 303 353T258 362ZM441 542H311L256 597L202 542H72L179 678H334L441 542Z" />
<glyph unicode="&#xeb;" glyph-name="edieresis" horiz-adv-x="496" d="M455 161V24Q427 10 369 0T247 -11Q126 -11 73 49T19 246Q19 379 76 441T256 504Q374 504 425 458T476 299Q476 265 475 245T471 198H197Q198 166 215 155T276 143Q324 143 374 148T455 161ZM258
362Q224 362 211 349T197 295H316V318Q314 344 303 353T258 362ZM423 674V542H278V674H423ZM233 674V542H88V674H233Z" />
<glyph unicode="&#xec;" glyph-name="igrave" horiz-adv-x="247" d="M214 0H34V494H214V0ZM347 792L193 928H378L485 792H347Z" />
<glyph unicode="&#xed;" glyph-name="iacute" horiz-adv-x="247" d="M214 0H34V494H214V0ZM381 928H567L412 792H275L381 928Z" />
<glyph unicode="&#xee;" glyph-name="icircumflex" horiz-adv-x="247" d="M214 0H34V494H214V0ZM564 792H434L379 847L325 792H195L302 928H457L564 792Z" />
<glyph unicode="&#xef;" glyph-name="idieresis" horiz-adv-x="247" d="M214 0H34V494H214V0ZM546 924V792H401V924H546ZM356 924V792H211V924H356Z" />
<glyph unicode="&#xf0;" glyph-name="eth" horiz-adv-x="541" d="M520 237Q520 104 462 47T269 -11Q135 -11 77 44T19 228Q19 357 76 412T269 467Q277 467 286 467T312 465Q309 475 305 487T292 515L141 481V579L238 601Q220 625 209 639T186 665H376Q378 663
380 660T388 651Q393 645 395 642T400 637L522 664V566L456 551Q489 488 504 411T520 237ZM199 231Q199 185 212 171T269 156Q313 156 326 170T340 231Q340 276 327 290T269 305Q225 305 212 291T199 231Z" />
<glyph unicode="&#xf1;" glyph-name="ntilde" horiz-adv-x="541" d="M214 0H34V494H189L196 442H200Q230 474 266 489T351 504Q429 504 469 463T509 342V0H329V305Q329 323 317 332T279 342Q262 342 246 339T214 328V0ZM333 679H425Q425 612 404 575T341 538Q327
538 311 543T264 566Q247 576 240 579T228 582Q219 582 215 573T211 542H118Q118 609 139 646T202 683Q216 683 232 678T277 657Q295 648 302 645T315 642Q324 642 328 651T333 679Z" />
<glyph unicode="&#xf2;" glyph-name="ograve" horiz-adv-x="539" d="M520 247Q520 108 462 49T269 -11Q136 -11 78 49T19 247Q19 385 76 444T269 504Q403 504 461 444T520 247ZM199 249Q199 191 212 174T269 156Q314 156 327 173T340 249Q340 307 327 324T269
342Q225 342 212 325T199 249ZM237 542L83 678H268L375 542H237Z" />
<glyph unicode="&#xf3;" glyph-name="oacute" horiz-adv-x="539" d="M520 247Q520 108 462 49T269 -11Q136 -11 78 49T19 247Q19 385 76 444T269 504Q403 504 461 444T520 247ZM199 249Q199 191 212 174T269 156Q314 156 327 173T340 249Q340 307 327 324T269
342Q225 342 212 325T199 249ZM270 678H456L301 542H164L270 678Z" />
<glyph unicode="&#xf4;" glyph-name="ocircumflex" horiz-adv-x="539" d="M520 247Q520 108 462 49T269 -11Q136 -11 78 49T19 247Q19 385 76 444T269 504Q403 504 461 444T520 247ZM199 249Q199 191 212 174T269 156Q314 156 327 173T340 249Q340 307 327 324T269
342Q225 342 212 325T199 249ZM454 542H324L269 597L215 542H85L192 678H347L454 542Z" />
<glyph unicode="&#xf5;" glyph-name="otilde" horiz-adv-x="539" d="M520 247Q520 108 462 49T269 -11Q136 -11 78 49T19 247Q19 385 76 444T269 504Q403 504 461 444T520 247ZM199 249Q199 191 212 174T269 156Q314 156 327 173T340 249Q340 307 327 324T269
342Q225 342 212 325T199 249ZM330 679H422Q422 612 401 575T338 538Q324 538 308 543T261 566Q244 576 237 579T225 582Q216 582 212 573T208 542H115Q115 609 136 646T199 683Q213 683 229 678T274 657Q292 648 299 645T312 642Q321 642 325 651T330 679Z" />
<glyph unicode="&#xf6;" glyph-name="odieresis" horiz-adv-x="539" d="M520 247Q520 108 462 49T269 -11Q136 -11 78 49T19 247Q19 385 76 444T269 504Q403 504 461 444T520 247ZM199 249Q199 191 212 174T269 156Q314 156 327 173T340 249Q340 307 327 324T269
342Q225 342 212 325T199 249ZM436 674V542H291V674H436ZM246 674V542H101V674H246Z" />
<glyph unicode="&#xf7;" glyph-name="divide" horiz-adv-x="500" d="M336 439H170V594H336V439ZM463 398V246H37V398H463ZM336 50H170V205H336V50Z" />
<glyph unicode="&#xf8;" glyph-name="oslash" horiz-adv-x="539" d="M114 -87L16 -20L70 58Q44 89 32 135T19 247Q19 385 76 444T269 504Q300 504 325 502T370 493L427 578L525 512L471 434Q496 403 508 357T520 247Q520 108 462 49T269 -11Q241 -11 217 -9T173
-1L114 -87ZM199 249Q199 191 212 174T269 156Q314 156 327 173T340 249Q340 307 327 324T269 342Q225 342 212 325T199 249Z" />
<glyph unicode="&#xf9;" glyph-name="ugrave" horiz-adv-x="527" d="M193 -10Q112 -10 72 31T32 155V494H212V192Q212 173 222 165T256 157Q270 157 284 159T314 167V494H494V0H332L326 39Q296 16 261 3T193 -10ZM234 792L80 928H265L372 792H234Z" />
<glyph unicode="&#xfa;" glyph-name="uacute" horiz-adv-x="527" d="M193 -10Q112 -10 72 31T32 155V494H212V192Q212 173 222 165T256 157Q270 157 284 159T314 167V494H494V0H332L326 39Q296 16 261 3T193 -10ZM268 928H454L299 792H162L268 928Z" />
<glyph unicode="&#xfb;" glyph-name="ucircumflex" horiz-adv-x="527" d="M193 -10Q112 -10 72 31T32 155V494H212V192Q212 173 222 165T256 157Q270 157 284 159T314 167V494H494V0H332L326 39Q296 16 261 3T193 -10ZM452 792H322L267 847L213 792H83L190 928H345L452
792Z" />
<glyph unicode="&#xfc;" glyph-name="udieresis" horiz-adv-x="527" d="M193 -10Q112 -10 72 31T32 155V494H212V192Q212 173 222 165T256 157Q270 157 284 159T314 167V494H494V0H332L326 39Q296 16 261 3T193 -10ZM433 924V792H288V924H433ZM243 924V792H98V924H243Z" />
<glyph unicode="&#xfd;" glyph-name="yacute" horiz-adv-x="523" d="M112 -14Q142 -14 155 -8T173 17L-4 494H195L266 186L334 494H526L361 0Q332 -86 283 -124T150 -162Q127 -162 103 -160T61 -154V-11Q69 -12 82 -13T112 -14ZM268 928H454L299 792H162L268 928Z" />
<glyph unicode="&#xfe;" glyph-name="thorn" horiz-adv-x="544" d="M214 -152H34V665H214V458Q240 481 273 492T347 504Q443 504 483 445T524 247Q524 113 473 52T308 -10Q282 -10 258 -7T214 2V-152ZM344 247Q344 304 332 323T280 342Q262 342 246 339T214 328V164Q225
160 240 158T275 156Q319 156 331 173T344 247Z" />
<glyph unicode="&#xff;" glyph-name="ydieresis" horiz-adv-x="523" d="M112 -14Q142 -14 155 -8T173 17L-4 494H195L266 186L334 494H526L361 0Q332 -86 283 -124T150 -162Q127 -162 103 -160T61 -154V-11Q69 -12 82 -13T112 -14ZM434 924V792H289V924H434ZM244
924V792H99V924H244Z" />
<glyph unicode="&#x2013;" glyph-name="endash" horiz-adv-x="461" d="M435 386V251H26V386H435Z" />
<glyph unicode="&#x2014;" glyph-name="emdash" horiz-adv-x="741" d="M715 386V251H26V386H715Z" />
<glyph unicode="&#x2018;" glyph-name="quoteleft" horiz-adv-x="195" d="M11 381L43 569Q47 596 66 611T115 627H169V381H11Z" />
<glyph unicode="&#x2019;" glyph-name="quoteright" horiz-adv-x="191" d="M184 627L152 439Q148 412 129 397T80 381H26V627H184Z" />
<glyph unicode="&#x201a;" glyph-name="quotesinglbase" horiz-adv-x="192" d="M179 116L147 -72Q143 -99 124 -114T75 -130H21V116H179Z" />
<glyph unicode="&#x201c;" glyph-name="quotedblleft" horiz-adv-x="388" d="M11 381L43 569Q47 596 66 611T115 627H169V381H11ZM204 381L236 569Q240 596 259 611T308 627H362V381H204Z" />
<glyph unicode="&#x201d;" glyph-name="quotedblright" horiz-adv-x="384" d="M377 627L345 439Q341 412 322 397T273 381H219V627H377ZM184 627L152 439Q148 412 129 397T80 381H26V627H184Z" />
<glyph unicode="&#x201e;" glyph-name="quotedblbase" horiz-adv-x="385" d="M372 116L340 -72Q336 -99 317 -114T268 -130H214V116H372ZM179 116L147 -72Q143 -99 124 -114T75 -130H21V116H179Z" />
<glyph unicode="&#x2022;" glyph-name="bullet" horiz-adv-x="316" d="M270 206H50V424H270V206Z" />
<glyph unicode="&#x2039;" glyph-name="guilsinglleft" horiz-adv-x="332" d="M320 64H148L11 281L148 494H320L185 282L320 64Z" />
<glyph unicode="&#x203a;" glyph-name="guilsinglright" horiz-adv-x="332" d="M321 281L184 64H12L147 282L12 494H184L321 281Z" />
</font>
</defs>
</svg>
