<?xml version="1.0" standalone="no"?>
<!DOCTYPE svg PUBLIC "-//W3C//DTD SVG 1.1//EN" "http://www.w3.org/Graphics/SVG/1.1/DTD/svg11.dtd">
<svg xmlns="http://www.w3.org/2000/svg">
<defs >
<font id="Blinker" horiz-adv-x="479" ><font-face
    font-family="Blinker ExtraLight"
    units-per-em="1000"
    panose-1="2 0 0 0 0 0 0 0 0 0"
    ascent="960"
    descent="-240"
    alphabetic="0" />
<glyph unicode=" " glyph-name="space" horiz-adv-x="178" />
<glyph unicode="!" glyph-name="exclam" horiz-adv-x="214" d="M71 627H142L133 163H80L71 627ZM140 66V0H74V66H140Z" />
<glyph unicode="&quot;" glyph-name="quotedbl" horiz-adv-x="311" d="M59 627H105V399H59V627ZM206 627H252V399H206V627Z" />
<glyph unicode="#" glyph-name="numbersign" horiz-adv-x="580" d="M550 493V448H456L415 189H515V144H407L383 0H336L359 144H168L145 0H96L120 144H31V189H129L171 448H66V493H179L200 627H248L226 493H417L439 627H486L465 493H550ZM367 189L409 448H219L176 189H367Z" />
<glyph unicode="$" glyph-name="dollar" horiz-adv-x="484" d="M268 -6V-97H212V-6Q162 -4 117 4T44 22V83Q97 67 145 60T241 53Q318 53 350 80T383 176Q383 220 367 239T297 273L160 311Q97 328 71 361T44 454Q44 538 85 582T212 635V724H268V637Q304 636 336
632T404 619V560Q363 570 327 574T253 578Q176 578 142 550T108 459Q108 421 124 402T182 370L319 331Q400 309 424 277T449 177Q449 86 405 43T268 -6Z" />
<glyph unicode="%" glyph-name="percent" horiz-adv-x="638" d="M276 476Q276 391 248 356T154 320Q88 320 60 355T32 476Q32 561 60 596T154 632Q220 632 248 597T276 476ZM491 627L191 0H142L442 627H491ZM229 476Q229 541 213 566T154 592Q113 592 97 567T80
476Q80 412 96 387T154 361Q196 361 212 386T229 476ZM605 152Q605 67 578 32T484 -4Q417 -4 390 31T362 152Q362 237 389 272T484 308Q550 308 577 273T605 152ZM558 152Q558 216 542 242T484 268Q442 268 426 242T409 152Q409 88 425 63T484 38Q525 38 541 63T558
152Z" />
<glyph unicode="&amp;" glyph-name="ampersand" horiz-adv-x="719" d="M326 53Q378 53 417 60T480 81V341H699V287H541V45Q504 19 450 6T326 -7Q183 -7 117 73T50 328Q50 485 116 561T317 637Q410 637 461 594T513 473Q513 363 422 315T118 264Q127 152 176 103T326
53ZM313 578Q208 578 162 520T115 332V319Q295 321 373 355T452 469Q452 520 416 549T313 578Z" />
<glyph unicode="&apos;" glyph-name="quotesingle" horiz-adv-x="168" d="M59 627H109V399H59V627Z" />
<glyph unicode="(" glyph-name="parenleft" horiz-adv-x="217" d="M106 313Q106 203 125 104T182 -66L139 -80Q96 -2 73 99T50 313Q50 430 72 530T139 707L181 693Q145 623 126 525T106 313Z" />
<glyph unicode=")" glyph-name="parenright" horiz-adv-x="217" d="M111 313Q111 426 92 524T36 693L78 707Q122 631 144 531T167 313Q167 200 144 99T78 -80L35 -66Q72 5 91 104T111 313Z" />
<glyph unicode="*" glyph-name="asterisk" horiz-adv-x="387" d="M225 455L308 346L268 317L193 430L116 319L76 348L161 454L31 494L48 541L173 493L169 627H218L214 493L341 538L356 491L225 455Z" />
<glyph unicode="+" glyph-name="plus" horiz-adv-x="500" d="M463 352V292H281V110H221V292H37V352H221V532H281V352H463Z" />
<glyph unicode="," glyph-name="comma" horiz-adv-x="162" d="M116 71L93 -77Q91 -90 84 -96T64 -103H46L52 71H116Z" />
<glyph unicode="-" glyph-name="hyphen" horiz-adv-x="434" d="M377 343V293H58V343H377Z" />
<glyph unicode="." glyph-name="period" horiz-adv-x="160" d="M112 0H48V67H112V0Z" />
<glyph unicode="/" glyph-name="slash" horiz-adv-x="303" d="M280 707L77 -80H23L227 707H280Z" />
<glyph unicode="0" glyph-name="zero" horiz-adv-x="574" d="M519 315Q519 137 468 65T288 -7Q205 -7 159 14T88 84Q71 120 63 175T55 315Q55 494 106 565T288 637Q371 637 417 616T486 545Q503 509 511 454T519 315ZM434 497Q419 541 386 559T288 578Q191 578
156 523T120 315Q120 248 125 205T140 133Q156 90 189 72T288 53Q384 53 419 108T454 315Q454 381 450 424T434 497Z" />
<glyph unicode="1" glyph-name="one" horiz-adv-x="364" d="M277 0H213V572L17 547V603L277 637V0Z" />
<glyph unicode="2" glyph-name="two" horiz-adv-x="451" d="M408 61V0H30V61L261 322Q301 369 317 404T333 476Q333 525 305 551T224 578Q185 578 136 572T61 557V614Q99 625 142 631T232 637Q312 637 354 597T397 482Q397 433 378 390T313 294L106 61H408Z" />
<glyph unicode="3" glyph-name="three" horiz-adv-x="461" d="M384 479Q384 421 357 383T278 330V328Q343 324 377 284T412 173Q412 85 359 39T205 -7Q149 -7 108 -3T37 12V70Q77 60 112 57T196 53Q274 53 312 83T351 177Q351 238 317 266T210 294H114V350H191Q252
350 287 381T323 470Q323 527 295 552T206 578Q169 578 127 573T57 559V615Q95 626 135 631T219 637Q300 637 342 597T384 479Z" />
<glyph unicode="4" glyph-name="four" horiz-adv-x="519" d="M490 229V173H399V0H335V173H39V229L117 627H179L104 229H335V517H399V229H490Z" />
<glyph unicode="5" glyph-name="five" horiz-adv-x="460" d="M419 184Q419 87 370 40T216 -7Q159 -7 115 -2T44 12V71Q79 62 118 58T202 53Q285 53 320 83T355 185Q355 248 322 274T198 301Q162 301 133 298T74 289V627H379V568H138V350Q171 354 189 355T226 357Q329
357 374 316T419 184Z" />
<glyph unicode="6" glyph-name="six" horiz-adv-x="519" d="M269 -7Q152 -7 103 63T54 297Q54 481 116 559T323 637Q344 637 369 635T407 630V573Q382 576 363 577T323 578Q215 578 170 527T118 345Q168 374 213 386T309 398Q398 398 439 352T481 209Q481 107
425 50T269 -7ZM117 293V292Q117 161 150 107T267 53Q342 53 380 92T419 207Q419 281 389 312T284 343Q244 343 202 331T117 293Z" />
<glyph unicode="7" glyph-name="seven" horiz-adv-x="444" d="M418 627V569L114 0H42L349 568H32V627H418Z" />
<glyph unicode="8" glyph-name="eight" horiz-adv-x="528" d="M476 167Q476 77 425 35T263 -7Q153 -7 103 33T52 160Q52 228 86 270T183 322Q124 331 94 369T64 474Q64 557 112 597T263 637Q368 637 416 599T465 478Q465 411 435 372T344 322Q408 314 442 274T476
167ZM407 468Q407 527 373 553T263 580Q189 580 156 553T122 466Q122 403 156 375T262 346Q337 346 372 375T407 468ZM416 174Q416 236 379 264T262 293Q185 293 149 263T113 169Q113 108 149 80T263 52Q343 52 379 81T416 174Z" />
<glyph unicode="9" glyph-name="nine" horiz-adv-x="516" d="M251 637Q368 637 414 569T461 333Q461 150 398 72T192 -7Q167 -7 142 -5T105 0V59Q124 56 146 55T192 53Q299 53 345 105T396 288Q356 261 312 248T218 235Q126 235 83 281T39 427Q39 527 94 582T251
637ZM251 578Q178 578 140 540T102 430Q102 354 133 323T241 291Q281 291 320 303T397 340Q397 475 366 526T251 578Z" />
<glyph unicode=":" glyph-name="colon" horiz-adv-x="188" d="M126 427H62V494H126V427ZM126 0H62V67H126V0Z" />
<glyph unicode=";" glyph-name="semicolon" horiz-adv-x="200" d="M134 71L111 -77Q109 -90 102 -96T82 -103H64L70 71H134ZM134 427H70V494H134V427Z" />
<glyph unicode="&lt;" glyph-name="less" horiz-adv-x="500" d="M463 146V84L37 278V347L463 540V479L83 313L463 146Z" />
<glyph unicode="=" glyph-name="equal" horiz-adv-x="500" d="M463 493V433H37V493H463ZM463 447V387H37V447H463Z" />
<glyph unicode="&gt;" glyph-name="greater" horiz-adv-x="500" d="M463 278L37 84V146L417 313L37 479V540L463 347V278Z" />
<glyph unicode="?" glyph-name="question" horiz-adv-x="386" d="M186 637Q267 637 312 602T357 503Q357 443 317 393T190 296V164H132V323Q219 365 257 405T296 490Q296 533 265 556T178 579Q140 579 99 572T24 551V609Q60 623 100 630T186 637ZM193 66V0H127V66H193Z" />
<glyph unicode="@" glyph-name="at" horiz-adv-x="659" d="M304 72Q256 72 233 97T209 174Q209 226 237 248T332 270Q354 270 377 268T419 262V291Q419 332 400 349T340 367Q311 367 288 365T242 356V400Q267 407 291 409T350 412Q409 412 437 385T465 296V155Q465
135 471 126T491 117Q526 117 547 162T568 284Q568 397 514 453T350 510Q217 510 159 446T101 236Q101 99 163 36T364 -27Q414 -27 457 -17T537 12V-36Q503 -55 456 -65T354 -76Q197 -76 123 0T48 236Q48 398 122 477T350 557Q481 557 549 488T618 289Q618 188
583 130T484 72Q462 72 448 83T427 114Q405 94 373 83T304 72ZM338 233Q291 233 274 221T256 177Q256 144 270 130T318 116Q349 116 375 124T419 148V226Q385 231 370 232T338 233Z" />
<glyph unicode="A" glyph-name="A" horiz-adv-x="596" d="M81 0H13L265 627H332L583 0H514L450 165H146L81 0ZM297 570Q289 545 279 515T246 422L168 222H428L350 422Q335 461 322 498T297 570Z" />
<glyph unicode="B" glyph-name="B" horiz-adv-x="562" d="M517 179Q517 83 466 42T301 0H79V627H300Q403 627 446 593T490 474Q490 412 467 378T391 333Q454 326 485 288T517 179ZM430 465Q430 524 402 547T301 570H143V351H301Q369 351 399 378T430 465ZM455
182Q455 246 421 271T301 296H143V58H301Q385 58 420 85T455 182Z" />
<glyph unicode="C" glyph-name="C" horiz-adv-x="523" d="M323 53Q364 53 408 63T494 90V32Q439 10 397 2T310 -7Q168 -7 109 67T50 315Q50 482 117 559T333 637Q379 637 415 635T480 628V570Q446 574 411 576T333 578Q214 578 165 518T116 315Q116 169 160 111T323 53Z" />
<glyph unicode="D" glyph-name="D" horiz-adv-x="609" d="M250 0H79V627H250Q347 627 403 612T494 561Q527 526 542 467T558 314Q558 151 485 76T250 0ZM445 514Q419 543 374 555T250 568H143V61H250Q383 61 437 119T492 314Q492 391 481 438T445 514Z" />
<glyph unicode="E" glyph-name="E" horiz-adv-x="528" d="M490 61V0H79V627H481V568H143V350H444V293H143V61H490Z" />
<glyph unicode="F" glyph-name="F" horiz-adv-x="502" d="M143 268V0H79V627H475V568H143V325H438V268H143Z" />
<glyph unicode="G" glyph-name="G" horiz-adv-x="603" d="M491 266H312V323H552V31Q524 18 452 6T321 -7Q168 -7 110 65T51 314Q51 479 121 558T341 637Q393 637 440 635T518 627V570Q478 574 432 576T341 578Q220 578 169 517T117 314Q117 242 125 195T152 118Q174
82 215 67T331 51Q364 51 409 57T491 72V266Z" />
<glyph unicode="H" glyph-name="H" horiz-adv-x="647" d="M143 0H79V627H143V348H503V627H568V0H503V288H143V0Z" />
<glyph unicode="I" glyph-name="I" horiz-adv-x="222" d="M143 627V0H79V627H143Z" />
<glyph unicode="J" glyph-name="J" horiz-adv-x="434" d="M296 231V627H360V227Q360 105 307 49T137 -7Q102 -7 73 -4T20 6V66Q47 59 72 56T127 53Q220 53 258 93T296 231Z" />
<glyph unicode="K" glyph-name="K" horiz-adv-x="575" d="M293 320L568 0H483L237 290H143V0H79V627H143V347H237L477 627H557L293 320Z" />
<glyph unicode="L" glyph-name="L" horiz-adv-x="477" d="M458 61V0H79V627H143V61H458Z" />
<glyph unicode="M" glyph-name="M" horiz-adv-x="738" d="M659 627V0H598V529L398 127H340L140 530V0H79V627H161L370 204L579 627H659Z" />
<glyph unicode="N" glyph-name="N" horiz-adv-x="662" d="M583 627V0H515L140 525V0H79V627H147L522 97V627H583Z" />
<glyph unicode="O" glyph-name="O" horiz-adv-x="653" d="M602 315Q602 145 538 69T327 -7Q168 -7 110 63T51 315Q51 485 115 561T327 637Q485 637 543 567T602 315ZM149 119Q171 84 211 69T327 53Q445 53 491 112T537 315Q537 388 529 435T504 511Q483 547 444
562T327 578Q208 578 162 519T116 315Q116 242 124 195T149 119Z" />
<glyph unicode="P" glyph-name="P" horiz-adv-x="566" d="M143 211V0H79V627H287Q416 627 473 580T530 426Q530 317 471 264T290 211H143ZM465 426Q465 502 424 535T287 568H143V268H287Q381 268 423 305T465 426Z" />
<glyph unicode="Q" glyph-name="Q" horiz-adv-x="653" d="M327 -7Q168 -7 110 63T51 315Q51 485 115 561T327 637Q485 637 543 567T602 315Q602 190 569 118T464 16L576 -128H499L402 -1Q385 -4 366 -5T327 -7ZM149 119Q171 84 211 69T327 53Q445 53 491 112T537
315Q537 388 529 435T504 511Q483 547 444 562T327 578Q208 578 162 519T116 315Q116 242 124 195T149 119Z" />
<glyph unicode="R" glyph-name="R" horiz-adv-x="579" d="M143 232V0H79V627H287Q416 627 473 582T530 436Q530 353 492 304T377 240L545 0H468L309 232H143ZM465 436Q465 507 424 537T287 568H143V289H287Q380 289 422 324T465 436Z" />
<glyph unicode="S" glyph-name="S" horiz-adv-x="509" d="M323 272L164 310Q102 325 75 360T48 458Q48 551 101 594T269 637Q317 637 355 633T425 619V560Q392 569 352 573T268 578Q182 578 147 553T112 463Q112 421 129 400T185 370L344 331Q421 313 447 280T473
177Q473 76 421 35T255 -7Q194 -7 137 1T47 22V83Q97 68 149 61T255 53Q339 53 373 78T407 176Q407 221 390 241T323 272Z" />
<glyph unicode="T" glyph-name="T" horiz-adv-x="537" d="M520 627V568H301V0H237V568H18V627H520Z" />
<glyph unicode="U" glyph-name="U" horiz-adv-x="637" d="M499 246V627H563V246Q563 115 503 54T316 -7Q189 -7 131 53T73 246V627H137V246Q137 140 178 97T316 53Q416 53 457 96T499 246Z" />
<glyph unicode="V" glyph-name="V" horiz-adv-x="581" d="M253 0L13 627H84L242 205Q258 158 270 121T292 50Q304 92 317 133T341 205L499 627H569L328 0H253Z" />
<glyph unicode="W" glyph-name="W" horiz-adv-x="858" d="M195 0L18 627H88L203 205Q207 191 214 155T233 60Q235 68 247 123T267 205L396 627H464L593 205Q599 184 606 155T627 62Q630 75 640 127T658 205L772 627H840L663 0H591L471 379Q460 416 450 456T429
547Q418 496 408 456T387 379L268 0H195Z" />
<glyph unicode="X" glyph-name="X" horiz-adv-x="542" d="M307 325L537 0H458L266 274L82 0H10L230 322L18 627H96L269 370L446 627H516L307 325Z" />
<glyph unicode="Y" glyph-name="Y" horiz-adv-x="571" d="M489 627H556L319 241V0H254V241L11 627H84L288 299L489 627Z" />
<glyph unicode="Z" glyph-name="Z" horiz-adv-x="508" d="M484 61V0H25V61L393 568H54V627H465V568L99 61H484Z" />
<glyph unicode="[" glyph-name="bracketleft" horiz-adv-x="270" d="M244 -34V-82H77V707H244V659H129V-34H244Z" />
<glyph unicode="\" glyph-name="backslash" horiz-adv-x="303" d="M76 707L279 -80H226L22 707H76Z" />
<glyph unicode="]" glyph-name="bracketright" horiz-adv-x="270" d="M193 -82H26V-34H141V659H26V707H193V-82Z" />
<glyph unicode="^" glyph-name="asciicircum" horiz-adv-x="500" d="M146 365H85L221 627H279L414 365H353L250 573L146 365Z" />
<glyph unicode="_" glyph-name="underscore" d="M444 -39V-89H35V-39H444Z" />
<glyph unicode="`" glyph-name="grave" horiz-adv-x="283" d="M175 566L50 685H131L233 566H175Z" />
<glyph unicode="a" glyph-name="a" horiz-adv-x="495" d="M183 -7Q107 -7 72 29T36 143Q36 221 79 254T225 287Q262 287 297 284T365 275V327Q365 393 335 420T237 448Q191 448 157 444T86 431V486Q128 496 166 500T256 504Q344 504 385 463T427 332V0H371L368
49H366Q335 24 285 9T183 -7ZM232 236Q156 236 126 216T95 147Q95 95 120 72T201 49Q246 49 291 62T365 96V224Q332 230 300 233T232 236Z" />
<glyph unicode="b" glyph-name="b" horiz-adv-x="541" d="M302 504Q405 504 449 445T493 250Q493 112 439 53T257 -7Q205 -7 158 -1T71 18V665H133V457Q169 480 212 492T302 504ZM431 250Q431 359 399 403T281 448Q240 448 202 437T133 406V66Q157 58 187 54T254
50Q356 50 393 94T431 250Z" />
<glyph unicode="c" glyph-name="c" horiz-adv-x="444" d="M413 83V30Q387 14 339 4T238 -7Q133 -7 91 49T49 248Q49 386 103 445T288 504Q317 504 340 503T400 496V440Q351 446 332 447T288 448Q187 448 149 404T111 248Q111 134 141 92T252 50Q295 50 339 59T413 83Z" />
<glyph unicode="d" glyph-name="d" horiz-adv-x="542" d="M408 665H470V0H417L412 47H408Q378 20 337 7T239 -7Q137 -7 93 53T48 248Q48 385 101 444T281 504Q318 504 350 498T408 481V665ZM287 448Q185 448 148 404T110 248Q110 139 142 95T260 50Q302 50 339
61T408 94V426Q380 438 351 443T287 448Z" />
<glyph unicode="e" glyph-name="e" horiz-adv-x="500" d="M434 80V27Q407 13 359 3T261 -7Q147 -7 98 53T48 251Q48 384 98 444T262 504Q365 504 410 456T455 299Q455 282 454 266T450 228H111Q112 133 148 92T271 50Q313 50 358 58T434 80ZM398 307Q397 383 365
415T262 448Q180 448 146 410T111 281H396Q397 287 397 293T398 307Z" />
<glyph unicode="f" glyph-name="f" horiz-adv-x="350" d="M101 440H23V494H101V510Q101 595 141 635T266 675Q287 675 307 673T348 667V614Q336 617 315 618T273 620Q212 620 188 596T163 511V494H333V440H163V0H101V440Z" />
<glyph unicode="g" glyph-name="g" horiz-adv-x="538" d="M269 -162Q220 -162 178 -156T108 -138V-82Q130 -91 173 -97T261 -104Q342 -104 373 -71T405 48V82Q368 58 325 46T236 34Q136 34 93 89T49 269Q49 396 103 450T288 504Q333 504 382 499T467 485V64Q467
-62 423 -112T269 -162ZM288 448Q184 448 148 410T111 269Q111 171 142 132T256 92Q294 92 332 102T405 133V435Q379 441 349 444T288 448Z" />
<glyph unicode="h" glyph-name="h" horiz-adv-x="553" d="M134 0H72V665H134V451Q185 479 230 491T320 504Q401 504 443 463T485 342V0H423V335Q423 393 393 420T300 448Q260 448 218 437T134 403V0Z" />
<glyph unicode="i" glyph-name="i" horiz-adv-x="206" d="M137 596H69V665H137V596ZM134 0H72V494H134V0Z" />
<glyph unicode="j" glyph-name="j" horiz-adv-x="216" d="M147 596H79V665H147V596ZM-7 -162Q-25 -162 -41 -161T-80 -156V-101Q-64 -104 -51 -105T-25 -106Q32 -106 57 -79T82 11V494H144V5Q144 -78 106 -120T-7 -162Z" />
<glyph unicode="k" glyph-name="k" horiz-adv-x="487" d="M134 222V0H72V665H134V277H202L391 494H467L252 253L477 0H397L204 222H134Z" />
<glyph unicode="l" glyph-name="l" horiz-adv-x="206" d="M134 665V0H72V665H134Z" />
<glyph unicode="m" glyph-name="m" horiz-adv-x="805" d="M134 0H72V494H128L132 453H134Q182 481 218 492T292 504Q334 504 364 491T413 451H415Q460 478 503 491T593 504Q664 504 700 468T737 360V0H675V353Q675 402 649 425T568 448Q536 448 502 438T431 408Q434
396 435 384T436 360V0H374V353Q374 402 348 425T266 448Q238 448 207 438T134 404V0Z" />
<glyph unicode="n" glyph-name="n" horiz-adv-x="553" d="M134 0H72V494H125L129 446H132Q176 476 221 490T319 504Q401 504 443 463T485 342V0H423V335Q423 392 392 420T297 448Q258 448 217 436T134 398V0Z" />
<glyph unicode="o" glyph-name="o" horiz-adv-x="547" d="M497 248Q497 108 447 51T274 -7Q145 -7 97 47T49 248Q49 389 99 446T274 504Q402 504 449 450T497 248ZM111 249Q111 129 143 90T274 50Q368 50 401 92T435 249Q435 369 403 408T274 448Q179 448 145
407T111 249Z" />
<glyph unicode="p" glyph-name="p" horiz-adv-x="542" d="M134 -152H72V494H125L129 449H133Q167 476 210 490T303 504Q405 504 449 444T494 248Q494 112 441 53T262 -7Q223 -7 191 -2T134 15V-152ZM432 248Q432 358 400 403T282 448Q241 448 203 436T134 401V73Q159
61 189 56T255 50Q357 50 394 93T432 248Z" />
<glyph unicode="q" glyph-name="q" horiz-adv-x="542" d="M471 485V-152H409V40Q375 17 331 5T237 -7Q135 -7 92 53T48 248Q48 386 102 445T289 504Q337 504 386 499T471 485ZM289 448Q183 448 147 405T110 248Q110 139 141 95T258 50Q298 50 337 60T409 90V436Q379
442 349 445T289 448Z" />
<glyph unicode="r" glyph-name="r" horiz-adv-x="352" d="M134 0H72V494H128L132 450H135Q176 473 217 485T298 497Q315 497 321 497T331 496V436Q324 438 314 438T282 439Q244 439 206 429T134 400V0Z" />
<glyph unicode="s" glyph-name="s" horiz-adv-x="442" d="M235 448Q166 448 138 430T110 357Q110 328 123 314T166 294L295 274Q356 265 380 238T404 150Q404 67 364 30T232 -7Q175 -7 125 -1T45 16V75Q74 64 122 57T223 50Q289 50 315 71T342 146Q342 182 327
197T270 220L142 240Q94 247 71 275T48 356Q48 434 92 469T232 504Q272 504 303 502T370 494V438Q342 443 308 445T235 448Z" />
<glyph unicode="t" glyph-name="t" horiz-adv-x="369" d="M354 60V7Q336 1 311 -3T261 -7Q173 -7 136 32T99 170V440H21V494H100L111 616H161V494H348V440H161V172Q161 101 186 76T273 50Q293 50 316 53T354 60Z" />
<glyph unicode="u" glyph-name="u" horiz-adv-x="539" d="M231 -7Q150 -7 109 34T68 156V494H130V163Q130 105 159 78T251 51Q288 51 326 61T405 93V494H467V0H411L408 45H407Q356 17 315 5T231 -7Z" />
<glyph unicode="v" glyph-name="v" horiz-adv-x="492" d="M409 494H477L281 0H210L15 494H84L247 57L409 494Z" />
<glyph unicode="w" glyph-name="w" horiz-adv-x="701" d="M611 494H678L540 0H467L346 414L234 0H160L22 494H90L198 60L313 494H378L503 60L611 494Z" />
<glyph unicode="x" glyph-name="x" horiz-adv-x="441" d="M257 257L426 0H356L218 214L81 0H15L184 256L24 494H98L222 298L350 494H417L257 257Z" />
<glyph unicode="y" glyph-name="y" horiz-adv-x="493" d="M113 -106Q150 -106 170 -88T219 6L13 494H82L251 69L411 494H478L268 -40Q241 -110 208 -136T123 -162Q107 -162 91 -161T55 -155V-100Q69 -103 83 -104T113 -106Z" />
<glyph unicode="z" glyph-name="z" horiz-adv-x="426" d="M398 55V0H31V55L311 440H49V494H381V440L102 55H398Z" />
<glyph unicode="{" glyph-name="braceleft" horiz-adv-x="292" d="M83 318V314Q121 307 143 266T166 157V48Q166 1 191 -21T268 -44V-92Q193 -92 153 -56T113 47V157Q113 220 89 256T27 293H15V337H27Q64 337 88 373T113 473V579Q113 646 153 682T268 718V670Q215
670 191 648T166 578V473Q166 407 144 366T83 318Z" />
<glyph unicode="|" glyph-name="bar" horiz-adv-x="206" d="M129 707V-80H77V707H129Z" />
<glyph unicode="}" glyph-name="braceright" horiz-adv-x="292" d="M209 314V318Q171 325 149 366T126 473V578Q126 626 102 648T24 670V718Q99 718 139 682T179 579V473Q179 410 203 374T265 337H277V293H265Q228 293 204 257T179 157V47Q179 -20 139 -56T24
-92V-44Q76 -44 101 -22T126 48V157Q126 224 148 265T209 314Z" />
<glyph unicode="~" glyph-name="asciitilde" horiz-adv-x="644" d="M538 455H596Q596 350 560 291T455 231Q422 231 390 250T305 327Q262 375 240 389T197 403Q152 403 129 361T106 239H48Q48 344 86 403T197 463Q230 463 262 445T347 367Q391 320 412 306T455
292Q495 292 516 335T538 455Z" />
<glyph unicode="&#xa0;" glyph-name="uni00A0" horiz-adv-x="178" />
<glyph unicode="&#xa1;" glyph-name="exclamdown" horiz-adv-x="205" d="M70 494H136V428H70V494ZM129 331L138 -133H67L76 331H129Z" />
<glyph unicode="&#xa2;" glyph-name="cent" horiz-adv-x="446" d="M288 71V-22H234V68Q129 68 88 124T46 323Q46 448 89 507T234 577V666H288V579Q315 579 337 578T397 571V515Q348 521 329 522T285 523Q184 523 146 479T108 323Q108 209 138 167T249 125Q292
125 336 134T410 158V105Q391 94 358 85T288 71Z" />
<glyph unicode="&#xa3;" glyph-name="sterling" horiz-adv-x="499" d="M38 273V329H119V455Q119 546 165 591T305 637Q340 637 372 633T448 619V562Q411 570 379 574T313 578Q246 578 215 547T184 447V329H414V273H184V216Q184 158 166 122T107 64V61H464V0H38V62Q79
85 99 122T119 216V273H38Z" />
<glyph unicode="&#xa4;" glyph-name="currency" horiz-adv-x="648" d="M92 44L52 83L119 150Q92 185 78 227T63 316Q63 362 77 404T119 481L53 547L93 587L159 520Q193 547 234 561T322 575Q369 575 411 561T488 520L554 587L594 547L528 481Q556 447 570 405T585
315Q585 269 571 227T529 152L596 85L556 45L489 112Q455 85 413 71T324 56Q277 56 235 70T159 111L92 44ZM323 520Q236 520 179 463T121 317Q121 228 178 170T324 113Q412 112 469 170T527 317Q527 404 469 461T323 520Z" />
<glyph unicode="&#xa5;" glyph-name="yen" horiz-adv-x="550" d="M63 112V161H244V237H63V286H223L25 627H98L277 306L453 627H521L329 286H490V237H308V161H490V112H308V0H244V112H63Z" />
<glyph unicode="&#xa6;" glyph-name="brokenbar" horiz-adv-x="206" d="M129 707V380H77V707H129ZM129 247V-80H77V247H129Z" />
<glyph unicode="&#xa7;" glyph-name="section" horiz-adv-x="483" d="M251 588Q186 588 158 574T129 527Q129 506 143 493T196 465L371 398Q413 382 431 359T449 299Q449 264 430 232T375 176Q394 163 403 145T412 102Q412 46 369 18T241 -10Q195 -10 156 -5T82
10V60Q116 49 154 44T231 39Q296 39 324 53T353 100Q353 121 339 135T286 162L117 225Q72 242 53 266T34 328Q34 363 53 395T107 451Q88 464 80 482T71 525Q71 580 114 608T241 637Q288 637 328 633T400 618V568Q367 578 329 583T251 588ZM145 270L325 202Q329
201 330 201T333 199Q362 218 378 241T394 288Q394 316 383 330T337 357L157 426Q156 427 154 428T150 429Q119 409 104 387T88 339Q88 312 100 297T145 270Z" />
<glyph unicode="&#xa8;" glyph-name="dieresis" horiz-adv-x="339" d="M289 629V566H225V629H289ZM115 629V566H50V629H115Z" />
<glyph unicode="&#xa9;" glyph-name="copyright" horiz-adv-x="713" d="M665 314Q665 154 587 72T357 -10Q203 -10 126 71T48 314Q48 474 126 555T357 637Q511 637 588 557T665 314ZM618 314Q618 454 554 523T358 592Q226 592 161 523T96 314Q96 174 161 106T358
37Q489 37 553 105T618 314ZM376 186Q399 186 423 191T471 207V158Q450 148 423 143T366 137Q272 137 233 178T193 316Q193 407 237 450T375 494Q396 494 416 492T462 484V437Q441 441 422 443T375 445Q309 445 281 415T253 316Q253 244 280 215T376 186Z" />
<glyph unicode="&#xaa;" glyph-name="ordfeminine" horiz-adv-x="356" d="M290 355H249L248 383H246Q223 367 197 359T145 350Q100 350 79 371T57 436Q57 479 82 498T168 517Q189 517 209 516T246 511V536Q246 569 228 582T172 596Q145 596 125 594T85 588V627Q108
632 130 634T184 637Q238 637 264 614T290 542V355ZM172 483Q132 483 116 473T100 438Q100 412 113 401T157 389Q180 389 205 396T246 415V477Q232 480 214 481T172 483ZM293 262H58V302H293V262Z" />
<glyph unicode="&#xab;" glyph-name="guillemotleft" horiz-adv-x="472" d="M235 64H176L27 281L176 494H235L87 281L235 64ZM438 64H378L229 281L378 494H438L290 281L438 64Z" />
<glyph unicode="&#xac;" glyph-name="logicalnot" horiz-adv-x="500" d="M463 392V137H402V333H37V392H463Z" />
<glyph unicode="&#xad;" glyph-name="uni00AD" horiz-adv-x="434" d="M377 343V293H58V343H377Z" />
<glyph unicode="&#xae;" glyph-name="registered" horiz-adv-x="447" d="M402 454Q402 363 358 317T224 270Q134 270 90 315T45 454Q45 545 90 591T225 637Q314 637 358 592T402 454ZM365 454Q365 529 331 565T225 602Q153 602 119 566T84 454Q84 379 118 343T225
307Q296 307 330 343T365 454ZM189 424V354H153V556H223Q269 556 287 540T306 491Q306 466 295 451T261 428L311 354H266L222 424H189ZM269 491Q269 507 259 515T223 523H189V454H223Q248 454 258 463T269 491Z" />
<glyph unicode="&#xaf;" glyph-name="overscore" horiz-adv-x="341" d="M291 621V571H50V621H291Z" />
<glyph unicode="&#xb0;" glyph-name="degree" horiz-adv-x="350" d="M308 500Q308 439 272 403T175 366Q114 366 78 402T42 500Q42 561 78 597T175 634Q235 634 271 598T308 500ZM85 500Q85 458 109 433T175 408Q216 408 240 433T265 500Q265 541 240 566T175
592Q135 592 110 567T85 500Z" />
<glyph unicode="&#xb1;" glyph-name="plusminus" horiz-adv-x="500" d="M463 441V381H280V219H220V381H37V441H220V601H280V441H463ZM463 130V70H37V130H463Z" />
<glyph unicode="&#xb2;" glyph-name="uni00B2" horiz-adv-x="296" d="M262 317V270H27V317L167 460Q189 483 197 501T206 538Q206 562 191 575T147 588Q123 588 92 584T46 576V620Q71 626 98 629T154 633Q203 633 229 609T256 542Q256 514 245 491T208 440L87 317H262Z" />
<glyph unicode="&#xb3;" glyph-name="uni00B3" horiz-adv-x="297" d="M245 543Q245 511 228 489T181 459V457Q220 455 241 433T262 370Q262 319 229 292T135 265Q101 265 75 268T31 277V319Q53 314 75 312T127 310Q172 310 193 325T215 373Q215 404 196 418T137
433H77V474H124Q159 474 179 490T199 535Q199 563 183 576T133 590Q112 590 85 587T43 579V620Q62 626 88 629T145 633Q194 633 219 610T245 543Z" />
<glyph unicode="&#xb4;" glyph-name="acute" horiz-adv-x="283" d="M152 685H233L109 566H50L152 685Z" />
<glyph unicode="&#xb5;" glyph-name="mu" horiz-adv-x="554" d="M239 -7Q196 -7 170 6T135 44Q135 -34 141 -76T162 -152H99Q85 -117 79 -74T73 60V494H135V163Q135 103 162 77T253 51Q291 51 333 62T416 95V494H478V0H423L419 46Q367 18 324 6T239 -7Z" />
<glyph unicode="&#xb6;" glyph-name="paragraph" horiz-adv-x="485" d="M410 627V4Q410 -76 371 -119T260 -162Q238 -162 221 -161T186 -157V-101Q204 -104 216 -105T241 -106Q298 -106 323 -81T348 4V145Q319 137 288 133T223 128Q118 128 76 184T34 383Q34 521
88 580T273 639Q306 639 336 637T410 627ZM273 579Q172 579 134 536T96 383Q96 270 126 228T237 186Q264 186 293 190T348 202V575Q332 577 314 578T273 579Z" />
<glyph unicode="&#xb7;" glyph-name="middot" horiz-adv-x="183" d="M124 284H60V351H124V284Z" />
<glyph unicode="&#xb8;" glyph-name="cedilla" horiz-adv-x="323" d="M277 -117Q277 -158 251 -176T168 -195Q133 -195 104 -192T60 -183V-142Q75 -147 102 -150T160 -154Q194 -154 207 -146T221 -116Q221 -98 205 -90T152 -82Q145 -82 138 -82T103 -84L123 13L173
9L160 -51Q218 -48 247 -64T277 -117Z" />
<glyph unicode="&#xb9;" glyph-name="uni00B9" horiz-adv-x="242" d="M185 270H135V584L19 570V613L185 633V270Z" />
<glyph unicode="&#xba;" glyph-name="ordmasculine" horiz-adv-x="384" d="M327 493Q327 419 295 385T193 350Q121 350 90 383T59 493Q59 568 91 602T193 637Q265 637 296 604T327 493ZM104 494Q104 436 123 414T193 392Q241 392 261 415T281 494Q281 552 262
574T193 596Q144 596 124 573T104 494ZM319 262H64V302H319V262Z" />
<glyph unicode="&#xbb;" glyph-name="guillemotright" horiz-adv-x="472" d="M445 281L296 64H237L385 281L237 494H296L445 281ZM243 281L94 64H34L182 281L34 494H94L243 281Z" />
<glyph unicode="&#xbc;" glyph-name="onequarter" horiz-adv-x="716" d="M187 270H137V584L21 570V613L187 633V270ZM494 627L194 0H145L445 627H494ZM691 138V94H638V0H589V94H413V138L460 357H507L462 138H590V295H638V138H691Z" />
<glyph unicode="&#xbd;" glyph-name="onehalf" horiz-adv-x="711" d="M187 270H137V584L21 570V613L187 633V270ZM494 627L194 0H145L445 627H494ZM674 47V0H439V47L579 190Q601 213 609 231T618 268Q618 292 603 305T559 318Q535 318 504 314T458 306V350Q483
356 510 359T566 363Q615 363 641 339T668 272Q668 244 657 221T620 170L499 47H674Z" />
<glyph unicode="&#xbe;" glyph-name="threequarters" horiz-adv-x="756" d="M249 543Q249 511 232 489T185 459V457Q224 455 245 433T266 370Q266 319 233 292T139 265Q105 265 79 268T35 277V319Q57 314 79 312T131 310Q176 310 197 325T219 373Q219 404 200
418T141 433H81V474H128Q163 474 183 490T203 535Q203 563 187 576T137 590Q116 590 89 587T47 579V620Q66 626 92 629T149 633Q198 633 223 610T249 543ZM536 627L236 0H187L487 627H536ZM733 138V94H680V0H631V94H455V138L502 357H549L504 138H632V295H680V138H733Z"
/>
<glyph unicode="&#xbf;" glyph-name="questiondown" horiz-adv-x="383" d="M192 428V494H258V428H192ZM199 -143Q118 -143 73 -108T28 -9Q28 51 68 101T195 198V330H253V171Q166 129 128 89T89 4Q89 -39 120 -62T207 -85Q245 -85 286 -78T361 -57V-115Q325 -129
285 -136T199 -143Z" />
<glyph unicode="&#xc0;" glyph-name="Agrave" horiz-adv-x="596" d="M81 0H13L265 627H332L583 0H514L450 165H146L81 0ZM297 570Q289 545 279 515T246 422L168 222H428L350 422Q335 461 322 498T297 570ZM301 681L178 790H259L359 681H301Z" />
<glyph unicode="&#xc1;" glyph-name="Aacute" horiz-adv-x="596" d="M81 0H13L265 627H332L583 0H514L450 165H146L81 0ZM297 570Q289 545 279 515T246 422L168 222H428L350 422Q335 461 322 498T297 570ZM336 790H417L295 681H236L336 790Z" />
<glyph unicode="&#xc2;" glyph-name="Acircumflex" horiz-adv-x="596" d="M81 0H13L265 627H332L583 0H514L450 165H146L81 0ZM297 570Q289 545 279 515T246 422L168 222H428L350 422Q335 461 322 498T297 570ZM453 681H395L298 751L202 681H143L266 790H331L453 681Z" />
<glyph unicode="&#xc3;" glyph-name="Atilde" horiz-adv-x="596" d="M81 0H13L265 627H332L583 0H514L450 165H146L81 0ZM297 570Q289 545 279 515T246 422L168 222H428L350 422Q335 461 322 498T297 570ZM399 778H443Q443 731 423 704T365 677Q347 677 331 684T288
712Q268 728 258 733T238 738Q218 738 207 723T196 681H152Q152 728 173 755T233 782Q250 782 267 775T311 746Q330 730 340 726T359 721Q378 721 388 736T399 778Z" />
<glyph unicode="&#xc4;" glyph-name="Adieresis" horiz-adv-x="596" d="M81 0H13L265 627H332L583 0H514L450 165H146L81 0ZM297 570Q289 545 279 515T246 422L168 222H428L350 422Q335 461 322 498T297 570ZM417 740V681H353V740H417ZM243 740V681H178V740H243Z" />
<glyph unicode="&#xc5;" glyph-name="Aring" horiz-adv-x="596" d="M81 0H13L265 627H332L583 0H514L450 165H146L81 0ZM297 570Q289 545 279 515T246 422L168 222H428L350 422Q335 461 322 498T297 570ZM409 755Q409 719 379 697T298 675Q248 675 219 697T189
755Q189 790 218 811T298 832Q349 832 379 811T409 755ZM230 755Q230 734 248 723T298 711Q332 711 350 722T369 755Q369 775 350 786T298 797Q266 797 248 786T230 755Z" />
<glyph unicode="&#xc6;" glyph-name="AE" horiz-adv-x="742" d="M81 0H13L255 627H695V568H345L427 350H658V293H449L536 61H704V0H494L431 165H144L81 0ZM287 567Q273 520 262 484T242 422L165 221H410L334 422Q322 453 310 490T287 567Z" />
<glyph unicode="&#xc7;" glyph-name="Ccedilla" horiz-adv-x="523" d="M430 -117Q430 -158 404 -176T321 -195Q286 -195 257 -192T213 -183V-142Q228 -147 255 -150T313 -154Q347 -154 360 -146T374 -116Q374 -98 358 -90T305 -82Q298 -82 291 -82T256 -84L272
-6Q153 3 102 78T50 315Q50 482 117 559T333 637Q379 637 415 635T480 628V570Q446 574 411 576T333 578Q214 578 165 518T116 315Q116 169 160 111T323 53Q364 53 408 63T494 90V32Q441 11 402 3T323 -7L313 -51Q371 -48 400 -64T430 -117Z" />
<glyph unicode="&#xc8;" glyph-name="Egrave" horiz-adv-x="528" d="M490 61V0H79V627H481V568H143V350H444V293H143V61H490ZM291 681L168 790H249L349 681H291Z" />
<glyph unicode="&#xc9;" glyph-name="Eacute" horiz-adv-x="528" d="M490 61V0H79V627H481V568H143V350H444V293H143V61H490ZM326 790H407L285 681H226L326 790Z" />
<glyph unicode="&#xca;" glyph-name="Ecircumflex" horiz-adv-x="528" d="M490 61V0H79V627H481V568H143V350H444V293H143V61H490ZM443 681H385L288 751L192 681H133L256 790H321L443 681Z" />
<glyph unicode="&#xcb;" glyph-name="Edieresis" horiz-adv-x="528" d="M490 61V0H79V627H481V568H143V350H444V293H143V61H490ZM407 740V681H343V740H407ZM233 740V681H168V740H233Z" />
<glyph unicode="&#xcc;" glyph-name="Igrave" horiz-adv-x="222" d="M143 627V0H79V627H143ZM371 681L248 790H329L429 681H371Z" />
<glyph unicode="&#xcd;" glyph-name="Iacute" horiz-adv-x="222" d="M143 627V0H79V627H143ZM150 790H231L109 681H50L150 790Z" />
<glyph unicode="&#xce;" glyph-name="Icircumflex" horiz-adv-x="222" d="M143 627V0H79V627H143ZM523 681H465L368 751L272 681H213L336 790H401L523 681Z" />
<glyph unicode="&#xcf;" glyph-name="Idieresis" horiz-adv-x="222" d="M143 627V0H79V627H143ZM487 740V681H423V740H487ZM313 740V681H248V740H313Z" />
<glyph unicode="&#xd0;" glyph-name="Eth" horiz-adv-x="623" d="M23 297V345H93V627H264Q361 627 417 612T508 561Q541 526 556 467T572 314Q572 151 499 76T264 0H93V297H23ZM334 345V297H157V61H264Q397 61 451 119T506 314Q506 391 495 438T459 514Q433 543
388 555T264 568H157V345H334Z" />
<glyph unicode="&#xd1;" glyph-name="Ntilde" horiz-adv-x="662" d="M583 627V0H515L140 525V0H79V627H147L522 97V627H583ZM437 778H481Q481 731 461 704T403 677Q385 677 369 684T326 712Q306 728 296 733T276 738Q256 738 245 723T234 681H190Q190 728 211
755T271 782Q288 782 305 775T349 746Q368 730 378 726T397 721Q416 721 426 736T437 778Z" />
<glyph unicode="&#xd2;" glyph-name="Ograve" horiz-adv-x="653" d="M602 315Q602 145 538 69T327 -7Q168 -7 110 63T51 315Q51 485 115 561T327 637Q485 637 543 567T602 315ZM149 119Q171 84 211 69T327 53Q445 53 491 112T537 315Q537 388 529 435T504 511Q483
547 444 562T327 578Q208 578 162 519T116 315Q116 242 124 195T149 119ZM330 691L207 800H288L388 691H330Z" />
<glyph unicode="&#xd3;" glyph-name="Oacute" horiz-adv-x="653" d="M602 315Q602 145 538 69T327 -7Q168 -7 110 63T51 315Q51 485 115 561T327 637Q485 637 543 567T602 315ZM149 119Q171 84 211 69T327 53Q445 53 491 112T537 315Q537 388 529 435T504 511Q483
547 444 562T327 578Q208 578 162 519T116 315Q116 242 124 195T149 119ZM366 800H447L325 691H266L366 800Z" />
<glyph unicode="&#xd4;" glyph-name="Ocircumflex" horiz-adv-x="653" d="M602 315Q602 145 538 69T327 -7Q168 -7 110 63T51 315Q51 485 115 561T327 637Q485 637 543 567T602 315ZM149 119Q171 84 211 69T327 53Q445 53 491 112T537 315Q537 388 529 435T504
511Q483 547 444 562T327 578Q208 578 162 519T116 315Q116 242 124 195T149 119ZM482 691H424L327 761L231 691H172L295 800H360L482 691Z" />
<glyph unicode="&#xd5;" glyph-name="Otilde" horiz-adv-x="653" d="M602 315Q602 145 538 69T327 -7Q168 -7 110 63T51 315Q51 485 115 561T327 637Q485 637 543 567T602 315ZM149 119Q171 84 211 69T327 53Q445 53 491 112T537 315Q537 388 529 435T504 511Q483
547 444 562T327 578Q208 578 162 519T116 315Q116 242 124 195T149 119ZM428 788H472Q472 741 452 714T394 687Q376 687 360 694T317 722Q297 738 287 743T267 748Q247 748 236 733T225 691H181Q181 738 202 765T262 792Q279 792 296 785T340 756Q359 740 369
736T388 731Q407 731 417 746T428 788Z" />
<glyph unicode="&#xd6;" glyph-name="Odieresis" horiz-adv-x="653" d="M602 315Q602 145 538 69T327 -7Q168 -7 110 63T51 315Q51 485 115 561T327 637Q485 637 543 567T602 315ZM149 119Q171 84 211 69T327 53Q445 53 491 112T537 315Q537 388 529 435T504 511Q483
547 444 562T327 578Q208 578 162 519T116 315Q116 242 124 195T149 119ZM447 750V691H383V750H447ZM273 750V691H208V750H273Z" />
<glyph unicode="&#xd7;" glyph-name="multiply" horiz-adv-x="500" d="M47 484L89 526L251 365L414 528L456 486L293 323L456 159L414 117L251 281L86 116L44 158L209 323L47 484Z" />
<glyph unicode="&#xd8;" glyph-name="Oslash" horiz-adv-x="653" d="M95 -51L56 -26L114 59Q81 94 66 156T51 315Q51 485 115 561T327 637Q382 637 422 630T492 608L549 691L587 667L529 582Q567 547 584 483T602 315Q602 145 538 69T327 -7Q266 -7 223 2T150
29L95 -51ZM327 578Q208 578 162 519T116 315Q116 241 124 193T152 115L456 557Q435 568 404 573T327 578ZM327 53Q445 53 491 112T537 315Q537 399 527 450T492 529L185 81Q208 66 241 60T327 53Z" />
<glyph unicode="&#xd9;" glyph-name="Ugrave" horiz-adv-x="637" d="M499 246V627H563V246Q563 115 503 54T316 -7Q189 -7 131 53T73 246V627H137V246Q137 140 178 97T316 53Q416 53 457 96T499 246ZM318 681L195 790H276L376 681H318Z" />
<glyph unicode="&#xda;" glyph-name="Uacute" horiz-adv-x="637" d="M499 246V627H563V246Q563 115 503 54T316 -7Q189 -7 131 53T73 246V627H137V246Q137 140 178 97T316 53Q416 53 457 96T499 246ZM353 790H434L312 681H253L353 790Z" />
<glyph unicode="&#xdb;" glyph-name="Ucircumflex" horiz-adv-x="637" d="M499 246V627H563V246Q563 115 503 54T316 -7Q189 -7 131 53T73 246V627H137V246Q137 140 178 97T316 53Q416 53 457 96T499 246ZM470 681H412L315 751L219 681H160L283 790H348L470 681Z" />
<glyph unicode="&#xdc;" glyph-name="Udieresis" horiz-adv-x="637" d="M499 246V627H563V246Q563 115 503 54T316 -7Q189 -7 131 53T73 246V627H137V246Q137 140 178 97T316 53Q416 53 457 96T499 246ZM434 740V681H370V740H434ZM260 740V681H195V740H260Z" />
<glyph unicode="&#xdd;" glyph-name="Yacute" horiz-adv-x="571" d="M489 627H556L319 241V0H254V241L11 627H84L288 299L489 627ZM326 790H407L285 681H226L326 790Z" />
<glyph unicode="&#xde;" glyph-name="Thorn" horiz-adv-x="575" d="M143 109V0H79V627H143V524H287Q417 524 473 477T530 324Q530 215 471 162T290 109H143ZM465 324Q465 400 424 433T287 466H143V166H287Q380 166 422 204T465 324Z" />
<glyph unicode="&#xdf;" glyph-name="germandbls" horiz-adv-x="587" d="M266 677Q359 677 403 645T448 542Q448 522 444 498T430 445L397 337L456 318Q506 301 525 270T544 175Q544 80 504 35T373 -10Q338 -10 308 -7T256 3V60Q280 54 306 51T366 48Q432 48 458
77T485 175Q485 217 473 238T425 270L329 299L370 448Q379 477 382 495T386 530Q386 577 357 599T266 621Q194 621 164 592T134 490V0H72V491Q72 589 118 633T266 677Z" />
<glyph unicode="&#xe0;" glyph-name="agrave" horiz-adv-x="495" d="M183 -7Q107 -7 72 29T36 143Q36 221 79 254T225 287Q262 287 297 284T365 275V327Q365 393 335 420T237 448Q191 448 157 444T86 431V486Q128 496 166 500T256 504Q344 504 385 463T427 332V0H371L368
49H366Q335 24 285 9T183 -7ZM232 236Q156 236 126 216T95 147Q95 95 120 72T201 49Q246 49 291 62T365 96V224Q332 230 300 233T232 236ZM250 566L125 685H206L308 566H250Z" />
<glyph unicode="&#xe1;" glyph-name="aacute" horiz-adv-x="495" d="M183 -7Q107 -7 72 29T36 143Q36 221 79 254T225 287Q262 287 297 284T365 275V327Q365 393 335 420T237 448Q191 448 157 444T86 431V486Q128 496 166 500T256 504Q344 504 385 463T427 332V0H371L368
49H366Q335 24 285 9T183 -7ZM232 236Q156 236 126 216T95 147Q95 95 120 72T201 49Q246 49 291 62T365 96V224Q332 230 300 233T232 236ZM287 685H368L244 566H185L287 685Z" />
<glyph unicode="&#xe2;" glyph-name="acircumflex" horiz-adv-x="495" d="M183 -7Q107 -7 72 29T36 143Q36 221 79 254T225 287Q262 287 297 284T365 275V327Q365 393 335 420T237 448Q191 448 157 444T86 431V486Q128 496 166 500T256 504Q344 504 385 463T427
332V0H371L368 49H366Q335 24 285 9T183 -7ZM232 236Q156 236 126 216T95 147Q95 95 120 72T201 49Q246 49 291 62T365 96V224Q332 230 300 233T232 236ZM402 566H344L247 646L151 566H92L215 685H280L402 566Z" />
<glyph unicode="&#xe3;" glyph-name="atilde" horiz-adv-x="495" d="M183 -7Q107 -7 72 29T36 143Q36 221 79 254T225 287Q262 287 297 284T365 275V327Q365 393 335 420T237 448Q191 448 157 444T86 431V486Q128 496 166 500T256 504Q344 504 385 463T427 332V0H371L368
49H366Q335 24 285 9T183 -7ZM232 236Q156 236 126 216T95 147Q95 95 120 72T201 49Q246 49 291 62T365 96V224Q332 230 300 233T232 236ZM348 682H392Q392 626 372 594T314 562Q296 562 279 571T235 608Q215 629 205 635T186 641Q166 641 156 622T145 566H101Q101
622 122 654T182 686Q200 686 217 677T261 641Q281 620 291 614T310 608Q329 608 338 626T348 682Z" />
<glyph unicode="&#xe4;" glyph-name="adieresis" horiz-adv-x="495" d="M183 -7Q107 -7 72 29T36 143Q36 221 79 254T225 287Q262 287 297 284T365 275V327Q365 393 335 420T237 448Q191 448 157 444T86 431V486Q128 496 166 500T256 504Q344 504 385 463T427
332V0H371L368 49H366Q335 24 285 9T183 -7ZM232 236Q156 236 126 216T95 147Q95 95 120 72T201 49Q246 49 291 62T365 96V224Q332 230 300 233T232 236ZM366 629V566H302V629H366ZM192 629V566H127V629H192Z" />
<glyph unicode="&#xe5;" glyph-name="aring" horiz-adv-x="495" d="M183 -7Q107 -7 72 29T36 143Q36 221 79 254T225 287Q262 287 297 284T365 275V327Q365 393 335 420T237 448Q191 448 157 444T86 431V486Q128 496 166 500T256 504Q344 504 385 463T427 332V0H371L368
49H366Q335 24 285 9T183 -7ZM232 236Q156 236 126 216T95 147Q95 95 120 72T201 49Q246 49 291 62T365 96V224Q332 230 300 233T232 236ZM358 635Q358 593 328 568T247 543Q197 543 168 568T138 635Q138 675 167 699T247 724Q298 724 328 700T358 635ZM179 635Q179
610 197 596T247 582Q281 582 299 596T318 635Q318 659 300 672T247 686Q215 686 197 673T179 635Z" />
<glyph unicode="&#xe6;" glyph-name="ae" horiz-adv-x="777" d="M183 -7Q107 -7 72 28T36 139Q36 215 77 247T220 279H347V327Q347 392 319 420T229 448Q188 448 156 444T86 431V486Q126 496 162 500T247 504Q302 504 336 485T385 425Q409 465 450 484T549 504Q645
504 688 456T731 299Q731 277 730 261T727 228H407Q408 133 442 92T558 50Q597 50 640 59T710 80V27Q685 13 639 3T548 -7Q487 -7 447 11T384 67Q345 31 293 12T183 -7ZM674 307Q673 383 644 415T549 448Q472 448 440 409T407 279H673Q674 283 674 288T674 307ZM95
142Q95 93 119 71T200 49Q245 49 288 65T365 110Q357 131 353 160T347 228H223Q151 228 123 209T95 142Z" />
<glyph unicode="&#xe7;" glyph-name="ccedilla" horiz-adv-x="444" d="M375 -117Q375 -158 349 -176T266 -195Q231 -195 202 -192T158 -183V-142Q173 -147 200 -150T258 -154Q292 -154 305 -146T319 -116Q319 -98 303 -90T250 -82Q243 -82 236 -82T201 -84L217
-6Q124 -2 87 55T49 248Q49 386 103 445T288 504Q317 504 340 503T400 496V440Q351 446 332 447T288 448Q187 448 149 404T111 248Q111 134 141 92T252 50Q295 50 339 59T413 83V30Q391 17 352 7T268 -6L258 -51Q316 -48 345 -64T375 -117Z" />
<glyph unicode="&#xe8;" glyph-name="egrave" horiz-adv-x="500" d="M434 80V27Q407 13 359 3T261 -7Q147 -7 98 53T48 251Q48 384 98 444T262 504Q365 504 410 456T455 299Q455 282 454 266T450 228H111Q112 133 148 92T271 50Q313 50 358 58T434 80ZM398 307Q397
383 365 415T262 448Q180 448 146 410T111 281H396Q397 287 397 293T398 307ZM266 566L141 685H222L324 566H266Z" />
<glyph unicode="&#xe9;" glyph-name="eacute" horiz-adv-x="500" d="M434 80V27Q407 13 359 3T261 -7Q147 -7 98 53T48 251Q48 384 98 444T262 504Q365 504 410 456T455 299Q455 282 454 266T450 228H111Q112 133 148 92T271 50Q313 50 358 58T434 80ZM398 307Q397
383 365 415T262 448Q180 448 146 410T111 281H396Q397 287 397 293T398 307ZM303 685H384L260 566H201L303 685Z" />
<glyph unicode="&#xea;" glyph-name="ecircumflex" horiz-adv-x="500" d="M434 80V27Q407 13 359 3T261 -7Q147 -7 98 53T48 251Q48 384 98 444T262 504Q365 504 410 456T455 299Q455 282 454 266T450 228H111Q112 133 148 92T271 50Q313 50 358 58T434 80ZM398
307Q397 383 365 415T262 448Q180 448 146 410T111 281H396Q397 287 397 293T398 307ZM418 566H360L263 646L167 566H108L231 685H296L418 566Z" />
<glyph unicode="&#xeb;" glyph-name="edieresis" horiz-adv-x="500" d="M434 80V27Q407 13 359 3T261 -7Q147 -7 98 53T48 251Q48 384 98 444T262 504Q365 504 410 456T455 299Q455 282 454 266T450 228H111Q112 133 148 92T271 50Q313 50 358 58T434 80ZM398
307Q397 383 365 415T262 448Q180 448 146 410T111 281H396Q397 287 397 293T398 307ZM382 629V566H318V629H382ZM208 629V566H143V629H208Z" />
<glyph unicode="&#xec;" glyph-name="igrave" horiz-adv-x="206" d="M134 0H72V494H134V0ZM362 812L237 931H318L420 812H362Z" />
<glyph unicode="&#xed;" glyph-name="iacute" horiz-adv-x="206" d="M134 0H72V494H134V0ZM399 931H480L356 812H297L399 931Z" />
<glyph unicode="&#xee;" glyph-name="icircumflex" horiz-adv-x="206" d="M134 0H72V494H134V0ZM514 812H456L359 892L263 812H204L327 931H392L514 812Z" />
<glyph unicode="&#xef;" glyph-name="idieresis" horiz-adv-x="206" d="M134 0H72V494H134V0ZM478 875V812H414V875H478ZM304 875V812H239V875H304Z" />
<glyph unicode="&#xf0;" glyph-name="eth" horiz-adv-x="552" d="M497 244Q497 106 447 50T274 -7Q145 -7 97 47T49 244Q49 382 99 438T274 495Q316 495 348 489T404 471Q393 500 379 525T349 574L164 531V571L323 608Q311 623 298 637T269 665H341Q357 648 365
639T380 621L482 645V605L407 587Q455 519 476 438T497 244ZM111 244Q111 127 143 89T274 50Q367 50 401 91T435 244Q435 361 403 399T274 438Q179 438 145 398T111 244Z" />
<glyph unicode="&#xf1;" glyph-name="ntilde" horiz-adv-x="553" d="M134 0H72V494H125L129 446H132Q176 476 221 490T319 504Q401 504 443 463T485 342V0H423V335Q423 392 392 420T297 448Q258 448 217 436T134 398V0ZM379 682H423Q423 626 403 594T345 562Q327
562 310 571T266 608Q246 629 236 635T217 641Q197 641 187 622T176 566H132Q132 622 153 654T213 686Q231 686 248 677T292 641Q312 620 322 614T341 608Q360 608 369 626T379 682Z" />
<glyph unicode="&#xf2;" glyph-name="ograve" horiz-adv-x="547" d="M497 248Q497 108 447 51T274 -7Q145 -7 97 47T49 248Q49 389 99 446T274 504Q402 504 449 450T497 248ZM111 249Q111 129 143 90T274 50Q368 50 401 92T435 249Q435 369 403 408T274 448Q179
448 145 407T111 249ZM277 566L152 685H233L335 566H277Z" />
<glyph unicode="&#xf3;" glyph-name="oacute" horiz-adv-x="547" d="M497 248Q497 108 447 51T274 -7Q145 -7 97 47T49 248Q49 389 99 446T274 504Q402 504 449 450T497 248ZM111 249Q111 129 143 90T274 50Q368 50 401 92T435 249Q435 369 403 408T274 448Q179
448 145 407T111 249ZM314 685H395L271 566H212L314 685Z" />
<glyph unicode="&#xf4;" glyph-name="ocircumflex" horiz-adv-x="547" d="M497 248Q497 108 447 51T274 -7Q145 -7 97 47T49 248Q49 389 99 446T274 504Q402 504 449 450T497 248ZM111 249Q111 129 143 90T274 50Q368 50 401 92T435 249Q435 369 403 408T274 448Q179
448 145 407T111 249ZM429 566H371L274 646L178 566H119L242 685H307L429 566Z" />
<glyph unicode="&#xf5;" glyph-name="otilde" horiz-adv-x="547" d="M497 248Q497 108 447 51T274 -7Q145 -7 97 47T49 248Q49 389 99 446T274 504Q402 504 449 450T497 248ZM111 249Q111 129 143 90T274 50Q368 50 401 92T435 249Q435 369 403 408T274 448Q179
448 145 407T111 249ZM375 682H419Q419 626 399 594T341 562Q323 562 306 571T262 608Q242 629 232 635T213 641Q193 641 183 622T172 566H128Q128 622 149 654T209 686Q227 686 244 677T288 641Q308 620 318 614T337 608Q356 608 365 626T375 682Z" />
<glyph unicode="&#xf6;" glyph-name="odieresis" horiz-adv-x="547" d="M497 248Q497 108 447 51T274 -7Q145 -7 97 47T49 248Q49 389 99 446T274 504Q402 504 449 450T497 248ZM111 249Q111 129 143 90T274 50Q368 50 401 92T435 249Q435 369 403 408T274 448Q179
448 145 407T111 249ZM393 629V566H329V629H393ZM219 629V566H154V629H219Z" />
<glyph unicode="&#xf7;" glyph-name="divide" horiz-adv-x="500" d="M463 352V292H37V352H463ZM286 98H222V165H286V98ZM286 476H222V543H286V476Z" />
<glyph unicode="&#xf8;" glyph-name="oslash" horiz-adv-x="547" d="M89 -61L52 -36L104 41Q75 68 62 117T49 248Q49 389 99 446T274 504Q318 504 351 499T408 481L459 554L496 528L445 454Q472 426 484 377T497 248Q497 108 447 51T274 -7Q229 -7 197 -2T142
15L89 -61ZM274 448Q179 448 145 407T111 249Q111 187 118 150T142 92L376 431Q359 440 334 444T274 448ZM274 50Q368 50 401 92T435 249Q435 309 429 345T407 402L175 65Q192 57 215 54T274 50Z" />
<glyph unicode="&#xf9;" glyph-name="ugrave" horiz-adv-x="539" d="M231 -7Q150 -7 109 34T68 156V494H130V163Q130 105 159 78T251 51Q288 51 326 61T405 93V494H467V0H411L408 45H407Q356 17 315 5T231 -7ZM272 812L147 931H228L330 812H272Z" />
<glyph unicode="&#xfa;" glyph-name="uacute" horiz-adv-x="539" d="M231 -7Q150 -7 109 34T68 156V494H130V163Q130 105 159 78T251 51Q288 51 326 61T405 93V494H467V0H411L408 45H407Q356 17 315 5T231 -7ZM309 675H390L266 556H207L309 675Z" />
<glyph unicode="&#xfb;" glyph-name="ucircumflex" horiz-adv-x="539" d="M231 -7Q150 -7 109 34T68 156V494H130V163Q130 105 159 78T251 51Q288 51 326 61T405 93V494H467V0H411L408 45H407Q356 17 315 5T231 -7ZM424 812H366L269 892L173 812H114L237 931H302L424
812Z" />
<glyph unicode="&#xfc;" glyph-name="udieresis" horiz-adv-x="539" d="M231 -7Q150 -7 109 34T68 156V494H130V163Q130 105 159 78T251 51Q288 51 326 61T405 93V494H467V0H411L408 45H407Q356 17 315 5T231 -7ZM388 875V812H324V875H388ZM214 875V812H149V875H214Z" />
<glyph unicode="&#xfd;" glyph-name="yacute" horiz-adv-x="493" d="M113 -106Q150 -106 170 -88T219 6L13 494H82L251 69L411 494H478L268 -40Q241 -110 208 -136T123 -162Q107 -162 91 -161T55 -155V-100Q69 -103 83 -104T113 -106ZM292 675H373L249 556H190L292 675Z" />
<glyph unicode="&#xfe;" glyph-name="thorn" horiz-adv-x="542" d="M134 -152H72V665H134V452Q166 478 209 491T303 504Q405 504 449 444T494 248Q494 112 441 53T262 -7Q223 -7 191 -2T134 15V-152ZM432 248Q432 358 400 403T282 448Q241 448 204 437T134 403V73Q159
61 189 56T255 50Q357 50 394 93T432 248Z" />
<glyph unicode="&#xff;" glyph-name="ydieresis" horiz-adv-x="493" d="M113 -106Q150 -106 170 -88T219 6L13 494H82L251 69L411 494H478L268 -40Q241 -110 208 -136T123 -162Q107 -162 91 -161T55 -155V-100Q69 -103 83 -104T113 -106ZM371 875V812H307V875H371ZM197
875V812H132V875H197Z" />
<glyph unicode="&#x2013;" glyph-name="endash" horiz-adv-x="524" d="M467 343V293H58V343H467Z" />
<glyph unicode="&#x2014;" glyph-name="emdash" horiz-adv-x="804" d="M747 343V293H58V343H747Z" />
<glyph unicode="&#x2018;" glyph-name="quoteleft" horiz-adv-x="164" d="M45 452L68 600Q71 614 78 620T98 627H113L106 452H45Z" />
<glyph unicode="&#x2019;" glyph-name="quoteright" horiz-adv-x="160" d="M120 627L97 479Q94 465 87 459T67 452H52L59 627H120Z" />
<glyph unicode="&#x201a;" glyph-name="quotesinglbase" horiz-adv-x="158" d="M112 58L89 -90Q86 -104 79 -110T59 -117H44L51 58H112Z" />
<glyph unicode="&#x201c;" glyph-name="quotedblleft" horiz-adv-x="317" d="M45 452L68 600Q71 614 78 620T98 627H113L106 452H45ZM198 452L221 600Q224 614 231 620T251 627H266L259 452H198Z" />
<glyph unicode="&#x201d;" glyph-name="quotedblright" horiz-adv-x="313" d="M273 627L250 479Q247 465 240 459T220 452H205L212 627H273ZM120 627L97 479Q94 465 87 459T67 452H52L59 627H120Z" />
<glyph unicode="&#x201e;" glyph-name="quotedblbase" horiz-adv-x="311" d="M265 58L242 -90Q239 -104 232 -110T212 -117H197L204 58H265ZM112 58L89 -90Q86 -104 79 -110T59 -117H44L51 58H112Z" />
<glyph unicode="&#x2022;" glyph-name="bullet" horiz-adv-x="280" d="M201 269H83V372H201V269Z" />
<glyph unicode="&#x2039;" glyph-name="guilsinglleft" horiz-adv-x="276" d="M242 64H176L27 281L176 494H242L94 281L242 64Z" />
<glyph unicode="&#x203a;" glyph-name="guilsinglright" horiz-adv-x="276" d="M249 281L100 64H34L182 281L34 494H100L249 281Z" />
</font>
</defs>
</svg>
